<?xml version="1.0" encoding="UTF-8"?>
<svg id="Layer_2" data-name="Layer 2" xmlns="http://www.w3.org/2000/svg" viewBox="0 0 512.5 123.39">
  <defs>
    <style>
      .cls-1 {
        font-family: Bliss2-Bold, 'Bliss 2';
        font-size: 99.47px;
        font-weight: 700;
      }

      .cls-1, .cls-2 {
        fill: #0033a1;
      }

      .cls-3 {
        fill: none;
        stroke: #0033a1;
        stroke-miterlimit: 10;
      }

      .cls-4 {
        fill: #24b7c9;
      }

      .cls-4, .cls-5, .cls-2 {
        stroke-width: 0px;
      }

      .cls-5 {
        fill: #009aa8;
      }
    </style>
  </defs>
  <g id="Layer_1-2" data-name="Layer 1">
    <g>
      <g>
        <path className="cls-5" d="m156.33,28.31c-3.88,0-7.17,2.41-8.42,5.79l-22.05,58.76c-1.25,3.37-4.55,5.79-8.42,5.79h31.82c3.88,0,7.17-2.41,8.42-5.79l22.05-58.76c1.25-3.37,4.55-5.79,8.42-5.79h-31.82Z"/>
        <path className="cls-2" d="m188.15,28.31c3.88,0,7.17,2.41,8.42,5.79l22.05,58.76c1.25,3.37,4.55,5.79,8.42,5.79h-31.82c-3.88,0-7.17-2.41-8.42-5.79l-22.05-58.76c-1.25-3.37-4.55-5.79-8.42-5.79h31.82Z"/>
        <path className="cls-4" d="m64.39,98.65h7.07s.06,0,.09,0c-1.31-.02-2.61-.23-3.85-.62-1.02.4-2.14.62-3.31.62Z"/>
        <path className="cls-2" d="m40.99,92.87l11.02-29.38-7.92-21.11H12.27l18.94,50.48c.85,2.28,2.63,4.12,4.89,5.07,2.26-.95,4.04-2.79,4.89-5.07Z"/>
        <path className="cls-5" d="m73.82,71.43s-4.09-4.06-4.09-7.28c0-2.24,1.83-4.06,4.09-4.06s4.09,1.82,4.09,4.06c0,3.22-4.09,7.28-4.09,7.28Zm29.47-43.11h-24.76c-3.88,0-7.17,2.41-8.42,5.79l-14.56,38.81-7.49,19.96c-.08.21-.16.42-.26.62-1.41,3.04-4.53,5.17-8.16,5.17h0s0,0,0,0h24.76s0,0,0,0h7.06-.07c-1.26-.04-2.51-.25-3.69-.62-4.46-1.41-8.04-5.13-8.04-10.05,0-.34.01-.66.03-.97,0-.14.02-.28.03-.42.01-.16.03-.31.04-.46.02-.18.04-.35.07-.52.01-.09.03-.18.05-.27.03-.2.07-.39.11-.58h0c.88-3.87,3.51-6.14,8-9.18-2.83-3.52-4.85-6.45-4.85-9.81,0-6.12,4.96-9.32,10.57-9.32,6.74,0,9.75,2.93,10.38,6.35.09.48.13.96.13,1.45,0,2.88-1.17,4.91-3.26,6.89-1.29,1.22-2.92,2.41-4.85,3.78l2.35,2.88,4.84,5.93,18.63-49.64c1.25-3.37,4.55-5.79,8.42-5.79h-7.07Zm-32.63,50.57c-2.19,1.44-3.67,3.92-3.67,6.68,0,3.59,2.42,6.62,5.72,7.58.71.2,1.45.32,2.22.32,2.16,0,4.14-.89,5.6-2.31l-4.82-5.99-5.05-6.28Z"/>
        <path className="cls-2" d="m110.36,28.31c3.88,0,7.17,2.41,8.42,5.79l22.05,58.76c1.25,3.37,4.55,5.79,8.42,5.79h-31.82c-3.88,0-7.17-2.41-8.42-5.79l-22.05-58.76c-1.25-3.37-4.55-5.79-8.42-5.79h31.82Z"/>
        <path className="cls-2" d="m30.22,5.41s-.87-2.8-3.17-4.2c-1.2-.73-2.59-1.2-4.1-1.2-1.32,0-2.38.34-3.63.92-.05.02-19.32,8.76-19.32,8.76l6.99,18.63h31.82L30.22,5.41Z"/>
      </g>
      <line className="cls-3" x1="263.43" x2="263.43" y2="99.89"/>
      <text className="cls-1" transform="translate(292.54 99.52)"><tspan x="0" y="0">Bank</tspan></text>
    </g>
  </g>
</svg>