<?xml version="1.0" standalone="no"?>
<!DOCTYPE svg PUBLIC "-//W3C//DTD SVG 1.1//EN" "http://www.w3.org/Graphics/SVG/1.1/DTD/svg11.dtd" >
<svg xmlns="http://www.w3.org/2000/svg" xmlns:xlink="http://www.w3.org/1999/xlink" version="1.1">
<metadata>
Created by FontForge 20190801 at Mon Jan 24 20:59:37 2005
 By root
Copyright (c) JT Types Ltd., 1996-2004. All rights reserved.
</metadata>
<defs>
<font id="Bliss2-HeavyItalic" horiz-adv-x="400" >
  <font-face 
    font-family="Bliss 2 Heavy"
    font-weight="900"
    font-style="italic"
    font-stretch="normal"
    units-per-em="1000"
    panose-1="2 0 5 6 4 0 0 9 0 4"
    ascent="800"
    descent="-200"
    x-height="473"
    cap-height="659"
    bbox="-209 -238 1241 953"
    underline-thickness="50"
    underline-position="-150"
    slope="-12"
    stemh="123"
    stemv="162"
    unicode-range="U+0020-FB02"
  />
<missing-glyph horiz-adv-x="550" 
d="M50 0v659h450v-659h-450zM101 48h348v563h-348v-563zM231 222c-20 20 -29 38 -29 60c0 76 130 98 130 172c0 29 -23 47 -55 47c-31 0 -58 -15 -85 -39l-27 35c29 30 70 51 117 51c65 0 106 -38 106 -91c0 -91 -132 -129 -132 -172c0 -16 9 -26 17 -35zM255 107
c-22 0 -38 17 -38 39c0 23 16 40 38 40c21 0 37 -17 37 -40c0 -22 -16 -39 -37 -39z" />
    <glyph glyph-name="fi" unicode="fi" horiz-adv-x="627" 
d="M348 0l105 473h151l-105 -473h-151zM549 529c-51 0 -84 36 -84 79c0 59 47 94 96 94c51 0 84 -35 84 -78c0 -59 -47 -95 -96 -95zM0 -221l-100 93c146 147 162 259 193 485h-91l19 116h87l8 48c7 43 23 81 47 112c37 47 92 75 162 75c43 0 84 -8 129 -35l-50 -116
c-22 13 -45 21 -67 21c-40 0 -62 -22 -71 -75l-5 -30h120l-41 -116h-98c-32 -224 -56 -426 -242 -578z" />
    <glyph glyph-name="fl" unicode="fl" horiz-adv-x="685" 
d="M0 -221l-100 93c146 147 162 259 193 485h-91l19 116h87l8 48c7 43 23 81 47 112c37 47 92 75 162 75c43 0 84 -8 129 -35l-50 -116c-22 13 -45 21 -67 21c-40 0 -62 -22 -71 -75l-5 -30h120l-41 -116h-98c-32 -224 -56 -426 -242 -578zM514 -8c-77 0 -136 42 -136 122
c0 16 2 34 8 62l118 532h151l-117 -523c-3 -15 -5 -23 -5 -35c0 -19 11 -28 32 -28c10 0 23 1 36 5v-120c-29 -10 -55 -15 -87 -15z" />
    <glyph glyph-name=".notdef" horiz-adv-x="550" 
d="M50 0v659h450v-659h-450zM101 48h348v563h-348v-563zM231 222c-20 20 -29 38 -29 60c0 76 130 98 130 172c0 29 -23 47 -55 47c-31 0 -58 -15 -85 -39l-27 35c29 30 70 51 117 51c65 0 106 -38 106 -91c0 -91 -132 -129 -132 -172c0 -16 9 -26 17 -35zM255 107
c-22 0 -38 17 -38 39c0 23 16 40 38 40c21 0 37 -17 37 -40c0 -22 -16 -39 -37 -39z" />
    <glyph glyph-name=".null" horiz-adv-x="0" 
 />
    <glyph glyph-name="CR" horiz-adv-x="160" 
 />
    <glyph glyph-name="space" unicode=" " horiz-adv-x="160" 
 />
    <glyph glyph-name="space" unicode="&#xa0;" horiz-adv-x="160" 
 />
    <glyph glyph-name="A" unicode="A" horiz-adv-x="659" 
d="M-65 0l381 662h133l132 -662h-162l-27 157h-199l-86 -157h-172zM262 279h111l-17 127c-2 15 -5 34 -6 54h-2c-7 -18 -16 -40 -23 -54z" />
    <glyph glyph-name="B" unicode="B" horiz-adv-x="594" 
d="M2 0l145 659h193c141 0 199 -63 199 -150c0 -73 -41 -126 -100 -158v-2c43 -11 91 -49 91 -120c0 -119 -98 -229 -294 -229h-234zM243 395h51c50 0 93 30 93 87c0 29 -19 52 -68 52h-45zM184 124h68c76 0 126 32 126 90c0 41 -36 57 -81 57h-81z" />
    <glyph glyph-name="C" unicode="C" horiz-adv-x="630" 
d="M356 -10c-218 0 -310 138 -310 288c0 245 186 388 407 388c63 0 129 -12 172 -30l-29 -129c-48 22 -94 32 -144 32c-154 0 -243 -122 -243 -246c0 -101 58 -176 171 -176c44 0 86 8 139 32l28 -123c-61 -27 -138 -36 -191 -36z" />
    <glyph glyph-name="D" unicode="D" horiz-adv-x="709" 
d="M2 0l145 659h172c76 0 146 -12 203 -38c85 -39 141 -114 141 -238c0 -168 -95 -288 -229 -345c-59 -25 -125 -38 -202 -38h-230zM184 123h51c49 0 91 9 129 27c78 38 136 117 136 244c0 53 -21 96 -68 120c-28 14 -64 22 -111 22h-46z" />
    <glyph glyph-name="E" unicode="E" horiz-adv-x="520" 
d="M2 0l145 659h378l-42 -123h-208l-31 -139h206l-27 -123h-206l-33 -151h234l-27 -123h-389z" />
    <glyph glyph-name="F" unicode="F" horiz-adv-x="507" 
d="M2 0l145 659h378l-41 -123h-209l-31 -139h205l-27 -123h-205l-60 -274h-155z" />
    <glyph glyph-name="G" unicode="G" horiz-adv-x="732" 
d="M372 -10c-229 0 -326 128 -326 292c0 192 142 384 417 384c76 0 160 -14 224 -45l-28 -128c-49 28 -115 46 -187 46c-187 0 -263 -136 -263 -245c0 -118 70 -177 176 -177c29 0 60 4 81 11l46 198h154l-65 -295c-65 -28 -149 -41 -229 -41z" />
    <glyph glyph-name="H" unicode="H" horiz-adv-x="750" 
d="M2 0l146 659h154l-57 -259h291l57 259h155l-145 -659h-155l59 270h-291l-59 -270h-155z" />
    <glyph glyph-name="I" unicode="I" horiz-adv-x="304" 
d="M2 0l145 659h155l-145 -659h-155z" />
    <glyph glyph-name="J" unicode="J" horiz-adv-x="343" 
d="M-149 -164l43 118c23 -11 47 -14 65 -14c33 0 55 10 71 40c8 16 15 37 21 65l135 614h155l-144 -658c-11 -49 -24 -81 -42 -106c-39 -55 -100 -82 -183 -82c-58 0 -96 12 -121 23z" />
    <glyph glyph-name="K" unicode="K" horiz-adv-x="650" 
d="M2 0l145 659h155l-61 -278h2l259 278h188l-327 -337l205 -322h-189l-162 265h-2l-58 -265h-155z" />
    <glyph glyph-name="L" unicode="L" horiz-adv-x="468" 
d="M2 0l145 659h155l-118 -536h224l-29 -123h-377z" />
    <glyph glyph-name="M" unicode="M" horiz-adv-x="842" 
d="M2 0l145 659h141l92 -221c19 -47 34 -83 41 -105h2c17 27 40 57 72 96l185 230h160l-145 -659h-155l69 312c10 43 16 75 22 93h-3c-14 -20 -38 -50 -59 -75l-147 -180h-69l-76 178c-12 27 -21 48 -30 77h-4c-3 -36 -21 -114 -30 -155l-56 -250h-155z" />
    <glyph glyph-name="N" unicode="N" horiz-adv-x="780" 
d="M2 0l145 659h147l237 -418h1c5 25 12 59 16 77l75 341h155l-145 -659h-135l-247 429h-1c-3 -21 -8 -45 -14 -71l-79 -358h-155z" />
    <glyph glyph-name="O" unicode="O" horiz-adv-x="756" 
d="M327 -10c-175 0 -281 101 -281 264c0 233 155 412 383 412c175 0 281 -101 281 -264c0 -233 -155 -412 -383 -412zM339 117c122 0 209 135 209 271c0 97 -49 151 -131 151c-122 0 -209 -135 -209 -271c0 -97 49 -151 131 -151z" />
    <glyph glyph-name="P" unicode="P" horiz-adv-x="576" 
d="M2 0l145 659h161c53 0 93 -7 127 -22c68 -30 111 -88 111 -168c0 -100 -46 -183 -148 -224c-45 -18 -101 -29 -169 -29h-24l-48 -216h-155zM232 339h21c35 0 65 8 87 22c33 21 51 55 51 97c0 28 -9 53 -34 66c-14 7 -32 12 -56 12h-26z" />
    <glyph glyph-name="Q" unicode="Q" horiz-adv-x="756" 
d="M241 -32c-32 32 -95 58 -140 115c-35 44 -55 102 -55 171c0 233 155 412 383 412c175 0 281 -101 281 -264c0 -186 -98 -337 -254 -390c-12 -4 -25 -8 -38 -11v-2c38 -10 78 -39 138 -39c36 0 68 8 84 13l28 -119c-45 -15 -94 -21 -136 -21c-122 0 -208 53 -291 135z
M339 117c122 0 209 135 209 271c0 97 -49 151 -131 151c-122 0 -209 -135 -209 -271c0 -97 49 -151 131 -151z" />
    <glyph glyph-name="R" unicode="R" horiz-adv-x="603" 
d="M2 0l145 659h176c174 0 235 -77 235 -177c0 -113 -78 -177 -165 -199v-3c14 -22 25 -45 38 -74l90 -206h-165l-68 173c-13 32 -23 56 -34 68h-44l-53 -241h-155zM237 364h38c72 0 128 37 128 103c0 42 -26 69 -89 69h-39z" />
    <glyph glyph-name="S" unicode="S" horiz-adv-x="537" 
d="M-10 41l62 120c44 -26 87 -44 143 -44c48 0 104 15 104 68c0 104 -217 97 -217 271c0 114 84 210 245 210c75 0 138 -17 180 -38l-27 -130c-47 28 -105 41 -149 41c-63 0 -87 -31 -87 -60c0 -98 218 -101 218 -274c0 -139 -113 -215 -263 -215c-89 0 -156 22 -209 51z
" />
    <glyph glyph-name="T" unicode="T" horiz-adv-x="562" 
d="M130 0l118 536h-195l27 123h545l-50 -123h-172l-118 -536h-155z" />
    <glyph glyph-name="U" unicode="U" horiz-adv-x="720" 
d="M300 -10c-157 0 -245 81 -245 211c0 23 2 48 8 74l84 384h155l-83 -372c-5 -23 -7 -44 -7 -61c0 -74 42 -109 110 -109c49 0 82 17 105 40c30 30 42 70 48 98l89 404h155l-90 -409c-18 -83 -49 -147 -96 -188c-58 -50 -127 -72 -233 -72z" />
    <glyph glyph-name="V" unicode="V" horiz-adv-x="668" 
d="M226 -5l-153 664h161l61 -310c10 -50 19 -93 25 -134h2c15 35 35 76 60 121l180 323h167l-386 -664h-117z" />
    <glyph glyph-name="W" unicode="W" horiz-adv-x="935" 
d="M174 -5l-97 664h164l35 -299c6 -54 11 -101 13 -143h2c16 40 32 74 59 126l106 203l-18 113h148l40 -301c8 -57 13 -97 17 -141h2c13 42 29 81 51 130l138 312h165l-329 -664h-131l-36 225c-8 48 -14 84 -18 120h-2c-11 -29 -28 -65 -55 -114l-126 -231h-128z" />
    <glyph glyph-name="X" unicode="X" horiz-adv-x="642" 
d="M-60 0l291 341l-152 318h162l95 -199l169 199h180l-282 -330l160 -329h-163l-101 209l-181 -209h-178z" />
    <glyph glyph-name="Y" unicode="Y" horiz-adv-x="599" 
d="M174 0l57 260l-154 399h156l94 -267h2l165 267h171l-281 -409l-55 -250h-155z" />
    <glyph glyph-name="Z" unicode="Z" horiz-adv-x="565" 
d="M-41 0l381 536h-244l-9 123h506l-373 -536h277l-28 -123h-510z" />
    <glyph glyph-name="Agrave" unicode="&#xc0;" horiz-adv-x="659" 
d="M-65 0l381 662h133l132 -662h-162l-27 157h-199l-86 -157h-172zM262 279h111l-17 127c-2 15 -5 34 -6 54h-2c-7 -18 -16 -40 -23 -54zM348 696l-96 147h161l48 -147h-113z" />
    <glyph glyph-name="Aacute" unicode="&#xc1;" horiz-adv-x="659" 
d="M-65 0l381 662h133l132 -662h-162l-27 157h-199l-86 -157h-172zM262 279h111l-17 127c-2 15 -5 34 -6 54h-2c-7 -18 -16 -40 -23 -54zM309 696l75 147h161l-124 -147h-112z" />
    <glyph glyph-name="Acircumflex" unicode="&#xc2;" horiz-adv-x="659" 
d="M-65 0l381 662h133l132 -662h-162l-27 157h-199l-86 -157h-172zM262 279h111l-17 127c-2 15 -5 34 -6 54h-2c-7 -18 -16 -40 -23 -54zM229 696l121 147h107l87 -147h-109l-40 67l-51 -67h-115z" />
    <glyph glyph-name="Atilde" unicode="&#xc3;" horiz-adv-x="659" 
d="M-65 0l381 662h133l132 -662h-162l-27 157h-199l-86 -157h-172zM262 279h111l-17 127c-2 15 -5 34 -6 54h-2c-7 -18 -16 -40 -23 -54zM217 715c7 96 55 138 109 138c59 0 90 -41 123 -41c14 0 24 6 28 35h97c-7 -96 -55 -138 -109 -138c-59 0 -90 41 -123 41
c-14 0 -24 -6 -28 -35h-97z" />
    <glyph glyph-name="Adieresis" unicode="&#xc4;" horiz-adv-x="659" 
d="M-65 0l381 662h133l132 -662h-162l-27 157h-199l-86 -157h-172zM262 279h111l-17 127c-2 15 -5 34 -6 54h-2c-7 -18 -16 -40 -23 -54zM293 697c-37 0 -64 24 -64 62c0 49 34 85 77 85c37 0 64 -24 64 -62c0 -49 -34 -85 -77 -85zM492 697c-37 0 -64 24 -64 62
c0 49 34 85 77 85c37 0 64 -24 64 -62c0 -49 -34 -85 -77 -85z" />
    <glyph glyph-name="Amacron" unicode="&#x100;" horiz-adv-x="659" 
d="M-65 0l381 662h133l132 -662h-162l-27 157h-199l-86 -157h-172zM262 279h111l-17 127c-2 15 -5 34 -6 54h-2c-7 -18 -16 -40 -23 -54zM228 696l23 112h311l-23 -112h-311z" />
    <glyph glyph-name="Abreve" unicode="&#x102;" horiz-adv-x="659" 
d="M-65 0l381 662h133l132 -662h-162l-27 157h-199l-86 -157h-172zM262 279h111l-17 127c-2 15 -5 34 -6 54h-2c-7 -18 -16 -40 -23 -54zM389 686c-90 0 -148 56 -138 152h99c-3 -38 15 -63 49 -63s60 25 69 63h105c-21 -101 -94 -152 -184 -152z" />
    <glyph glyph-name="Aring" unicode="&#xc5;" horiz-adv-x="659" 
d="M-65 0l377 655c-28 13 -45 36 -45 68c0 70 60 118 142 118c67 0 112 -29 112 -80c0 -48 -28 -85 -71 -104l131 -657h-162l-27 157h-199l-86 -157h-172zM262 279h111l-17 127c-2 15 -5 34 -6 54h-2c-7 -18 -16 -40 -23 -54zM387 702c26 0 42 27 42 52c0 18 -11 28 -28 28
c-26 0 -42 -27 -42 -52c0 -18 11 -28 28 -28z" />
    <glyph glyph-name="Aringacute" unicode="&#x1fa;" horiz-adv-x="659" 
d="M-65 0l377 655c-28 13 -45 36 -45 68c0 62 47 107 116 116l58 114h161l-112 -133c19 -14 31 -34 31 -59c0 -48 -28 -85 -71 -104l131 -657h-162l-27 157h-199l-86 -157h-172zM262 279h111l-17 127c-2 15 -5 34 -6 54h-2c-7 -18 -16 -40 -23 -54zM387 702
c26 0 42 27 42 52c0 18 -11 28 -28 28c-26 0 -42 -27 -42 -52c0 -18 11 -28 28 -28z" />
    <glyph glyph-name="Aogonek" unicode="&#x104;" horiz-adv-x="659" 
d="M-65 0l381 662h133l132 -662c-71 -19 -142 -66 -142 -106c0 -19 14 -26 32 -26c11 0 23 2 37 6l7 -77c-26 -7 -58 -12 -90 -12c-71 0 -108 29 -108 80c0 62 45 102 102 135l-27 157h-199l-86 -157h-172zM262 279h111l-17 127c-2 15 -5 34 -6 54h-2
c-7 -18 -16 -40 -23 -54z" />
    <glyph glyph-name="AE" unicode="&#xc6;" horiz-adv-x="900" 
d="M-65 0l505 659h420l-33 -123h-208l-21 -139h207l-17 -123h-207l-22 -151h235l-17 -123h-389l23 157h-180l-120 -157h-176zM325 279h103l29 179h-3c-13 -21 -39 -61 -62 -91z" />
    <glyph glyph-name="AEacute" unicode="&#x1fc;" horiz-adv-x="900" 
d="M-65 0l505 659h420l-33 -123h-208l-21 -139h207l-17 -123h-207l-22 -151h235l-17 -123h-389l23 157h-180l-120 -157h-176zM325 279h103l29 179h-3c-13 -21 -39 -61 -62 -91zM519 696l75 147h161l-124 -147h-112z" />
    <glyph glyph-name="Cacute" unicode="&#x106;" horiz-adv-x="630" 
d="M356 -10c-218 0 -310 138 -310 288c0 245 186 388 407 388c63 0 129 -12 172 -30l-29 -129c-48 22 -94 32 -144 32c-154 0 -243 -122 -243 -246c0 -101 58 -176 171 -176c44 0 86 8 139 32l28 -123c-61 -27 -138 -36 -191 -36zM350 696l75 147h161l-124 -147h-112z" />
    <glyph glyph-name="Ccircumflex" unicode="&#x108;" horiz-adv-x="630" 
d="M356 -10c-218 0 -310 138 -310 288c0 245 186 388 407 388c63 0 129 -12 172 -30l-29 -129c-48 22 -94 32 -144 32c-154 0 -243 -122 -243 -246c0 -101 58 -176 171 -176c44 0 86 8 139 32l28 -123c-61 -27 -138 -36 -191 -36zM261 696l121 147h107l87 -147h-109l-40 67
l-51 -67h-115z" />
    <glyph glyph-name="Ccaron" unicode="&#x10c;" horiz-adv-x="630" 
d="M356 -10c-218 0 -310 138 -310 288c0 245 186 388 407 388c63 0 129 -12 172 -30l-29 -129c-48 22 -94 32 -144 32c-154 0 -243 -122 -243 -246c0 -101 58 -176 171 -176c44 0 86 8 139 32l28 -123c-61 -27 -138 -36 -191 -36zM368 696l-87 147h109l40 -67l51 67h115
l-121 -147h-107z" />
    <glyph glyph-name="Cdotaccent" unicode="&#x10a;" horiz-adv-x="630" 
d="M356 -10c-218 0 -310 138 -310 288c0 245 186 388 407 388c63 0 129 -12 172 -30l-29 -129c-48 22 -94 32 -144 32c-154 0 -243 -122 -243 -246c0 -101 58 -176 171 -176c44 0 86 8 139 32l28 -123c-61 -27 -138 -36 -191 -36zM422 697c-51 0 -84 36 -84 79
c0 59 47 94 96 94c51 0 84 -35 84 -78c0 -59 -47 -95 -96 -95z" />
    <glyph glyph-name="Ccedilla" unicode="&#xc7;" horiz-adv-x="630" 
d="M156 -198l28 62c11 -5 29 -9 47 -9c30 0 51 10 51 32c0 21 -28 26 -72 26l44 88c-145 36 -208 153 -208 277c0 245 186 388 407 388c63 0 129 -12 172 -30l-29 -129c-48 22 -94 32 -144 32c-154 0 -243 -122 -243 -246c0 -101 58 -176 171 -176c44 0 86 8 139 32l28 -123
c-61 -27 -138 -36 -196 -36l-18 -36c46 -4 76 -22 76 -65c0 -63 -65 -101 -165 -101c-30 0 -64 5 -88 14z" />
    <glyph glyph-name="Dcaron" unicode="&#x10e;" horiz-adv-x="709" 
d="M2 0l145 659h172c76 0 146 -12 203 -38c85 -39 141 -114 141 -238c0 -168 -95 -288 -229 -345c-59 -25 -125 -38 -202 -38h-230zM184 123h51c49 0 91 9 129 27c78 38 136 117 136 244c0 53 -21 96 -68 120c-28 14 -64 22 -111 22h-46zM321 696l-87 147h109l40 -67l51 67
h115l-121 -147h-107z" />
    <glyph glyph-name="Dcroat" unicode="&#x110;" horiz-adv-x="709" 
d="M2 0l60 274h-70l27 123h70l58 262h172c76 0 146 -12 203 -38c85 -39 141 -114 141 -238c0 -168 -95 -288 -229 -345c-59 -25 -125 -38 -202 -38h-230zM184 123h51c49 0 91 9 129 27c78 38 136 117 136 244c0 53 -21 96 -68 120c-28 14 -64 22 -111 22h-46l-31 -139h135
l-27 -123h-135z" />
    <glyph glyph-name="Egrave" unicode="&#xc8;" horiz-adv-x="520" 
d="M2 0l145 659h378l-42 -123h-208l-31 -139h206l-27 -123h-206l-33 -151h234l-27 -123h-389zM297 696l-96 147h161l48 -147h-113z" />
    <glyph glyph-name="Eacute" unicode="&#xc9;" horiz-adv-x="520" 
d="M2 0l145 659h378l-42 -123h-208l-31 -139h206l-27 -123h-206l-33 -151h234l-27 -123h-389zM268 696l75 147h161l-124 -147h-112z" />
    <glyph glyph-name="Ecircumflex" unicode="&#xca;" horiz-adv-x="520" 
d="M2 0l145 659h378l-42 -123h-208l-31 -139h206l-27 -123h-206l-33 -151h234l-27 -123h-389zM179 696l121 147h107l87 -147h-109l-40 67l-51 -67h-115z" />
    <glyph glyph-name="Ecaron" unicode="&#x11a;" horiz-adv-x="520" 
d="M2 0l145 659h378l-42 -123h-208l-31 -139h206l-27 -123h-206l-33 -151h234l-27 -123h-389zM286 696l-87 147h109l40 -67l51 67h115l-121 -147h-107z" />
    <glyph glyph-name="Edieresis" unicode="&#xcb;" horiz-adv-x="520" 
d="M2 0l145 659h378l-42 -123h-208l-31 -139h206l-27 -123h-206l-33 -151h234l-27 -123h-389zM240 697c-37 0 -64 24 -64 62c0 49 34 85 77 85c37 0 64 -24 64 -62c0 -49 -34 -85 -77 -85zM439 697c-37 0 -64 24 -64 62c0 49 34 85 77 85c37 0 64 -24 64 -62
c0 -49 -34 -85 -77 -85z" />
    <glyph glyph-name="Emacron" unicode="&#x112;" horiz-adv-x="517" 
d="M2 0l145 659h378l-42 -123h-208l-31 -139h206l-27 -123h-206l-33 -151h234l-27 -123h-389zM175 696l23 112h311l-23 -112h-311z" />
    <glyph glyph-name="Ebreve" unicode="&#x114;" horiz-adv-x="520" 
d="M2 0l145 659h378l-42 -123h-208l-31 -139h206l-27 -123h-206l-33 -151h234l-27 -123h-389zM336 686c-90 0 -148 56 -138 152h99c-3 -38 15 -63 49 -63s60 25 69 63h105c-21 -101 -94 -152 -184 -152z" />
    <glyph glyph-name="Edotaccent" unicode="&#x116;" horiz-adv-x="520" 
d="M2 0l145 659h378l-42 -123h-208l-31 -139h206l-27 -123h-206l-33 -151h234l-27 -123h-389zM340 697c-51 0 -84 36 -84 79c0 59 47 94 96 94c51 0 84 -35 84 -78c0 -59 -47 -95 -96 -95z" />
    <glyph glyph-name="Eogonek" unicode="&#x118;" horiz-adv-x="520" 
d="M2 0l145 659h378l-42 -124h-208l-31 -138h206l-27 -123h-206l-33 -151h234l-27 -123h-18c-67 -28 -126 -66 -126 -106c0 -19 14 -26 32 -26c11 0 23 2 37 6l7 -77c-26 -7 -57 -12 -90 -12c-71 0 -108 29 -108 80c0 62 45 102 101 135h-224z" />
    <glyph glyph-name="fi.cap" horiz-adv-x="810" 
d="M2 0l145 659h378l-41 -123h-209l-31 -139h205l-27 -123h-205l-60 -274h-155zM509 0l145 659h155l-145 -659h-155z" />
    <glyph glyph-name="fl.cap" horiz-adv-x="975" 
d="M2 0l145 659h378l-41 -123h-209l-31 -139h205l-27 -123h-205l-60 -274h-155zM509 0l145 659h155l-118 -536h224l-29 -123h-377z" />
    <glyph glyph-name="Gcircumflex" unicode="&#x11c;" horiz-adv-x="732" 
d="M372 -10c-229 0 -326 128 -326 292c0 192 142 384 417 384c76 0 160 -14 224 -45l-28 -128c-49 28 -115 46 -187 46c-187 0 -263 -136 -263 -245c0 -118 70 -177 176 -177c29 0 60 4 81 11l46 198h154l-65 -295c-65 -28 -149 -41 -229 -41zM288 696l121 147h107l87 -147
h-109l-40 67l-51 -67h-115z" />
    <glyph glyph-name="Gbreve" unicode="&#x11e;" horiz-adv-x="732" 
d="M372 -10c-229 0 -326 128 -326 292c0 192 142 384 417 384c76 0 160 -14 224 -45l-28 -128c-49 28 -115 46 -187 46c-187 0 -263 -136 -263 -245c0 -118 70 -177 176 -177c29 0 60 4 81 11l46 198h154l-65 -295c-65 -28 -149 -41 -229 -41zM445 686
c-90 0 -148 56 -138 152h99c-3 -38 15 -63 49 -63s60 25 69 63h105c-21 -101 -94 -152 -184 -152z" />
    <glyph glyph-name="Gdotaccent" unicode="&#x120;" horiz-adv-x="732" 
d="M372 -10c-229 0 -326 128 -326 292c0 192 142 384 417 384c76 0 160 -14 224 -45l-28 -128c-49 28 -115 46 -187 46c-187 0 -263 -136 -263 -245c0 -118 70 -177 176 -177c29 0 60 4 81 11l46 198h154l-65 -295c-65 -28 -149 -41 -229 -41zM449 697c-51 0 -84 36 -84 79
c0 59 47 94 96 94c51 0 84 -35 84 -78c0 -59 -47 -95 -96 -95z" />
    <glyph glyph-name="Gcommaaccent" unicode="&#x122;" horiz-adv-x="732" 
d="M372 -10c-229 0 -326 128 -326 292c0 192 142 384 417 384c76 0 160 -14 224 -45l-28 -128c-49 28 -115 46 -187 46c-187 0 -263 -136 -263 -245c0 -118 70 -177 176 -177c29 0 60 4 81 11l46 198h154l-65 -295c-65 -28 -149 -41 -229 -41zM230 -237l-27 94
c57 8 81 27 81 56c0 11 -3 21 -8 35h134c6 -17 9 -35 9 -50c0 -76 -55 -125 -189 -135z" />
    <glyph glyph-name="Hcircumflex" unicode="&#x124;" horiz-adv-x="750" 
d="M2 0l146 659h154l-57 -259h291l57 259h155l-145 -659h-155l59 270h-291l-59 -270h-155zM296 696l121 147h107l87 -147h-109l-40 67l-51 -67h-115z" />
    <glyph glyph-name="Hbar" unicode="&#x126;" horiz-adv-x="750" 
d="M2 0l105 477h-65l25 113h65l16 69h154l-15 -69h291l15 69h155l-15 -69h67l-25 -113h-67l-105 -477h-155l59 270h-291l-59 -270h-155zM245 400h291l17 77h-291z" />
    <glyph glyph-name="Igrave" unicode="&#xcc;" horiz-adv-x="304" 
d="M2 0l145 659h155l-145 -659h-155zM197 696l-96 147h161l48 -147h-113z" />
    <glyph glyph-name="Iacute" unicode="&#xcd;" horiz-adv-x="304" 
d="M2 0l145 659h155l-145 -659h-155zM156 696l75 147h161l-124 -147h-112z" />
    <glyph glyph-name="Icircumflex" unicode="&#xce;" horiz-adv-x="304" 
d="M2 0l145 659h155l-145 -659h-155zM75 696l121 147h107l87 -147h-109l-40 67l-51 -67h-115z" />
    <glyph glyph-name="Itilde" unicode="&#x128;" horiz-adv-x="304" 
d="M2 0l145 659h155l-145 -659h-155zM64 715c7 96 55 138 109 138c59 0 90 -41 123 -41c14 0 24 6 28 35h97c-7 -96 -55 -138 -109 -138c-59 0 -90 41 -123 41c-14 0 -24 -6 -28 -35h-97z" />
    <glyph glyph-name="Idieresis" unicode="&#xcf;" horiz-adv-x="304" 
d="M2 0l145 659h155l-145 -659h-155zM139 697c-37 0 -64 24 -64 62c0 49 34 85 77 85c37 0 64 -24 64 -62c0 -49 -34 -85 -77 -85zM338 697c-37 0 -64 24 -64 62c0 49 34 85 77 85c37 0 64 -24 64 -62c0 -49 -34 -85 -77 -85z" />
    <glyph glyph-name="Imacron" unicode="&#x12a;" horiz-adv-x="304" 
d="M2 0l145 659h155l-145 -659h-155zM74 696l23 112h311l-23 -112h-311z" />
    <glyph glyph-name="Ibreve" unicode="&#x12c;" horiz-adv-x="304" 
d="M2 0l145 659h155l-145 -659h-155zM235 686c-90 0 -148 56 -138 152h99c-3 -38 15 -63 49 -63s60 25 69 63h105c-21 -101 -94 -152 -184 -152z" />
    <glyph glyph-name="Idotaccent" unicode="&#x130;" horiz-adv-x="304" 
d="M2 0l145 659h155l-145 -659h-155zM243 697c-51 0 -84 36 -84 79c0 59 47 94 96 94c51 0 84 -35 84 -78c0 -59 -47 -95 -96 -95z" />
    <glyph glyph-name="Iogonek" unicode="&#x12e;" horiz-adv-x="304" 
d="M2 0l145 659h155l-145 -659c-67 -28 -109 -66 -109 -106c0 -19 14 -26 32 -26c11 0 23 2 37 6l7 -77c-26 -7 -57 -12 -90 -12c-71 0 -108 29 -108 80c0 58 30 100 76 135z" />
    <glyph glyph-name="IJ" unicode="&#x132;" horiz-adv-x="641" 
d="M2 0l145 659h155l-145 -659h-155zM149 -164l43 118c23 -11 47 -14 65 -14c33 0 55 10 71 40c8 16 15 37 21 65l135 614h155l-144 -658c-11 -49 -24 -81 -42 -106c-39 -55 -100 -82 -183 -82c-58 0 -96 12 -121 23z" />
    <glyph glyph-name="Jcircumflex" unicode="&#x134;" horiz-adv-x="343" 
d="M-149 -164l43 118c23 -11 47 -14 65 -14c33 0 55 10 71 40c8 16 15 37 21 65l135 614h155l-144 -658c-11 -49 -24 -81 -42 -106c-39 -55 -100 -82 -183 -82c-58 0 -96 12 -121 23zM104 696l121 147h107l87 -147h-109l-40 67l-51 -67h-115z" />
    <glyph glyph-name="Kcommaaccent" unicode="&#x136;" horiz-adv-x="650" 
d="M2 0l145 659h155l-61 -278h2l259 278h188l-327 -337l205 -322h-189l-162 265h-2l-58 -265h-155zM146 -237l-27 94c57 8 81 27 81 56c0 11 -3 21 -8 35h134c6 -17 9 -35 9 -50c0 -76 -55 -125 -189 -135z" />
    <glyph glyph-name="Lacute" unicode="&#x139;" horiz-adv-x="468" 
d="M2 0l145 659h155l-118 -536h224l-29 -123h-377zM169 696l75 147h161l-124 -147h-112z" />
    <glyph glyph-name="Lcaron" unicode="&#x13d;" horiz-adv-x="468" 
d="M2 0l145 659h155l-118 -536h224l-29 -123h-377zM379 484l-53 94c51 14 76 42 76 82c0 17 -4 33 -11 48h128c6 -11 12 -29 12 -56c0 -72 -48 -134 -152 -168z" />
    <glyph glyph-name="Lcommaaccent" unicode="&#x13b;" horiz-adv-x="468" 
d="M2 0l145 659h155l-118 -536h224l-29 -123h-377zM61 -237l-27 94c57 8 81 27 81 56c0 11 -3 21 -8 35h134c6 -17 9 -35 9 -50c0 -76 -55 -125 -189 -135z" />
    <glyph glyph-name="Lslash" unicode="&#x141;" horiz-adv-x="478" 
d="M12 0l45 204l-63 -34l31 141l63 33l69 315h155l-49 -223l138 72l-31 -141l-138 -72l-38 -172h224l-29 -123h-377z" />
    <glyph glyph-name="Ldot" unicode="&#x13f;" horiz-adv-x="468" 
d="M2 0l145 659h155l-118 -536h224l-29 -123h-377zM376 254c-41 0 -71 31 -71 73c0 51 39 91 88 91c42 0 72 -31 72 -74c0 -50 -40 -90 -89 -90z" />
    <glyph glyph-name="Nacute" unicode="&#x143;" horiz-adv-x="780" 
d="M2 0l145 659h147l237 -418h1c5 25 12 59 16 77l75 341h155l-145 -659h-135l-247 429h-1c-3 -21 -8 -45 -14 -71l-79 -358h-155zM407 696l75 147h161l-124 -147h-112z" />
    <glyph glyph-name="Ncaron" unicode="&#x147;" horiz-adv-x="780" 
d="M2 0l145 659h147l237 -418h1c5 25 12 59 16 77l75 341h155l-145 -659h-135l-247 429h-1c-3 -21 -8 -45 -14 -71l-79 -358h-155zM411 696l-87 147h109l40 -67l51 67h115l-121 -147h-107z" />
    <glyph glyph-name="Ntilde" unicode="&#xd1;" horiz-adv-x="780" 
d="M2 0l145 659h147l237 -418h1c5 25 12 59 16 77l75 341h155l-145 -659h-135l-247 429h-1c-3 -21 -8 -45 -14 -71l-79 -358h-155zM303 715c7 96 55 138 109 138c59 0 90 -41 123 -41c14 0 24 6 28 35h97c-7 -96 -55 -138 -109 -138c-59 0 -90 41 -123 41
c-14 0 -24 -6 -28 -35h-97z" />
    <glyph glyph-name="Ncommaaccent" unicode="&#x145;" horiz-adv-x="780" 
d="M2 0l145 659h147l237 -418h1c5 25 12 59 16 77l75 341h155l-145 -659h-135l-247 429h-1c-3 -21 -8 -45 -14 -71l-79 -358h-155zM208 -237l-27 94c57 8 81 27 81 56c0 11 -3 21 -8 35h134c6 -17 9 -35 9 -50c0 -76 -55 -125 -189 -135z" />
    <glyph glyph-name="Ograve" unicode="&#xd2;" horiz-adv-x="756" 
d="M327 -10c-175 0 -281 101 -281 264c0 233 155 412 383 412c175 0 281 -101 281 -264c0 -233 -155 -412 -383 -412zM339 117c122 0 209 135 209 271c0 97 -49 151 -131 151c-122 0 -209 -135 -209 -271c0 -97 49 -151 131 -151zM406 696l-96 147h161l48 -147h-113z" />
    <glyph glyph-name="Oacute" unicode="&#xd3;" horiz-adv-x="756" 
d="M327 -10c-175 0 -281 101 -281 264c0 233 155 412 383 412c175 0 281 -101 281 -264c0 -233 -155 -412 -383 -412zM339 117c122 0 209 135 209 271c0 97 -49 151 -131 151c-122 0 -209 -135 -209 -271c0 -97 49 -151 131 -151zM390 696l75 147h161l-124 -147h-112z" />
    <glyph glyph-name="Ocircumflex" unicode="&#xd4;" horiz-adv-x="756" 
d="M327 -10c-175 0 -281 101 -281 264c0 233 155 412 383 412c175 0 281 -101 281 -264c0 -233 -155 -412 -383 -412zM339 117c122 0 209 135 209 271c0 97 -49 151 -131 151c-122 0 -209 -135 -209 -271c0 -97 49 -151 131 -151zM291 696l121 147h107l87 -147h-109l-40 67
l-51 -67h-115z" />
    <glyph glyph-name="Otilde" unicode="&#xd5;" horiz-adv-x="756" 
d="M327 -10c-175 0 -281 101 -281 264c0 233 155 412 383 412c175 0 281 -101 281 -264c0 -233 -155 -412 -383 -412zM339 117c122 0 209 135 209 271c0 97 -49 151 -131 151c-122 0 -209 -135 -209 -271c0 -97 49 -151 131 -151zM286 715c7 96 55 138 109 138
c59 0 90 -41 123 -41c14 0 24 6 28 35h97c-7 -96 -55 -138 -109 -138c-59 0 -90 41 -123 41c-14 0 -24 -6 -28 -35h-97z" />
    <glyph glyph-name="Odieresis" unicode="&#xd6;" horiz-adv-x="756" 
d="M327 -10c-175 0 -281 101 -281 264c0 233 155 412 383 412c175 0 281 -101 281 -264c0 -233 -155 -412 -383 -412zM339 117c122 0 209 135 209 271c0 97 -49 151 -131 151c-122 0 -209 -135 -209 -271c0 -97 49 -151 131 -151zM351 697c-37 0 -64 24 -64 62
c0 49 34 85 77 85c37 0 64 -24 64 -62c0 -49 -34 -85 -77 -85zM550 697c-37 0 -64 24 -64 62c0 49 34 85 77 85c37 0 64 -24 64 -62c0 -49 -34 -85 -77 -85z" />
    <glyph glyph-name="Omacron" unicode="&#x14c;" horiz-adv-x="756" 
d="M327 -10c-175 0 -281 101 -281 264c0 233 155 412 383 412c175 0 281 -101 281 -264c0 -233 -155 -412 -383 -412zM339 117c122 0 209 135 209 271c0 97 -49 151 -131 151c-122 0 -209 -135 -209 -271c0 -97 49 -151 131 -151zM283 696l23 112h311l-23 -112h-311z" />
    <glyph glyph-name="Obreve" unicode="&#x14e;" horiz-adv-x="756" 
d="M327 -10c-175 0 -281 101 -281 264c0 233 155 412 383 412c175 0 281 -101 281 -264c0 -233 -155 -412 -383 -412zM339 117c122 0 209 135 209 271c0 97 -49 151 -131 151c-122 0 -209 -135 -209 -271c0 -97 49 -151 131 -151zM448 686c-90 0 -148 56 -138 152h99
c-3 -38 15 -63 49 -63s60 25 69 63h105c-21 -101 -94 -152 -184 -152z" />
    <glyph glyph-name="Ohungarumlaut" unicode="&#x150;" horiz-adv-x="756" 
d="M327 -10c-175 0 -281 101 -281 264c0 233 155 412 383 412c175 0 281 -101 281 -264c0 -233 -155 -412 -383 -412zM339 117c122 0 209 135 209 271c0 97 -49 151 -131 151c-122 0 -209 -135 -209 -271c0 -97 49 -151 131 -151zM298 696l75 147h161l-124 -147h-112z
M486 696l75 147h161l-124 -147h-112z" />
    <glyph glyph-name="Oslash" unicode="&#xd8;" horiz-adv-x="758" 
d="M151 -57l-92 71l51 64c-42 49 -64 115 -64 194c0 221 149 394 379 394c52 0 97 -9 136 -26l53 66l92 -71l-53 -65c38 -48 59 -112 59 -186c0 -221 -149 -394 -379 -394c-48 0 -90 8 -127 22zM296 124c16 -5 33 -7 53 -7c113 0 200 120 200 271c0 16 -2 32 -5 46zM209 268
c0 -22 2 -41 7 -58l255 318c-18 7 -39 11 -62 11c-113 0 -200 -120 -200 -271z" />
    <glyph glyph-name="Oslashacute" unicode="&#x1fe;" horiz-adv-x="758" 
d="M151 -57l-92 71l51 64c-42 49 -64 115 -64 194c0 221 149 394 379 394c52 0 97 -9 136 -26l53 66l92 -71l-53 -65c38 -48 59 -112 59 -186c0 -221 -149 -394 -379 -394c-48 0 -90 8 -127 22zM296 124c16 -5 33 -7 53 -7c113 0 200 120 200 271c0 16 -2 32 -5 46zM209 268
c0 -22 2 -41 7 -58l255 318c-18 7 -39 11 -62 11c-113 0 -200 -120 -200 -271zM383 696l75 147h161l-124 -147h-112z" />
    <glyph glyph-name="OE" unicode="&#x152;" horiz-adv-x="911" 
d="M503 0c-56 0 -109 -10 -170 -10c-183 0 -287 113 -287 282c0 221 149 394 403 394c47 0 123 -7 168 -7h299l-42 -124h-208l-31 -138h206l-27 -123h-206l-33 -151h234l-27 -123h-279zM421 126l88 401c-24 8 -51 12 -82 12c-131 0 -218 -120 -218 -271
c0 -97 49 -151 140 -151c20 0 47 3 72 9z" />
    <glyph glyph-name="Racute" unicode="&#x154;" horiz-adv-x="603" 
d="M2 0l145 659h176c174 0 235 -77 235 -177c0 -113 -78 -177 -165 -199v-3c14 -22 25 -45 38 -74l90 -206h-165l-68 173c-13 32 -23 56 -34 68h-44l-53 -241h-155zM237 364h38c72 0 128 37 128 103c0 42 -26 69 -89 69h-39zM274 696l75 147h161l-124 -147h-112z" />
    <glyph glyph-name="Rcaron" unicode="&#x158;" horiz-adv-x="603" 
d="M2 0l145 659h176c174 0 235 -77 235 -177c0 -113 -78 -177 -165 -199v-3c14 -22 25 -45 38 -74l90 -206h-165l-68 173c-13 32 -23 56 -34 68h-44l-53 -241h-155zM237 364h38c72 0 128 37 128 103c0 42 -26 69 -89 69h-39zM285 696l-87 147h109l40 -67l51 67h115
l-121 -147h-107z" />
    <glyph glyph-name="Rcommaaccent" unicode="&#x156;" horiz-adv-x="603" 
d="M2 0l145 659h176c174 0 235 -77 235 -177c0 -113 -78 -177 -165 -199v-3c14 -22 25 -45 38 -74l90 -206h-165l-68 173c-13 32 -23 56 -34 68h-44l-53 -241h-155zM237 364h38c72 0 128 37 128 103c0 42 -26 69 -89 69h-39zM135 -237l-27 94c57 8 81 27 81 56
c0 11 -3 21 -8 35h134c6 -17 9 -35 9 -50c0 -76 -55 -125 -189 -135z" />
    <glyph glyph-name="germandbls.cap" horiz-adv-x="1074" 
d="M-10 41l62 120c44 -26 87 -44 143 -44c48 0 104 15 104 68c0 104 -217 97 -217 271c0 114 84 210 245 210c75 0 138 -17 180 -38l-27 -130c-47 28 -105 41 -149 41c-63 0 -87 -31 -87 -60c0 -98 218 -101 218 -274c0 -139 -113 -215 -263 -215c-89 0 -156 22 -209 51z
M527 41l62 120c44 -26 87 -44 143 -44c48 0 104 15 104 68c0 104 -217 97 -217 271c0 114 84 210 245 210c75 0 138 -17 180 -38l-27 -130c-47 28 -105 41 -149 41c-63 0 -87 -31 -87 -60c0 -98 218 -101 218 -274c0 -139 -113 -215 -263 -215c-89 0 -156 22 -209 51z" />
    <glyph glyph-name="Sacute" unicode="&#x15a;" horiz-adv-x="537" 
d="M-10 41l62 120c44 -26 87 -44 143 -44c48 0 104 15 104 68c0 104 -217 97 -217 271c0 114 84 210 245 210c75 0 138 -17 180 -38l-27 -130c-47 28 -105 41 -149 41c-63 0 -87 -31 -87 -60c0 -98 218 -101 218 -274c0 -139 -113 -215 -263 -215c-89 0 -156 22 -209 51z
M272 696l75 147h161l-124 -147h-112z" />
    <glyph glyph-name="Scircumflex" unicode="&#x15c;" horiz-adv-x="537" 
d="M-10 41l62 120c44 -26 87 -44 143 -44c48 0 104 15 104 68c0 104 -217 97 -217 271c0 114 84 210 245 210c75 0 138 -17 180 -38l-27 -130c-47 28 -105 41 -149 41c-63 0 -87 -31 -87 -60c0 -98 218 -101 218 -274c0 -139 -113 -215 -263 -215c-89 0 -156 22 -209 51z
M175 696l121 147h107l87 -147h-109l-40 67l-51 -67h-115z" />
    <glyph glyph-name="Scaron" unicode="&#x160;" horiz-adv-x="537" 
d="M-10 41l62 120c44 -26 87 -44 143 -44c48 0 104 15 104 68c0 104 -217 97 -217 271c0 114 84 210 245 210c75 0 138 -17 180 -38l-27 -130c-47 28 -105 41 -149 41c-63 0 -87 -31 -87 -60c0 -98 218 -101 218 -274c0 -139 -113 -215 -263 -215c-89 0 -156 22 -209 51z
M281 696l-87 147h109l40 -67l51 67h115l-121 -147h-107z" />
    <glyph glyph-name="Scedilla" unicode="&#x15e;" horiz-adv-x="537" 
d="M52 -198l28 62c11 -5 29 -9 47 -9c30 0 51 10 51 32c0 21 -28 26 -72 26l40 80c-63 6 -114 25 -156 48l62 120c44 -26 87 -44 143 -44c48 0 104 15 104 68c0 104 -217 97 -217 271c0 114 84 210 245 210c75 0 138 -17 180 -38l-27 -130c-47 28 -105 41 -149 41
c-63 0 -87 -31 -87 -60c0 -98 218 -101 218 -274c0 -123 -89 -197 -213 -212l-20 -39c46 -4 76 -22 76 -65c0 -63 -65 -101 -165 -101c-30 0 -64 5 -88 14z" />
    <glyph glyph-name="Scommaaccent" unicode="&#x218;" horiz-adv-x="537" 
d="M-10 41l62 120c44 -26 87 -44 143 -44c48 0 104 15 104 68c0 104 -217 97 -217 271c0 114 84 210 245 210c75 0 138 -17 180 -38l-27 -130c-47 28 -105 41 -149 41c-63 0 -87 -31 -87 -60c0 -98 218 -101 218 -274c0 -139 -113 -215 -263 -215c-89 0 -156 22 -209 51z
M69 -237l-27 94c57 8 81 27 81 56c0 11 -3 21 -8 35h134c6 -17 9 -35 9 -50c0 -76 -55 -125 -189 -135z" />
    <glyph glyph-name="Tcaron" unicode="&#x164;" horiz-adv-x="562" 
d="M130 0l118 536h-195l27 123h545l-50 -123h-172l-118 -536h-155zM302 696l-87 147h109l40 -67l51 67h115l-121 -147h-107z" />
    <glyph glyph-name="Tcommaaccent" unicode="&#x162;" horiz-adv-x="562" 
d="M130 0l118 536h-195l27 123h545l-50 -123h-172l-118 -536h-155zM85 -237l-27 94c57 8 81 27 81 56c0 11 -3 21 -8 35h134c6 -17 9 -35 9 -50c0 -76 -55 -125 -189 -135z" />
    <glyph glyph-name="Tcommaaccent" unicode="&#x21a;" horiz-adv-x="562" 
d="M130 0l118 536h-195l27 123h545l-50 -123h-172l-118 -536h-155zM85 -237l-27 94c57 8 81 27 81 56c0 11 -3 21 -8 35h134c6 -17 9 -35 9 -50c0 -76 -55 -125 -189 -135z" />
    <glyph glyph-name="Tbar" unicode="&#x166;" horiz-adv-x="562" 
d="M130 0l52 236h-121l28 124h120l39 176h-195l27 123h545l-50 -123h-172l-39 -176h124l-28 -124h-123l-52 -236h-155z" />
    <glyph glyph-name="Ugrave" unicode="&#xd9;" horiz-adv-x="720" 
d="M300 -10c-157 0 -245 81 -245 211c0 23 2 48 8 74l84 384h155l-83 -372c-5 -23 -7 -44 -7 -61c0 -74 42 -109 110 -109c49 0 82 17 105 40c30 30 42 70 48 98l89 404h155l-90 -409c-18 -83 -49 -147 -96 -188c-58 -50 -127 -72 -233 -72zM388 696l-96 147h161l48 -147
h-113z" />
    <glyph glyph-name="Uacute" unicode="&#xda;" horiz-adv-x="720" 
d="M300 -10c-157 0 -245 81 -245 211c0 23 2 48 8 74l84 384h155l-83 -372c-5 -23 -7 -44 -7 -61c0 -74 42 -109 110 -109c49 0 82 17 105 40c30 30 42 70 48 98l89 404h155l-90 -409c-18 -83 -49 -147 -96 -188c-58 -50 -127 -72 -233 -72zM380 696l75 147h161l-124 -147
h-112z" />
    <glyph glyph-name="Ucircumflex" unicode="&#xdb;" horiz-adv-x="720" 
d="M300 -10c-157 0 -245 81 -245 211c0 23 2 48 8 74l84 384h155l-83 -372c-5 -23 -7 -44 -7 -61c0 -74 42 -109 110 -109c49 0 82 17 105 40c30 30 42 70 48 98l89 404h155l-90 -409c-18 -83 -49 -147 -96 -188c-58 -50 -127 -72 -233 -72zM283 696l121 147h107l87 -147
h-109l-40 67l-51 -67h-115z" />
    <glyph glyph-name="Utilde" unicode="&#x168;" horiz-adv-x="720" 
d="M300 -10c-157 0 -245 81 -245 211c0 23 2 48 8 74l84 384h155l-83 -372c-5 -23 -7 -44 -7 -61c0 -74 42 -109 110 -109c49 0 82 17 105 40c30 30 42 70 48 98l89 404h155l-90 -409c-18 -83 -49 -147 -96 -188c-58 -50 -127 -72 -233 -72zM273 715c7 96 55 138 109 138
c59 0 90 -41 123 -41c14 0 24 6 28 35h97c-7 -96 -55 -138 -109 -138c-59 0 -90 41 -123 41c-14 0 -24 -6 -28 -35h-97z" />
    <glyph glyph-name="Udieresis" unicode="&#xdc;" horiz-adv-x="720" 
d="M300 -10c-157 0 -245 81 -245 211c0 23 2 48 8 74l84 384h155l-83 -372c-5 -23 -7 -44 -7 -61c0 -74 42 -109 110 -109c49 0 82 17 105 40c30 30 42 70 48 98l89 404h155l-90 -409c-18 -83 -49 -147 -96 -188c-58 -50 -127 -72 -233 -72zM344 697c-37 0 -64 24 -64 62
c0 49 34 85 77 85c37 0 64 -24 64 -62c0 -49 -34 -85 -77 -85zM543 697c-37 0 -64 24 -64 62c0 49 34 85 77 85c37 0 64 -24 64 -62c0 -49 -34 -85 -77 -85z" />
    <glyph glyph-name="Umacron" unicode="&#x16a;" horiz-adv-x="720" 
d="M300 -10c-157 0 -245 81 -245 211c0 23 2 48 8 74l84 384h155l-83 -372c-5 -23 -7 -44 -7 -61c0 -74 42 -109 110 -109c49 0 82 17 105 40c30 30 42 70 48 98l89 404h155l-90 -409c-18 -83 -49 -147 -96 -188c-58 -50 -127 -72 -233 -72zM284 696l23 112h311l-23 -112
h-311z" />
    <glyph glyph-name="Ubreve" unicode="&#x16c;" horiz-adv-x="720" 
d="M300 -10c-157 0 -245 81 -245 211c0 23 2 48 8 74l84 384h155l-83 -372c-5 -23 -7 -44 -7 -61c0 -74 42 -109 110 -109c49 0 82 17 105 40c30 30 42 70 48 98l89 404h155l-90 -409c-18 -83 -49 -147 -96 -188c-58 -50 -127 -72 -233 -72zM433 686c-90 0 -148 56 -138 152
h99c-3 -38 15 -63 49 -63s60 25 69 63h105c-21 -101 -94 -152 -184 -152z" />
    <glyph glyph-name="Uring" unicode="&#x16e;" horiz-adv-x="720" 
d="M300 -10c-157 0 -245 81 -245 211c0 23 2 48 8 74l84 384h155l-83 -372c-5 -23 -7 -44 -7 -61c0 -74 42 -109 110 -109c49 0 82 17 105 40c30 30 42 70 48 98l89 404h155l-90 -409c-18 -83 -49 -147 -96 -188c-58 -50 -127 -72 -233 -72zM433 643c-67 0 -112 29 -112 80
c0 70 60 118 142 118c67 0 112 -29 112 -80c0 -70 -60 -118 -142 -118zM441 702c26 0 42 27 42 52c0 18 -11 28 -28 28c-26 0 -42 -27 -42 -52c0 -18 11 -28 28 -28z" />
    <glyph glyph-name="Uhungarumlaut" unicode="&#x170;" horiz-adv-x="720" 
d="M300 -10c-157 0 -245 81 -245 211c0 23 2 48 8 74l84 384h155l-83 -372c-5 -23 -7 -44 -7 -61c0 -74 42 -109 110 -109c49 0 82 17 105 40c30 30 42 70 48 98l89 404h155l-90 -409c-18 -83 -49 -147 -96 -188c-58 -50 -127 -72 -233 -72zM285 696l75 147h161l-124 -147
h-112zM473 696l75 147h161l-124 -147h-112z" />
    <glyph glyph-name="Uogonek" unicode="&#x172;" horiz-adv-x="720" 
d="M360 -203c-26 -7 -57 -12 -90 -12c-71 0 -108 29 -108 80c0 58 39 95 89 127v2c-126 15 -196 91 -196 207c0 23 2 48 8 74l84 384h155l-83 -372c-5 -23 -7 -44 -7 -61c0 -74 42 -109 110 -109c94 0 137 65 153 138l89 404h155l-90 -409c-30 -135 -89 -211 -207 -247
c-63 -19 -138 -65 -138 -109c0 -19 14 -26 32 -26c11 0 23 2 37 6z" />
    <glyph glyph-name="Wgrave" unicode="&#x1e80;" horiz-adv-x="935" 
d="M174 -5l-97 664h164l35 -299c6 -54 11 -101 13 -143h2c16 40 32 74 59 126l106 203l-18 113h148l40 -301c8 -57 13 -97 17 -141h2c13 42 29 81 51 130l138 312h165l-329 -664h-131l-36 225c-8 48 -14 84 -18 120h-2c-11 -29 -28 -65 -55 -114l-126 -231h-128zM491 696
l-96 147h161l48 -147h-113z" />
    <glyph glyph-name="Wacute" unicode="&#x1e82;" horiz-adv-x="935" 
d="M174 -5l-97 664h164l35 -299c6 -54 11 -101 13 -143h2c16 40 32 74 59 126l106 203l-18 113h148l40 -301c8 -57 13 -97 17 -141h2c13 42 29 81 51 130l138 312h165l-329 -664h-131l-36 225c-8 48 -14 84 -18 120h-2c-11 -29 -28 -65 -55 -114l-126 -231h-128zM479 696
l75 147h161l-124 -147h-112z" />
    <glyph glyph-name="Wcircumflex" unicode="&#x174;" horiz-adv-x="935" 
d="M174 -5l-97 664h164l35 -299c6 -54 11 -101 13 -143h2c16 40 32 74 59 126l106 203l-18 113h148l40 -301c8 -57 13 -97 17 -141h2c13 42 29 81 51 130l138 312h165l-329 -664h-131l-36 225c-8 48 -14 84 -18 120h-2c-11 -29 -28 -65 -55 -114l-126 -231h-128zM390 696
l121 147h107l87 -147h-109l-40 67l-51 -67h-115z" />
    <glyph glyph-name="Wdieresis" unicode="&#x1e84;" horiz-adv-x="935" 
d="M174 -5l-97 664h164l35 -299c6 -54 11 -101 13 -143h2c16 40 32 74 59 126l106 203l-18 113h148l40 -301c8 -57 13 -97 17 -141h2c13 42 29 81 51 130l138 312h165l-329 -664h-131l-36 225c-8 48 -14 84 -18 120h-2c-11 -29 -28 -65 -55 -114l-126 -231h-128zM451 697
c-37 0 -64 24 -64 62c0 49 34 85 77 85c37 0 64 -24 64 -62c0 -49 -34 -85 -77 -85zM650 697c-37 0 -64 24 -64 62c0 49 34 85 77 85c37 0 64 -24 64 -62c0 -49 -34 -85 -77 -85z" />
    <glyph glyph-name="Ygrave" unicode="&#x1ef2;" horiz-adv-x="599" 
d="M174 0l57 260l-154 399h156l94 -267h2l165 267h171l-281 -409l-55 -250h-155zM313 696l-96 147h161l48 -147h-113z" />
    <glyph glyph-name="Yacute" unicode="&#xdd;" horiz-adv-x="599" 
d="M174 0l57 260l-154 399h156l94 -267h2l165 267h171l-281 -409l-55 -250h-155zM308 696l75 147h161l-124 -147h-112z" />
    <glyph glyph-name="Ycircumflex" unicode="&#x176;" horiz-adv-x="599" 
d="M174 0l57 260l-154 399h156l94 -267h2l165 267h171l-281 -409l-55 -250h-155zM219 696l121 147h107l87 -147h-109l-40 67l-51 -67h-115z" />
    <glyph glyph-name="Ydieresis" unicode="&#x178;" horiz-adv-x="599" 
d="M174 0l57 260l-154 399h156l94 -267h2l165 267h171l-281 -409l-55 -250h-155zM277 697c-37 0 -64 24 -64 62c0 49 34 85 77 85c37 0 64 -24 64 -62c0 -49 -34 -85 -77 -85zM476 697c-37 0 -64 24 -64 62c0 49 34 85 77 85c37 0 64 -24 64 -62c0 -49 -34 -85 -77 -85z" />
    <glyph glyph-name="Zacute" unicode="&#x179;" horiz-adv-x="565" 
d="M-41 0l381 536h-244l-9 123h506l-373 -536h277l-28 -123h-510zM266 696l75 147h161l-124 -147h-112z" />
    <glyph glyph-name="Zcaron" unicode="&#x17d;" horiz-adv-x="565" 
d="M-41 0l381 536h-244l-9 123h506l-373 -536h277l-28 -123h-510zM284 696l-87 147h109l40 -67l51 67h115l-121 -147h-107z" />
    <glyph glyph-name="Zdotaccent" unicode="&#x17b;" horiz-adv-x="565" 
d="M-41 0l381 536h-244l-9 123h506l-373 -536h277l-28 -123h-510zM338 697c-51 0 -84 36 -84 79c0 59 47 94 96 94c51 0 84 -35 84 -78c0 -59 -47 -95 -96 -95z" />
    <glyph glyph-name="Eng" unicode="&#x14a;" horiz-adv-x="780" 
d="M2 0l145 659h147l237 -418h1c5 25 12 59 16 77l75 341h155l-151 -686c-26 -118 -100 -176 -222 -176c-58 0 -96 12 -121 23l43 118c23 -11 47 -14 65 -14c47 0 71 21 89 93l2 8l-232 404h-1c-3 -21 -8 -45 -14 -71l-79 -358h-155z" />
    <glyph glyph-name="Eth" unicode="&#xd0;" horiz-adv-x="709" 
d="M2 0l60 274h-70l27 123h70l58 262h172c76 0 146 -12 203 -38c85 -39 141 -114 141 -238c0 -168 -95 -288 -229 -345c-59 -25 -125 -38 -202 -38h-230zM184 123h51c49 0 91 9 129 27c78 38 136 117 136 244c0 53 -21 96 -68 120c-28 14 -64 22 -111 22h-46l-31 -139h135
l-27 -123h-135z" />
    <glyph glyph-name="Thorn" unicode="&#xde;" horiz-adv-x="575" 
d="M2 0l145 659h155l-23 -103h6c53 0 93 -7 127 -22c68 -30 111 -88 111 -168c0 -100 -46 -183 -148 -224c-45 -18 -101 -29 -169 -29h-24l-25 -113h-155zM209 236h21c35 0 65 8 87 22c33 21 51 55 51 97c0 28 -9 53 -34 66c-14 7 -32 12 -56 12h-26z" />
    <glyph glyph-name="a" unicode="a" horiz-adv-x="507" 
d="M120 -10c-83 0 -135 54 -135 131c0 54 18 93 49 122c50 46 132 64 222 64h37c1 5 1 10 1 11c0 32 -15 55 -77 55c-41 0 -86 -11 -132 -29l-20 105c53 21 119 36 184 36c86 0 197 -23 197 -153c0 -32 -7 -69 -16 -104l-15 -58c-7 -29 -13 -59 -13 -89c0 -22 3 -43 9 -63
l-130 -28c-7 18 -16 57 -18 78c-33 -46 -86 -78 -143 -78zM167 106c43 0 96 34 110 92l3 12h-23c-62 0 -100 -12 -118 -32c-9 -10 -13 -22 -13 -35c0 -26 17 -37 41 -37z" />
    <glyph glyph-name="b" unicode="b" horiz-adv-x="563" 
d="M-6 16l154 692h151l-44 -201c-8 -38 -16 -64 -28 -97h2c44 53 93 75 146 75c78 0 136 -63 136 -159c0 -208 -158 -336 -355 -336c-25 0 -110 3 -162 26zM167 116c9 -3 23 -3 28 -3c102 0 166 91 166 187c0 35 -20 62 -53 62c-20 0 -42 -10 -62 -31
c-24 -25 -46 -68 -60 -129z" />
    <glyph glyph-name="c" unicode="c" horiz-adv-x="452" 
d="M234 -10c-165 0 -232 99 -232 210c0 147 97 285 293 285c52 0 104 -12 139 -28l-28 -119c-37 18 -71 28 -107 28c-77 0 -147 -55 -147 -156c0 -66 36 -101 102 -101c45 0 80 14 106 29l41 -105c-35 -23 -109 -43 -167 -43z" />
    <glyph glyph-name="d" unicode="d" horiz-adv-x="549" 
d="M245 -10c-156 0 -243 94 -243 221c0 164 116 274 280 274c32 0 67 -5 91 -12l52 235h151l-151 -681c-51 -21 -119 -37 -180 -37zM248 113c17 0 33 2 47 8l52 232c-10 4 -32 9 -53 9c-85 0 -142 -59 -142 -146c0 -62 38 -103 96 -103z" />
    <glyph glyph-name="e" unicode="e" horiz-adv-x="503" 
d="M228 -10c-154 0 -226 91 -226 206c0 157 108 289 274 289c117 0 183 -65 183 -162c0 -37 -8 -77 -23 -127l-288 -5v-8c0 -53 44 -77 95 -77c45 0 81 10 130 32l40 -105c-58 -30 -128 -43 -185 -43zM165 291l145 2c4 11 6 21 6 30c0 33 -24 50 -54 50
c-45 0 -84 -35 -97 -82z" />
    <glyph glyph-name="f" unicode="f" horiz-adv-x="367" 
d="M0 -221l-100 93c146 147 162 259 193 485h-91l19 116h87l8 48c7 43 23 81 47 112c37 47 92 75 162 75c43 0 84 -8 129 -35l-50 -116c-22 13 -45 21 -67 21c-40 0 -62 -22 -71 -75l-5 -30h120l-41 -116h-98c-32 -224 -56 -426 -242 -578z" />
    <glyph glyph-name="g" unicode="g" horiz-adv-x="537" 
d="M-44 -202l49 125c44 -21 78 -30 120 -30c79 0 122 37 140 114l12 51h-2c-39 -47 -91 -68 -138 -68c-65 0 -135 43 -135 172c0 171 98 323 316 323c84 0 153 -20 193 -36l-94 -424c-38 -173 -107 -262 -296 -262c-49 0 -107 8 -165 35zM202 113c31 0 90 21 120 162l17 80
c-11 4 -31 7 -49 7c-86 0 -138 -87 -138 -175c0 -41 13 -74 50 -74z" />
    <glyph glyph-name="h" unicode="h" horiz-adv-x="571" 
d="M-9 0l157 708h151l-54 -238c-8 -35 -16 -63 -26 -87h2c35 51 89 102 169 102c76 0 122 -40 122 -123c0 -21 -4 -49 -15 -99l-59 -263h-151l57 253c9 40 10 54 10 62c0 25 -12 39 -36 39c-21 0 -55 -13 -86 -58c-20 -29 -40 -71 -53 -131l-37 -165h-151z" />
    <glyph glyph-name="i" unicode="i" horiz-adv-x="260" 
d="M-19 0l105 473h151l-105 -473h-151zM182 529c-51 0 -84 36 -84 79c0 59 47 94 96 94c51 0 84 -35 84 -78c0 -59 -47 -95 -96 -95z" />
    <glyph glyph-name="j" unicode="j" horiz-adv-x="301" 
d="M-160 -217l46 120c21 -8 38 -10 53 -10c50 0 68 38 76 76l112 504h151l-118 -533c-32 -143 -122 -177 -208 -177c-42 0 -82 7 -112 20zM223 529c-51 0 -84 36 -84 79c0 59 47 94 96 94c51 0 84 -35 84 -78c0 -59 -47 -95 -96 -95z" />
    <glyph glyph-name="k" unicode="k" horiz-adv-x="530" 
d="M-9 0l157 708h151l-88 -392h2l167 157h180l-238 -220l140 -253h-168l-105 204h-2l-45 -204h-151z" />
    <glyph glyph-name="l" unicode="l" horiz-adv-x="329" 
d="M158 -8c-77 0 -136 42 -136 122c0 16 2 34 8 62l118 532h151l-117 -523c-3 -15 -5 -23 -5 -35c0 -19 11 -28 32 -28c10 0 23 1 36 5v-120c-29 -10 -55 -15 -87 -15z" />
    <glyph glyph-name="m" unicode="m" horiz-adv-x="844" 
d="M-19 0l105 473h116v-90h2c38 49 105 102 180 102c69 0 105 -37 107 -103h2c38 49 107 103 184 103c69 0 112 -36 113 -101c1 -34 -8 -78 -15 -110l-61 -274h-151l63 280c4 17 6 34 6 42c0 20 -9 32 -29 32c-17 0 -52 -9 -85 -51c-22 -28 -43 -70 -57 -134l-38 -169h-151
l63 280c4 17 6 34 6 43c0 19 -9 31 -29 31c-18 0 -53 -9 -86 -52c-21 -28 -42 -70 -56 -133l-38 -169h-151z" />
    <glyph glyph-name="n" unicode="n" horiz-adv-x="561" 
d="M-19 0l105 473h116v-90h2c38 49 96 102 176 102c76 0 122 -40 122 -123c0 -21 -4 -49 -15 -99l-59 -263h-151l57 253c9 40 10 54 10 62c0 25 -12 39 -36 39c-20 0 -52 -9 -82 -49c-21 -28 -42 -72 -57 -140l-37 -165h-151z" />
    <glyph glyph-name="o" unicode="o" horiz-adv-x="548" 
d="M2 203c0 156 114 282 273 282c138 0 221 -87 221 -213c0 -156 -114 -282 -273 -282c-138 0 -221 87 -221 213zM152 204c0 -65 32 -95 75 -95c60 0 119 64 119 162c0 65 -32 95 -75 95c-60 0 -119 -64 -119 -162z" />
    <glyph glyph-name="p" unicode="p" horiz-adv-x="550" 
d="M-72 -237l154 695c57 18 119 27 166 27c165 0 250 -82 250 -209c0 -167 -112 -286 -271 -286c-31 0 -63 5 -94 17l-54 -244h-151zM159 124c20 -8 39 -11 56 -11c82 0 133 70 133 148c0 75 -49 101 -103 101c-14 0 -29 -2 -34 -3z" />
    <glyph glyph-name="q" unicode="q" horiz-adv-x="537" 
d="M137 -10c-65 0 -135 43 -135 172c0 171 98 323 316 323c84 0 153 -20 193 -36l-152 -686h-151l43 194c10 44 18 79 26 101h-2c-39 -47 -91 -68 -138 -68zM202 113c31 0 90 21 120 162l17 80c-11 4 -31 7 -49 7c-86 0 -138 -87 -138 -175c0 -41 13 -74 50 -74z" />
    <glyph glyph-name="r" unicode="r" horiz-adv-x="394" 
d="M-19 0l105 473h116v-90h2c28 52 63 102 125 102c29 0 53 -9 79 -31l-64 -120c-15 10 -34 17 -51 17c-42 0 -92 -37 -124 -185l-36 -166h-152z" />
    <glyph glyph-name="s" unicode="s" 
d="M-42 40l47 107c40 -24 89 -41 129 -41c30 0 57 8 57 31c0 53 -165 58 -165 199c0 80 60 149 185 149c45 0 102 -6 159 -30l-24 -118c-35 16 -86 32 -127 32c-22 0 -42 -7 -42 -29c0 -60 165 -66 165 -200c0 -100 -84 -150 -197 -150c-66 0 -131 17 -187 50z" />
    <glyph glyph-name="t" unicode="t" horiz-adv-x="398" 
d="M184 -10c-105 0 -144 48 -144 118c0 18 2 38 10 73l39 176h-86l26 116h85l25 110l159 38l-33 -148h127l-46 -116h-107l-43 -194c-2 -8 -3 -16 -3 -23c0 -22 12 -31 33 -31c28 0 57 11 81 23l35 -106c-49 -22 -105 -36 -158 -36z" />
    <glyph glyph-name="u" unicode="u" horiz-adv-x="553" 
d="M147 -10c-68 0 -129 42 -129 136c0 24 4 56 14 103l54 244h151l-60 -266c-4 -17 -6 -29 -6 -41c0 -30 13 -49 40 -49c36 0 85 26 108 127l51 229h151l-67 -303c-6 -29 -12 -59 -12 -89c0 -22 3 -43 9 -63l-130 -28c-7 18 -15 57 -17 78h-2c-34 -38 -84 -78 -155 -78z" />
    <glyph glyph-name="v" unicode="v" horiz-adv-x="489" 
d="M140 -3l-107 476h145l24 -146c8 -47 17 -103 23 -143h2c14 34 35 81 58 129l77 160h153l-258 -476h-117z" />
    <glyph glyph-name="w" unicode="w" horiz-adv-x="737" 
d="M112 -3l-78 476h142l20 -162c6 -46 10 -80 13 -120h2c13 32 29 66 50 108l89 174h93l23 -149c9 -56 14 -98 17 -133h2c11 29 29 69 50 115l78 167h153l-259 -476h-105l-27 165c-6 39 -11 74 -15 102h-2c-13 -28 -31 -62 -55 -105l-89 -162h-102z" />
    <glyph glyph-name="x" unicode="x" horiz-adv-x="520" 
d="M-77 0l233 245l-140 228h153l82 -135l124 135h164l-225 -240l142 -233h-153l-85 140l-131 -140h-164z" />
    <glyph glyph-name="y" unicode="y" horiz-adv-x="522" 
d="M-120 -211l54 110c25 -12 44 -17 69 -17c40 0 89 23 144 126l-115 465h145l38 -177c10 -48 19 -93 28 -139h2c19 43 34 77 58 125l97 191h148l-256 -473c-86 -157 -157 -237 -297 -237c-44 0 -88 10 -115 26z" />
    <glyph glyph-name="z" unicode="z" horiz-adv-x="448" 
d="M-58 0l255 357h-164l-12 116h419l-257 -357h203l-25 -116h-419z" />
    <glyph glyph-name="agrave" unicode="&#xe0;" horiz-adv-x="507" 
d="M120 -10c-83 0 -135 54 -135 131c0 54 18 93 49 122c50 46 132 64 222 64h37c1 5 1 10 1 11c0 32 -15 55 -77 55c-41 0 -86 -11 -132 -29l-20 105c53 21 119 36 184 36c86 0 197 -23 197 -153c0 -32 -7 -69 -16 -104l-15 -58c-7 -29 -13 -59 -13 -89c0 -22 3 -43 9 -63
l-130 -28c-7 18 -16 57 -18 78c-33 -46 -86 -78 -143 -78zM167 106c43 0 96 34 110 92l3 12h-23c-62 0 -100 -12 -118 -32c-9 -10 -13 -22 -13 -35c0 -26 17 -37 41 -37zM243 531l-96 147h161l48 -147h-113z" />
    <glyph glyph-name="aacute" unicode="&#xe1;" horiz-adv-x="507" 
d="M120 -10c-83 0 -135 54 -135 131c0 54 18 93 49 122c50 46 132 64 222 64h37c1 5 1 10 1 11c0 32 -15 55 -77 55c-41 0 -86 -11 -132 -29l-20 105c53 21 119 36 184 36c86 0 197 -23 197 -153c0 -32 -7 -69 -16 -104l-15 -58c-7 -29 -13 -59 -13 -89c0 -22 3 -43 9 -63
l-130 -28c-7 18 -16 57 -18 78c-33 -46 -86 -78 -143 -78zM167 106c43 0 96 34 110 92l3 12h-23c-62 0 -100 -12 -118 -32c-9 -10 -13 -22 -13 -35c0 -26 17 -37 41 -37zM214 531l75 147h161l-124 -147h-112z" />
    <glyph glyph-name="acircumflex" unicode="&#xe2;" horiz-adv-x="507" 
d="M120 -10c-83 0 -135 54 -135 131c0 54 18 93 49 122c50 46 132 64 222 64h37c1 5 1 10 1 11c0 32 -15 55 -77 55c-41 0 -86 -11 -132 -29l-20 105c53 21 119 36 184 36c86 0 197 -23 197 -153c0 -32 -7 -69 -16 -104l-15 -58c-7 -29 -13 -59 -13 -89c0 -22 3 -43 9 -63
l-130 -28c-7 18 -16 57 -18 78c-33 -46 -86 -78 -143 -78zM167 106c43 0 96 34 110 92l3 12h-23c-62 0 -100 -12 -118 -32c-9 -10 -13 -22 -13 -35c0 -26 17 -37 41 -37zM116 531l121 147h107l87 -147h-109l-40 67l-51 -67h-115z" />
    <glyph glyph-name="atilde" unicode="&#xe3;" horiz-adv-x="507" 
d="M120 -10c-83 0 -135 54 -135 131c0 54 18 93 49 122c50 46 132 64 222 64h37c1 5 1 10 1 11c0 32 -15 55 -77 55c-41 0 -86 -11 -132 -29l-20 105c53 21 119 36 184 36c86 0 197 -23 197 -153c0 -32 -7 -69 -16 -104l-15 -58c-7 -29 -13 -59 -13 -89c0 -22 3 -43 9 -63
l-130 -28c-7 18 -16 57 -18 78c-33 -46 -86 -78 -143 -78zM167 106c43 0 96 34 110 92l3 12h-23c-62 0 -100 -12 -118 -32c-9 -10 -13 -22 -13 -35c0 -26 17 -37 41 -37zM108 542c7 96 55 138 109 138c59 0 90 -41 123 -41c14 0 24 6 28 35h97c-7 -96 -55 -138 -109 -138
c-59 0 -90 41 -123 41c-14 0 -24 -6 -28 -35h-97z" />
    <glyph glyph-name="adieresis" unicode="&#xe4;" horiz-adv-x="507" 
d="M120 -10c-83 0 -135 54 -135 131c0 54 18 93 49 122c50 46 132 64 222 64h37c1 5 1 10 1 11c0 32 -15 55 -77 55c-41 0 -86 -11 -132 -29l-20 105c53 21 119 36 184 36c86 0 197 -23 197 -153c0 -32 -7 -69 -16 -104l-15 -58c-7 -29 -13 -59 -13 -89c0 -22 3 -43 9 -63
l-130 -28c-7 18 -16 57 -18 78c-33 -46 -86 -78 -143 -78zM167 106c43 0 96 34 110 92l3 12h-23c-62 0 -100 -12 -118 -32c-9 -10 -13 -22 -13 -35c0 -26 17 -37 41 -37zM186 532c-37 0 -64 24 -64 62c0 49 34 85 77 85c37 0 64 -24 64 -62c0 -49 -34 -85 -77 -85zM385 532
c-37 0 -64 24 -64 62c0 49 34 85 77 85c37 0 64 -24 64 -62c0 -49 -34 -85 -77 -85z" />
    <glyph glyph-name="amacron" unicode="&#x101;" horiz-adv-x="507" 
d="M120 -10c-83 0 -135 54 -135 131c0 54 18 93 49 122c50 46 132 64 222 64h37c1 5 1 10 1 11c0 32 -15 55 -77 55c-41 0 -86 -11 -132 -29l-20 105c53 21 119 36 184 36c86 0 197 -23 197 -153c0 -32 -7 -69 -16 -104l-15 -58c-7 -29 -13 -59 -13 -89c0 -22 3 -43 9 -63
l-130 -28c-7 18 -16 57 -18 78c-33 -46 -86 -78 -143 -78zM167 106c43 0 96 34 110 92l3 12h-23c-62 0 -100 -12 -118 -32c-9 -10 -13 -22 -13 -35c0 -26 17 -37 41 -37zM128 565l23 112h311l-23 -112h-311z" />
    <glyph glyph-name="abreve" unicode="&#x103;" horiz-adv-x="507" 
d="M120 -10c-83 0 -135 54 -135 131c0 54 18 93 49 122c50 46 132 64 222 64h37c1 5 1 10 1 11c0 32 -15 55 -77 55c-41 0 -86 -11 -132 -29l-20 105c53 21 119 36 184 36c86 0 197 -23 197 -153c0 -32 -7 -69 -16 -104l-15 -58c-7 -29 -13 -59 -13 -89c0 -22 3 -43 9 -63
l-130 -28c-7 18 -16 57 -18 78c-33 -46 -86 -78 -143 -78zM167 106c43 0 96 34 110 92l3 12h-23c-62 0 -100 -12 -118 -32c-9 -10 -13 -22 -13 -35c0 -26 17 -37 41 -37zM276 538c-90 0 -148 56 -138 152h99c-3 -38 15 -63 49 -63s60 25 69 63h105
c-21 -101 -94 -152 -184 -152z" />
    <glyph glyph-name="aring" unicode="&#xe5;" horiz-adv-x="507" 
d="M120 -10c-83 0 -135 54 -135 131c0 54 18 93 49 122c50 46 132 64 222 64h37c1 5 1 10 1 11c0 32 -15 55 -77 55c-41 0 -86 -11 -132 -29l-20 105c53 21 119 36 184 36c86 0 197 -23 197 -153c0 -32 -7 -69 -16 -104l-15 -58c-7 -29 -13 -59 -13 -89c0 -22 3 -43 9 -63
l-130 -28c-7 18 -16 57 -18 78c-33 -46 -86 -78 -143 -78zM167 106c43 0 96 34 110 92l3 12h-23c-62 0 -100 -12 -118 -32c-9 -10 -13 -22 -13 -35c0 -26 17 -37 41 -37zM281 522c-67 0 -112 29 -112 80c0 70 60 118 142 118c67 0 112 -29 112 -80c0 -70 -60 -118 -142 -118
zM289 581c26 0 42 27 42 52c0 18 -11 28 -28 28c-26 0 -42 -27 -42 -52c0 -18 11 -28 28 -28z" />
    <glyph glyph-name="aringacute" unicode="&#x1fb;" horiz-adv-x="507" 
d="M278 515c-67 0 -112 29 -112 80c0 60 45 105 110 115l67 133h161l-125 -145c26 -14 41 -36 41 -65c0 -70 -60 -118 -142 -118zM286 574c26 0 42 27 42 52c0 18 -11 28 -28 28c-26 0 -42 -27 -42 -52c0 -18 11 -28 28 -28zM120 -10c-83 0 -135 54 -135 131
c0 54 18 93 49 122c50 46 132 64 222 64h37c1 5 1 10 1 11c0 32 -15 55 -77 55c-41 0 -86 -11 -132 -29l-20 105c53 21 119 36 184 36c86 0 197 -23 197 -153c0 -32 -7 -69 -16 -104l-15 -58c-7 -29 -13 -59 -13 -89c0 -22 3 -43 9 -63l-130 -28c-7 18 -16 57 -18 78
c-33 -46 -86 -78 -143 -78zM167 106c43 0 96 34 110 92l3 12h-23c-62 0 -100 -12 -118 -32c-9 -10 -13 -22 -13 -35c0 -26 17 -37 41 -37z" />
    <glyph glyph-name="aogonek" unicode="&#x105;" horiz-adv-x="507" 
d="M120 -10c-83 0 -135 54 -135 131c0 54 18 93 49 122c50 46 132 64 222 64h37c1 5 1 10 1 11c0 32 -15 55 -77 55c-41 0 -86 -11 -132 -29l-20 105c53 21 119 36 184 36c86 0 197 -23 197 -153c0 -32 -7 -69 -16 -104l-15 -58c-7 -29 -13 -61 -13 -91c0 -22 3 -53 9 -73
c-67 -28 -132 -72 -132 -112c0 -19 14 -26 32 -26c11 0 23 2 37 6l7 -77c-26 -7 -57 -12 -90 -12c-71 0 -108 29 -108 80c0 68 73 116 120 135c-6 20 -13 50 -14 68c-33 -46 -86 -78 -143 -78zM167 106c43 0 96 34 110 92l3 12h-23c-62 0 -100 -12 -118 -32
c-9 -10 -13 -22 -13 -35c0 -26 17 -37 41 -37z" />
    <glyph glyph-name="ae" unicode="&#xe6;" horiz-adv-x="783" 
d="M132 -10c-83 0 -147 54 -147 136c0 136 131 171 271 171h37c1 5 1 16 1 17c0 32 -15 59 -77 59c-41 0 -86 -11 -132 -29l-20 105c53 21 117 36 177 36c61 0 119 -17 151 -65h2c41 39 94 65 159 65c117 0 183 -65 183 -162c0 -41 -10 -87 -22 -121l-289 -5v-10
c0 -53 44 -81 95 -81c45 0 81 10 130 32l40 -105c-58 -30 -119 -43 -176 -43c-102 0 -155 43 -184 96h-2c-52 -67 -123 -96 -197 -96zM167 106c43 0 96 25 110 83l2 8h-21c-76 0 -132 -9 -132 -54c0 -26 17 -37 41 -37zM444 297l146 2c3 9 4 18 4 24c0 33 -24 50 -54 50
c-45 0 -83 -29 -96 -76z" />
    <glyph glyph-name="aeacute" unicode="&#x1fd;" horiz-adv-x="783" 
d="M132 -10c-83 0 -147 54 -147 136c0 136 131 171 271 171h37c1 5 1 16 1 17c0 32 -15 59 -77 59c-41 0 -86 -11 -132 -29l-20 105c53 21 117 36 177 36c61 0 119 -17 151 -65h2c41 39 94 65 159 65c117 0 183 -65 183 -162c0 -41 -10 -87 -22 -121l-289 -5v-10
c0 -53 44 -81 95 -81c45 0 81 10 130 32l40 -105c-58 -30 -119 -43 -176 -43c-102 0 -155 43 -184 96h-2c-52 -67 -123 -96 -197 -96zM167 106c43 0 96 25 110 83l2 8h-21c-76 0 -132 -9 -132 -54c0 -26 17 -37 41 -37zM444 297l146 2c3 9 4 18 4 24c0 33 -24 50 -54 50
c-45 0 -83 -29 -96 -76zM361 531l75 147h161l-124 -147h-112z" />
    <glyph glyph-name="cacute" unicode="&#x107;" horiz-adv-x="452" 
d="M234 -10c-165 0 -232 99 -232 210c0 147 97 285 293 285c52 0 104 -12 139 -28l-28 -119c-37 18 -71 28 -107 28c-77 0 -147 -55 -147 -156c0 -66 36 -101 102 -101c45 0 80 14 106 29l41 -105c-35 -23 -109 -43 -167 -43zM217 531l75 147h161l-124 -147h-112z" />
    <glyph glyph-name="ccircumflex" unicode="&#x109;" horiz-adv-x="452" 
d="M234 -10c-165 0 -232 99 -232 210c0 147 97 285 293 285c52 0 104 -12 139 -28l-28 -119c-37 18 -71 28 -107 28c-77 0 -147 -55 -147 -156c0 -66 36 -101 102 -101c45 0 80 14 106 29l41 -105c-35 -23 -109 -43 -167 -43zM134 531l121 147h107l87 -147h-109l-40 67
l-51 -67h-115z" />
    <glyph glyph-name="ccaron" unicode="&#x10d;" horiz-adv-x="452" 
d="M234 -10c-165 0 -232 99 -232 210c0 147 97 285 293 285c52 0 104 -12 139 -28l-28 -119c-37 18 -71 28 -107 28c-77 0 -147 -55 -147 -156c0 -66 36 -101 102 -101c45 0 80 14 106 29l41 -105c-35 -23 -109 -43 -167 -43zM241 531l-87 147h109l40 -67l51 67h115
l-121 -147h-107z" />
    <glyph glyph-name="cdotaccent" unicode="&#x10b;" horiz-adv-x="452" 
d="M234 -10c-165 0 -232 99 -232 210c0 147 97 285 293 285c52 0 104 -12 139 -28l-28 -119c-37 18 -71 28 -107 28c-77 0 -147 -55 -147 -156c0 -66 36 -101 102 -101c45 0 80 14 106 29l41 -105c-35 -23 -109 -43 -167 -43zM302 529c-51 0 -84 36 -84 79c0 59 47 94 96 94
c51 0 84 -35 84 -78c0 -59 -47 -95 -96 -95z" />
    <glyph glyph-name="ccedilla" unicode="&#xe7;" horiz-adv-x="452" 
d="M45 -198l28 62c11 -5 29 -9 47 -9c30 0 51 10 51 32c0 21 -28 26 -72 26l44 89c-99 29 -141 110 -141 198c0 147 97 285 293 285c52 0 104 -12 139 -28l-28 -119c-37 18 -71 28 -107 28c-77 0 -147 -55 -147 -156c0 -66 36 -101 102 -101c45 0 80 14 106 29l41 -105
c-34 -22 -104 -41 -161 -43l-18 -36c46 -4 76 -22 76 -65c0 -63 -65 -101 -165 -101c-30 0 -64 5 -88 14z" />
    <glyph glyph-name="dcaron" unicode="&#x10f;" horiz-adv-x="549" 
d="M245 -10c-156 0 -243 94 -243 221c0 164 116 274 280 274c32 0 67 -5 91 -12l52 235h151l-151 -681c-51 -21 -119 -37 -180 -37zM248 113c17 0 33 2 47 8l52 232c-10 4 -32 9 -53 9c-85 0 -142 -59 -142 -146c0 -62 38 -103 96 -103zM620 484l-53 94c51 14 76 42 76 82
c0 17 -4 33 -11 48h128c6 -11 12 -29 12 -56c0 -72 -48 -134 -152 -168z" />
    <glyph glyph-name="dcroat" unicode="&#x111;" horiz-adv-x="549" 
d="M245 -10c-156 0 -243 94 -243 221c0 164 116 274 280 274c32 0 67 -5 91 -12l15 68h-140l24 109h140l13 58h151l-13 -58h53l-24 -109h-53l-114 -514c-51 -21 -119 -37 -180 -37zM248 113c17 0 33 2 47 8l52 232c-10 4 -32 9 -53 9c-85 0 -142 -59 -142 -146
c0 -62 38 -103 96 -103z" />
    <glyph glyph-name="egrave" unicode="&#xe8;" horiz-adv-x="503" 
d="M228 -10c-154 0 -226 91 -226 206c0 157 108 289 274 289c117 0 183 -65 183 -162c0 -37 -8 -77 -23 -127l-288 -5v-8c0 -53 44 -77 95 -77c45 0 81 10 130 32l40 -105c-58 -30 -128 -43 -185 -43zM165 291l145 2c4 11 6 21 6 30c0 33 -24 50 -54 50
c-45 0 -84 -35 -97 -82zM259 531l-96 147h161l48 -147h-113z" />
    <glyph glyph-name="eacute" unicode="&#xe9;" horiz-adv-x="503" 
d="M228 -10c-154 0 -226 91 -226 206c0 157 108 289 274 289c117 0 183 -65 183 -162c0 -37 -8 -77 -23 -127l-288 -5v-8c0 -53 44 -77 95 -77c45 0 81 10 130 32l40 -105c-58 -30 -128 -43 -185 -43zM165 291l145 2c4 11 6 21 6 30c0 33 -24 50 -54 50
c-45 0 -84 -35 -97 -82zM230 531l75 147h161l-124 -147h-112z" />
    <glyph glyph-name="ecircumflex" unicode="&#xea;" horiz-adv-x="503" 
d="M228 -10c-154 0 -226 91 -226 206c0 157 108 289 274 289c117 0 183 -65 183 -162c0 -37 -8 -77 -23 -127l-288 -5v-8c0 -53 44 -77 95 -77c45 0 81 10 130 32l40 -105c-58 -30 -128 -43 -185 -43zM165 291l145 2c4 11 6 21 6 30c0 33 -24 50 -54 50
c-45 0 -84 -35 -97 -82zM134 531l121 147h107l87 -147h-109l-40 67l-51 -67h-115z" />
    <glyph glyph-name="ecaron" unicode="&#x11b;" horiz-adv-x="503" 
d="M228 -10c-154 0 -226 91 -226 206c0 157 108 289 274 289c117 0 183 -65 183 -162c0 -37 -8 -77 -23 -127l-288 -5v-8c0 -53 44 -77 95 -77c45 0 81 10 130 32l40 -105c-58 -30 -128 -43 -185 -43zM165 291l145 2c4 11 6 21 6 30c0 33 -24 50 -54 50
c-45 0 -84 -35 -97 -82zM241 531l-87 147h109l40 -67l51 67h115l-121 -147h-107z" />
    <glyph glyph-name="edieresis" unicode="&#xeb;" horiz-adv-x="503" 
d="M228 -10c-154 0 -226 91 -226 206c0 157 108 289 274 289c117 0 183 -65 183 -162c0 -37 -8 -77 -23 -127l-288 -5v-8c0 -53 44 -77 95 -77c45 0 81 10 130 32l40 -105c-58 -30 -128 -43 -185 -43zM165 291l145 2c4 11 6 21 6 30c0 33 -24 50 -54 50
c-45 0 -84 -35 -97 -82zM202 532c-37 0 -64 24 -64 62c0 49 34 85 77 85c37 0 64 -24 64 -62c0 -49 -34 -85 -77 -85zM401 532c-37 0 -64 24 -64 62c0 49 34 85 77 85c37 0 64 -24 64 -62c0 -49 -34 -85 -77 -85z" />
    <glyph glyph-name="emacron" unicode="&#x113;" horiz-adv-x="503" 
d="M228 -10c-154 0 -226 91 -226 206c0 157 108 289 274 289c117 0 183 -65 183 -162c0 -37 -8 -77 -23 -127l-288 -5v-8c0 -53 44 -77 95 -77c45 0 81 10 130 32l40 -105c-58 -30 -128 -43 -185 -43zM165 291l145 2c4 11 6 21 6 30c0 33 -24 50 -54 50
c-45 0 -84 -35 -97 -82zM137 565l23 112h311l-23 -112h-311z" />
    <glyph glyph-name="ebreve" unicode="&#x115;" horiz-adv-x="503" 
d="M228 -10c-154 0 -226 91 -226 206c0 157 108 289 274 289c117 0 183 -65 183 -162c0 -37 -8 -77 -23 -127l-288 -5v-8c0 -53 44 -77 95 -77c45 0 81 10 130 32l40 -105c-58 -30 -128 -43 -185 -43zM165 291l145 2c4 11 6 21 6 30c0 33 -24 50 -54 50
c-45 0 -84 -35 -97 -82zM294 538c-90 0 -148 56 -138 152h99c-3 -38 15 -63 49 -63s60 25 69 63h105c-21 -101 -94 -152 -184 -152z" />
    <glyph glyph-name="edotaccent" unicode="&#x117;" horiz-adv-x="503" 
d="M228 -10c-154 0 -226 91 -226 206c0 157 108 289 274 289c117 0 183 -65 183 -162c0 -37 -8 -77 -23 -127l-288 -5v-8c0 -53 44 -77 95 -77c45 0 81 10 130 32l40 -105c-58 -30 -128 -43 -185 -43zM165 291l145 2c4 11 6 21 6 30c0 33 -24 50 -54 50
c-45 0 -84 -35 -97 -82zM291 529c-51 0 -84 36 -84 79c0 59 47 94 96 94c51 0 84 -35 84 -78c0 -59 -47 -95 -96 -95z" />
    <glyph glyph-name="eogonek" unicode="&#x119;" horiz-adv-x="503" 
d="M225 -215c-71 0 -108 29 -108 80c0 55 38 94 88 125v2c-2 0 -24 2 -35 4c-114 20 -168 101 -168 200c0 157 108 289 274 289c117 0 183 -65 183 -162c0 -37 -8 -77 -23 -127l-288 -5v-8c0 -53 44 -77 95 -77c45 0 81 10 130 32l40 -105c-86 -37 -174 -94 -174 -139
c0 -19 14 -26 32 -26c11 0 23 2 37 6l7 -77c-26 -7 -57 -12 -90 -12zM165 291l145 2c4 11 6 21 6 30c0 33 -24 50 -54 50c-45 0 -84 -35 -97 -82z" />
    <glyph glyph-name="gcircumflex" unicode="&#x11d;" horiz-adv-x="526" 
d="M-44 -202l49 125c44 -21 78 -30 120 -30c79 0 122 37 140 114l12 51h-2c-39 -47 -91 -68 -138 -68c-65 0 -135 43 -135 172c0 171 98 323 316 323c84 0 153 -20 193 -36l-94 -424c-38 -173 -107 -262 -296 -262c-49 0 -107 8 -165 35zM202 113c31 0 90 21 120 162l17 80
c-11 4 -31 7 -49 7c-86 0 -138 -87 -138 -175c0 -41 13 -74 50 -74zM167 531l121 147h107l87 -147h-109l-40 67l-51 -67h-115z" />
    <glyph glyph-name="gbreve" unicode="&#x11f;" horiz-adv-x="526" 
d="M-44 -202l49 125c44 -21 78 -30 120 -30c79 0 122 37 140 114l12 51h-2c-39 -47 -91 -68 -138 -68c-65 0 -135 43 -135 172c0 171 98 323 316 323c84 0 153 -20 193 -36l-94 -424c-38 -173 -107 -262 -296 -262c-49 0 -107 8 -165 35zM202 113c31 0 90 21 120 162l17 80
c-11 4 -31 7 -49 7c-86 0 -138 -87 -138 -175c0 -41 13 -74 50 -74zM330 538c-90 0 -148 56 -138 152h99c-3 -38 15 -63 49 -63s60 25 69 63h105c-21 -101 -94 -152 -184 -152z" />
    <glyph glyph-name="gdotaccent" unicode="&#x121;" horiz-adv-x="526" 
d="M-44 -202l49 125c44 -21 78 -30 120 -30c79 0 122 37 140 114l12 51h-2c-39 -47 -91 -68 -138 -68c-65 0 -135 43 -135 172c0 171 98 323 316 323c84 0 153 -20 193 -36l-94 -424c-38 -173 -107 -262 -296 -262c-49 0 -107 8 -165 35zM202 113c31 0 90 21 120 162l17 80
c-11 4 -31 7 -49 7c-86 0 -138 -87 -138 -175c0 -41 13 -74 50 -74zM329 529c-51 0 -84 36 -84 79c0 59 47 94 96 94c51 0 84 -35 84 -78c0 -59 -47 -95 -96 -95z" />
    <glyph glyph-name="gcommaaccent" unicode="&#x123;" horiz-adv-x="526" 
d="M246 531c-6 17 -9 35 -9 50c0 76 55 125 189 135l27 -94c-57 -8 -81 -27 -81 -56c0 -11 3 -21 8 -35h-134zM-44 -202l49 125c44 -21 78 -30 120 -30c79 0 122 37 140 114l12 51h-2c-39 -47 -91 -68 -138 -68c-65 0 -135 43 -135 172c0 171 98 323 316 323
c84 0 153 -20 193 -36l-94 -424c-38 -173 -107 -262 -296 -262c-49 0 -107 8 -165 35zM202 113c31 0 90 21 120 162l17 80c-11 4 -31 7 -49 7c-86 0 -138 -87 -138 -175c0 -41 13 -74 50 -74z" />
    <glyph glyph-name="hcircumflex" unicode="&#x125;" horiz-adv-x="573" 
d="M-9 0l157 708h151l-54 -238c-8 -35 -16 -63 -26 -87h2c35 51 89 102 169 102c76 0 122 -40 122 -123c0 -21 -4 -49 -15 -99l-59 -263h-151l57 253c9 40 10 54 10 62c0 25 -12 39 -36 39c-21 0 -55 -13 -86 -58c-20 -29 -40 -71 -53 -131l-37 -165h-151zM66 726l121 147
h107l87 -147h-109l-40 67l-51 -67h-115z" />
    <glyph glyph-name="hbar" unicode="&#x127;" horiz-adv-x="571" 
d="M-9 0l118 534h-51l27 112h49l14 62h151l-14 -62h115l-27 -112h-114l-14 -64c-8 -35 -16 -63 -26 -87h2c35 51 89 102 169 102c76 0 122 -40 122 -123c0 -21 -4 -49 -15 -99l-59 -263h-151l57 253c9 40 10 54 10 62c0 25 -12 39 -36 39c-20 0 -51 -12 -81 -51
c-22 -29 -44 -73 -60 -146l-35 -157h-151z" />
    <glyph glyph-name="igrave" unicode="&#xec;" horiz-adv-x="260" 
d="M-19 0l105 473h151l-105 -473h-151zM137 531l-96 147h161l48 -147h-113z" />
    <glyph glyph-name="iacute" unicode="&#xed;" horiz-adv-x="260" 
d="M-19 0l105 473h151l-105 -473h-151zM100 531l75 147h161l-124 -147h-112z" />
    <glyph glyph-name="icircumflex" unicode="&#xee;" horiz-adv-x="260" 
d="M-19 0l105 473h151l-105 -473h-151zM12 531l121 147h107l87 -147h-109l-40 67l-51 -67h-115z" />
    <glyph glyph-name="itilde" unicode="&#x129;" horiz-adv-x="260" 
d="M-19 0l105 473h151l-105 -473h-151zM2 542c7 96 55 138 109 138c59 0 90 -41 123 -41c14 0 24 6 28 35h97c-7 -96 -55 -138 -109 -138c-59 0 -90 41 -123 41c-14 0 -24 -6 -28 -35h-97z" />
    <glyph glyph-name="idieresis" unicode="&#xef;" horiz-adv-x="260" 
d="M-19 0l105 473h151l-105 -473h-151zM76 532c-37 0 -64 24 -64 62c0 49 34 85 77 85c37 0 64 -24 64 -62c0 -49 -34 -85 -77 -85zM275 532c-37 0 -64 24 -64 62c0 49 34 85 77 85c37 0 64 -24 64 -62c0 -49 -34 -85 -77 -85z" />
    <glyph glyph-name="imacron" unicode="&#x12b;" horiz-adv-x="260" 
d="M-19 0l105 473h151l-105 -473h-151zM22 565l23 112h311l-23 -112h-311z" />
    <glyph glyph-name="ibreve" unicode="&#x12d;" horiz-adv-x="260" 
d="M-19 0l105 473h151l-105 -473h-151zM176 538c-90 0 -148 56 -138 152h99c-3 -38 15 -63 49 -63s60 25 69 63h105c-21 -101 -94 -152 -184 -152z" />
    <glyph glyph-name="iogonek" unicode="&#x12f;" horiz-adv-x="260" 
d="M13 -215c-71 0 -108 29 -108 80c0 58 30 100 76 135l105 473h151l-105 -473c-65 -31 -105 -66 -105 -106c0 -19 14 -26 32 -26c11 0 23 2 37 6l7 -77c-26 -7 -57 -12 -90 -12zM182 529c-51 0 -84 36 -84 79c0 59 47 94 96 94c51 0 84 -35 84 -78c0 -59 -47 -95 -96 -95z
" />
    <glyph glyph-name="dotlessi" unicode="&#x131;" horiz-adv-x="260" 
d="M-19 0l105 473h151l-105 -473h-151z" />
    <glyph glyph-name="ij" unicode="&#x133;" horiz-adv-x="523" 
d="M-19 0l105 473h151l-105 -473h-151zM182 529c-51 0 -84 36 -84 79c0 59 47 94 96 94c51 0 84 -35 84 -78c0 -59 -47 -95 -96 -95zM62 -217l46 120c21 -8 38 -10 53 -10c50 0 68 38 76 76l112 504h151l-118 -533c-32 -143 -122 -177 -208 -177c-42 0 -82 7 -112 20z
M445 529c-51 0 -84 36 -84 79c0 59 47 94 96 94c51 0 84 -35 84 -78c0 -59 -47 -95 -96 -95z" />
    <glyph glyph-name="jcircumflex" unicode="&#x135;" horiz-adv-x="301" 
d="M-160 -217l41 108c23 -9 38 -10 56 -10c47 0 68 41 76 79l114 513h151l-118 -534c-32 -143 -122 -176 -208 -176c-45 0 -82 7 -112 20zM46 531l121 147h107l87 -147h-109l-40 67l-51 -67h-115z" />
    <glyph glyph-name="kcommaaccent" unicode="&#x137;" horiz-adv-x="530" 
d="M-9 0l157 708h151l-88 -392h2l167 157h180l-238 -220l140 -253h-168l-105 204h-2l-45 -204h-151zM93 -237l-27 94c57 8 81 27 81 56c0 11 -3 21 -8 35h134c6 -17 9 -35 9 -50c0 -76 -55 -125 -189 -135z" />
    <glyph glyph-name="lacute" unicode="&#x13a;" horiz-adv-x="329" 
d="M156 732l65 127h154l-107 -127h-112zM158 -8c-77 0 -136 42 -136 122c0 16 2 34 8 62l118 532h151l-117 -523c-3 -15 -5 -23 -5 -35c0 -19 11 -28 32 -28c10 0 23 1 36 5v-120c-29 -10 -55 -15 -87 -15z" />
    <glyph glyph-name="lcaron" unicode="&#x13e;" horiz-adv-x="329" 
d="M158 -8c-77 0 -136 42 -136 122c0 16 2 34 8 62l118 532h151l-117 -523c-3 -15 -5 -23 -5 -35c0 -19 11 -28 32 -28c10 0 23 1 36 5v-120c-29 -10 -55 -15 -87 -15zM335 484l-53 94c51 14 76 42 76 82c0 17 -4 33 -11 48h128c6 -11 12 -29 12 -56
c0 -72 -48 -134 -152 -168z" />
    <glyph glyph-name="lcommaaccent" unicode="&#x13c;" horiz-adv-x="329" 
d="M160 -8c-77 0 -136 42 -136 122c0 16 2 34 8 62l118 532h151l-117 -523c-3 -15 -5 -23 -5 -35c0 -19 11 -28 32 -28c10 0 23 1 36 5v-120c-29 -10 -55 -15 -87 -15zM-18 -237l-27 94c57 8 81 27 81 56c0 11 -3 21 -8 35h134c6 -17 9 -35 9 -50c0 -76 -55 -125 -189 -135z
" />
    <glyph glyph-name="lslash" unicode="&#x142;" horiz-adv-x="346" 
d="M175 -8c-77 0 -136 42 -136 122c0 16 2 34 8 62l14 66l-56 -29l31 141l57 29l72 325h151l-53 -236l62 32l-31 -141l-63 -33l-32 -145c-3 -15 -5 -23 -5 -35c0 -19 11 -28 32 -28c10 0 23 1 36 5v-120c-29 -10 -55 -15 -87 -15z" />
    <glyph glyph-name="ldot" unicode="&#x140;" horiz-adv-x="351" 
d="M158 -8c-77 0 -136 42 -136 122c0 16 2 34 8 62l118 532h151l-117 -523c-3 -15 -5 -23 -5 -35c0 -19 11 -28 32 -28c10 0 23 1 36 5v-120c-29 -10 -55 -15 -87 -15zM283 167c-41 0 -71 31 -71 73c0 51 39 91 88 91c42 0 72 -31 72 -74c0 -50 -40 -90 -89 -90z" />
    <glyph glyph-name="nacute" unicode="&#x144;" horiz-adv-x="558" 
d="M-19 0l105 473h116v-90h2c38 49 96 102 176 102c76 0 122 -40 122 -123c0 -21 -4 -49 -15 -99l-59 -263h-151l57 253c9 40 10 54 10 62c0 25 -12 39 -36 39c-20 0 -52 -9 -82 -49c-21 -28 -42 -72 -57 -140l-37 -165h-151zM248 531l75 147h161l-124 -147h-112z" />
    <glyph glyph-name="ncaron" unicode="&#x148;" horiz-adv-x="558" 
d="M-19 0l105 473h116v-90h2c38 49 96 102 176 102c76 0 122 -40 122 -123c0 -21 -4 -49 -15 -99l-59 -263h-151l57 253c9 40 10 54 10 62c0 25 -12 39 -36 39c-20 0 -52 -9 -82 -49c-21 -28 -42 -72 -57 -140l-37 -165h-151zM257 531l-87 147h109l40 -67l51 67h115
l-121 -147h-107z" />
    <glyph glyph-name="ntilde" unicode="&#xf1;" horiz-adv-x="558" 
d="M-19 0l105 473h116v-90h2c38 49 96 102 176 102c76 0 122 -40 122 -123c0 -21 -4 -49 -15 -99l-59 -263h-151l57 253c9 40 10 54 10 62c0 25 -12 39 -36 39c-20 0 -52 -9 -82 -49c-21 -28 -42 -72 -57 -140l-37 -165h-151zM152 542c7 96 55 138 109 138
c59 0 90 -41 123 -41c14 0 24 6 28 35h97c-7 -96 -55 -138 -109 -138c-59 0 -90 41 -123 41c-14 0 -24 -6 -28 -35h-97z" />
    <glyph glyph-name="ncommaaccent" unicode="&#x146;" horiz-adv-x="558" 
d="M-19 0l105 473h116v-90h2c38 49 96 102 176 102c76 0 122 -40 122 -123c0 -21 -4 -49 -15 -99l-59 -263h-151l57 253c9 40 10 54 10 62c0 25 -12 39 -36 39c-20 0 -52 -9 -82 -49c-21 -28 -42 -72 -57 -140l-37 -165h-151zM80 -237l-27 94c57 8 81 27 81 56
c0 11 -3 21 -8 35h134c6 -17 9 -35 9 -50c0 -76 -55 -125 -189 -135z" />
    <glyph glyph-name="ograve" unicode="&#xf2;" horiz-adv-x="548" 
d="M2 203c0 156 114 282 273 282c138 0 221 -87 221 -213c0 -156 -114 -282 -273 -282c-138 0 -221 87 -221 213zM152 204c0 -65 32 -95 75 -95c60 0 119 64 119 162c0 65 -32 95 -75 95c-60 0 -119 -64 -119 -162zM244 531l-96 147h161l48 -147h-113z" />
    <glyph glyph-name="oacute" unicode="&#xf3;" horiz-adv-x="548" 
d="M2 203c0 156 114 282 273 282c138 0 221 -87 221 -213c0 -156 -114 -282 -273 -282c-138 0 -221 87 -221 213zM152 204c0 -65 32 -95 75 -95c60 0 119 64 119 162c0 65 -32 95 -75 95c-60 0 -119 -64 -119 -162zM236 531l75 147h161l-124 -147h-112z" />
    <glyph glyph-name="ocircumflex" unicode="&#xf4;" horiz-adv-x="548" 
d="M2 203c0 156 114 282 273 282c138 0 221 -87 221 -213c0 -156 -114 -282 -273 -282c-138 0 -221 87 -221 213zM152 204c0 -65 32 -95 75 -95c60 0 119 64 119 162c0 65 -32 95 -75 95c-60 0 -119 -64 -119 -162zM133 531l121 147h107l87 -147h-109l-40 67l-51 -67h-115z
" />
    <glyph glyph-name="otilde" unicode="&#xf5;" horiz-adv-x="548" 
d="M2 203c0 156 114 282 273 282c138 0 221 -87 221 -213c0 -156 -114 -282 -273 -282c-138 0 -221 87 -221 213zM152 204c0 -65 32 -95 75 -95c60 0 119 64 119 162c0 65 -32 95 -75 95c-60 0 -119 -64 -119 -162zM130 542c7 96 55 138 109 138c59 0 90 -41 123 -41
c14 0 24 6 28 35h97c-7 -96 -55 -138 -109 -138c-59 0 -90 41 -123 41c-14 0 -24 -6 -28 -35h-97z" />
    <glyph glyph-name="odieresis" unicode="&#xf6;" horiz-adv-x="548" 
d="M2 203c0 156 114 282 273 282c138 0 221 -87 221 -213c0 -156 -114 -282 -273 -282c-138 0 -221 87 -221 213zM152 204c0 -65 32 -95 75 -95c60 0 119 64 119 162c0 65 -32 95 -75 95c-60 0 -119 -64 -119 -162zM201 532c-37 0 -64 24 -64 62c0 49 34 85 77 85
c37 0 64 -24 64 -62c0 -49 -34 -85 -77 -85zM400 532c-37 0 -64 24 -64 62c0 49 34 85 77 85c37 0 64 -24 64 -62c0 -49 -34 -85 -77 -85z" />
    <glyph glyph-name="omacron" unicode="&#x14d;" horiz-adv-x="548" 
d="M2 203c0 156 114 282 273 282c138 0 221 -87 221 -213c0 -156 -114 -282 -273 -282c-138 0 -221 87 -221 213zM152 204c0 -65 32 -95 75 -95c60 0 119 64 119 162c0 65 -32 95 -75 95c-60 0 -119 -64 -119 -162zM140 565l23 112h311l-23 -112h-311z" />
    <glyph glyph-name="obreve" unicode="&#x14f;" horiz-adv-x="548" 
d="M2 203c0 156 114 282 273 282c138 0 221 -87 221 -213c0 -156 -114 -282 -273 -282c-138 0 -221 87 -221 213zM152 204c0 -65 32 -95 75 -95c60 0 119 64 119 162c0 65 -32 95 -75 95c-60 0 -119 -64 -119 -162zM289 538c-90 0 -148 56 -138 152h99c-3 -38 15 -63 49 -63
s60 25 69 63h105c-21 -101 -94 -152 -184 -152z" />
    <glyph glyph-name="ohungarumlaut" unicode="&#x151;" horiz-adv-x="548" 
d="M2 203c0 156 114 282 273 282c138 0 221 -87 221 -213c0 -156 -114 -282 -273 -282c-138 0 -221 87 -221 213zM152 204c0 -65 32 -95 75 -95c60 0 119 64 119 162c0 65 -32 95 -75 95c-60 0 -119 -64 -119 -162zM148 531l75 147h161l-124 -147h-112zM336 531l75 147h161
l-124 -147h-112z" />
    <glyph glyph-name="oslash" unicode="&#xf8;" horiz-adv-x="548" 
d="M64 -34l-53 46l40 47c-32 36 -49 86 -49 144c0 156 114 282 273 282c47 0 88 -10 121 -29l44 51l53 -46l-43 -50c29 -36 46 -84 46 -139c0 -156 -114 -282 -273 -282c-45 0 -84 10 -116 26zM192 114c10 -6 22 -8 35 -8c60 0 123 67 123 165c0 8 -1 17 -2 23zM148 204
c0 -11 1 -21 3 -31l160 185c-12 7 -26 11 -40 11c-60 0 -123 -67 -123 -165z" />
    <glyph glyph-name="oslashacute" unicode="&#x1ff;" horiz-adv-x="548" 
d="M64 -34l-53 46l40 47c-32 36 -49 86 -49 144c0 156 114 282 273 282c47 0 88 -10 121 -29l44 51l53 -46l-43 -50c29 -36 46 -84 46 -139c0 -156 -114 -282 -273 -282c-45 0 -84 10 -116 26zM192 114c10 -6 22 -8 35 -8c60 0 123 67 123 165c0 8 -1 17 -2 23zM148 204
c0 -11 1 -21 3 -31l160 185c-12 7 -26 11 -40 11c-60 0 -123 -67 -123 -165zM238 531l75 147h161l-124 -147h-112z" />
    <glyph glyph-name="oe" unicode="&#x153;" horiz-adv-x="843" 
d="M212 -10c-129 0 -210 87 -210 213c0 156 111 282 264 282c80 0 132 -36 163 -83h2c40 49 109 83 189 83c111 0 177 -65 177 -162c0 -37 -8 -77 -23 -127l-288 -5v-8c0 -53 44 -77 95 -77c45 0 81 10 130 32l40 -105c-58 -30 -128 -43 -185 -43c-85 0 -140 37 -168 83h-2
c-45 -49 -111 -83 -184 -83zM227 109c60 0 119 64 119 162c0 65 -32 95 -75 95c-60 0 -119 -64 -119 -162c0 -65 32 -95 75 -95zM503 291l145 2c4 11 6 21 6 30c0 33 -24 50 -54 50c-45 0 -84 -35 -97 -82z" />
    <glyph glyph-name="racute" unicode="&#x155;" horiz-adv-x="394" 
d="M-19 0l105 473h116v-90h2c28 52 63 102 125 102c29 0 53 -9 79 -31l-64 -120c-15 10 -34 17 -51 17c-42 0 -92 -37 -124 -185l-36 -166h-152zM189 531l75 147h161l-124 -147h-112z" />
    <glyph glyph-name="rcaron" unicode="&#x159;" horiz-adv-x="394" 
d="M-19 0l105 473h116v-90h2c28 52 63 102 125 102c29 0 53 -9 79 -31l-64 -120c-15 10 -34 17 -51 17c-42 0 -92 -37 -124 -185l-36 -166h-152zM202 531l-87 147h109l40 -67l51 67h115l-121 -147h-107z" />
    <glyph glyph-name="rcommaaccent" unicode="&#x157;" horiz-adv-x="394" 
d="M-20 0l105 473h116v-90h2c28 52 63 102 125 102c29 0 53 -9 79 -31l-64 -120c-15 10 -34 17 -51 17c-42 0 -92 -37 -124 -185l-36 -166h-152zM-56 -237l-27 94c57 8 81 27 81 56c0 11 -3 21 -8 35h134c6 -17 9 -35 9 -50c0 -76 -55 -125 -189 -135z" />
    <glyph glyph-name="sacute" unicode="&#x15b;" 
d="M-42 40l47 107c40 -24 89 -41 129 -41c30 0 57 8 57 31c0 53 -165 58 -165 199c0 80 60 149 185 149c45 0 102 -6 159 -30l-24 -118c-35 16 -86 32 -127 32c-22 0 -42 -7 -42 -29c0 -60 165 -66 165 -200c0 -100 -84 -150 -197 -150c-66 0 -131 17 -187 50zM169 531
l75 147h161l-124 -147h-112z" />
    <glyph glyph-name="scircumflex" unicode="&#x15d;" 
d="M-42 40l47 107c40 -24 89 -41 129 -41c30 0 57 8 57 31c0 53 -165 58 -165 199c0 80 60 149 185 149c45 0 102 -6 159 -30l-24 -118c-35 16 -86 32 -127 32c-22 0 -42 -7 -42 -29c0 -60 165 -66 165 -200c0 -100 -84 -150 -197 -150c-66 0 -131 17 -187 50zM75 531
l121 147h107l87 -147h-109l-40 67l-51 -67h-115z" />
    <glyph glyph-name="scaron" unicode="&#x161;" 
d="M-42 40l47 107c40 -24 89 -41 129 -41c30 0 57 8 57 31c0 53 -165 58 -165 199c0 80 60 149 185 149c45 0 102 -6 159 -30l-24 -118c-35 16 -86 32 -127 32c-22 0 -42 -7 -42 -29c0 -60 165 -66 165 -200c0 -100 -84 -150 -197 -150c-66 0 -131 17 -187 50zM181 531
l-87 147h109l40 -67l51 67h115l-121 -147h-107z" />
    <glyph glyph-name="scedilla" unicode="&#x15f;" 
d="M-22 -198l28 62c11 -5 29 -9 47 -9c30 0 51 10 51 32c0 21 -28 26 -72 26l42 84c-41 7 -80 22 -116 43l47 107c40 -24 89 -41 129 -41c30 0 57 8 57 31c0 53 -165 58 -165 199c0 80 60 149 185 149c45 0 102 -6 159 -30l-24 -118c-35 16 -86 32 -127 32
c-22 0 -42 -7 -42 -29c0 -60 165 -66 165 -200c0 -91 -70 -140 -168 -148l-19 -38c46 -4 76 -22 76 -65c0 -63 -65 -101 -165 -101c-30 0 -64 5 -88 14z" />
    <glyph glyph-name="scommaaccent" unicode="&#x219;" 
d="M-42 40l47 107c40 -24 89 -41 129 -41c30 0 57 8 57 31c0 53 -165 58 -165 199c0 80 60 149 185 149c45 0 102 -6 159 -30l-24 -118c-35 16 -86 32 -127 32c-22 0 -42 -7 -42 -29c0 -60 165 -66 165 -200c0 -100 -84 -150 -197 -150c-66 0 -131 17 -187 50zM3 -237
l-27 94c57 8 81 27 81 56c0 11 -3 21 -8 35h134c6 -17 9 -35 9 -50c0 -76 -55 -125 -189 -135z" />
    <glyph glyph-name="germandbls" unicode="&#xdf;" horiz-adv-x="624" 
d="M-45 -141l139 628c14 62 37 108 66 141c54 61 129 80 203 80c116 0 216 -59 216 -186c0 -29 -5 -66 -15 -103c-47 -8 -107 -24 -107 -79c0 -65 109 -85 109 -200c0 -96 -86 -150 -189 -150c-64 0 -126 16 -180 50l47 107c39 -23 82 -41 122 -41c27 0 49 11 49 36
c0 60 -109 78 -109 188c0 74 46 131 124 147c2 8 4 21 4 31c0 44 -23 70 -75 70c-61 0 -103 -44 -121 -125l-132 -594h-151z" />
    <glyph glyph-name="tcaron" unicode="&#x165;" horiz-adv-x="398" 
d="M184 -10c-105 0 -144 48 -144 118c0 18 2 38 10 73l39 176h-86l26 116h85l25 110l159 38l-33 -148h127l-46 -116h-107l-43 -194c-2 -8 -3 -16 -3 -23c0 -22 12 -31 33 -31c28 0 57 11 81 23l35 -106c-49 -22 -105 -36 -158 -36zM359 484l-53 94c51 14 76 42 76 82
c0 17 -4 33 -11 48h128c6 -11 12 -29 12 -56c0 -72 -48 -134 -152 -168z" />
    <glyph glyph-name="tcommaaccent" unicode="&#x163;" horiz-adv-x="398" 
d="M170 -10c-105 0 -144 48 -144 118c0 18 2 38 10 73l39 176h-86l26 116h85l25 110l159 38l-33 -148h127l-46 -116h-107l-43 -194c-2 -8 -3 -16 -3 -23c0 -22 12 -31 33 -31c28 0 57 11 81 23l35 -106c-49 -22 -105 -36 -158 -36zM21 -237l-27 94c57 8 81 27 81 56
c0 11 -3 21 -8 35h134c6 -17 9 -35 9 -50c0 -76 -55 -125 -189 -135z" />
    <glyph glyph-name="tcommaaccent" unicode="&#x21b;" horiz-adv-x="398" 
d="M170 -10c-105 0 -144 48 -144 118c0 18 2 38 10 73l39 176h-86l26 116h85l25 110l159 38l-33 -148h127l-46 -116h-107l-43 -194c-2 -8 -3 -16 -3 -23c0 -22 12 -31 33 -31c28 0 57 11 81 23l35 -106c-49 -22 -105 -36 -158 -36zM21 -237l-27 94c57 8 81 27 81 56
c0 11 -3 21 -8 35h134c6 -17 9 -35 9 -50c0 -76 -55 -125 -189 -135z" />
    <glyph glyph-name="tbar" unicode="&#x167;" horiz-adv-x="398" 
d="M184 -10c-105 0 -144 48 -144 118c0 16 2 36 8 66l1 5h-84l26 112h83l15 66h-86l26 116h85l25 110l159 38l-33 -148h127l-46 -116h-107l-15 -66h96l-26 -112h-94l-2 -8c-4 -16 -5 -24 -5 -31c0 -22 12 -31 33 -31c28 0 57 11 81 23l35 -106c-49 -22 -105 -36 -158 -36z
" />
    <glyph glyph-name="ugrave" unicode="&#xf9;" horiz-adv-x="553" 
d="M147 -10c-68 0 -129 42 -129 136c0 24 4 56 14 103l54 244h151l-60 -266c-4 -17 -6 -29 -6 -41c0 -30 13 -49 40 -49c36 0 85 26 108 127l51 229h151l-67 -303c-6 -29 -12 -59 -12 -89c0 -22 3 -43 9 -63l-130 -28c-7 18 -15 57 -17 78h-2c-34 -38 -84 -78 -155 -78z
M262 531l-96 147h161l48 -147h-113z" />
    <glyph glyph-name="uacute" unicode="&#xfa;" horiz-adv-x="553" 
d="M147 -10c-68 0 -129 42 -129 136c0 24 4 56 14 103l54 244h151l-60 -266c-4 -17 -6 -29 -6 -41c0 -30 13 -49 40 -49c36 0 85 26 108 127l51 229h151l-67 -303c-6 -29 -12 -59 -12 -89c0 -22 3 -43 9 -63l-130 -28c-7 18 -15 57 -17 78h-2c-34 -38 -84 -78 -155 -78z
M243 531l75 147h161l-124 -147h-112z" />
    <glyph glyph-name="ucircumflex" unicode="&#xfb;" horiz-adv-x="553" 
d="M147 -10c-68 0 -129 42 -129 136c0 24 4 56 14 103l54 244h151l-60 -266c-4 -17 -6 -29 -6 -41c0 -30 13 -49 40 -49c36 0 85 26 108 127l51 229h151l-67 -303c-6 -29 -12 -59 -12 -89c0 -22 3 -43 9 -63l-130 -28c-7 18 -15 57 -17 78h-2c-34 -38 -84 -78 -155 -78z
M156 531l121 147h107l87 -147h-109l-40 67l-51 -67h-115z" />
    <glyph glyph-name="utilde" unicode="&#x169;" horiz-adv-x="553" 
d="M147 -10c-68 0 -129 42 -129 136c0 24 4 56 14 103l54 244h151l-60 -266c-4 -17 -6 -29 -6 -41c0 -30 13 -49 40 -49c36 0 85 26 108 127l51 229h151l-67 -303c-6 -29 -12 -59 -12 -89c0 -22 3 -43 9 -63l-130 -28c-7 18 -15 57 -17 78h-2c-34 -38 -84 -78 -155 -78z
M147 542c7 96 55 138 109 138c59 0 90 -41 123 -41c14 0 24 6 28 35h97c-7 -96 -55 -138 -109 -138c-59 0 -90 41 -123 41c-14 0 -24 -6 -28 -35h-97z" />
    <glyph glyph-name="udieresis" unicode="&#xfc;" horiz-adv-x="553" 
d="M147 -10c-68 0 -129 42 -129 136c0 24 4 56 14 103l54 244h151l-60 -266c-4 -17 -6 -29 -6 -41c0 -30 13 -49 40 -49c36 0 85 26 108 127l51 229h151l-67 -303c-6 -29 -12 -59 -12 -89c0 -22 3 -43 9 -63l-130 -28c-7 18 -15 57 -17 78h-2c-34 -38 -84 -78 -155 -78z
M217 532c-37 0 -64 24 -64 62c0 49 34 85 77 85c37 0 64 -24 64 -62c0 -49 -34 -85 -77 -85zM416 532c-37 0 -64 24 -64 62c0 49 34 85 77 85c37 0 64 -24 64 -62c0 -49 -34 -85 -77 -85z" />
    <glyph glyph-name="umacron" unicode="&#x16b;" horiz-adv-x="553" 
d="M147 -10c-68 0 -129 42 -129 136c0 24 4 56 14 103l54 244h151l-60 -266c-4 -17 -6 -29 -6 -41c0 -30 13 -49 40 -49c36 0 85 26 108 127l51 229h151l-67 -303c-6 -29 -12 -59 -12 -89c0 -22 3 -43 9 -63l-130 -28c-7 18 -15 57 -17 78h-2c-34 -38 -84 -78 -155 -78z
M161 565l23 112h311l-23 -112h-311z" />
    <glyph glyph-name="ubreve" unicode="&#x16d;" horiz-adv-x="553" 
d="M147 -10c-68 0 -129 42 -129 136c0 24 4 56 14 103l54 244h151l-60 -266c-4 -17 -6 -29 -6 -41c0 -30 13 -49 40 -49c36 0 85 26 108 127l51 229h151l-67 -303c-6 -29 -12 -59 -12 -89c0 -22 3 -43 9 -63l-130 -28c-7 18 -15 57 -17 78h-2c-34 -38 -84 -78 -155 -78z
M314 538c-90 0 -148 56 -138 152h99c-3 -38 15 -63 49 -63s60 25 69 63h105c-21 -101 -94 -152 -184 -152z" />
    <glyph glyph-name="uring" unicode="&#x16f;" horiz-adv-x="553" 
d="M147 -10c-68 0 -129 42 -129 136c0 24 4 56 14 103l54 244h151l-60 -266c-4 -17 -6 -29 -6 -41c0 -30 13 -49 40 -49c36 0 85 26 108 127l51 229h151l-67 -303c-6 -29 -12 -59 -12 -89c0 -22 3 -43 9 -63l-130 -28c-7 18 -15 57 -17 78h-2c-34 -38 -84 -78 -155 -78z
M310 522c-67 0 -112 29 -112 80c0 70 60 118 142 118c67 0 112 -29 112 -80c0 -70 -60 -118 -142 -118zM318 581c26 0 42 27 42 52c0 18 -11 28 -28 28c-26 0 -42 -27 -42 -52c0 -18 11 -28 28 -28z" />
    <glyph glyph-name="uhungarumlaut" unicode="&#x171;" horiz-adv-x="553" 
d="M147 -10c-68 0 -129 42 -129 136c0 24 4 56 14 103l54 244h151l-60 -266c-4 -17 -6 -29 -6 -41c0 -30 13 -49 40 -49c36 0 85 26 108 127l51 229h151l-67 -303c-6 -29 -12 -59 -12 -89c0 -22 3 -43 9 -63l-130 -28c-7 18 -15 57 -17 78h-2c-34 -38 -84 -78 -155 -78z
M161 531l75 147h161l-124 -147h-112zM349 531l75 147h161l-124 -147h-112z" />
    <glyph glyph-name="uogonek" unicode="&#x173;" horiz-adv-x="553" 
d="M147 -10c-68 0 -129 42 -129 136c0 24 4 56 14 103l54 244h151l-60 -266c-4 -17 -6 -29 -6 -41c0 -30 13 -49 40 -49c36 0 85 26 108 127l51 229h151l-67 -303c-6 -29 -12 -59 -12 -91c0 -20 3 -53 9 -73c-67 -28 -131 -72 -131 -112c0 -19 14 -26 32 -26c11 0 23 2 37 6
l7 -77c-26 -7 -57 -12 -90 -12c-71 0 -108 29 -108 80c0 68 72 116 119 135c-6 20 -12 50 -13 68h-2c-34 -38 -84 -78 -155 -78z" />
    <glyph glyph-name="wgrave" unicode="&#x1e81;" horiz-adv-x="737" 
d="M112 -3l-78 476h142l20 -162c6 -46 10 -80 13 -120h2c13 32 29 66 50 108l89 174h93l23 -149c9 -56 14 -98 17 -133h2c11 29 29 69 50 115l78 167h153l-259 -476h-105l-27 165c-6 39 -11 74 -15 102h-2c-13 -28 -31 -62 -55 -105l-89 -162h-102zM369 531l-96 147h161
l48 -147h-113z" />
    <glyph glyph-name="wacute" unicode="&#x1e83;" horiz-adv-x="737" 
d="M112 -3l-78 476h142l20 -162c6 -46 10 -80 13 -120h2c13 32 29 66 50 108l89 174h93l23 -149c9 -56 14 -98 17 -133h2c11 29 29 69 50 115l78 167h153l-259 -476h-105l-27 165c-6 39 -11 74 -15 102h-2c-13 -28 -31 -62 -55 -105l-89 -162h-102zM340 531l75 147h161
l-124 -147h-112z" />
    <glyph glyph-name="wcircumflex" unicode="&#x175;" horiz-adv-x="737" 
d="M112 -3l-78 476h142l20 -162c6 -46 10 -80 13 -120h2c13 32 29 66 50 108l89 174h93l23 -149c9 -56 14 -98 17 -133h2c11 29 29 69 50 115l78 167h153l-259 -476h-105l-27 165c-6 39 -11 74 -15 102h-2c-13 -28 -31 -62 -55 -105l-89 -162h-102zM246 531l121 147h107
l87 -147h-109l-40 67l-51 -67h-115z" />
    <glyph glyph-name="wdieresis" unicode="&#x1e85;" horiz-adv-x="737" 
d="M112 -3l-78 476h142l20 -162c6 -46 10 -80 13 -120h2c13 32 29 66 50 108l89 174h93l23 -149c9 -56 14 -98 17 -133h2c11 29 29 69 50 115l78 167h153l-259 -476h-105l-27 165c-6 39 -11 74 -15 102h-2c-13 -28 -31 -62 -55 -105l-89 -162h-102zM312 532
c-37 0 -64 24 -64 62c0 49 34 85 77 85c37 0 64 -24 64 -62c0 -49 -34 -85 -77 -85zM511 532c-37 0 -64 24 -64 62c0 49 34 85 77 85c37 0 64 -24 64 -62c0 -49 -34 -85 -77 -85z" />
    <glyph glyph-name="ygrave" unicode="&#x1ef3;" horiz-adv-x="522" 
d="M-120 -211l54 110c25 -12 44 -17 69 -17c40 0 89 23 144 126l-115 465h145l38 -177c10 -48 19 -93 28 -139h2c19 43 34 77 58 125l97 191h148l-256 -473c-86 -157 -157 -237 -297 -237c-44 0 -88 10 -115 26zM241 531l-96 147h161l48 -147h-113z" />
    <glyph glyph-name="yacute" unicode="&#xfd;" horiz-adv-x="522" 
d="M-120 -211l54 110c25 -12 44 -17 69 -17c40 0 89 23 144 126l-115 465h145l38 -177c10 -48 19 -93 28 -139h2c19 43 34 77 58 125l97 191h148l-256 -473c-86 -157 -157 -237 -297 -237c-44 0 -88 10 -115 26zM231 531l75 147h161l-124 -147h-112z" />
    <glyph glyph-name="ycircumflex" unicode="&#x177;" horiz-adv-x="522" 
d="M-120 -211l54 110c25 -12 44 -17 69 -17c40 0 89 23 144 126l-115 465h145l38 -177c10 -48 19 -93 28 -139h2c19 43 34 77 58 125l97 191h148l-256 -473c-86 -157 -157 -237 -297 -237c-44 0 -88 10 -115 26zM133 531l121 147h107l87 -147h-109l-40 67l-51 -67h-115z" />
    <glyph glyph-name="ydieresis" unicode="&#xff;" horiz-adv-x="522" 
d="M-120 -211l54 110c25 -12 44 -17 69 -17c40 0 89 23 144 126l-115 465h145l38 -177c10 -48 19 -93 28 -139h2c19 43 34 77 58 125l97 191h148l-256 -473c-86 -157 -157 -237 -297 -237c-44 0 -88 10 -115 26zM203 532c-37 0 -64 24 -64 62c0 49 34 85 77 85
c37 0 64 -24 64 -62c0 -49 -34 -85 -77 -85zM402 532c-37 0 -64 24 -64 62c0 49 34 85 77 85c37 0 64 -24 64 -62c0 -49 -34 -85 -77 -85z" />
    <glyph glyph-name="zacute" unicode="&#x17a;" horiz-adv-x="448" 
d="M-58 0l255 357h-164l-12 116h419l-257 -357h203l-25 -116h-419zM177 531l75 147h161l-124 -147h-112z" />
    <glyph glyph-name="zcaron" unicode="&#x17e;" horiz-adv-x="448" 
d="M-58 0l255 357h-164l-12 116h419l-257 -357h203l-25 -116h-419zM189 531l-87 147h109l40 -67l51 67h115l-121 -147h-107z" />
    <glyph glyph-name="zdotaccent" unicode="&#x17c;" horiz-adv-x="448" 
d="M-58 0l255 357h-164l-12 116h419l-257 -357h203l-25 -116h-419zM242 529c-51 0 -84 36 -84 79c0 59 47 94 96 94c51 0 84 -35 84 -78c0 -59 -47 -95 -96 -95z" />
    <glyph glyph-name="eng" unicode="&#x14b;" horiz-adv-x="561" 
d="M-19 0l105 473h116v-90h2c38 49 96 102 176 102c76 0 122 -40 122 -123c0 -21 -4 -49 -15 -99l-63 -281c-32 -143 -121 -177 -207 -177c-42 0 -82 7 -112 20l46 120c21 -8 38 -10 53 -10c50 0 68 38 76 76l54 242c9 40 10 54 10 62c0 25 -12 39 -36 39
c-21 0 -55 -10 -87 -56c-19 -28 -38 -71 -52 -133l-37 -165h-151z" />
    <glyph glyph-name="eth" unicode="&#xf0;" horiz-adv-x="548" 
d="M212 -10c-125 0 -210 81 -210 207c0 156 108 276 243 276c54 0 105 -21 136 -62h3c-1 43 -30 102 -101 140l-122 -62l-27 58l70 32c-36 7 -81 11 -129 9l27 120c109 0 188 -21 247 -57l112 57l27 -58l-86 -41c78 -70 94 -180 94 -257c0 -240 -119 -362 -284 -362z
M229 109c60 0 117 58 117 152c0 69 -41 93 -77 93c-65 0 -117 -58 -117 -156c0 -65 34 -89 77 -89z" />
    <glyph glyph-name="thorn" unicode="&#xfe;" horiz-adv-x="562" 
d="M-62 -237l209 945h151l-50 -223h10c165 0 250 -82 250 -209c0 -167 -112 -286 -271 -286c-31 0 -63 5 -94 17l-54 -244h-151zM169 124c20 -8 39 -11 56 -11c82 0 133 70 133 148c0 75 -49 101 -103 101c-14 0 -29 -2 -34 -3z" />
    <glyph glyph-name="A.small" horiz-adv-x="547" 
d="M-45 0l283 488h124l129 -488h-149l-22 91h-156l-48 -91h-161zM218 196h84l-13 62c-4 21 -7 39 -10 58h-2c-7 -18 -14 -33 -24 -52z" />
    <glyph glyph-name="B.small" horiz-adv-x="523" 
d="M10 0l108 486h196c103 0 159 -43 159 -113c0 -50 -25 -91 -73 -114v-2c39 -15 62 -44 62 -84c0 -91 -87 -173 -233 -173h-219zM184 106h53c52 0 75 27 75 53c0 21 -13 38 -52 38h-55zM226 293h38c37 0 59 26 59 52c0 22 -16 35 -40 35h-38z" />
    <glyph glyph-name="C.small" horiz-adv-x="501" 
d="M268 -10c-145 0 -237 73 -237 202c0 190 138 302 307 302c50 0 92 -9 128 -22l-26 -113c-25 13 -58 22 -93 22c-90 0 -166 -72 -166 -173c0 -65 38 -105 107 -105c30 0 68 7 104 26l37 -105c-54 -25 -111 -34 -161 -34z" />
    <glyph glyph-name="D.small" horiz-adv-x="562" 
d="M10 0l108 486h155c155 0 258 -66 258 -206c0 -138 -99 -280 -328 -280h-193zM188 121h46c108 0 148 86 148 158c0 62 -45 86 -116 86h-24z" />
    <glyph glyph-name="E.small" horiz-adv-x="443" 
d="M10 0l108 486h322l-36 -114h-161l-16 -72h158l-24 -111h-158l-16 -75h179l-26 -114h-330z" />
    <glyph glyph-name="F.small" horiz-adv-x="427" 
d="M10 0l108 486h322l-38 -121h-159l-18 -77h159l-25 -111h-158l-40 -177h-151z" />
    <glyph glyph-name="G.small" horiz-adv-x="569" 
d="M274 -10c-157 0 -243 79 -243 205c0 144 96 299 310 299c64 0 120 -13 170 -31l-27 -116c-40 20 -86 34 -132 34c-95 0 -168 -69 -171 -170c-2 -64 33 -108 105 -108c11 0 25 1 39 4l30 137h151l-50 -225c-53 -18 -121 -29 -182 -29z" />
    <glyph glyph-name="H.small" horiz-adv-x="608" 
d="M10 0l108 486h151l-40 -179h178l40 179h151l-108 -486h-151l41 186h-178l-41 -186h-151z" />
    <glyph glyph-name="I.small" horiz-adv-x="279" 
d="M10 0l108 486h151l-108 -486h-151z" />
    <glyph glyph-name="J.small" horiz-adv-x="295" 
d="M-125 -133l36 113c23 -9 47 -13 62 -13c23 0 37 8 46 22c6 10 11 22 14 37l101 460h151l-108 -488c-9 -39 -24 -73 -44 -95c-34 -38 -84 -54 -146 -54c-43 0 -79 7 -112 18z" />
    <glyph glyph-name="K.small" horiz-adv-x="555" 
d="M10 0l108 486h151l-44 -195h2l166 195h162l-228 -251l160 -235h-162l-120 188h-2l-42 -188h-151z" />
    <glyph glyph-name="L.small" horiz-adv-x="406" 
d="M10 0l108 486h151l-82 -370h171l-26 -116h-322z" />
    <glyph glyph-name="M.small" horiz-adv-x="672" 
d="M10 0l108 486h118l66 -147c10 -22 21 -52 30 -76h3c18 23 43 56 58 73l129 150h140l-108 -486h-151l36 162c6 25 11 47 20 79h-3c-12 -17 -30 -39 -46 -57l-72 -81h-57l-40 83c-10 21 -18 37 -26 57h-2c-3 -23 -7 -42 -13 -67l-39 -176h-151z" />
    <glyph glyph-name="N.small" horiz-adv-x="608" 
d="M10 0l108 486h119l120 -199c11 -18 21 -36 33 -61h2c5 30 9 51 14 74l41 186h151l-108 -486h-117l-114 199c-13 22 -24 42 -39 71h-2c-4 -28 -9 -57 -14 -79l-43 -191h-151z" />
    <glyph glyph-name="O.small" horiz-adv-x="575" 
d="M240 -10c-124 0 -209 68 -209 191c0 164 109 313 304 313c124 0 209 -68 209 -191c0 -164 -109 -313 -304 -313zM255 103c90 0 139 104 139 192c0 54 -29 86 -74 86c-90 0 -139 -104 -139 -192c0 -54 29 -86 74 -86z" />
    <glyph glyph-name="P.small" horiz-adv-x="488" 
d="M10 0l108 486h163c106 0 178 -54 178 -147c0 -109 -72 -194 -253 -194h-13l-32 -145h-151zM218 258h21c55 0 79 33 79 72c0 28 -17 43 -49 43h-25z" />
    <glyph glyph-name="Q.small" horiz-adv-x="575" 
d="M147 5c-72 26 -116 87 -116 176c0 164 109 313 304 313c124 0 209 -68 209 -191c0 -142 -82 -273 -230 -305c21 -21 56 -31 85 -31s56 7 71 13l30 -113c-20 -9 -61 -18 -109 -18c-90 0 -197 41 -244 156zM255 103c90 0 139 104 139 192c0 54 -29 86 -74 86
c-90 0 -139 -104 -139 -192c0 -54 29 -86 74 -86z" />
    <glyph glyph-name="R.small" horiz-adv-x="519" 
d="M10 0l108 486h169c152 0 194 -68 194 -134c0 -81 -56 -130 -128 -153v-2c10 -12 25 -36 48 -87l50 -110h-157l-36 87c-18 43 -33 67 -39 70h-23l-35 -157h-151zM221 269h33c47 0 81 27 81 62c0 22 -15 43 -57 43h-34z" />
    <glyph glyph-name="S.small" horiz-adv-x="478" 
d="M7 33l48 107c46 -25 102 -37 139 -37s57 13 57 41c0 63 -186 59 -186 202c0 98 86 148 192 148c65 0 118 -11 174 -31l-29 -116c-47 24 -96 35 -132 35c-34 0 -49 -14 -49 -32c0 -58 186 -56 186 -199c0 -112 -95 -161 -208 -161c-66 0 -134 14 -192 43z" />
    <glyph glyph-name="T.small" horiz-adv-x="476" 
d="M109 0l82 370h-146l22 116h444l-40 -116h-129l-82 -370h-151z" />
    <glyph glyph-name="U.small" horiz-adv-x="597" 
d="M255 -10c-117 0 -210 43 -210 157c0 18 2 39 8 67l61 272h151l-62 -280c-2 -8 -5 -25 -5 -37c0 -34 20 -60 67 -60c39 0 66 14 85 40c11 16 19 36 27 73l59 264h151l-65 -290c-12 -51 -31 -92 -56 -123c-46 -57 -116 -83 -211 -83z" />
    <glyph glyph-name="V.small" horiz-adv-x="517" 
d="M172 -3l-115 489h145l36 -201c5 -29 14 -88 17 -116h2c12 31 35 87 48 113l101 204h151l-262 -489h-123z" />
    <glyph glyph-name="W.small" horiz-adv-x="769" 
d="M134 -3l-77 489h146l27 -218c3 -24 5 -50 7 -83h2c12 27 26 55 36 74l76 148l-13 79h130l28 -201c4 -29 9 -68 12 -102h2c15 34 33 73 46 99l102 204h151l-269 -489h-128l-24 153c-3 19 -6 46 -8 71h-2c-11 -25 -24 -52 -35 -72l-81 -152h-128z" />
    <glyph glyph-name="X.small" horiz-adv-x="554" 
d="M-34 0l229 252l-133 234h151l75 -135l119 135h162l-221 -245l138 -241h-151l-80 142l-126 -142h-163z" />
    <glyph glyph-name="Y.small" horiz-adv-x="501" 
d="M130 0l41 183l-114 303h143l62 -192h2l123 192h154l-220 -308l-40 -178h-151z" />
    <glyph glyph-name="Z.small" horiz-adv-x="482" 
d="M-18 0l265 370h-174l-12 116h427l-267 -370h207l-28 -116h-418z" />
    <glyph glyph-name="Agrave.small" horiz-adv-x="547" 
d="M-45 0l283 488h124l129 -488h-149l-22 91h-156l-48 -91h-161zM218 196h84l-13 62c-4 21 -7 39 -10 58h-2c-7 -18 -14 -33 -24 -52zM268 540l-96 147h161l48 -147h-113z" />
    <glyph glyph-name="Aacute.small" horiz-adv-x="547" 
d="M-45 0l283 488h124l129 -488h-149l-22 91h-156l-48 -91h-161zM218 196h84l-13 62c-4 21 -7 39 -10 58h-2c-7 -18 -14 -33 -24 -52zM239 540l75 147h161l-124 -147h-112z" />
    <glyph glyph-name="Acircumflex.small" horiz-adv-x="547" 
d="M-45 0l283 488h124l129 -488h-149l-22 91h-156l-48 -91h-161zM218 196h84l-13 62c-4 21 -7 39 -10 58h-2c-7 -18 -14 -33 -24 -52zM146 540l121 147h107l87 -147h-109l-40 67l-51 -67h-115z" />
    <glyph glyph-name="Atilde.small" horiz-adv-x="547" 
d="M-45 0l283 488h124l129 -488h-149l-22 91h-156l-48 -91h-161zM218 196h84l-13 62c-4 21 -7 39 -10 58h-2c-7 -18 -14 -33 -24 -52zM143 551c7 96 55 138 109 138c59 0 90 -41 123 -41c14 0 24 6 28 35h97c-7 -96 -55 -138 -109 -138c-59 0 -90 41 -123 41
c-14 0 -24 -6 -28 -35h-97z" />
    <glyph glyph-name="Adieresis.small" horiz-adv-x="547" 
d="M-45 0l283 488h124l129 -488h-149l-22 91h-156l-48 -91h-161zM218 196h84l-13 62c-4 21 -7 39 -10 58h-2c-7 -18 -14 -33 -24 -52zM212 541c-37 0 -64 24 -64 62c0 49 34 85 77 85c37 0 64 -24 64 -62c0 -49 -34 -85 -77 -85zM411 541c-37 0 -64 24 -64 62
c0 49 34 85 77 85c37 0 64 -24 64 -62c0 -49 -34 -85 -77 -85z" />
    <glyph glyph-name="Amacron.small" horiz-adv-x="547" 
d="M-45 0l283 488h124l129 -488h-149l-22 91h-156l-48 -91h-161zM218 196h84l-13 62c-4 21 -7 39 -10 58h-2c-7 -18 -14 -33 -24 -52zM152 574l23 112h311l-23 -112h-311z" />
    <glyph glyph-name="Abreve.small" horiz-adv-x="547" 
d="M-45 0l283 488h124l129 -488h-149l-22 91h-156l-48 -91h-161zM218 196h84l-13 62c-4 21 -7 39 -10 58h-2c-7 -18 -14 -33 -24 -52zM304 547c-90 0 -148 56 -138 152h99c-3 -38 15 -63 49 -63s60 25 69 63h105c-21 -101 -94 -152 -184 -152z" />
    <glyph glyph-name="Aring.small" horiz-adv-x="547" 
d="M-45 0l283 488c-32 12 -50 36 -50 69c0 70 60 118 142 118c67 0 112 -29 112 -80s-32 -90 -80 -108l129 -487h-149l-22 91h-156l-48 -91h-161zM218 196h84l-13 62c-4 21 -7 39 -10 58h-2c-7 -18 -14 -33 -24 -52zM308 536c26 0 42 27 42 52c0 18 -11 28 -28 28
c-26 0 -42 -27 -42 -52c0 -18 11 -28 28 -28z" />
    <glyph glyph-name="Aringacute.small" horiz-adv-x="547" 
d="M-45 0l283 488c-32 12 -50 36 -50 69c0 61 46 106 113 116l64 125h161l-121 -140c23 -14 37 -35 37 -63c0 -51 -32 -90 -80 -108l129 -487h-149l-22 91h-156l-48 -91h-161zM218 196h84l-13 62c-4 21 -7 39 -10 58h-2c-7 -18 -14 -33 -24 -52zM308 536c26 0 42 27 42 52
c0 18 -11 28 -28 28c-26 0 -42 -27 -42 -52c0 -18 11 -28 28 -28z" />
    <glyph glyph-name="Aogonek.small" horiz-adv-x="547" 
d="M-45 0l283 488h124l129 -488c-67 -28 -128 -66 -128 -106c0 -19 14 -26 32 -26c11 0 23 2 37 6l7 -77c-26 -7 -57 -12 -90 -12c-71 0 -108 29 -108 80c0 62 45 102 101 135l-22 91h-156l-48 -91h-161zM218 196h84l-13 62c-4 21 -7 39 -10 58h-2c-7 -18 -14 -33 -24 -52z
" />
    <glyph glyph-name="AE.small" horiz-adv-x="695" 
d="M-65 0l365 486h364l-26 -114h-167l-11 -72h165l-16 -111h-165l-11 -75h187l-16 -114h-324l13 91h-133l-63 -91h-162zM231 196h78l20 133h-3z" />
    <glyph glyph-name="AEacute.small" horiz-adv-x="695" 
d="M-65 0l365 486h364l-26 -114h-167l-11 -72h165l-16 -111h-165l-11 -75h187l-16 -114h-324l13 91h-133l-63 -91h-162zM231 196h78l20 133h-3zM373 540l75 147h161l-124 -147h-112z" />
    <glyph glyph-name="Cacute.small" horiz-adv-x="501" 
d="M268 -10c-145 0 -237 73 -237 202c0 190 138 302 307 302c50 0 92 -9 128 -22l-26 -113c-25 13 -58 22 -93 22c-90 0 -166 -72 -166 -173c0 -65 38 -105 107 -105c30 0 68 7 104 26l37 -105c-54 -25 -111 -34 -161 -34zM260 540l75 147h161l-124 -147h-112z" />
    <glyph glyph-name="Ccircumflex.small" horiz-adv-x="501" 
d="M268 -10c-145 0 -237 73 -237 202c0 190 138 302 307 302c50 0 92 -9 128 -22l-26 -113c-25 13 -58 22 -93 22c-90 0 -166 -72 -166 -173c0 -65 38 -105 107 -105c30 0 68 7 104 26l37 -105c-54 -25 -111 -34 -161 -34zM164 540l121 147h107l87 -147h-109l-40 67l-51 -67
h-115z" />
    <glyph glyph-name="Ccaron.small" horiz-adv-x="501" 
d="M268 -10c-145 0 -237 73 -237 202c0 190 138 302 307 302c50 0 92 -9 128 -22l-26 -113c-25 13 -58 22 -93 22c-90 0 -166 -72 -166 -173c0 -65 38 -105 107 -105c30 0 68 7 104 26l37 -105c-54 -25 -111 -34 -161 -34zM271 540l-87 147h109l40 -67l51 67h115l-121 -147
h-107z" />
    <glyph glyph-name="Cdotaccent.small" horiz-adv-x="501" 
d="M268 -10c-145 0 -237 73 -237 202c0 190 138 302 307 302c50 0 92 -9 128 -22l-26 -113c-25 13 -58 22 -93 22c-90 0 -166 -72 -166 -173c0 -65 38 -105 107 -105c30 0 68 7 104 26l37 -105c-54 -25 -111 -34 -161 -34zM331 538c-51 0 -84 36 -84 79c0 59 47 94 96 94
c51 0 84 -35 84 -78c0 -59 -47 -95 -96 -95z" />
    <glyph glyph-name="Ccedilla.small" horiz-adv-x="501" 
d="M66 -198l28 62c11 -5 29 -9 47 -9c30 0 51 10 51 32c0 21 -28 26 -72 26l46 90c-86 26 -135 91 -135 189c0 190 138 302 307 302c50 0 92 -9 128 -22l-26 -113c-25 13 -58 22 -93 22c-90 0 -166 -72 -166 -173c0 -65 38 -105 107 -105c30 0 68 7 104 26l37 -105
c-54 -25 -117 -34 -167 -34l-19 -36c46 -4 76 -22 76 -65c0 -63 -65 -101 -165 -101c-30 0 -64 5 -88 14z" />
    <glyph glyph-name="Dcaron.small" horiz-adv-x="562" 
d="M10 0l108 486h155c155 0 258 -66 258 -206c0 -138 -99 -280 -328 -280h-193zM188 121h46c108 0 148 86 148 158c0 62 -45 86 -116 86h-24zM266 540l-87 147h109l40 -67l51 67h115l-121 -147h-107z" />
    <glyph glyph-name="Dcroat.small" horiz-adv-x="573" 
d="M21 0l44 197h-55l21 96h55l43 193h155c155 0 258 -66 258 -206c0 -138 -99 -280 -328 -280h-193zM199 121h46c108 0 148 86 148 158c0 62 -45 86 -116 86h-24l-16 -72h76l-21 -96h-76z" />
    <glyph glyph-name="Egrave.small" horiz-adv-x="443" 
d="M10 0l108 486h322l-36 -114h-161l-16 -72h158l-24 -111h-158l-16 -75h179l-26 -114h-330zM234 540l-96 147h161l48 -147h-113z" />
    <glyph glyph-name="Eacute.small" horiz-adv-x="443" 
d="M10 0l108 486h322l-36 -114h-161l-16 -72h158l-24 -111h-158l-16 -75h179l-26 -114h-330zM225 540l75 147h161l-124 -147h-112z" />
    <glyph glyph-name="Ecircumflex.small" horiz-adv-x="443" 
d="M10 0l108 486h322l-36 -114h-161l-16 -72h158l-24 -111h-158l-16 -75h179l-26 -114h-330zM134 540l121 147h107l87 -147h-109l-40 67l-51 -67h-115z" />
    <glyph glyph-name="Ecaron.small" horiz-adv-x="443" 
d="M10 0l108 486h322l-36 -114h-161l-16 -72h158l-24 -111h-158l-16 -75h179l-26 -114h-330zM230 540l-87 147h109l40 -67l51 67h115l-121 -147h-107z" />
    <glyph glyph-name="Edieresis.small" horiz-adv-x="443" 
d="M10 0l108 486h322l-36 -114h-161l-16 -72h158l-24 -111h-158l-16 -75h179l-26 -114h-330zM197 541c-37 0 -64 24 -64 62c0 49 34 85 77 85c37 0 64 -24 64 -62c0 -49 -34 -85 -77 -85zM396 541c-37 0 -64 24 -64 62c0 49 34 85 77 85c37 0 64 -24 64 -62
c0 -49 -34 -85 -77 -85z" />
    <glyph glyph-name="Emacron.small" horiz-adv-x="443" 
d="M10 0l108 486h322l-36 -114h-161l-16 -72h158l-24 -111h-158l-16 -75h179l-26 -114h-330zM139 574l23 112h311l-23 -112h-311z" />
    <glyph glyph-name="Ebreve.small" horiz-adv-x="443" 
d="M10 0l108 486h322l-36 -114h-161l-16 -72h158l-24 -111h-158l-16 -75h179l-26 -114h-330zM287 547c-90 0 -148 56 -138 152h99c-3 -38 15 -63 49 -63s60 25 69 63h105c-21 -101 -94 -152 -184 -152z" />
    <glyph glyph-name="Edotaccent.small" horiz-adv-x="443" 
d="M10 0l108 486h322l-36 -114h-161l-16 -72h158l-24 -111h-158l-16 -75h179l-26 -114h-330zM286 538c-51 0 -84 36 -84 79c0 59 47 94 96 94c51 0 84 -35 84 -78c0 -59 -47 -95 -96 -95z" />
    <glyph glyph-name="Eogonek.small" horiz-adv-x="443" 
d="M10 0l108 486h322l-36 -114h-161l-16 -72h158l-24 -111h-158l-16 -75h179l-26 -114h-16c-67 -28 -126 -66 -126 -106c0 -19 14 -26 32 -26c11 0 23 2 37 6l7 -77c-26 -7 -57 -12 -90 -12c-71 0 -108 29 -108 80c0 62 45 102 101 135h-167z" />
    <glyph glyph-name="fi.small" unicode="&#xe09c;" horiz-adv-x="706" 
d="M10 0l108 486h322l-38 -121h-159l-18 -77h159l-25 -111h-158l-40 -177h-151zM437 0l108 486h151l-108 -486h-151z" />
    <glyph glyph-name="fl.small" unicode="&#xe09d;" horiz-adv-x="833" 
d="M10 0l108 486h322l-38 -121h-159l-18 -77h159l-25 -111h-158l-40 -177h-151zM437 0l108 486h151l-82 -370h171l-26 -116h-322z" />
    <glyph glyph-name="Gcircumflex.small" horiz-adv-x="569" 
d="M274 -10c-157 0 -243 79 -243 205c0 144 96 299 310 299c64 0 120 -13 170 -31l-27 -116c-40 20 -86 34 -132 34c-95 0 -168 -69 -171 -170c-2 -64 33 -108 105 -108c11 0 25 1 39 4l30 137h151l-50 -225c-53 -18 -121 -29 -182 -29zM181 540l121 147h107l87 -147h-109
l-40 67l-51 -67h-115z" />
    <glyph glyph-name="Gbreve.small" horiz-adv-x="569" 
d="M274 -10c-157 0 -243 79 -243 205c0 144 96 299 310 299c64 0 120 -13 170 -31l-27 -116c-40 20 -86 34 -132 34c-95 0 -168 -69 -171 -170c-2 -64 33 -108 105 -108c11 0 25 1 39 4l30 137h151l-50 -225c-53 -18 -121 -29 -182 -29zM344 547c-90 0 -148 56 -138 152h99
c-3 -38 15 -63 49 -63s60 25 69 63h105c-21 -101 -94 -152 -184 -152z" />
    <glyph glyph-name="Gdotaccent.small" horiz-adv-x="569" 
d="M274 -10c-157 0 -243 79 -243 205c0 144 96 299 310 299c64 0 120 -13 170 -31l-27 -116c-40 20 -86 34 -132 34c-95 0 -168 -69 -171 -170c-2 -64 33 -108 105 -108c11 0 25 1 39 4l30 137h151l-50 -225c-53 -18 -121 -29 -182 -29zM351 538c-51 0 -84 36 -84 79
c0 59 47 94 96 94c51 0 84 -35 84 -78c0 -59 -47 -95 -96 -95z" />
    <glyph glyph-name="Gcommaaccent.small" horiz-adv-x="569" 
d="M274 -10c-157 0 -243 79 -243 205c0 144 96 299 310 299c64 0 120 -13 170 -31l-27 -116c-40 20 -86 34 -132 34c-95 0 -168 -69 -171 -170c-2 -64 33 -108 105 -108c11 0 25 1 39 4l30 137h151l-50 -225c-53 -18 -121 -29 -182 -29zM122 -237l-27 94c57 8 81 27 81 56
c0 11 -3 21 -8 35h134c6 -17 9 -35 9 -50c0 -76 -55 -125 -189 -135z" />
    <glyph glyph-name="Hcircumflex.small" horiz-adv-x="608" 
d="M10 0l108 486h151l-40 -179h178l40 179h151l-108 -486h-151l41 186h-178l-41 -186h-151zM204 540l121 147h107l87 -147h-109l-40 67l-51 -67h-115z" />
    <glyph glyph-name="Hbar.small" horiz-adv-x="608" 
d="M10 0l79 357h-45l19 86h45l10 43h151l-10 -43h178l10 43h151l-10 -43h46l-19 -86h-46l-79 -357h-151l41 186h-178l-41 -186h-151zM229 307h178l11 50h-178z" />
    <glyph glyph-name="Igrave.small" horiz-adv-x="279" 
d="M10 0l108 486h151l-108 -486h-151zM160 540l-96 147h161l48 -147h-113z" />
    <glyph glyph-name="Iacute.small" horiz-adv-x="279" 
d="M10 0l108 486h151l-108 -486h-151zM129 540l75 147h161l-124 -147h-112z" />
    <glyph glyph-name="Icircumflex.small" horiz-adv-x="279" 
d="M10 0l108 486h151l-108 -486h-151zM41 540l121 147h107l87 -147h-109l-40 67l-51 -67h-115z" />
    <glyph glyph-name="Itilde.small" horiz-adv-x="279" 
d="M10 0l108 486h151l-108 -486h-151zM36 551c7 96 55 138 109 138c59 0 90 -41 123 -41c14 0 24 6 28 35h97c-7 -96 -55 -138 -109 -138c-59 0 -90 41 -123 41c-14 0 -24 -6 -28 -35h-97z" />
    <glyph glyph-name="Idieresis.small" horiz-adv-x="279" 
d="M10 0l108 486h151l-108 -486h-151zM106 541c-37 0 -64 24 -64 62c0 49 34 85 77 85c37 0 64 -24 64 -62c0 -49 -34 -85 -77 -85zM305 541c-37 0 -64 24 -64 62c0 49 34 85 77 85c37 0 64 -24 64 -62c0 -49 -34 -85 -77 -85z" />
    <glyph glyph-name="Imacron.small" horiz-adv-x="279" 
d="M10 0l108 486h151l-108 -486h-151zM47 574l23 112h311l-23 -112h-311z" />
    <glyph glyph-name="Ibreve.small" horiz-adv-x="279" 
d="M10 0l108 486h151l-108 -486h-151zM208 547c-90 0 -148 56 -138 152h99c-3 -38 15 -63 49 -63s60 25 69 63h105c-21 -101 -94 -152 -184 -152z" />
    <glyph glyph-name="Idotaccent.small" horiz-adv-x="279" 
d="M10 0l108 486h151l-108 -486h-151zM213 538c-51 0 -84 36 -84 79c0 59 47 94 96 94c51 0 84 -35 84 -78c0 -59 -47 -95 -96 -95z" />
    <glyph glyph-name="Iogonek.small" horiz-adv-x="279" 
d="M9 0l108 486h152l-109 -486c-48 -22 -100 -66 -100 -106c0 -17 9 -26 28 -26c10 0 22 2 36 6l7 -77c-26 -7 -66 -12 -92 -12c-72 0 -108 29 -108 80c0 59 39 102 78 135z" />
    <glyph glyph-name="dotlessi.small" horiz-adv-x="279" 
d="M10 0l108 486h151l-108 -486h-151z" />
    <glyph glyph-name="IJ.small" horiz-adv-x="572" 
d="M10 0l108 486h151l-108 -486h-151zM152 -133l36 113c23 -9 47 -13 62 -13c23 0 37 8 46 22c6 10 11 22 14 37l101 460h151l-108 -488c-9 -39 -24 -73 -44 -95c-34 -38 -84 -54 -146 -54c-43 0 -79 7 -112 18z" />
    <glyph glyph-name="Jcircumflex.small" horiz-adv-x="295" 
d="M-125 -133l36 113c23 -9 47 -13 62 -13c23 0 37 8 46 22c6 10 11 22 14 37l101 460h151l-108 -488c-9 -39 -24 -73 -44 -95c-34 -38 -84 -54 -146 -54c-43 0 -79 7 -112 18zM51 540l121 147h107l87 -147h-109l-40 67l-51 -67h-115z" />
    <glyph glyph-name="Kcommaaccent.small" horiz-adv-x="555" 
d="M10 0l108 486h151l-44 -195h2l166 195h162l-228 -251l160 -235h-162l-120 188h-2l-42 -188h-151zM119 -237l-27 94c57 8 81 27 81 56c0 11 -3 21 -8 35h134c6 -17 9 -35 9 -50c0 -76 -55 -125 -189 -135z" />
    <glyph glyph-name="Lacute.small" horiz-adv-x="406" 
d="M10 0l108 486h151l-82 -370h171l-26 -116h-322zM131 540l75 147h161l-124 -147h-112z" />
    <glyph glyph-name="Lcaron.small" horiz-adv-x="406" 
d="M10 0l108 486h151l-82 -370h171l-26 -116h-322zM321 311l-53 94c51 14 76 42 76 82c0 17 -4 33 -11 48h128c6 -11 12 -29 12 -56c0 -72 -48 -134 -152 -168z" />
    <glyph glyph-name="Lcommaaccent.small" horiz-adv-x="406" 
d="M10 0l108 486h151l-82 -370h171l-26 -116h-322zM48 -237l-27 94c57 8 81 27 81 56c0 11 -3 21 -8 35h134c6 -17 9 -35 9 -50c0 -76 -55 -125 -189 -135z" />
    <glyph glyph-name="Lslash.small" horiz-adv-x="406" 
d="M10 0l30 135l-56 -28l31 134l54 27l49 218h151l-28 -127l115 59l-29 -133l-116 -58l-24 -111h171l-26 -116h-322z" />
    <glyph glyph-name="Ldot.small" horiz-adv-x="420" 
d="M10 0l108 486h151l-82 -370h171l-26 -116h-322zM335 167c-41 0 -71 31 -71 73c0 51 39 91 88 91c42 0 72 -31 72 -74c0 -50 -40 -90 -89 -90z" />
    <glyph glyph-name="Nacute.small" horiz-adv-x="608" 
d="M10 0l108 486h119l120 -199c11 -18 21 -36 33 -61h2c5 30 9 51 14 74l41 186h151l-108 -486h-117l-114 199c-13 22 -24 42 -39 71h-2c-4 -28 -9 -57 -14 -79l-43 -191h-151zM307 540l75 147h161l-124 -147h-112z" />
    <glyph glyph-name="Ncaron.small" horiz-adv-x="608" 
d="M10 0l108 486h119l120 -199c11 -18 21 -36 33 -61h2c5 30 9 51 14 74l41 186h151l-108 -486h-117l-114 199c-13 22 -24 42 -39 71h-2c-4 -28 -9 -57 -14 -79l-43 -191h-151zM305 540l-87 147h109l40 -67l51 67h115l-121 -147h-107z" />
    <glyph glyph-name="Ntilde.small" horiz-adv-x="608" 
d="M10 0l108 486h119l120 -199c11 -18 21 -36 33 -61h2c5 30 9 51 14 74l41 186h151l-108 -486h-117l-114 199c-13 22 -24 42 -39 71h-2c-4 -28 -9 -57 -14 -79l-43 -191h-151zM201 551c7 96 55 138 109 138c59 0 90 -41 123 -41c14 0 24 6 28 35h97
c-7 -96 -55 -138 -109 -138c-59 0 -90 41 -123 41c-14 0 -24 -6 -28 -35h-97z" />
    <glyph glyph-name="Ncommaaccent.small" horiz-adv-x="608" 
d="M10 0l108 486h119l120 -199c11 -18 21 -36 33 -61h2c5 30 9 51 14 74l41 186h151l-108 -486h-117l-114 199c-13 22 -24 42 -39 71h-2c-4 -28 -9 -57 -14 -79l-43 -191h-151zM143 -237l-27 94c57 8 81 27 81 56c0 11 -3 21 -8 35h134c6 -17 9 -35 9 -50
c0 -76 -55 -125 -189 -135z" />
    <glyph glyph-name="Ograve.small" horiz-adv-x="575" 
d="M240 -10c-124 0 -209 68 -209 191c0 164 109 313 304 313c124 0 209 -68 209 -191c0 -164 -109 -313 -304 -313zM255 103c90 0 139 104 139 192c0 54 -29 86 -74 86c-90 0 -139 -104 -139 -192c0 -54 29 -86 74 -86zM304 540l-96 147h161l48 -147h-113z" />
    <glyph glyph-name="Oacute.small" horiz-adv-x="575" 
d="M240 -10c-124 0 -209 68 -209 191c0 164 109 313 304 313c124 0 209 -68 209 -191c0 -164 -109 -313 -304 -313zM255 103c90 0 139 104 139 192c0 54 -29 86 -74 86c-90 0 -139 -104 -139 -192c0 -54 29 -86 74 -86zM298 540l75 147h161l-124 -147h-112z" />
    <glyph glyph-name="Ocircumflex.small" horiz-adv-x="575" 
d="M240 -10c-124 0 -209 68 -209 191c0 164 109 313 304 313c124 0 209 -68 209 -191c0 -164 -109 -313 -304 -313zM255 103c90 0 139 104 139 192c0 54 -29 86 -74 86c-90 0 -139 -104 -139 -192c0 -54 29 -86 74 -86zM188 540l121 147h107l87 -147h-109l-40 67l-51 -67
h-115z" />
    <glyph glyph-name="Otilde.small" horiz-adv-x="575" 
d="M240 -10c-124 0 -209 68 -209 191c0 164 109 313 304 313c124 0 209 -68 209 -191c0 -164 -109 -313 -304 -313zM255 103c90 0 139 104 139 192c0 54 -29 86 -74 86c-90 0 -139 -104 -139 -192c0 -54 29 -86 74 -86zM183 551c7 96 55 138 109 138c59 0 90 -41 123 -41
c14 0 24 6 28 35h97c-7 -96 -55 -138 -109 -138c-59 0 -90 41 -123 41c-14 0 -24 -6 -28 -35h-97z" />
    <glyph glyph-name="Odieresis.small" horiz-adv-x="575" 
d="M240 -10c-124 0 -209 68 -209 191c0 164 109 313 304 313c124 0 209 -68 209 -191c0 -164 -109 -313 -304 -313zM255 103c90 0 139 104 139 192c0 54 -29 86 -74 86c-90 0 -139 -104 -139 -192c0 -54 29 -86 74 -86zM262 541c-37 0 -64 24 -64 62c0 49 34 85 77 85
c37 0 64 -24 64 -62c0 -49 -34 -85 -77 -85zM461 541c-37 0 -64 24 -64 62c0 49 34 85 77 85c37 0 64 -24 64 -62c0 -49 -34 -85 -77 -85z" />
    <glyph glyph-name="Omacron.small" horiz-adv-x="575" 
d="M240 -10c-124 0 -209 68 -209 191c0 164 109 313 304 313c124 0 209 -68 209 -191c0 -164 -109 -313 -304 -313zM255 103c90 0 139 104 139 192c0 54 -29 86 -74 86c-90 0 -139 -104 -139 -192c0 -54 29 -86 74 -86zM193 574l23 112h311l-23 -112h-311z" />
    <glyph glyph-name="Obreve.small" horiz-adv-x="575" 
d="M240 -10c-124 0 -209 68 -209 191c0 164 109 313 304 313c124 0 209 -68 209 -191c0 -164 -109 -313 -304 -313zM255 103c90 0 139 104 139 192c0 54 -29 86 -74 86c-90 0 -139 -104 -139 -192c0 -54 29 -86 74 -86zM354 547c-90 0 -148 56 -138 152h99
c-3 -38 15 -63 49 -63s60 25 69 63h105c-21 -101 -94 -152 -184 -152z" />
    <glyph glyph-name="Ohungarumlaut.small" horiz-adv-x="575" 
d="M240 -10c-124 0 -209 68 -209 191c0 164 109 313 304 313c124 0 209 -68 209 -191c0 -164 -109 -313 -304 -313zM255 103c90 0 139 104 139 192c0 54 -29 86 -74 86c-90 0 -139 -104 -139 -192c0 -54 29 -86 74 -86zM205 540l75 147h161l-124 -147h-112zM393 540l75 147
h161l-124 -147h-112z" />
    <glyph glyph-name="Oslash.small" horiz-adv-x="575" 
d="M98 -31l-54 47l31 36c-28 32 -44 75 -44 129c0 164 109 313 304 313c40 0 75 -7 106 -21l36 42l54 -47l-32 -37c29 -31 45 -75 45 -128c0 -164 -109 -313 -304 -313c-40 0 -76 7 -106 20zM220 109c10 -5 22 -8 35 -8c90 0 141 106 141 194c0 5 -1 11 -1 16zM180 173
l175 201c-10 6 -22 9 -35 9c-90 0 -141 -106 -141 -194c0 -6 0 -11 1 -16z" />
    <glyph glyph-name="Oslashacute.small" horiz-adv-x="575" 
d="M98 -31l-54 47l31 36c-28 32 -44 75 -44 129c0 164 109 313 304 313c40 0 75 -7 106 -21l36 42l54 -47l-32 -37c29 -31 45 -75 45 -128c0 -164 -109 -313 -304 -313c-40 0 -76 7 -106 20zM220 109c10 -5 22 -8 35 -8c90 0 141 106 141 194c0 5 -1 11 -1 16zM180 173
l175 201c-10 6 -22 9 -35 9c-90 0 -141 -106 -141 -194c0 -6 0 -11 1 -16zM276 540l75 147h161l-124 -147h-112z" />
    <glyph glyph-name="OE.small" horiz-adv-x="744" 
d="M252 -10c-135 0 -221 68 -221 191c0 164 109 313 304 313c68 0 113 -8 180 -8h226l-36 -114h-161l-16 -72h158l-24 -111h-158l-16 -75h179l-26 -114h-204c-71 0 -146 -10 -185 -10zM270 103c15 0 40 1 65 7l58 261c-22 6 -45 10 -64 10c-99 0 -148 -104 -148 -192
c0 -54 29 -86 89 -86z" />
    <glyph glyph-name="Racute.small" horiz-adv-x="519" 
d="M10 0l108 486h169c152 0 194 -68 194 -134c0 -81 -56 -130 -128 -153v-2c10 -12 25 -36 48 -87l50 -110h-157l-36 87c-18 43 -33 67 -39 70h-23l-35 -157h-151zM221 269h33c47 0 81 27 81 62c0 22 -15 43 -57 43h-34zM236 540l75 147h161l-124 -147h-112z" />
    <glyph glyph-name="Rcaron.small" horiz-adv-x="519" 
d="M10 0l108 486h169c152 0 194 -68 194 -134c0 -81 -56 -130 -128 -153v-2c10 -12 25 -36 48 -87l50 -110h-157l-36 87c-18 43 -33 67 -39 70h-23l-35 -157h-151zM221 269h33c47 0 81 27 81 62c0 22 -15 43 -57 43h-34zM248 540l-87 147h109l40 -67l51 67h115l-121 -147
h-107z" />
    <glyph glyph-name="Rcommaaccent.small" horiz-adv-x="519" 
d="M10 0l108 486h169c152 0 194 -68 194 -134c0 -81 -56 -130 -128 -153v-2c10 -12 25 -36 48 -87l50 -110h-157l-36 87c-18 43 -33 67 -39 70h-23l-35 -157h-151zM221 269h33c47 0 81 27 81 62c0 22 -15 43 -57 43h-34zM105 -237l-27 94c57 8 81 27 81 56c0 11 -3 21 -8 35
h134c6 -17 9 -35 9 -50c0 -76 -55 -125 -189 -135z" />
    <glyph glyph-name="germandbls.small" horiz-adv-x="956" 
d="M7 33l48 107c46 -25 102 -37 139 -37s57 13 57 41c0 63 -186 59 -186 202c0 98 86 148 192 148c65 0 118 -11 174 -31l-29 -116c-47 24 -96 35 -132 35c-34 0 -49 -14 -49 -32c0 -58 186 -56 186 -199c0 -112 -95 -161 -208 -161c-66 0 -134 14 -192 43zM485 33l48 107
c46 -25 102 -37 139 -37s57 13 57 41c0 63 -186 59 -186 202c0 98 86 148 192 148c65 0 118 -11 174 -31l-29 -116c-47 24 -96 35 -132 35c-34 0 -49 -14 -49 -32c0 -58 186 -56 186 -199c0 -112 -95 -161 -208 -161c-66 0 -134 14 -192 43z" />
    <glyph glyph-name="Sacute.small" horiz-adv-x="478" 
d="M7 33l48 107c46 -25 102 -37 139 -37s57 13 57 41c0 63 -186 59 -186 202c0 98 86 148 192 148c65 0 118 -11 174 -31l-29 -116c-47 24 -96 35 -132 35c-34 0 -49 -14 -49 -32c0 -58 186 -56 186 -199c0 -112 -95 -161 -208 -161c-66 0 -134 14 -192 43zM212 540l75 147
h161l-124 -147h-112z" />
    <glyph glyph-name="Scircumflex.small" horiz-adv-x="478" 
d="M7 33l48 107c46 -25 102 -37 139 -37s57 13 57 41c0 63 -186 59 -186 202c0 98 86 148 192 148c65 0 118 -11 174 -31l-29 -116c-47 24 -96 35 -132 35c-34 0 -49 -14 -49 -32c0 -58 186 -56 186 -199c0 -112 -95 -161 -208 -161c-66 0 -134 14 -192 43zM125 540l121 147
h107l87 -147h-109l-40 67l-51 -67h-115z" />
    <glyph glyph-name="Scaron.small" horiz-adv-x="478" 
d="M7 33l48 107c46 -25 102 -37 139 -37s57 13 57 41c0 63 -186 59 -186 202c0 98 86 148 192 148c65 0 118 -11 174 -31l-29 -116c-47 24 -96 35 -132 35c-34 0 -49 -14 -49 -32c0 -58 186 -56 186 -199c0 -112 -95 -161 -208 -161c-66 0 -134 14 -192 43zM230 540l-87 147
h109l40 -67l51 67h115l-121 -147h-107z" />
    <glyph glyph-name="Scedilla.small" horiz-adv-x="478" 
d="M32 -198l28 62c11 -5 29 -9 47 -9c30 0 51 10 51 32c0 21 -28 26 -72 26l41 83c-42 6 -83 18 -120 37l48 107c46 -25 102 -37 139 -37s57 13 57 41c0 63 -186 59 -186 202c0 98 86 148 192 148c65 0 118 -11 174 -31l-29 -116c-47 24 -96 35 -132 35
c-34 0 -49 -14 -49 -32c0 -58 186 -56 186 -199c0 -102 -79 -151 -179 -159l-19 -38c46 -4 76 -22 76 -65c0 -63 -65 -101 -165 -101c-30 0 -64 5 -88 14z" />
    <glyph glyph-name="Scommaaccent.small" horiz-adv-x="478" 
d="M7 33l48 107c46 -25 102 -37 139 -37s57 13 57 41c0 63 -186 59 -186 202c0 98 86 148 192 148c65 0 118 -11 174 -31l-29 -116c-47 24 -96 35 -132 35c-34 0 -49 -14 -49 -32c0 -58 186 -56 186 -199c0 -112 -95 -161 -208 -161c-66 0 -134 14 -192 43zM55 -237l-27 94
c57 8 81 27 81 56c0 11 -3 21 -8 35h134c6 -17 9 -35 9 -50c0 -76 -55 -125 -189 -135z" />
    <glyph glyph-name="Tcaron.small" horiz-adv-x="476" 
d="M109 0l82 370h-146l22 116h444l-40 -116h-129l-82 -370h-151zM240 540l-87 147h109l40 -67l51 67h115l-121 -147h-107z" />
    <glyph glyph-name="Tcommaaccent.small" horiz-adv-x="476" 
d="M109 0l82 370h-146l22 116h444l-40 -116h-129l-82 -370h-151zM60 -237l-27 94c57 8 81 27 81 56c0 11 -3 21 -8 35h134c6 -17 9 -35 9 -50c0 -76 -55 -125 -189 -135z" />
    <glyph glyph-name="Tbar.small" horiz-adv-x="476" 
d="M109 0l33 152h-88l21 96h89l27 122h-146l22 116h444l-40 -116h-129l-27 -122h95l-21 -96h-96l-33 -152h-151z" />
    <glyph glyph-name="Ugrave.small" horiz-adv-x="597" 
d="M255 -10c-117 0 -210 43 -210 157c0 18 2 39 8 67l61 272h151l-62 -280c-2 -8 -5 -25 -5 -37c0 -34 20 -60 67 -60c39 0 66 14 85 40c11 16 19 36 27 73l59 264h151l-65 -290c-12 -51 -31 -92 -56 -123c-46 -57 -116 -83 -211 -83zM302 540l-96 147h161l48 -147h-113z
" />
    <glyph glyph-name="Uacute.small" horiz-adv-x="597" 
d="M255 -10c-117 0 -210 43 -210 157c0 18 2 39 8 67l61 272h151l-62 -280c-2 -8 -5 -25 -5 -37c0 -34 20 -60 67 -60c39 0 66 14 85 40c11 16 19 36 27 73l59 264h151l-65 -290c-12 -51 -31 -92 -56 -123c-46 -57 -116 -83 -211 -83zM299 540l75 147h161l-124 -147h-112z
" />
    <glyph glyph-name="Ucircumflex.small" horiz-adv-x="597" 
d="M255 -10c-117 0 -210 43 -210 157c0 18 2 39 8 67l61 272h151l-62 -280c-2 -8 -5 -25 -5 -37c0 -34 20 -60 67 -60c39 0 66 14 85 40c11 16 19 36 27 73l59 264h151l-65 -290c-12 -51 -31 -92 -56 -123c-46 -57 -116 -83 -211 -83zM202 540l121 147h107l87 -147h-109
l-40 67l-51 -67h-115z" />
    <glyph glyph-name="Utilde.small" horiz-adv-x="597" 
d="M255 -10c-117 0 -210 43 -210 157c0 18 2 39 8 67l61 272h151l-62 -280c-2 -8 -5 -25 -5 -37c0 -34 20 -60 67 -60c39 0 66 14 85 40c11 16 19 36 27 73l59 264h151l-65 -290c-12 -51 -31 -92 -56 -123c-46 -57 -116 -83 -211 -83zM196 551c7 96 55 138 109 138
c59 0 90 -41 123 -41c14 0 24 6 28 35h97c-7 -96 -55 -138 -109 -138c-59 0 -90 41 -123 41c-14 0 -24 -6 -28 -35h-97z" />
    <glyph glyph-name="Udieresis.small" horiz-adv-x="597" 
d="M255 -10c-117 0 -210 43 -210 157c0 18 2 39 8 67l61 272h151l-62 -280c-2 -8 -5 -25 -5 -37c0 -34 20 -60 67 -60c39 0 66 14 85 40c11 16 19 36 27 73l59 264h151l-65 -290c-12 -51 -31 -92 -56 -123c-46 -57 -116 -83 -211 -83zM264 541c-37 0 -64 24 -64 62
c0 49 34 85 77 85c37 0 64 -24 64 -62c0 -49 -34 -85 -77 -85zM463 541c-37 0 -64 24 -64 62c0 49 34 85 77 85c37 0 64 -24 64 -62c0 -49 -34 -85 -77 -85z" />
    <glyph glyph-name="Umacron.small" horiz-adv-x="597" 
d="M255 -10c-117 0 -210 43 -210 157c0 18 2 39 8 67l61 272h151l-62 -280c-2 -8 -5 -25 -5 -37c0 -34 20 -60 67 -60c39 0 66 14 85 40c11 16 19 36 27 73l59 264h151l-65 -290c-12 -51 -31 -92 -56 -123c-46 -57 -116 -83 -211 -83zM203 574l23 112h311l-23 -112h-311z
" />
    <glyph glyph-name="Ubreve.small" horiz-adv-x="597" 
d="M255 -10c-117 0 -210 43 -210 157c0 18 2 39 8 67l61 272h151l-62 -280c-2 -8 -5 -25 -5 -37c0 -34 20 -60 67 -60c39 0 66 14 85 40c11 16 19 36 27 73l59 264h151l-65 -290c-12 -51 -31 -92 -56 -123c-46 -57 -116 -83 -211 -83zM357 547c-90 0 -148 56 -138 152h99
c-3 -38 15 -63 49 -63s60 25 69 63h105c-21 -101 -94 -152 -184 -152z" />
    <glyph glyph-name="Uring.small" horiz-adv-x="597" 
d="M255 -10c-117 0 -210 43 -210 157c0 18 2 39 8 67l61 272h151l-62 -280c-2 -8 -5 -25 -5 -37c0 -34 20 -60 67 -60c39 0 66 14 85 40c11 16 19 36 27 73l59 264h151l-65 -290c-12 -51 -31 -92 -56 -123c-46 -57 -116 -83 -211 -83zM354 531c-67 0 -112 29 -112 80
c0 70 60 118 142 118c67 0 112 -29 112 -80c0 -70 -60 -118 -142 -118zM362 590c26 0 42 27 42 52c0 18 -11 28 -28 28c-26 0 -42 -27 -42 -52c0 -18 11 -28 28 -28z" />
    <glyph glyph-name="Uhungarumlaut.small" horiz-adv-x="597" 
d="M255 -10c-117 0 -210 43 -210 157c0 18 2 39 8 67l61 272h151l-62 -280c-2 -8 -5 -25 -5 -37c0 -34 20 -60 67 -60c39 0 66 14 85 40c11 16 19 36 27 73l59 264h151l-65 -290c-12 -51 -31 -92 -56 -123c-46 -57 -116 -83 -211 -83zM208 540l75 147h161l-124 -147h-112z
M396 540l75 147h161l-124 -147h-112z" />
    <glyph glyph-name="Uogonek.small" horiz-adv-x="597" 
d="M151 -135c0 56 37 93 85 125v2c-108 4 -191 47 -191 155c0 18 2 39 8 67l61 272h151l-62 -280c-2 -8 -5 -25 -5 -37c0 -34 20 -60 67 -60c40 0 68 15 87 43c10 15 17 35 23 62l61 272h151l-65 -290c-14 -61 -38 -105 -69 -138c-14 -15 -37 -31 -61 -46
c-55 -35 -119 -75 -119 -118c0 -19 14 -26 32 -26c11 0 23 2 37 6l7 -77c-26 -7 -57 -12 -90 -12c-71 0 -108 29 -108 80z" />
    <glyph glyph-name="Wgrave.small" horiz-adv-x="769" 
d="M134 -3l-77 489h146l27 -218c3 -24 5 -50 7 -83h2c12 27 26 55 36 74l76 148l-13 79h130l28 -201c4 -29 9 -68 12 -102h2c15 34 33 73 46 99l102 204h151l-269 -489h-128l-24 153c-3 19 -6 46 -8 71h-2c-11 -25 -24 -52 -35 -72l-81 -152h-128zM383 540l-96 147h161
l48 -147h-113z" />
    <glyph glyph-name="Wacute.small" horiz-adv-x="769" 
d="M134 -3l-77 489h146l27 -218c3 -24 5 -50 7 -83h2c12 27 26 55 36 74l76 148l-13 79h130l28 -201c4 -29 9 -68 12 -102h2c15 34 33 73 46 99l102 204h151l-269 -489h-128l-24 153c-3 19 -6 46 -8 71h-2c-11 -25 -24 -52 -35 -72l-81 -152h-128zM376 540l75 147h161
l-124 -147h-112z" />
    <glyph glyph-name="Wcircumflex.small" horiz-adv-x="769" 
d="M134 -3l-77 489h146l27 -218c3 -24 5 -50 7 -83h2c12 27 26 55 36 74l76 148l-13 79h130l28 -201c4 -29 9 -68 12 -102h2c15 34 33 73 46 99l102 204h151l-269 -489h-128l-24 153c-3 19 -6 46 -8 71h-2c-11 -25 -24 -52 -35 -72l-81 -152h-128zM287 540l121 147h107
l87 -147h-109l-40 67l-51 -67h-115z" />
    <glyph glyph-name="Wdieresis.small" horiz-adv-x="769" 
d="M134 -3l-77 489h146l27 -218c3 -24 5 -50 7 -83h2c12 27 26 55 36 74l76 148l-13 79h130l28 -201c4 -29 9 -68 12 -102h2c15 34 33 73 46 99l102 204h151l-269 -489h-128l-24 153c-3 19 -6 46 -8 71h-2c-11 -25 -24 -52 -35 -72l-81 -152h-128zM348 541
c-37 0 -64 24 -64 62c0 49 34 85 77 85c37 0 64 -24 64 -62c0 -49 -34 -85 -77 -85zM547 541c-37 0 -64 24 -64 62c0 49 34 85 77 85c37 0 64 -24 64 -62c0 -49 -34 -85 -77 -85z" />
    <glyph glyph-name="Ygrave.small" horiz-adv-x="501" 
d="M130 0l41 183l-114 303h143l62 -192h2l123 192h154l-220 -308l-40 -178h-151zM245 540l-96 147h161l48 -147h-113z" />
    <glyph glyph-name="Yacute.small" horiz-adv-x="501" 
d="M130 0l41 183l-114 303h143l62 -192h2l123 192h154l-220 -308l-40 -178h-151zM239 540l75 147h161l-124 -147h-112z" />
    <glyph glyph-name="Ycircumflex.small" horiz-adv-x="501" 
d="M130 0l41 183l-114 303h143l62 -192h2l123 192h154l-220 -308l-40 -178h-151zM138 540l121 147h107l87 -147h-109l-40 67l-51 -67h-115z" />
    <glyph glyph-name="Ydieresis.small" horiz-adv-x="501" 
d="M130 0l41 183l-114 303h143l62 -192h2l123 192h154l-220 -308l-40 -178h-151zM207 541c-37 0 -64 24 -64 62c0 49 34 85 77 85c37 0 64 -24 64 -62c0 -49 -34 -85 -77 -85zM406 541c-37 0 -64 24 -64 62c0 49 34 85 77 85c37 0 64 -24 64 -62c0 -49 -34 -85 -77 -85z" />
    <glyph glyph-name="Zacute.small" horiz-adv-x="482" 
d="M-18 0l265 370h-174l-12 116h427l-267 -370h207l-28 -116h-418zM216 540l75 147h161l-124 -147h-112z" />
    <glyph glyph-name="Zcaron.small" horiz-adv-x="482" 
d="M-18 0l265 370h-174l-12 116h427l-267 -370h207l-28 -116h-418zM214 540l-87 147h109l40 -67l51 67h115l-121 -147h-107z" />
    <glyph glyph-name="Zdotaccent.small" horiz-adv-x="494" 
d="M-18 0l265 370h-174l-12 116h427l-267 -370h207l-28 -116h-418zM287 538c-51 0 -84 36 -84 79c0 59 47 94 96 94c51 0 84 -35 84 -78c0 -59 -47 -95 -96 -95z" />
    <glyph glyph-name="Eng.small" horiz-adv-x="608" 
d="M178 -177l36 113c23 -9 47 -13 62 -13c39 0 52 22 60 59l13 59l-90 158c-13 22 -24 42 -39 71h-2c-4 -28 -9 -57 -14 -79l-43 -191h-151l108 486h119l120 -199c11 -18 21 -36 33 -61h2c5 30 9 51 14 74l41 186h151l-119 -536c-23 -104 -90 -145 -189 -145
c-43 0 -79 7 -112 18z" />
    <glyph glyph-name="Eth.small" horiz-adv-x="573" 
d="M21 0l44 197h-55l21 96h55l43 193h155c155 0 258 -66 258 -206c0 -138 -99 -280 -328 -280h-193zM199 121h46c108 0 148 86 148 158c0 62 -45 86 -116 86h-24l-16 -72h76l-21 -96h-76z" />
    <glyph glyph-name="Thorn.small" horiz-adv-x="488" 
d="M10 0l108 486h151l-17 -74h13c106 0 178 -54 178 -149c0 -107 -72 -192 -253 -192h-13l-16 -71h-151zM202 184h21c52 0 79 29 79 69c0 28 -14 46 -49 46h-25z" />
    <glyph glyph-name="a.superior" horiz-adv-x="360" 
d="M84 263c-56 0 -90 37 -90 94c0 92 75 132 192 132h22v2c0 18 -11 32 -50 32c-28 0 -61 -6 -96 -18l-17 80c37 15 88 26 136 26c61 0 140 -18 140 -110c0 -23 -5 -49 -9 -64l-13 -48c-6 -21 -10 -44 -10 -66c0 -10 2 -25 5 -40l-95 -20c-4 11 -9 32 -10 47h-2
c-25 -27 -63 -47 -103 -47zM125 351c26 0 60 23 69 58l1 4h-14c-62 0 -81 -19 -81 -40c0 -13 8 -22 25 -22z" />
    <glyph glyph-name="b.superior" horiz-adv-x="386" 
d="M98 263c-35 0 -79 5 -111 19l106 481h112l-30 -140c-4 -20 -9 -36 -14 -52h2c27 28 57 40 88 40c54 0 98 -40 98 -111c0 -152 -112 -237 -251 -237zM131 355c59 0 110 53 110 125c0 21 -11 39 -35 39c-22 0 -60 -22 -75 -92l-15 -70c3 -1 9 -2 15 -2z" />
    <glyph glyph-name="c.superior" horiz-adv-x="316" 
d="M153 263c-104 0 -151 65 -151 144c0 98 64 204 199 204c40 0 74 -7 99 -19l-21 -91c-28 13 -51 18 -74 18c-64 0 -95 -50 -95 -104c0 -40 19 -60 58 -60c32 0 58 10 79 21l32 -85c-31 -16 -77 -28 -126 -28z" />
    <glyph glyph-name="d.superior" horiz-adv-x="384" 
d="M174 263c-112 0 -168 59 -168 144c0 116 82 204 194 204c22 0 41 -2 57 -7l36 159h113l-105 -476c-40 -16 -87 -24 -127 -24zM175 355c8 0 21 1 29 4l34 155c-6 3 -17 5 -31 5c-60 0 -93 -50 -93 -104c0 -41 26 -60 61 -60z" />
    <glyph glyph-name="e.superior" horiz-adv-x="352" 
d="M152 263c-103 0 -150 65 -150 143c0 113 77 205 190 205c83 0 129 -47 129 -114c0 -27 -6 -56 -17 -93l-197 -3v-5c0 -31 26 -42 57 -42c33 0 59 6 97 21l32 -80c-47 -22 -97 -32 -141 -32zM122 479l91 1c2 6 3 12 3 18c0 16 -13 29 -34 29c-30 0 -51 -21 -60 -48z" />
    <glyph glyph-name="f.superior" horiz-adv-x="257" 
d="M1 119l-74 73c104 92 115 191 134 323h-63l12 87h63l4 25c16 101 93 135 157 135c29 0 63 -6 90 -22l-41 -83c-14 7 -28 10 -41 10c-27 0 -46 -13 -53 -50l-3 -15h85l-34 -87h-64c-22 -159 -40 -290 -172 -396z" />
    <glyph glyph-name="g.superior" horiz-adv-x="379" 
d="M103 263c-45 0 -97 28 -97 117c0 128 77 231 219 231c53 0 108 -14 137 -25l-64 -289c-28 -126 -79 -188 -209 -188c-34 0 -77 7 -119 27l34 91c34 -15 58 -22 85 -22c52 0 83 22 97 70l7 24h-2c-23 -22 -52 -36 -88 -36zM144 355c21 0 57 15 78 108l12 53
c-8 2 -18 3 -27 3c-58 0 -93 -59 -93 -122c0 -26 9 -42 30 -42z" />
    <glyph glyph-name="h.superior" horiz-adv-x="391" 
d="M-16 270l109 493h113l-32 -142c-5 -24 -16 -52 -24 -70h2c26 33 61 60 114 60c51 0 89 -29 89 -89c0 -13 -3 -35 -7 -54l-44 -198h-113l43 198c2 10 3 18 3 24c0 14 -8 21 -21 21c-21 0 -71 -25 -94 -127l-25 -116h-113z" />
    <glyph glyph-name="i.superior" horiz-adv-x="182" 
d="M-16 270l73 332h113l-73 -332h-113zM127 636c-34 0 -59 23 -59 56c0 44 36 71 73 71c34 0 59 -23 59 -56c0 -44 -36 -71 -73 -71z" />
    <glyph glyph-name="j.superior" horiz-adv-x="211" 
d="M-33 109c-31 0 -59 6 -83 16l34 88c18 -7 28 -8 40 -8c30 0 43 20 48 43l78 354h113l-82 -372c-22 -101 -86 -121 -148 -121zM154 636c-34 0 -59 23 -59 56c0 44 36 71 73 71c34 0 59 -23 59 -56c0 -44 -36 -71 -73 -71z" />
    <glyph glyph-name="k.superior" horiz-adv-x="364" 
d="M-16 270l109 493h113l-59 -266h2l104 105h132l-159 -155l87 -177h-123l-60 142h-2l-31 -142h-113z" />
    <glyph glyph-name="l.superior" horiz-adv-x="218" 
d="M97 263c-69 0 -92 39 -92 85c0 13 1 25 6 47l81 368h113l-78 -354c-3 -13 -5 -23 -5 -30c0 -10 4 -20 23 -20c7 0 16 1 25 3v-88c-19 -7 -50 -11 -73 -11z" />
    <glyph glyph-name="m.superior" horiz-adv-x="583" 
d="M-16 270l73 332h86v-55h2c28 33 63 64 114 64c45 0 76 -21 84 -65c28 33 64 65 115 65c53 0 88 -29 88 -89c0 -15 -3 -35 -7 -54l-44 -198h-113l43 198c2 10 3 18 3 24c0 14 -6 21 -19 21c-21 0 -64 -25 -87 -127l-26 -116h-113l43 198c2 10 3 18 3 24c0 14 -6 21 -19 21
c-21 0 -65 -25 -88 -127l-25 -116h-113z" />
    <glyph glyph-name="n.superior" unicode="&#x207f;" horiz-adv-x="391" 
d="M-16 270l73 332h86v-55h2c28 33 69 64 120 64c53 0 90 -29 90 -89c0 -13 -3 -35 -7 -54l-44 -198h-113l43 198c2 10 3 18 3 24c0 14 -8 21 -21 21c-21 0 -71 -25 -94 -127l-25 -116h-113z" />
    <glyph glyph-name="o.superior" horiz-adv-x="384" 
d="M154 263c-81 0 -152 45 -152 141c0 116 74 207 195 207c81 0 152 -45 152 -141c0 -116 -74 -207 -195 -207zM160 355c53 0 81 54 81 105c0 40 -18 59 -50 59c-53 0 -81 -54 -81 -105c0 -40 18 -59 50 -59z" />
    <glyph glyph-name="p.superior" horiz-adv-x="386" 
d="M-50 109l107 484c27 9 77 18 122 18c112 0 170 -59 170 -147c0 -120 -79 -201 -190 -201c-20 0 -41 2 -60 9l-36 -163h-113zM119 362c10 -5 24 -7 34 -7c58 0 88 52 88 102c0 47 -34 62 -65 62c-10 0 -19 -2 -23 -3z" />
    <glyph glyph-name="q.superior" horiz-adv-x="379" 
d="M103 263c-45 0 -97 28 -97 117c0 128 77 231 219 231c53 0 108 -14 137 -25l-106 -477h-113l24 109c7 32 17 63 24 81h-2c-23 -22 -50 -36 -86 -36zM144 355c21 0 56 15 77 108l12 53c-8 2 -17 3 -26 3c-58 0 -93 -59 -93 -122c0 -26 9 -42 30 -42z" />
    <glyph glyph-name="r.superior" horiz-adv-x="276" 
d="M-16 270l73 332h86v-52h2c19 33 44 61 84 61c28 0 50 -13 61 -24l-50 -92c-12 8 -25 13 -38 13c-27 0 -57 -14 -79 -118l-26 -120h-113z" />
    <glyph glyph-name="s.superior" horiz-adv-x="280" 
d="M102 263c-48 0 -97 13 -135 38l37 79c27 -16 62 -31 94 -31c17 0 32 4 32 16c0 30 -113 45 -113 140c0 57 41 106 129 106c44 0 83 -9 116 -21l-19 -88c-25 12 -61 23 -88 23c-18 0 -27 -6 -27 -17c0 -37 113 -45 113 -140c0 -66 -59 -105 -139 -105z" />
    <glyph glyph-name="t.superior" horiz-adv-x="279" 
d="M120 263c-64 0 -96 32 -96 82c0 5 1 20 4 34l31 136h-58l20 87h56l16 71l119 30l-22 -101h89l-34 -87h-74l-28 -122c-2 -9 -3 -14 -3 -17c0 -12 8 -17 21 -17c15 0 32 7 47 15l32 -83c-45 -21 -85 -28 -120 -28z" />
    <glyph glyph-name="u.superior" horiz-adv-x="387" 
d="M100 263c-45 0 -90 24 -90 98c0 16 3 39 10 71l37 170h113l-41 -187c-3 -13 -4 -21 -4 -28c0 -17 10 -28 26 -28c22 0 57 21 71 83c11 47 24 114 35 160h113l-47 -214c-5 -22 -9 -44 -9 -63c0 -15 2 -27 5 -42l-97 -20c-7 19 -10 36 -11 49h-2c-25 -25 -56 -49 -109 -49z
" />
    <glyph glyph-name="v.superior" horiz-adv-x="342" 
d="M89 268l-71 334h112l25 -195h2l93 195h118l-188 -334h-91z" />
    <glyph glyph-name="w.superior" horiz-adv-x="516" 
d="M74 268l-55 334h109l21 -184h3l82 184h81l21 -185h3l85 185h116l-174 -334h-89l-24 181h-3l-87 -181h-89z" />
    <glyph glyph-name="x.superior" horiz-adv-x="364" 
d="M-63 270l168 174l-98 158h115l53 -89l83 89h125l-161 -167l103 -165h-115l-58 96l-90 -96h-125z" />
    <glyph glyph-name="y.superior" horiz-adv-x="365" 
d="M-87 130l42 88c20 -10 32 -13 47 -13c44 0 72 33 96 74l-80 323h113l39 -210h2l96 210h125l-182 -339c-51 -95 -111 -154 -210 -154c-33 0 -66 8 -88 21z" />
    <glyph glyph-name="z.superior" horiz-adv-x="314" 
d="M-45 270l181 245h-109l-8 87h297l-181 -245h138l-19 -87h-299z" />
    <glyph glyph-name="grave" unicode="`" 
d="M160 531l-96 147h161l48 -147h-113z" />
    <glyph glyph-name="grave" unicode="&#x300;" 
d="M160 531l-96 147h161l48 -147h-113z" />
    <glyph glyph-name="grave.cap" 
d="M160 696l-96 147h161l48 -147h-113z" />
    <glyph glyph-name="acute" unicode="&#xb4;" 
d="M131 531l75 147h161l-124 -147h-112z" />
    <glyph glyph-name="acute" unicode="&#x301;" 
d="M131 531l75 147h161l-124 -147h-112z" />
    <glyph glyph-name="acute.cap" 
d="M131 696l75 147h161l-124 -147h-112z" />
    <glyph glyph-name="circumflex" unicode="&#x2c6;" 
d="M42 531l121 147h107l87 -147h-109l-40 67l-51 -67h-115z" />
    <glyph glyph-name="circumflex" unicode="&#x302;" 
d="M42 531l121 147h107l87 -147h-109l-40 67l-51 -67h-115z" />
    <glyph glyph-name="circumflex.cap" 
d="M42 696l121 147h107l87 -147h-109l-40 67l-51 -67h-115z" />
    <glyph glyph-name="caron" unicode="&#x2c7;" 
d="M149 531l-87 147h109l40 -67l51 67h115l-121 -147h-107z" />
    <glyph glyph-name="caron" unicode="&#x30c;" 
d="M149 531l-87 147h109l40 -67l51 67h115l-121 -147h-107z" />
    <glyph glyph-name="caron.cap" 
d="M149 696l-87 147h109l40 -67l51 67h115l-121 -147h-107z" />
    <glyph glyph-name="caronSlovak" unicode="&#x313;" 
d="M139 484l-53 94c51 14 76 42 76 82c0 17 -4 33 -11 48h128c6 -11 12 -29 12 -56c0 -72 -48 -134 -152 -168z" />
    <glyph glyph-name="caronSlovak" unicode="&#x315;" 
d="M139 484l-53 94c51 14 76 42 76 82c0 17 -4 33 -11 48h128c6 -11 12 -29 12 -56c0 -72 -48 -134 -152 -168z" />
    <glyph glyph-name="tilde" unicode="&#x2dc;" 
d="M25 542c7 96 55 138 109 138c59 0 90 -41 123 -41c14 0 24 6 28 35h97c-7 -96 -55 -138 -109 -138c-59 0 -90 41 -123 41c-14 0 -24 -6 -28 -35h-97z" />
    <glyph glyph-name="tilde" unicode="&#x303;" 
d="M25 542c7 96 55 138 109 138c59 0 90 -41 123 -41c14 0 24 6 28 35h97c-7 -96 -55 -138 -109 -138c-59 0 -90 41 -123 41c-14 0 -24 -6 -28 -35h-97z" />
    <glyph glyph-name="tilde.cap" 
d="M27 715c7 96 55 138 109 138c59 0 90 -41 123 -41c14 0 24 6 28 35h97c-7 -96 -55 -138 -109 -138c-59 0 -90 41 -123 41c-14 0 -24 -6 -28 -35h-97z" />
    <glyph glyph-name="dieresis" unicode="&#xa8;" 
d="M103 532c-37 0 -64 24 -64 62c0 49 34 85 77 85c37 0 64 -24 64 -62c0 -49 -34 -85 -77 -85zM302 532c-37 0 -64 24 -64 62c0 49 34 85 77 85c37 0 64 -24 64 -62c0 -49 -34 -85 -77 -85z" />
    <glyph glyph-name="dieresis" unicode="&#x308;" 
d="M103 532c-37 0 -64 24 -64 62c0 49 34 85 77 85c37 0 64 -24 64 -62c0 -49 -34 -85 -77 -85zM302 532c-37 0 -64 24 -64 62c0 49 34 85 77 85c37 0 64 -24 64 -62c0 -49 -34 -85 -77 -85z" />
    <glyph glyph-name="dieresis.cap" 
d="M103 697c-37 0 -64 24 -64 62c0 49 34 85 77 85c37 0 64 -24 64 -62c0 -49 -34 -85 -77 -85zM302 697c-37 0 -64 24 -64 62c0 49 34 85 77 85c37 0 64 -24 64 -62c0 -49 -34 -85 -77 -85z" />
    <glyph glyph-name="macron" unicode="&#xaf;" 
d="M45 565l23 112h311l-23 -112h-311z" />
    <glyph glyph-name="macron" unicode="&#x304;" 
d="M45 565l23 112h311l-23 -112h-311z" />
    <glyph glyph-name="macron" unicode="&#x2c9;" 
d="M45 565l23 112h311l-23 -112h-311z" />
    <glyph glyph-name="macron.cap" 
d="M38 696l23 112h311l-23 -112h-311z" />
    <glyph glyph-name="breve" unicode="&#x2d8;" 
d="M203 538c-90 0 -148 56 -138 152h99c-3 -38 15 -63 49 -63s60 25 69 63h105c-21 -101 -94 -152 -184 -152z" />
    <glyph glyph-name="breve" unicode="&#x306;" 
d="M203 538c-90 0 -148 56 -138 152h99c-3 -38 15 -63 49 -63s60 25 69 63h105c-21 -101 -94 -152 -184 -152z" />
    <glyph glyph-name="breve.cap" 
d="M199 686c-90 0 -148 56 -138 152h99c-3 -38 15 -63 49 -63s60 25 69 63h105c-21 -101 -94 -152 -184 -152z" />
    <glyph glyph-name="ring" unicode="&#x2da;" 
d="M198 522c-67 0 -112 29 -112 80c0 70 60 118 142 118c67 0 112 -29 112 -80c0 -70 -60 -118 -142 -118zM206 581c26 0 42 27 42 52c0 18 -11 28 -28 28c-26 0 -42 -27 -42 -52c0 -18 11 -28 28 -28z" />
    <glyph glyph-name="ring" unicode="&#x30a;" 
d="M198 522c-67 0 -112 29 -112 80c0 70 60 118 142 118c67 0 112 -29 112 -80c0 -70 -60 -118 -142 -118zM206 581c26 0 42 27 42 52c0 18 -11 28 -28 28c-26 0 -42 -27 -42 -52c0 -18 11 -28 28 -28z" />
    <glyph glyph-name="ring.cap" 
d="M189 643c-67 0 -112 29 -112 80c0 70 60 118 142 118c67 0 112 -29 112 -80c0 -70 -60 -118 -142 -118zM197 702c26 0 42 27 42 52c0 18 -11 28 -28 28c-26 0 -42 -27 -42 -52c0 -18 11 -28 28 -28z" />
    <glyph glyph-name="hungarumlaut" unicode="&#x2dd;" 
d="M60 531l75 147h161l-124 -147h-112zM248 531l75 147h161l-124 -147h-112z" />
    <glyph glyph-name="hungarumlaut" unicode="&#x30b;" 
d="M60 531l75 147h161l-124 -147h-112zM248 531l75 147h161l-124 -147h-112z" />
    <glyph glyph-name="hungarumlaut.cap" 
d="M60 696l75 147h161l-124 -147h-112zM248 696l75 147h161l-124 -147h-112z" />
    <glyph glyph-name="dotaccent" unicode="&#x2d9;" 
d="M202 529c-51 0 -84 36 -84 79c0 59 47 94 96 94c51 0 84 -35 84 -78c0 -59 -47 -95 -96 -95z" />
    <glyph glyph-name="dotaccent" unicode="&#x307;" 
d="M202 529c-51 0 -84 36 -84 79c0 59 47 94 96 94c51 0 84 -35 84 -78c0 -59 -47 -95 -96 -95z" />
    <glyph glyph-name="dotaccent.cap" 
d="M203 697c-51 0 -84 36 -84 79c0 59 47 94 96 94c51 0 84 -35 84 -78c0 -59 -47 -95 -96 -95z" />
    <glyph glyph-name="cedilla" unicode="&#xb8;" 
d="M73 -198l28 62c11 -5 29 -9 47 -9c30 0 51 10 51 32c0 21 -28 26 -72 26l44 87h103l-24 -46c46 -4 76 -22 76 -65c0 -63 -65 -101 -165 -101c-30 0 -64 5 -88 14z" />
    <glyph glyph-name="cedilla" unicode="&#x327;" 
d="M73 -198l28 62c11 -5 29 -9 47 -9c30 0 51 10 51 32c0 21 -28 26 -72 26l44 87h103l-24 -46c46 -4 76 -22 76 -65c0 -63 -65 -101 -165 -101c-30 0 -64 5 -88 14z" />
    <glyph glyph-name="ogonek" unicode="&#x2db;" 
d="M184 -215c-71 0 -108 29 -108 80c0 70 58 112 124 148l124 -13c-67 -28 -126 -66 -126 -106c0 -19 14 -26 32 -26c11 0 23 2 37 6l7 -77c-26 -7 -57 -12 -90 -12z" />
    <glyph glyph-name="ogonek" unicode="&#x328;" 
d="M184 -215c-71 0 -108 29 -108 80c0 70 58 112 124 148l124 -13c-67 -28 -126 -66 -126 -106c0 -19 14 -26 32 -26c11 0 23 2 37 6l7 -77c-26 -7 -57 -12 -90 -12z" />
    <glyph glyph-name="commaaccent" unicode="&#x326;" 
d="M119 -237l-27 94c57 8 81 27 81 56c0 11 -3 21 -8 35h134c6 -17 9 -35 9 -50c0 -76 -55 -125 -189 -135z" />
    <glyph glyph-name="commaaccent" unicode="&#xf6c3;" 
d="M119 -237l-27 94c57 8 81 27 81 56c0 11 -3 21 -8 35h134c6 -17 9 -35 9 -50c0 -76 -55 -125 -189 -135z" />
    <glyph glyph-name="comma" unicode="," horiz-adv-x="290" 
d="M38 -162l-82 56c63 77 75 139 77 214h137c6 -92 -35 -191 -132 -270z" />
    <glyph glyph-name="semicolon" unicode=";" horiz-adv-x="290" 
d="M38 -162l-82 56c63 77 75 139 77 214h137c6 -92 -35 -191 -132 -270zM137 294c-41 0 -71 31 -71 73c0 51 39 91 88 91c42 0 72 -31 72 -74c0 -50 -40 -90 -89 -90z" />
    <glyph glyph-name="colon" unicode=":" horiz-adv-x="290" 
d="M84 -10c-41 0 -71 31 -71 73c0 51 39 91 88 91c42 0 72 -31 72 -74c0 -50 -40 -90 -89 -90zM137 294c-41 0 -71 31 -71 73c0 51 39 91 88 91c42 0 72 -31 72 -74c0 -50 -40 -90 -89 -90z" />
    <glyph glyph-name="period" unicode="." horiz-adv-x="290" 
d="M84 -10c-41 0 -71 31 -71 73c0 51 39 91 88 91c42 0 72 -31 72 -74c0 -50 -40 -90 -89 -90z" />
    <glyph glyph-name="ellipsis" unicode="&#x2026;" horiz-adv-x="895" 
d="M84 -10c-41 0 -71 31 -71 73c0 51 39 91 88 91c42 0 72 -31 72 -74c0 -50 -40 -90 -89 -90zM385 -10c-41 0 -71 31 -71 73c0 51 39 91 88 91c42 0 72 -31 72 -74c0 -50 -40 -90 -89 -90zM689 -10c-41 0 -71 31 -71 73c0 51 39 91 88 91c42 0 72 -31 72 -74
c0 -50 -40 -90 -89 -90z" />
    <glyph glyph-name="hyphen" unicode="-" horiz-adv-x="326" 
d="M-5 187l27 124h263l-27 -124h-263z" />
    <glyph glyph-name="hyphen" unicode="&#x2010;" horiz-adv-x="326" 
d="M-5 187l27 124h263l-27 -124h-263z" />
    <glyph glyph-name="hyphen" unicode="&#xad;" horiz-adv-x="326" 
d="M-5 187l27 124h263l-27 -124h-263z" />
    <glyph glyph-name="hyphen.cap" horiz-adv-x="326" 
d="M13 274l27 124h263l-27 -124h-263z" />
    <glyph glyph-name="exclam" unicode="!" horiz-adv-x="300" 
d="M84 -10c-41 0 -71 31 -71 73c0 51 39 91 88 91c42 0 72 -31 72 -74c0 -50 -40 -90 -89 -90zM77 207c-6 119 2 168 53 402l11 50h154l-11 -51c-50 -234 -61 -282 -119 -401h-88z" />
    <glyph glyph-name="exclamdown" unicode="&#xa1;" horiz-adv-x="300" 
d="M-35 -184l11 51c50 234 61 282 119 401h88c6 -119 -2 -168 -53 -402l-11 -50h-154zM159 321c-42 0 -72 31 -72 74c0 50 40 90 89 90c41 0 71 -31 71 -73c0 -51 -39 -91 -88 -91z" />
    <glyph glyph-name="exclamdown.cap" horiz-adv-x="300" 
d="M-2 -3l11 51c50 234 61 282 119 401h88c6 -119 -2 -168 -53 -402l-11 -50h-154zM192 502c-42 0 -72 31 -72 74c0 50 40 90 89 90c41 0 71 -31 71 -73c0 -51 -39 -91 -88 -91z" />
    <glyph glyph-name="exclam.small" horiz-adv-x="270" 
d="M73 -10c-35 0 -61 23 -61 59c0 47 33 81 74 81c35 0 61 -23 61 -59c0 -47 -33 -81 -74 -81zM60 190c-5 97 4 165 28 270l6 26h146l-6 -26c-33 -141 -44 -179 -86 -270h-88z" />
    <glyph glyph-name="exclamdown.small" horiz-adv-x="270" 
d="M-9 0l6 26c33 141 44 177 86 268h88c5 -97 -4 -163 -28 -268l-6 -26h-146zM145 354c-35 0 -61 23 -61 59c0 47 33 81 74 81c35 0 61 -23 61 -59c0 -47 -33 -81 -74 -81z" />
    <glyph glyph-name="question" unicode="?" horiz-adv-x="450" 
d="M149 -10c-41 0 -71 31 -71 73c0 51 39 91 88 91c42 0 72 -31 72 -74c0 -50 -40 -90 -89 -90zM124 207c0 161 189 201 189 286c0 27 -15 46 -60 46c-38 0 -84 -18 -121 -45l-54 105c62 46 136 67 206 67c111 0 181 -63 181 -149c0 -42 -15 -75 -36 -103
c-57 -75 -170 -113 -204 -207h-101z" />
    <glyph glyph-name="questiondown" unicode="&#xbf;" horiz-adv-x="450" 
d="M156 -191c-111 0 -181 63 -181 149c0 42 15 75 36 103c57 75 170 113 204 207h101c0 -161 -189 -201 -189 -286c0 -27 15 -46 60 -46c38 0 84 18 121 45l54 -105c-62 -46 -136 -67 -206 -67zM274 321c-42 0 -72 31 -72 74c0 50 40 90 89 90c41 0 71 -31 71 -73
c0 -51 -39 -91 -88 -91z" />
    <glyph glyph-name="questiondown.cap" horiz-adv-x="450" 
d="M167 -10c-111 0 -181 63 -181 149c0 42 15 75 36 103c57 75 170 113 204 207h101c0 -161 -189 -201 -189 -286c0 -27 15 -46 60 -46c38 0 84 18 121 45l54 -105c-62 -46 -136 -67 -206 -67zM285 502c-42 0 -72 31 -72 74c0 50 40 90 89 90c41 0 71 -31 71 -73
c0 -51 -39 -91 -88 -91z" />
    <glyph glyph-name="question.small" horiz-adv-x="380" 
d="M104 -10c-35 0 -61 23 -61 59c0 47 33 81 74 81c35 0 61 -23 61 -59c0 -47 -33 -81 -74 -81zM85 190c1 113 129 122 129 170c0 15 -11 27 -37 27c-24 0 -56 -9 -90 -33l-42 88c56 35 111 52 170 52c83 0 140 -39 140 -112c0 -108 -132 -117 -175 -192h-95z" />
    <glyph glyph-name="questiondown.small" horiz-adv-x="380" 
d="M129 -10c-83 0 -140 39 -140 112c0 108 132 117 175 192h95c-1 -113 -129 -122 -129 -170c0 -15 11 -27 37 -27c24 0 56 9 90 33l42 -88c-56 -35 -111 -52 -170 -52zM227 354c-35 0 -61 23 -61 59c0 47 33 81 74 81c35 0 61 -23 61 -59c0 -47 -33 -81 -74 -81z" />
    <glyph glyph-name="quoteleft" unicode="&#x2018;" horiz-adv-x="210" 
d="M112 422c-12 32 -19 66 -19 102c0 62 19 129 62 195l95 -28c-18 -47 -25 -86 -25 -123c0 -36 7 -69 17 -105z" />
    <glyph glyph-name="quoteright" unicode="&#x2019;" horiz-adv-x="210" 
d="M121 438l-82 56c63 77 75 139 77 214h137c6 -92 -35 -191 -132 -270z" />
    <glyph glyph-name="quoteleft.small" horiz-adv-x="210" 
d="M75 249c-12 32 -19 66 -19 102c0 62 19 129 62 195l95 -28c-18 -47 -25 -86 -25 -123c0 -36 7 -69 17 -105z" />
    <glyph glyph-name="quoteright.small" horiz-adv-x="210" 
d="M84 265l-82 56c63 77 75 139 77 214h137c6 -92 -35 -191 -132 -270z" />
    <glyph glyph-name="quotedblleft" unicode="&#x201c;" horiz-adv-x="441" 
d="M112 422c-12 32 -19 66 -19 102c0 62 19 129 62 195l95 -28c-18 -47 -25 -86 -25 -123c0 -36 7 -69 17 -105zM343 422c-12 32 -19 66 -19 102c0 62 19 129 62 195l95 -28c-18 -47 -25 -86 -25 -123c0 -36 7 -69 17 -105z" />
    <glyph glyph-name="quotedblright" unicode="&#x201d;" horiz-adv-x="441" 
d="M121 438l-82 56c63 77 75 139 77 214h137c6 -92 -35 -191 -132 -270zM352 438l-82 56c63 77 75 139 77 214h137c6 -92 -35 -191 -132 -270z" />
    <glyph glyph-name="quotedblleft.small" horiz-adv-x="441" 
d="M75 249c-12 32 -19 66 -19 102c0 62 19 129 62 195l95 -28c-18 -47 -25 -86 -25 -123c0 -36 7 -69 17 -105zM306 249c-12 32 -19 66 -19 102c0 62 19 129 62 195l95 -28c-18 -47 -25 -86 -25 -123c0 -36 7 -69 17 -105z" />
    <glyph glyph-name="quotedblright.small" horiz-adv-x="442" 
d="M84 265l-82 56c63 77 75 139 77 214h137c6 -92 -35 -191 -132 -270zM315 265l-82 56c63 77 75 139 77 214h137c6 -92 -35 -191 -132 -270z" />
    <glyph glyph-name="quotesinglbase" unicode="&#x201a;" horiz-adv-x="290" 
d="M38 -162l-82 56c63 77 75 139 77 214h137c6 -92 -35 -191 -132 -270z" />
    <glyph glyph-name="quotedblbase" unicode="&#x201e;" horiz-adv-x="522" 
d="M38 -153l-82 56c63 77 75 139 77 214h137c6 -92 -35 -191 -132 -270zM269 -153l-82 56c63 77 75 139 77 214h137c6 -92 -35 -191 -132 -270z" />
    <glyph glyph-name="guilsinglleft" unicode="&#x2039;" horiz-adv-x="345" 
d="M9 245l204 233l111 -70l-158 -171l94 -166l-121 -64z" />
    <glyph glyph-name="guilsinglright" unicode="&#x203a;" horiz-adv-x="345" 
d="M-22 78l157 173l-91 164l120 64l131 -240l-205 -231z" />
    <glyph glyph-name="guilsinglleft.cap" horiz-adv-x="345" 
d="M27 332l204 233l111 -70l-158 -171l94 -166l-121 -64z" />
    <glyph glyph-name="guilsinglright.cap" horiz-adv-x="345" 
d="M-3 165l157 173l-91 164l120 64l131 -240l-205 -231z" />
    <glyph glyph-name="guillemotleft" unicode="&#xab;" horiz-adv-x="615" 
d="M9 245l204 233l111 -70l-158 -171l94 -166l-121 -64zM279 245l204 233l111 -70l-158 -171l94 -166l-121 -64z" />
    <glyph glyph-name="guillemotright" unicode="&#xbb;" horiz-adv-x="615" 
d="M90 8l-112 70l157 173l-91 164l120 64l131 -240zM363 8l-112 70l157 173l-91 164l120 64l131 -240z" />
    <glyph glyph-name="guillemotleft.cap" horiz-adv-x="615" 
d="M27 332l204 233l111 -70l-158 -171l94 -166l-121 -64zM297 332l204 233l111 -70l-158 -171l94 -166l-121 -64z" />
    <glyph glyph-name="guillemotright.cap" horiz-adv-x="615" 
d="M109 95l-112 70l157 173l-91 164l120 64l131 -240zM382 95l-112 70l157 173l-91 164l120 64l131 -240z" />
    <glyph glyph-name="slash" unicode="/" horiz-adv-x="413" 
d="M-46 -32l336 728h165l-336 -728h-165z" />
    <glyph glyph-name="bar" unicode="|" horiz-adv-x="405" 
d="M128 -237v1017h149v-1017h-149z" />
    <glyph glyph-name="endash" unicode="&#x2013;" horiz-adv-x="450" 
d="M0 196v107h450v-107h-450z" />
    <glyph glyph-name="endash.cap" horiz-adv-x="450" 
d="M0 283v107h450v-107h-450z" />
    <glyph glyph-name="emdash" unicode="&#x2014;" horiz-adv-x="800" 
d="M0 196v107h800v-107h-800z" />
    <glyph glyph-name="emdash.cap" horiz-adv-x="800" 
d="M0 283v107h800v-107h-800z" />
    <glyph glyph-name="bullet" unicode="&#x2022;" horiz-adv-x="357" 
d="M173 180c-76 0 -133 62 -133 137c0 78 57 139 133 139c77 0 134 -61 134 -139c0 -75 -57 -137 -134 -137z" />
    <glyph glyph-name="periodcentered" unicode="&#xb7;" horiz-adv-x="290" 
d="M117 167c-41 0 -71 31 -71 73c0 51 39 91 88 91c42 0 72 -31 72 -74c0 -50 -40 -90 -89 -90z" />
    <glyph glyph-name="periodcentered" unicode="&#x2219;" horiz-adv-x="290" 
d="M117 167c-41 0 -71 31 -71 73c0 51 39 91 88 91c42 0 72 -31 72 -74c0 -50 -40 -90 -89 -90z" />
    <glyph glyph-name="periodcentered.cap" horiz-adv-x="290" 
d="M132 233c-41 0 -71 31 -71 73c0 51 39 91 88 91c42 0 72 -31 72 -74c0 -50 -40 -90 -89 -90z" />
    <glyph glyph-name="parenleft" unicode="(" horiz-adv-x="355" 
d="M134 -236c-76 96 -105 224 -105 364c0 219 82 477 298 648l79 -89c-134 -121 -221 -320 -221 -571c0 -126 23 -208 59 -281z" />
    <glyph glyph-name="parenright" unicode=")" horiz-adv-x="355" 
d="M19 -236l-79 89c134 121 221 320 221 571c0 126 -23 208 -59 281l110 71c76 -96 105 -224 105 -364c0 -219 -82 -477 -298 -648z" />
    <glyph glyph-name="parenleft.cap" horiz-adv-x="355" 
d="M145 -182c-76 96 -105 224 -105 364c0 219 82 477 298 648l79 -89c-134 -121 -221 -320 -221 -571c0 -126 23 -208 59 -281z" />
    <glyph glyph-name="parenright.cap" horiz-adv-x="355" 
d="M30 -182l-79 89c134 121 221 320 221 571c0 126 -23 208 -59 281l110 71c76 -96 105 -224 105 -364c0 -219 -82 -477 -298 -648z" />
    <glyph glyph-name="parenleft.small" horiz-adv-x="355" 
d="M160 -152c-59 75 -82 177 -82 283c0 176 64 373 232 506l71 -74c-114 -102 -166 -280 -166 -457c0 -95 17 -147 42 -197z" />
    <glyph glyph-name="parenright.small" horiz-adv-x="355" 
d="M38 -152l-71 74c114 102 166 280 166 457c0 95 -17 147 -42 197l97 61c59 -75 82 -177 82 -283c0 -176 -64 -373 -232 -506z" />
    <glyph glyph-name="bracketleft" unicode="[" horiz-adv-x="380" 
d="M-19 -236l221 1011h248l-25 -114h-100l-171 -783h100l-25 -114h-248z" />
    <glyph glyph-name="bracketright" unicode="]" horiz-adv-x="380" 
d="M-107 -236l25 114h100l171 783h-100l25 114h248l-221 -1011h-248z" />
    <glyph glyph-name="bracketleft.cap" horiz-adv-x="380" 
d="M-8 -182l221 1011h248l-25 -114h-100l-171 -783h100l-25 -114h-248z" />
    <glyph glyph-name="bracketright.cap" horiz-adv-x="380" 
d="M-96 -182l25 114h100l171 783h-100l25 114h248l-221 -1011h-248z" />
    <glyph glyph-name="bracketleft.small" horiz-adv-x="380" 
d="M23 -147l172 778h211l-22 -101h-82l-129 -576h82l-22 -101h-210z" />
    <glyph glyph-name="bracketright.small" horiz-adv-x="380" 
d="M-32 -147l22 101h82l129 576h-82l22 101h210l-172 -778h-211z" />
    <glyph glyph-name="braceleft" unicode="{" horiz-adv-x="380" 
d="M235 -233c-140 8 -198 55 -198 140c0 17 2 36 6 57l37 176c3 14 4 27 4 37c0 46 -30 47 -52 50l20 92c21 0 43 1 59 21c7 9 14 23 18 43l44 215c9 46 25 81 51 109c40 43 105 69 200 69v-131c-37 -3 -71 -11 -92 -36c-10 -12 -17 -27 -22 -51l-29 -153
c-8 -44 -19 -69 -33 -88c-19 -25 -46 -37 -78 -46v-2c35 -6 62 -28 62 -80c0 -11 -1 -26 -5 -43l-31 -140c-4 -16 -6 -36 -6 -49c0 -43 27 -57 79 -60z" />
    <glyph glyph-name="braceright" unicode="}" horiz-adv-x="380" 
d="M-55 -233v131c37 3 71 11 92 36c10 12 17 27 22 51l29 153c8 44 19 69 33 88c19 25 46 37 78 46v2c-35 6 -62 28 -62 80c0 11 1 26 5 43l31 140c4 16 6 36 6 49c0 43 -27 57 -79 60l34 130c140 -8 198 -55 198 -140c0 -17 -2 -36 -6 -57l-37 -176c-3 -14 -4 -27 -4 -37
c0 -46 30 -47 52 -50l-20 -92c-21 0 -43 -1 -59 -21c-7 -9 -14 -23 -18 -43l-44 -215c-9 -46 -25 -81 -51 -109c-40 -43 -105 -69 -200 -69z" />
    <glyph glyph-name="braceleft.cap" horiz-adv-x="380" 
d="M245 -179c-140 8 -198 55 -198 140c0 17 2 36 6 57l37 176c3 14 4 27 4 37c0 46 -30 47 -52 50l20 92c21 0 43 1 59 21c7 9 14 23 18 43l44 215c9 46 25 81 51 109c40 43 105 69 200 69v-131c-37 -3 -71 -11 -92 -36c-10 -12 -17 -27 -22 -51l-29 -153
c-8 -44 -19 -69 -33 -88c-19 -25 -46 -37 -78 -46v-2c35 -6 62 -28 62 -80c0 -11 -1 -26 -5 -43l-31 -140c-4 -16 -6 -36 -6 -49c0 -43 27 -57 79 -60z" />
    <glyph glyph-name="braceright.cap" horiz-adv-x="380" 
d="M-44 -179v131c37 3 71 11 92 36c10 12 17 27 22 51l29 153c8 44 19 69 33 88c19 25 46 37 78 46v2c-35 6 -62 28 -62 80c0 11 1 26 5 43l31 140c4 16 6 36 6 49c0 43 -27 57 -79 60l34 130c140 -8 198 -55 198 -140c0 -17 -2 -36 -6 -57l-37 -176c-3 -14 -4 -27 -4 -37
c0 -46 30 -47 52 -50l-20 -92c-21 0 -43 -1 -59 -21c-7 -9 -14 -23 -18 -43l-44 -215c-9 -46 -25 -81 -51 -109c-40 -43 -105 -69 -200 -69z" />
    <glyph glyph-name="braceleft.small" horiz-adv-x="348" 
d="M213 -158c-108 1 -165 41 -165 113c0 13 1 28 6 51l26 123c2 11 3 21 3 29c0 36 -24 36 -41 39l20 85c23 0 49 0 59 49l34 168c18 90 83 137 206 137v-115c-43 -3 -69 -17 -78 -65l-22 -118c-13 -68 -43 -87 -86 -99v-1c27 -5 48 -22 48 -63c0 -8 -1 -20 -4 -33l-25 -101
c-3 -12 -6 -33 -6 -43c0 -28 13 -39 54 -42z" />
    <glyph glyph-name="braceright.small" horiz-adv-x="348" 
d="M-24 -158v115c43 3 69 17 78 65l22 118c13 68 43 87 86 99v1c-27 5 -48 22 -48 63c0 8 1 20 4 33l25 101c3 12 6 33 6 43c0 28 -13 39 -54 42l29 114c108 -1 165 -41 165 -113c0 -13 -1 -28 -6 -51l-26 -123c-2 -11 -3 -21 -3 -29c0 -36 24 -36 41 -39l-20 -85
c-23 0 -49 0 -59 -49l-34 -168c-18 -90 -83 -137 -206 -137z" />
    <glyph glyph-name="asterisk" unicode="*" horiz-adv-x="500" 
d="M258 321l-94 42c21 57 77 106 93 136c-31 -8 -96 -46 -157 -47l-10 104c59 10 130 -14 162 -14c-21 23 -85 61 -118 113l84 60c39 -45 54 -118 70 -147c10 30 10 106 40 158l94 -41c-20 -57 -77 -108 -93 -135c31 8 96 44 157 45l11 -103c-60 -10 -131 13 -162 14
c21 -24 85 -62 116 -113l-84 -61c-38 46 -54 119 -70 148c-9 -31 -10 -106 -39 -159z" />
    <glyph glyph-name="dagger" unicode="&#x2020;" horiz-adv-x="508" 
d="M91 -52l26 124c31 149 62 241 73 295c-34 0 -113 -15 -158 -13l32 152c43 -2 115 -17 150 -19c10 38 12 112 22 157h154c-10 -43 -41 -118 -48 -157c35 2 114 17 157 15l-32 -152c-45 2 -115 16 -149 17c-14 -55 -20 -119 -41 -219l-42 -200h-144z" />
    <glyph glyph-name="daggerdbl" unicode="&#x2021;" horiz-adv-x="507" 
d="M89 -52c7 43 37 118 45 157c-35 -2 -114 -17 -157 -15l32 152c43 -2 112 -15 149 -17c5 21 8 44 14 70c7 29 14 53 18 72c-34 0 -113 -15 -158 -13l32 152c43 -2 115 -17 150 -19c10 38 12 112 21 157h153c-9 -43 -40 -118 -47 -157c35 2 114 17 157 15l-32 -152
c-43 2 -113 15 -149 17c-5 -20 -8 -41 -12 -64c-6 -34 -15 -58 -20 -78c34 0 113 15 158 13l-32 -152c-43 2 -115 17 -150 19c-10 -38 -14 -114 -19 -157h-153z" />
    <glyph glyph-name="section" unicode="&#xa7;" horiz-adv-x="560" 
d="M184 -164c-93 0 -144 20 -194 47l53 116c42 -26 86 -42 138 -42c51 0 100 13 100 71c0 103 -250 81 -250 280c0 69 43 125 93 154c-11 20 -17 45 -17 75c0 132 111 185 231 185c78 0 135 -17 173 -38l-25 -124c-45 28 -94 42 -142 42c-55 0 -86 -23 -86 -61
c0 -105 260 -76 260 -284c0 -71 -45 -123 -98 -154c9 -20 15 -45 15 -75c0 -140 -130 -192 -251 -192zM358 176c14 14 24 34 24 56c0 73 -110 97 -192 155c-12 -14 -22 -30 -22 -54c0 -77 110 -97 190 -157z" />
    <glyph glyph-name="paragraph" unicode="&#xb6;" horiz-adv-x="639" 
d="M112 -160l80 387c-91 4 -148 73 -148 172c0 150 109 260 284 260h174l-169 -819h-53l159 770h-115l-159 -770h-53z" />
    <glyph glyph-name="asciicircum" unicode="^" horiz-adv-x="476" 
d="M30 287l148 372h120l148 -372h-124l-83 244h-2l-83 -244h-124z" />
    <glyph glyph-name="asciitilde" unicode="~" horiz-adv-x="569" 
d="M90 189l-69 98c54 52 112 75 169 75c84 0 121 -54 194 -54c37 0 60 10 95 40l69 -98c-54 -52 -112 -75 -169 -75c-84 0 -121 54 -194 54c-37 0 -60 -10 -95 -40z" />
    <glyph glyph-name="brokenbar" unicode="&#xa6;" horiz-adv-x="405" 
d="M128 -236v371h149v-371h-149zM128 409v371h149v-371h-149z" />
    <glyph glyph-name="backslash" unicode="\" horiz-adv-x="522" 
d="M278 -32l-198 728h157l198 -728h-157z" />
    <glyph glyph-name="underscore" unicode="_" horiz-adv-x="438" 
d="M-99 -139l16 73h438l-16 -73h-438z" />
    <glyph glyph-name="quotesingle" unicode="'" horiz-adv-x="260" 
d="M203 460l-110 21l45 240l133 -26z" />
    <glyph glyph-name="quotedbl" unicode="&#x22;" horiz-adv-x="470" 
d="M203 460l-110 21l45 240l133 -26zM413 460l-110 21l45 240l133 -26z" />
    <glyph glyph-name="at" unicode="@" horiz-adv-x="783" 
d="M325 -140c-182 0 -318 129 -318 331c0 236 172 379 379 379c201 0 344 -121 344 -324c0 -145 -68 -218 -172 -218c-55 0 -93 27 -106 81h-1c-17 -36 -71 -80 -143 -80c-64 0 -145 42 -145 162c0 130 96 222 229 222c54 0 115 -13 166 -43l-20 -150c-3 -21 -5 -40 -5 -56
c0 -33 9 -54 37 -54c43 0 68 46 68 127c0 140 -74 252 -254 252c-159 0 -285 -108 -285 -289c0 -173 104 -259 234 -259c47 0 100 8 137 26l24 -79c-59 -22 -116 -28 -169 -28zM336 115c47 0 84 48 95 136l8 63c-13 7 -29 13 -50 13c-59 0 -109 -47 -109 -133
c0 -60 23 -79 56 -79z" />
    <glyph glyph-name="at.cap" horiz-adv-x="783" 
d="M352 -29c-182 0 -318 129 -318 331c0 236 172 379 379 379c201 0 344 -121 344 -324c0 -145 -68 -218 -172 -218c-55 0 -93 27 -106 81h-1c-17 -36 -71 -80 -143 -80c-64 0 -145 42 -145 162c0 130 96 222 229 222c54 0 115 -13 166 -43l-20 -150c-3 -21 -5 -40 -5 -56
c0 -33 9 -54 37 -54c43 0 68 46 68 127c0 140 -74 252 -254 252c-159 0 -285 -108 -285 -289c0 -173 104 -259 234 -259c47 0 100 8 137 26l24 -79c-59 -22 -116 -28 -169 -28zM363 226c47 0 84 48 95 136l8 63c-13 7 -29 13 -50 13c-59 0 -109 -47 -109 -133
c0 -60 23 -79 56 -79z" />
    <glyph glyph-name="at.small" horiz-adv-x="667" 
d="M430 39l24 -73c-53 -21 -102 -26 -146 -26c-158 0 -275 110 -275 283c0 201 141 323 317 323c172 0 294 -104 294 -278c0 -124 -66 -187 -149 -187c-52 0 -86 31 -92 67h-2c-25 -46 -62 -66 -109 -66c-66 0 -112 42 -112 131c0 122 78 201 175 201c45 0 91 -12 138 -38
l-25 -130c-3 -13 -4 -28 -4 -43c0 -25 11 -47 35 -47c32 0 60 42 60 106c0 114 -55 208 -210 208c-130 0 -231 -92 -231 -240c0 -141 82 -214 193 -214c40 0 85 8 119 23zM382 279l9 51c-9 5 -19 10 -33 10c-49 0 -84 -47 -84 -121c0 -39 15 -64 39 -64c39 0 54 39 69 124z
" />
    <glyph glyph-name="copyright" unicode="&#xa9;" horiz-adv-x="763" 
d="M383 -10c-198 0 -331 144 -331 337s133 337 331 337s331 -144 331 -337s-133 -337 -331 -337zM383 62c145 0 250 108 250 265s-105 265 -250 265s-250 -108 -250 -265s105 -265 250 -265zM391 124c-113 0 -190 80 -190 199c0 115 79 205 196 205c47 0 85 -13 103 -23v-80
c-29 17 -63 27 -100 27c-67 0 -113 -51 -113 -126c0 -77 44 -128 110 -128c37 0 63 10 87 24l28 -67c-43 -23 -84 -31 -121 -31z" />
    <glyph glyph-name="copyright.small" horiz-adv-x="655" 
d="M327 -43c-167 0 -282 123 -282 287s115 287 282 287s282 -123 282 -287s-115 -287 -282 -287zM327 23c118 0 209 93 209 221c0 129 -91 221 -209 221s-209 -92 -209 -221c0 -128 91 -221 209 -221zM332 88c-80 0 -147 56 -147 153c0 86 58 157 148 157c29 0 55 -5 81 -20
v-73c-28 16 -49 22 -74 22c-52 0 -77 -37 -77 -84c0 -48 25 -84 77 -84c23 0 41 6 61 19l28 -64c-33 -20 -65 -26 -97 -26z" />
    <glyph glyph-name="published" unicode="&#x2117;" horiz-adv-x="763" 
d="M383 -10c-198 0 -331 144 -331 337s133 337 331 337s331 -144 331 -337s-133 -337 -331 -337zM383 62c145 0 250 108 250 265s-105 265 -250 265s-250 -108 -250 -265s105 -265 250 -265zM358 129h-86v393h112c108 0 160 -53 160 -138c0 -75 -48 -134 -155 -134h-31v-121
zM358 327h34c53 0 66 32 66 58c0 24 -10 61 -57 61h-43v-119z" />
    <glyph glyph-name="published" unicode="&#x24c5;" horiz-adv-x="763" 
d="M383 -10c-198 0 -331 144 -331 337s133 337 331 337s331 -144 331 -337s-133 -337 -331 -337zM383 62c145 0 250 108 250 265s-105 265 -250 265s-250 -108 -250 -265s105 -265 250 -265zM358 129h-86v393h112c108 0 160 -53 160 -138c0 -75 -48 -134 -155 -134h-31v-121
zM358 327h34c53 0 66 32 66 58c0 24 -10 61 -57 61h-43v-119z" />
    <glyph glyph-name="published.small" horiz-adv-x="655" 
d="M327 -43c-167 0 -282 123 -282 287s115 287 282 287s282 -123 282 -287s-115 -287 -282 -287zM327 23c118 0 209 93 209 221c0 129 -91 221 -209 221s-209 -92 -209 -221c0 -128 91 -221 209 -221zM229 93v300h102c90 0 130 -42 130 -105c0 -57 -37 -107 -129 -107h-25
v-88h-78zM307 248h24c40 0 52 21 52 40s-10 39 -45 39h-31v-79z" />
    <glyph glyph-name="registered" unicode="&#xae;" horiz-adv-x="570" 
d="M313 180c-141 0 -238 104 -238 243s97 243 238 243c136 0 242 -104 242 -243s-107 -243 -242 -243zM313 234c104 0 178 84 178 189s-74 189 -178 189s-178 -84 -178 -189s74 -189 178 -189zM283 294h-58v264h86c16 0 29 -2 40 -5c35 -10 53 -36 53 -67
c0 -43 -34 -65 -62 -72v-1c17 -7 47 -62 77 -119h-66c-33 63 -54 104 -64 104h-6v-104zM283 443h11c26 0 49 11 49 36c0 16 -7 27 -21 31c-7 2 -16 3 -27 3h-12v-70z" />
    <glyph glyph-name="trademark" unicode="&#x2122;" horiz-adv-x="894" 
d="M168 264v296h-113v99h366l-23 -99h-107v-296h-123zM439 264v395h105l75 -101c18 -25 31 -45 45 -70h3c13 23 24 41 41 66l73 105h113v-395h-123v145c0 26 0 44 2 64h-2c-11 -21 -19 -34 -33 -53l-46 -63h-52l-45 63c-13 19 -22 32 -33 53h-2c2 -20 2 -38 2 -64v-145h-123
z" />
    <glyph glyph-name="ordfeminine" unicode="&#xaa;" horiz-adv-x="360" 
d="M84 263c-56 0 -90 37 -90 94c0 92 75 132 192 132h22v2c0 18 -11 32 -50 32c-28 0 -61 -6 -96 -18l-17 80c37 15 88 26 136 26c61 0 140 -18 140 -110c0 -23 -5 -49 -9 -64l-13 -48c-6 -21 -10 -44 -10 -66c0 -10 2 -25 5 -40l-95 -20c-4 11 -9 32 -10 47h-2
c-25 -27 -63 -47 -103 -47zM125 351c26 0 60 23 69 58l1 4h-14c-62 0 -81 -19 -81 -40c0 -13 8 -22 25 -22z" />
    <glyph glyph-name="ordmasculine" unicode="&#xba;" horiz-adv-x="384" 
d="M154 263c-81 0 -152 45 -152 141c0 116 74 207 195 207c81 0 152 -45 152 -141c0 -116 -74 -207 -195 -207zM160 355c53 0 81 54 81 105c0 40 -18 59 -50 59c-53 0 -81 -54 -81 -105c0 -40 18 -59 50 -59z" />
    <glyph glyph-name="numero" unicode="&#x2116;" horiz-adv-x="1073" 
d="M2 0l145 659h144l120 -311c9 -24 19 -54 25 -80h2c3 32 8 65 14 92l66 299h155l-145 -659h-135l-126 322c-9 24 -20 54 -26 80h-2c-3 -32 -8 -65 -14 -92l-68 -310h-155zM632 127l17 84h343l-17 -84h-343zM846 263c-81 0 -152 45 -152 141c0 116 74 207 195 207
c81 0 152 -45 152 -141c0 -116 -74 -207 -195 -207zM852 355c53 0 81 54 81 105c0 40 -18 59 -50 59c-53 0 -81 -54 -81 -105c0 -40 18 -59 50 -59z" />
    <glyph glyph-name="numbersign" unicode="#" horiz-adv-x="726" 
d="M53 0l50 157h-113l11 114h139l40 128h-116l11 114h142l46 146h146l-46 -146h116l46 146h146l-46 -146h109l-11 -114h-135l-40 -128h116l-11 -114h-142l-50 -157h-146l50 157h-116l-50 -157h-146zM286 271h116l40 128h-116z" />
    <glyph glyph-name="currency" unicode="&#xa4;" horiz-adv-x="560" 
d="M100 55l-88 88l72 70c-19 33 -30 71 -30 112c0 40 10 77 28 110l-71 69l88 88l69 -71c33 19 71 30 112 30s80 -11 113 -30l66 69l87 -88l-68 -67c17 -32 28 -70 28 -110c0 -41 -11 -80 -30 -113l70 -67l-88 -88l-68 70c-32 -17 -70 -28 -110 -28s-77 10 -110 28zM280 196
c69 0 124 57 124 129s-55 129 -124 129s-124 -57 -124 -129s55 -129 124 -129z" />
    <glyph glyph-name="Euro" unicode="&#x20ac;" horiz-adv-x="560" 
d="M31 205l9 89h55v2c0 23 2 45 5 66h-55l10 89h69c53 139 175 215 304 215c55 0 106 -10 147 -31l-25 -129c-44 25 -79 30 -112 30c-63 0 -112 -32 -143 -85h196l-26 -89h-202c-3 -17 -6 -37 -6 -60v-8h201l-26 -89h-167c12 -49 41 -85 106 -85c28 0 58 3 104 26l26 -120
c-40 -24 -102 -36 -152 -36c-139 0 -225 77 -248 215h-70z" />
    <glyph glyph-name="dollar" unicode="$" horiz-adv-x="560" 
d="M139 -90l22 107c-58 7 -99 25 -134 45l53 109c41 -24 90 -36 130 -36c47 0 111 11 111 62c0 97 -212 88 -212 263c0 94 72 169 180 186l20 100h107l-21 -100c50 -5 91 -18 123 -33l-27 -118c-43 24 -96 37 -140 37c-45 0 -85 -18 -85 -58c0 -91 212 -82 212 -254
c0 -104 -82 -186 -210 -203l-22 -107h-107z" />
    <glyph glyph-name="cent" unicode="&#xa2;" horiz-adv-x="560" 
d="M189 0l25 110c-87 26 -131 101 -131 187c0 136 84 237 209 262l23 100h107l-22 -96c40 -3 80 -15 99 -26l-25 -110c-32 15 -63 24 -104 24c-90 0 -138 -63 -138 -140c0 -59 36 -96 101 -96c37 0 65 8 96 23l29 -105c-45 -22 -97 -32 -139 -32l-22 -101h-108z" />
    <glyph glyph-name="sterling" unicode="&#xa3;" horiz-adv-x="560" 
d="M18 0l13 92c95 17 104 141 110 181h-71l18 123h69l9 57c8 48 23 90 47 123c41 58 107 90 197 90c64 0 109 -13 153 -33l-50 -117c-25 15 -57 23 -89 23c-41 0 -70 -16 -88 -45c-11 -17 -18 -39 -22 -65l-5 -33h172l-35 -123h-153c-8 -48 -18 -125 -73 -164v-2
c38 10 69 16 142 16h126l-18 -123h-452z" />
    <glyph glyph-name="florin" unicode="&#x192;" horiz-adv-x="560" 
d="M-108 -131l53 119c22 -16 49 -24 79 -24c34 0 75 13 92 86l54 235h-100l15 116h111l28 121c24 104 91 186 224 186c51 0 106 -13 144 -39l-53 -119c-22 16 -49 24 -79 24c-34 0 -75 -13 -92 -86l-20 -87h127l-40 -116h-113l-62 -269c-24 -104 -91 -186 -224 -186
c-51 0 -106 13 -144 39z" />
    <glyph glyph-name="yen" unicode="&#xa5;" horiz-adv-x="560" 
d="M134 0l23 104h-150l19 89h151l15 67h-151l20 89h109l-77 310h151l43 -268h2l155 268h163l-209 -310h111l-20 -89h-151l-15 -67h151l-20 -89h-151l-23 -104h-146z" />
    <glyph glyph-name="zero" unicode="0" horiz-adv-x="579" 
d="M242 -10c-144 0 -206 94 -206 238c0 143 65 438 302 438c144 0 206 -94 206 -238c0 -143 -65 -438 -302 -438zM251 117c82 0 131 177 131 319c0 60 -10 103 -53 103c-82 0 -131 -177 -131 -319c0 -60 10 -103 53 -103z" />
    <glyph glyph-name="one" unicode="1" horiz-adv-x="442" 
d="M135 0l111 500c-39 -18 -116 -42 -171 -52v123c69 16 171 62 224 93h134l-147 -664h-151z" />
    <glyph glyph-name="two" unicode="2" horiz-adv-x="549" 
d="M-9 0c40 323 370 348 370 480c0 47 -35 59 -86 59s-117 -18 -168 -42l-23 120c68 28 143 49 225 49c134 0 213 -64 213 -171c0 -192 -283 -264 -323 -372h283l-27 -123h-464z" />
    <glyph glyph-name="three" unicode="3" horiz-adv-x="541" 
d="M-26 30l56 119c39 -21 94 -32 148 -32c65 0 135 21 135 92c0 49 -31 63 -116 63h-100l20 118h48c46 0 83 4 111 12c48 14 71 39 71 77c0 45 -38 60 -86 60c-55 0 -112 -15 -158 -31l-20 117c49 19 126 41 211 41c138 0 215 -61 215 -158c0 -86 -51 -141 -134 -166v-2
c57 -14 100 -47 100 -120c0 -128 -111 -230 -300 -230c-86 0 -162 19 -201 40z" />
    <glyph glyph-name="four" unicode="4" horiz-adv-x="604" 
d="M254 0l34 153h-246l-14 103l393 408h131l-86 -389h100l-27 -122h-100l-34 -153h-151zM315 275l13 53c13 53 25 94 32 113l-161 -169c22 1 48 3 82 3h34z" />
    <glyph glyph-name="five" unicode="5" horiz-adv-x="545" 
d="M-11 28l55 120c36 -19 82 -31 136 -31c62 0 145 25 145 107c0 81 -103 75 -161 75h-82l80 360h413l-41 -123h-249l-26 -119h23c149 0 205 -84 205 -174c0 -145 -118 -253 -306 -253c-73 0 -149 15 -192 38z" />
    <glyph glyph-name="six" unicode="6" horiz-adv-x="585" 
d="M276 -10c-135 0 -232 75 -232 244c0 240 150 432 384 432c46 0 100 -10 146 -29l-47 -114c-34 16 -70 22 -106 22c-96 0 -180 -57 -223 -193h2c36 42 91 68 152 68c117 0 184 -73 184 -182c0 -161 -129 -248 -260 -248zM281 111c52 0 94 42 94 107c0 48 -27 81 -77 81
c-61 0 -94 -47 -94 -107c0 -51 26 -81 77 -81z" />
    <glyph glyph-name="seven" unicode="7" horiz-adv-x="513" 
d="M63 0c45 223 168 417 272 536h-267l-20 123h479v-55c-136 -170 -257 -374 -308 -604h-156z" />
    <glyph glyph-name="eight" unicode="8" horiz-adv-x="590" 
d="M268 -10c-147 0 -238 67 -238 172c0 98 65 152 150 178v3c-38 26 -81 61 -81 134c0 101 88 189 248 189c152 0 225 -75 225 -162c0 -82 -58 -132 -128 -166v-2c47 -22 95 -60 95 -143c0 -133 -126 -203 -271 -203zM279 105c50 0 98 22 98 77c0 52 -47 66 -107 97
c-38 -21 -78 -54 -78 -105c0 -44 38 -69 87 -69zM337 393c52 24 74 54 74 93c0 37 -23 65 -72 65c-51 0 -78 -36 -78 -72c0 -40 30 -65 76 -86z" />
    <glyph glyph-name="nine" unicode="9" horiz-adv-x="580" 
d="M29 24l49 113c35 -18 78 -26 114 -26c95 0 159 47 186 152h-2c-32 -21 -75 -37 -130 -37c-102 0 -189 64 -189 189c0 154 111 251 259 251c115 0 234 -63 234 -255c0 -225 -114 -421 -357 -421c-59 0 -113 10 -164 34zM389 372c4 13 7 39 7 57c0 82 -32 116 -82 116
c-67 0 -95 -65 -95 -117c0 -41 19 -81 78 -81c41 0 66 12 92 25z" />
    <glyph glyph-name="Euro.OT" horiz-adv-x="560" 
d="M47 149l8 77h45c0 20 2 39 5 57h-46l9 77h60c46 103 142 159 246 159c51 0 96 -10 133 -29l-23 -115c-32 21 -62 31 -102 31c-35 0 -74 -12 -103 -46h149l-22 -77h-162c-3 -17 -6 -36 -6 -57h159l-23 -77h-125c12 -27 37 -46 86 -46c25 0 57 4 98 30l27 -105
c-47 -28 -92 -38 -141 -38c-104 0 -186 59 -211 159h-61z" />
    <glyph glyph-name="dollar.OT" horiz-adv-x="560" 
d="M145 -73l19 89c-44 5 -89 16 -128 34l42 106c38 -19 87 -33 132 -33c35 0 86 3 86 37c0 53 -194 45 -194 185c0 62 40 138 160 154c5 27 11 53 16 80h100l-16 -81c37 -5 78 -14 110 -29l-27 -111c-41 21 -91 35 -138 35c-39 0 -63 -11 -63 -34c0 -58 198 -52 198 -184
c0 -85 -55 -146 -180 -159l-17 -89h-100z" />
    <glyph glyph-name="sterling.OT" horiz-adv-x="560" 
d="M42 0l9 81c63 9 75 70 83 127h-52l13 96h53l6 38c18 117 97 177 215 177c51 0 99 -11 132 -27l-40 -111c-22 14 -50 20 -76 20c-50 0 -77 -27 -85 -73l-4 -24h144l-29 -96h-130c-5 -31 -16 -77 -38 -107l1 -2c26 6 50 7 80 7h119l-11 -106h-390z" />
    <glyph glyph-name="yen.OT" horiz-adv-x="560" 
d="M131 0l14 64h-112l19 87h112l13 57h-112l19 87h66l-66 215h138l45 -182h2l119 182h155l-159 -215h67l-19 -87h-112l-13 -57h112l-19 -87h-112l-14 -64h-143z" />
    <glyph glyph-name="zero.OT" horiz-adv-x="560" 
d="M223 -10c-127 0 -207 71 -207 195c0 180 118 309 281 309c127 0 207 -71 207 -195c0 -180 -117 -309 -281 -309zM237 108c73 0 118 97 118 178c0 56 -24 90 -72 90c-72 0 -118 -97 -118 -177c0 -57 24 -91 72 -91z" />
    <glyph glyph-name="one.OT" horiz-adv-x="560" 
d="M202 0l71 320c-39 -18 -117 -43 -173 -49v119c82 14 184 60 238 96h123l-108 -486h-151z" />
    <glyph glyph-name="two.OT" horiz-adv-x="560" 
d="M11 0c34 235 290 261 290 339c0 24 -19 37 -55 37c-35 0 -94 -14 -142 -37l-27 106c63 32 140 49 204 49c109 0 169 -61 169 -138c0 -134 -176 -184 -220 -240h205l-25 -116h-399z" />
    <glyph glyph-name="three.OT" horiz-adv-x="560" 
d="M-28 -163l41 112c33 -15 80 -26 130 -26c89 0 148 41 148 102c0 34 -20 66 -109 66h-103l15 111c188 4 231 53 231 117c0 34 -26 57 -79 57c-46 0 -96 -14 -146 -37l-29 107c59 28 132 48 209 48c116 0 194 -58 194 -150c0 -89 -47 -148 -130 -179v-2
c45 -11 96 -48 96 -127c0 -141 -116 -231 -293 -231c-76 0 -138 16 -175 32z" />
    <glyph glyph-name="four.OT" horiz-adv-x="560" 
d="M190 -195l43 195h-226l-14 103l382 382h116l-81 -363h100l-27 -122h-100l-35 -160zM261 122l12 48c12 46 25 87 32 106h-2l-154 -157c22 1 57 3 83 3h29z" />
    <glyph glyph-name="five.OT" horiz-adv-x="560" 
d="M-40 -164l41 113c33 -13 70 -26 132 -26c86 0 160 42 160 127c0 56 -42 79 -139 79h-108l79 357h402l-41 -116h-243l-29 -134h20c124 0 207 -58 207 -178c0 -138 -108 -253 -304 -253c-74 0 -136 14 -177 31z" />
    <glyph glyph-name="six.OT" horiz-adv-x="560" 
d="M237 -10c-122 0 -219 73 -219 232c0 224 148 430 477 470l16 -116c-122 -15 -276 -84 -325 -196l2 -1c33 22 80 42 140 42c95 0 171 -64 171 -177c0 -130 -93 -254 -262 -254zM242 108c57 0 108 47 108 112c0 42 -25 80 -79 80c-37 0 -71 -19 -91 -50
c-11 -17 -17 -38 -17 -61c0 -47 28 -81 79 -81z" />
    <glyph glyph-name="seven.OT" horiz-adv-x="560" 
d="M68 -201c68 235 178 446 275 571h-268l-19 116h486v-47c-128 -170 -255 -397 -306 -607z" />
    <glyph glyph-name="eight.OT" horiz-adv-x="560" 
d="M235 -10c-147 0 -238 67 -238 172c0 98 65 152 150 178v3c-38 26 -81 61 -81 134c0 101 88 189 248 189c152 0 225 -75 225 -162c0 -82 -58 -132 -128 -166v-2c47 -22 95 -60 95 -143c0 -133 -126 -203 -271 -203zM246 105c50 0 98 22 98 77c0 52 -47 66 -107 97
c-38 -21 -78 -54 -78 -105c0 -44 38 -69 87 -69zM304 393c52 24 74 54 74 93c0 37 -23 65 -72 65c-51 0 -78 -36 -78 -72c0 -40 30 -65 76 -86z" />
    <glyph glyph-name="nine.OT" horiz-adv-x="560" 
d="M21 -211l-14 115c115 15 244 70 301 174l-2 1c-36 -17 -70 -24 -102 -24c-106 0 -181 74 -181 188c0 147 109 251 258 251c141 0 220 -90 220 -230c0 -202 -129 -430 -480 -475zM341 198c6 19 9 43 9 66c0 58 -20 112 -80 112c-64 0 -99 -57 -99 -113
c0 -52 22 -90 78 -90c36 0 66 11 92 25z" />
    <glyph glyph-name="Euro.LT" horiz-adv-x="560" 
d="M31 205l9 89h55v2c0 23 2 45 5 66h-55l10 89h69c53 139 175 215 304 215c55 0 106 -10 147 -31l-25 -129c-44 25 -79 30 -112 30c-63 0 -112 -32 -143 -85h196l-26 -89h-202c-3 -17 -6 -37 -6 -60v-8h201l-26 -89h-167c12 -49 41 -85 106 -85c28 0 58 3 104 26l26 -120
c-40 -24 -102 -36 -152 -36c-139 0 -225 77 -248 215h-70z" />
    <glyph glyph-name="dollar.LT" horiz-adv-x="560" 
d="M139 -90l22 107c-58 7 -99 25 -134 45l53 109c41 -24 90 -36 130 -36c47 0 111 11 111 62c0 97 -212 88 -212 263c0 94 72 169 180 186l20 100h107l-21 -100c50 -5 91 -18 123 -33l-27 -118c-43 24 -96 37 -140 37c-45 0 -85 -18 -85 -58c0 -91 212 -82 212 -254
c0 -104 -82 -186 -210 -203l-22 -107h-107z" />
    <glyph glyph-name="sterling.LT" horiz-adv-x="560" 
d="M18 0l13 92c95 17 104 141 110 181h-71l18 123h69l9 57c8 48 23 90 47 123c41 58 107 90 197 90c64 0 109 -13 153 -33l-50 -117c-25 15 -57 23 -89 23c-41 0 -70 -16 -88 -45c-11 -17 -18 -39 -22 -65l-5 -33h172l-35 -123h-153c-8 -48 -18 -125 -73 -164v-2
c38 10 69 16 142 16h126l-18 -123h-452z" />
    <glyph glyph-name="yen.LT" horiz-adv-x="560" 
d="M134 0l23 104h-150l19 89h151l15 67h-151l20 89h109l-77 310h151l43 -268h2l155 268h163l-209 -310h111l-20 -89h-151l-15 -67h151l-20 -89h-151l-23 -104h-146z" />
    <glyph glyph-name="zero.LT" horiz-adv-x="560" 
d="M230 -10c-144 0 -206 94 -206 238c0 143 65 438 302 438c144 0 206 -94 206 -238c0 -143 -65 -438 -302 -438zM239 117c82 0 131 177 131 319c0 60 -10 103 -53 103c-82 0 -131 -177 -131 -319c0 -60 10 -103 53 -103z" />
    <glyph glyph-name="one.LT" horiz-adv-x="560" 
d="M177 0l111 500c-39 -18 -138 -47 -193 -57v123c79 16 193 67 246 98h134l-147 -664h-151z" />
    <glyph glyph-name="two.LT" horiz-adv-x="560" 
d="M0 0c40 323 370 348 370 480c0 47 -35 59 -86 59s-117 -18 -168 -42l-23 120c68 28 143 49 225 49c134 0 213 -64 213 -171c0 -192 -283 -264 -323 -372h283l-27 -123h-464z" />
    <glyph glyph-name="three.LT" horiz-adv-x="560" 
d="M-13 30l56 119c39 -21 94 -32 148 -32c65 0 135 21 135 92c0 49 -31 63 -116 63h-100l20 118h48c46 0 83 4 111 12c48 14 71 39 71 77c0 45 -38 60 -86 60c-55 0 -112 -15 -158 -31l-20 117c49 19 126 41 211 41c138 0 215 -61 215 -158c0 -86 -51 -141 -134 -166v-2
c57 -14 100 -47 100 -120c0 -128 -111 -230 -300 -230c-86 0 -162 19 -201 40z" />
    <glyph glyph-name="four.LT" horiz-adv-x="560" 
d="M239 0l34 153h-246l-14 103l393 408h131l-86 -389h91l-27 -122h-91l-34 -153h-151zM300 275l13 53c13 53 25 94 32 113l-161 -169c22 1 48 3 82 3h34z" />
    <glyph glyph-name="five.LT" horiz-adv-x="560" 
d="M-7 28l55 120c36 -19 82 -31 136 -31c62 0 145 25 145 107c0 81 -103 75 -161 75h-82l80 360h413l-41 -123h-249l-26 -119h23c149 0 205 -84 205 -174c0 -145 -118 -253 -306 -253c-73 0 -149 15 -192 38z" />
    <glyph glyph-name="six.LT" horiz-adv-x="560" 
d="M260 -10c-135 0 -232 75 -232 244c0 240 150 432 384 432c46 0 100 -10 146 -29l-47 -114c-34 16 -70 22 -106 22c-96 0 -180 -57 -223 -193h2c36 42 91 68 152 68c117 0 184 -73 184 -182c0 -161 -129 -248 -260 -248zM265 111c52 0 94 42 94 107c0 48 -27 81 -77 81
c-61 0 -94 -47 -94 -107c0 -51 26 -81 77 -81z" />
    <glyph glyph-name="seven.LT" horiz-adv-x="560" 
d="M95 0c45 223 178 417 282 536h-267l-20 123h479v-55c-136 -170 -267 -374 -318 -604h-156z" />
    <glyph glyph-name="eight.LT" horiz-adv-x="560" 
d="M248 -10c-147 0 -238 67 -238 172c0 98 65 152 150 178v3c-38 26 -81 61 -81 134c0 101 88 189 248 189c152 0 225 -75 225 -162c0 -82 -58 -132 -128 -166v-2c47 -22 95 -60 95 -143c0 -133 -126 -203 -271 -203zM259 105c50 0 98 22 98 77c0 52 -47 66 -107 97
c-38 -21 -78 -54 -78 -105c0 -44 38 -69 87 -69zM317 393c52 24 74 54 74 93c0 37 -23 65 -72 65c-51 0 -78 -36 -78 -72c0 -40 30 -65 76 -86z" />
    <glyph glyph-name="nine.LT" horiz-adv-x="560" 
d="M17 24l49 113c35 -18 78 -26 114 -26c95 0 159 47 186 152h-2c-32 -21 -75 -37 -130 -37c-102 0 -189 64 -189 189c0 154 111 251 259 251c115 0 234 -63 234 -255c0 -225 -114 -421 -357 -421c-59 0 -113 10 -164 34zM377 372c4 13 7 39 7 57c0 82 -32 116 -82 116
c-67 0 -95 -65 -95 -117c0 -41 19 -81 78 -81c41 0 66 12 92 25z" />
    <glyph glyph-name="Euro.OP" horiz-adv-x="560" 
d="M47 149l8 77h45c0 20 2 39 5 57h-46l9 77h60c46 103 142 159 246 159c51 0 96 -10 133 -29l-23 -115c-32 21 -62 31 -102 31c-35 0 -74 -12 -103 -46h149l-22 -77h-162c-3 -17 -6 -36 -6 -57h159l-23 -77h-125c12 -27 37 -46 86 -46c25 0 57 4 98 30l27 -105
c-47 -28 -92 -38 -141 -38c-104 0 -186 59 -211 159h-61z" />
    <glyph glyph-name="dollar.OP" horiz-adv-x="560" 
d="M145 -73l19 89c-44 5 -89 16 -128 34l42 106c38 -19 87 -33 132 -33c35 0 86 3 86 37c0 53 -194 45 -194 185c0 62 40 138 160 154c5 27 11 53 16 80h100l-16 -81c37 -5 78 -14 110 -29l-27 -111c-41 21 -91 35 -138 35c-39 0 -63 -11 -63 -34c0 -58 198 -52 198 -184
c0 -85 -55 -146 -180 -159l-17 -89h-100z" />
    <glyph glyph-name="sterling.OP" horiz-adv-x="560" 
d="M42 0l9 81c63 9 75 70 83 127h-52l13 96h53l6 38c18 117 97 177 215 177c51 0 99 -11 132 -27l-40 -111c-22 14 -50 20 -76 20c-50 0 -77 -27 -85 -73l-4 -24h144l-29 -96h-130c-5 -31 -16 -77 -38 -107l1 -2c26 6 50 7 80 7h119l-11 -106h-390z" />
    <glyph glyph-name="yen.OP" horiz-adv-x="560" 
d="M131 0l14 64h-112l19 87h112l13 57h-112l19 87h66l-66 215h138l45 -182h2l119 182h155l-159 -215h67l-19 -87h-112l-13 -57h112l-19 -87h-112l-14 -64h-143z" />
    <glyph glyph-name="zero.OP" horiz-adv-x="560" 
d="M225 -10c-127 0 -201 71 -201 195c0 180 110 309 271 309c127 0 201 -71 201 -195c0 -180 -109 -309 -271 -309zM237 108c73 0 110 97 110 178c0 52 -19 90 -64 90c-72 0 -110 -97 -110 -177c0 -53 19 -91 64 -91z" />
    <glyph glyph-name="one.OP" horiz-adv-x="440" 
d="M122 0l71 320c-39 -18 -86 -34 -136 -43v119c72 17 147 54 201 90h123l-108 -486h-151z" />
    <glyph glyph-name="two.OP" horiz-adv-x="514" 
d="M-5 0c34 235 290 261 290 339c0 24 -19 37 -55 37c-35 0 -94 -14 -142 -37l-27 106c63 32 140 49 204 49c109 0 169 -61 169 -138c0 -134 -176 -184 -220 -240h205l-25 -116h-399z" />
    <glyph glyph-name="three.OP" horiz-adv-x="540" 
d="M-45 -163l41 112c33 -15 80 -26 130 -26c89 0 148 41 148 102c0 34 -20 66 -109 66h-103l15 111c188 4 231 53 231 117c0 34 -26 57 -79 57c-46 0 -96 -14 -146 -37l-29 107c59 28 132 48 209 48c116 0 194 -58 194 -150c0 -89 -47 -148 -130 -179v-2
c45 -11 96 -48 96 -127c0 -141 -116 -231 -293 -231c-76 0 -138 16 -175 32z" />
    <glyph glyph-name="four.OP" horiz-adv-x="560" 
d="M186 -195l43 195h-226l-14 103l382 382h116l-81 -363h100l-27 -122h-100l-35 -160zM257 122l12 48c12 46 25 87 32 106h-2l-154 -157c22 1 57 3 83 3h29z" />
    <glyph glyph-name="five.OP" horiz-adv-x="510" 
d="M-64 -164l41 113c33 -13 70 -26 132 -26c86 0 160 42 160 127c0 56 -42 79 -139 79h-108l79 357h402l-41 -116h-243l-29 -134h20c124 0 207 -58 207 -178c0 -138 -108 -253 -304 -253c-74 0 -136 14 -177 31z" />
    <glyph glyph-name="six.OP" horiz-adv-x="580" 
d="M247 -10c-122 0 -219 73 -219 232c0 224 148 430 477 470l16 -116c-122 -15 -276 -84 -325 -196l2 -1c33 22 80 42 140 42c95 0 171 -64 171 -177c0 -130 -93 -254 -262 -254zM252 108c57 0 108 47 108 112c0 42 -25 80 -79 80c-37 0 -71 -19 -91 -50
c-11 -17 -17 -38 -17 -61c0 -47 28 -81 79 -81z" />
    <glyph glyph-name="seven.OP" horiz-adv-x="514" 
d="M32 -201c68 235 178 446 275 571h-268l-19 116h486v-47c-128 -170 -255 -397 -306 -607z" />
    <glyph glyph-name="eight.OP" horiz-adv-x="590" 
d="M254 -10c-147 0 -238 67 -238 172c0 98 65 152 150 178v3c-38 26 -81 61 -81 134c0 101 88 189 248 189c152 0 225 -75 225 -162c0 -82 -58 -132 -128 -166v-2c47 -22 95 -60 95 -143c0 -133 -126 -203 -271 -203zM265 105c50 0 98 22 98 77c0 52 -47 66 -107 97
c-38 -21 -78 -54 -78 -105c0 -44 38 -69 87 -69zM323 393c52 24 74 54 74 93c0 37 -23 65 -72 65c-51 0 -78 -36 -78 -72c0 -40 30 -65 76 -86z" />
    <glyph glyph-name="nine.OP" horiz-adv-x="580" 
d="M31 -211l-14 115c115 15 244 70 301 174l-2 1c-36 -17 -70 -24 -102 -24c-106 0 -181 74 -181 188c0 147 109 251 258 251c141 0 220 -90 220 -230c0 -202 -129 -430 -480 -475zM351 198c6 19 9 43 9 66c0 58 -20 112 -80 112c-64 0 -99 -57 -99 -113
c0 -52 22 -90 78 -90c36 0 66 11 92 25z" />
    <glyph glyph-name="zerosuperior" unicode="&#x2070;" 
d="M228 396c-106 0 -147 74 -147 159c0 138 75 246 196 246c106 0 147 -74 147 -159c0 -138 -75 -246 -196 -246zM233 489c53 0 69 128 69 164c0 30 -6 55 -30 55c-53 0 -69 -128 -69 -164c0 -30 6 -55 30 -55z" />
    <glyph glyph-name="onesuperior" unicode="&#xb9;" horiz-adv-x="363" 
d="M171 401l60 271c-31 -14 -79 -27 -123 -33v102c53 8 125 36 164 58h105l-88 -398h-118z" />
    <glyph glyph-name="twosuperior" unicode="&#xb2;" horiz-adv-x="376" 
d="M47 401c35 203 230 219 230 276c0 14 -10 25 -39 25c-34 0 -81 -13 -112 -26l-19 94c44 17 99 31 154 31c93 0 140 -47 140 -109c0 -121 -165 -152 -182 -193h161l-21 -98h-312z" />
    <glyph glyph-name="threesuperior" unicode="&#xb3;" horiz-adv-x="368" 
d="M55 420l35 86c31 -11 63 -17 99 -17c44 0 61 15 61 40c0 20 -15 30 -53 30h-66l16 82h42c61 0 84 15 84 39c0 19 -17 26 -44 26s-58 -5 -89 -14l-20 86c35 11 83 23 138 23c98 0 139 -45 139 -94c0 -58 -38 -89 -86 -102v-2c34 -5 63 -29 63 -74
c0 -81 -63 -133 -187 -133c-55 0 -102 12 -132 24z" />
    <glyph glyph-name="foursuperior" unicode="&#x2074;" 
d="M225 401l17 81h-156l-17 76l239 241h118l-52 -233h57l-18 -84h-57l-18 -81h-113zM260 564l6 25c6 23 13 50 20 73l-100 -100z" />
    <glyph glyph-name="fivesuperior" unicode="&#x2075;" horiz-adv-x="376" 
d="M49 419l33 87c29 -11 61 -17 94 -17c44 0 72 15 72 45c0 13 -7 24 -26 30c-10 3 -23 4 -39 4h-75l47 225h275l-30 -98h-152l-11 -47h7c19 0 38 -2 53 -7c44 -15 75 -47 75 -98c0 -90 -73 -147 -197 -147c-38 0 -84 6 -126 23z" />
    <glyph glyph-name="sixsuperior" unicode="&#x2076;" horiz-adv-x="395" 
d="M235 396c-88 0 -161 48 -161 152c0 146 103 253 242 253c42 0 79 -8 113 -24l-32 -88c-29 13 -51 19 -80 19c-40 0 -83 -20 -105 -60l2 -1c18 8 38 15 69 15c67 0 121 -45 121 -113c0 -101 -75 -153 -169 -153zM239 486c30 0 48 20 48 46c0 23 -17 40 -41 40
c-29 0 -49 -17 -49 -45c0 -23 17 -41 42 -41z" />
    <glyph glyph-name="sevensuperior" unicode="&#x2077;" horiz-adv-x="335" 
d="M73 401c43 139 120 239 172 294h-152l-13 98h315v-61c-84 -93 -147 -196 -186 -331h-136z" />
    <glyph glyph-name="eightsuperior" unicode="&#x2078;" 
d="M231 396c-101 0 -158 38 -158 105c0 52 35 88 80 105v2c-20 16 -42 37 -42 79c0 66 62 114 164 114c100 0 149 -47 149 -104c0 -48 -27 -74 -67 -92v-2c27 -13 51 -40 51 -84c0 -81 -77 -123 -177 -123zM236 489c24 0 50 9 50 35c0 20 -23 33 -48 41
c-23 -10 -44 -23 -44 -44c0 -22 17 -32 42 -32zM264 642c22 7 38 19 38 41c0 19 -16 28 -32 28c-20 0 -37 -12 -37 -32c0 -18 12 -31 31 -37z" />
    <glyph glyph-name="ninesuperior" unicode="&#x2079;" horiz-adv-x="392" 
d="M59 418l35 88c18 -10 48 -17 76 -17c46 0 87 18 107 58l-2 1c-18 -8 -41 -13 -66 -13c-66 0 -126 39 -126 117c0 88 65 149 163 149c88 0 166 -46 166 -165c0 -134 -79 -240 -238 -240c-43 0 -89 8 -115 22zM288 636c1 6 1 12 1 17c0 42 -23 58 -45 58
c-26 0 -44 -20 -44 -46c0 -25 14 -42 43 -42c16 0 32 5 45 13z" />
    <glyph glyph-name="plussuperior" unicode="&#x207a;" horiz-adv-x="389" 
d="M198 434v118h-106v88h106v114h97v-114h106v-88h-106v-118h-97z" />
    <glyph glyph-name="minussuperior" unicode="&#x207b;" horiz-adv-x="389" 
d="M92 552v88h309v-88h-309z" />
    <glyph glyph-name="equalsuperior" unicode="&#x207c;" horiz-adv-x="389" 
d="M92 481v88h309v-88h-309zM92 623v88h309v-88h-309z" />
    <glyph glyph-name="parenleftsuperior" unicode="&#x207d;" horiz-adv-x="222" 
d="M131 356c-33 36 -60 105 -60 176c0 112 51 219 155 303l63 -64c-62 -62 -106 -141 -106 -236c0 -42 9 -95 28 -126z" />
    <glyph glyph-name="parenrightsuperior" unicode="&#x207e;" horiz-adv-x="222" 
d="M84 356l-63 64c62 62 106 141 106 236c0 42 -9 95 -28 126l80 53c33 -36 60 -105 60 -176c0 -112 -51 -219 -155 -303z" />
    <glyph glyph-name="zeroinferior" unicode="&#x2080;" 
d="M112 -185c-106 0 -147 74 -147 159c0 138 75 246 196 246c106 0 147 -74 147 -159c0 -138 -75 -246 -196 -246zM117 -92c53 0 69 128 69 164c0 30 -6 55 -30 55c-53 0 -69 -128 -69 -164c0 -30 6 -55 30 -55z" />
    <glyph glyph-name="oneinferior" unicode="&#x2081;" horiz-adv-x="363" 
d="M55 -180l60 271c-31 -14 -79 -27 -123 -33v102c53 8 125 36 164 58h105l-88 -398h-118z" />
    <glyph glyph-name="twoinferior" unicode="&#x2082;" horiz-adv-x="376" 
d="M-69 -180c35 203 230 219 230 276c0 14 -10 25 -39 25c-34 0 -81 -13 -112 -26l-19 94c44 17 99 31 154 31c93 0 140 -47 140 -109c0 -121 -165 -152 -182 -193h161l-21 -98h-312z" />
    <glyph glyph-name="threeinferior" unicode="&#x2083;" horiz-adv-x="368" 
d="M-61 -161l35 86c31 -11 63 -17 99 -17c44 0 61 15 61 40c0 20 -15 30 -53 30h-66l16 82h42c61 0 84 15 84 39c0 19 -17 26 -44 26s-58 -5 -89 -14l-20 86c35 11 83 23 138 23c98 0 139 -45 139 -94c0 -58 -38 -89 -86 -102v-2c34 -5 63 -29 63 -74
c0 -81 -63 -133 -187 -133c-55 0 -102 12 -132 24z" />
    <glyph glyph-name="fourinferior" unicode="&#x2084;" 
d="M109 -180l17 81h-156l-17 76l239 241h118l-52 -233h57l-18 -84h-57l-18 -81h-113zM144 -17l6 25c6 23 13 50 20 73l-100 -100z" />
    <glyph glyph-name="fiveinferior" unicode="&#x2085;" horiz-adv-x="376" 
d="M-67 -162l33 87c29 -11 61 -17 94 -17c44 0 72 15 72 45c0 13 -7 24 -26 30c-10 3 -23 4 -39 4h-75l47 225h275l-30 -98h-152l-11 -47h7c19 0 38 -2 53 -7c44 -15 75 -47 75 -98c0 -90 -73 -147 -197 -147c-38 0 -84 6 -126 23z" />
    <glyph glyph-name="sixinferior" unicode="&#x2086;" horiz-adv-x="395" 
d="M119 -185c-88 0 -161 48 -161 152c0 146 103 253 242 253c42 0 79 -8 113 -24l-32 -88c-29 13 -51 19 -80 19c-40 0 -83 -20 -105 -60l2 -1c18 8 38 15 69 15c67 0 121 -45 121 -113c0 -101 -75 -153 -169 -153zM123 -95c30 0 48 20 48 46c0 23 -17 40 -41 40
c-29 0 -49 -17 -49 -45c0 -23 17 -41 42 -41z" />
    <glyph glyph-name="seveninferior" unicode="&#x2087;" horiz-adv-x="335" 
d="M-43 -180c43 139 120 239 172 294h-152l-13 98h315v-61c-84 -93 -147 -196 -186 -331h-136z" />
    <glyph glyph-name="eightinferior" unicode="&#x2088;" 
d="M115 -185c-101 0 -158 38 -158 105c0 52 35 88 80 105v2c-20 16 -42 37 -42 79c0 66 62 114 164 114c100 0 149 -47 149 -104c0 -48 -27 -74 -67 -92v-2c27 -13 51 -40 51 -84c0 -81 -77 -123 -177 -123zM120 -92c24 0 50 9 50 35c0 20 -23 33 -48 41
c-23 -10 -44 -23 -44 -44c0 -22 17 -32 42 -32zM148 61c22 7 38 19 38 41c0 19 -16 28 -32 28c-20 0 -37 -12 -37 -32c0 -18 12 -31 31 -37z" />
    <glyph glyph-name="nineinferior" unicode="&#x2089;" horiz-adv-x="392" 
d="M-57 -163l35 88c18 -10 48 -17 76 -17c46 0 87 18 107 58l-2 1c-18 -8 -41 -13 -66 -13c-66 0 -126 39 -126 117c0 88 65 149 163 149c88 0 166 -46 166 -165c0 -134 -79 -240 -238 -240c-43 0 -89 8 -115 22zM172 55c1 6 1 12 1 17c0 42 -23 58 -45 58
c-26 0 -44 -20 -44 -46c0 -25 14 -42 43 -42c16 0 32 5 45 13z" />
    <glyph glyph-name="plusinferior" unicode="&#x208a;" horiz-adv-x="389" 
d="M82 -147v118h-106v88h106v114h97v-114h106v-88h-106v-118h-97z" />
    <glyph glyph-name="minusinferior" unicode="&#x208b;" horiz-adv-x="389" 
d="M-24 -29v88h309v-88h-309z" />
    <glyph glyph-name="equalinferior" unicode="&#x208c;" horiz-adv-x="389" 
d="M-24 -100v88h309v-88h-309zM-24 42v88h309v-88h-309z" />
    <glyph glyph-name="parenleftinferior" unicode="&#x208d;" horiz-adv-x="222" 
d="M15 -225c-33 36 -60 105 -60 176c0 112 51 219 155 303l63 -64c-62 -62 -106 -141 -106 -236c0 -42 9 -95 28 -126z" />
    <glyph glyph-name="parenrightinferior" unicode="&#x208e;" horiz-adv-x="222" 
d="M-32 -225l-63 64c62 62 106 141 106 236c0 42 -9 95 -28 126l80 53c33 -36 60 -105 60 -176c0 -112 -51 -219 -155 -303z" />
    <glyph glyph-name="zero.dnom" 
d="M147 -5c-106 0 -147 74 -147 159c0 138 75 246 196 246c106 0 147 -74 147 -159c0 -138 -75 -246 -196 -246zM152 88c53 0 69 128 69 164c0 30 -6 55 -30 55c-53 0 -69 -128 -69 -164c0 -30 6 -55 30 -55z" />
    <glyph glyph-name="one.dnom" horiz-adv-x="363" 
d="M90 0l60 271c-31 -14 -79 -27 -123 -33v102c53 8 125 36 164 58h105l-88 -398h-118z" />
    <glyph glyph-name="two.dnom" horiz-adv-x="376" 
d="M-34 0c35 203 230 219 230 276c0 14 -10 25 -39 25c-34 0 -81 -13 -112 -26l-19 94c44 17 99 31 154 31c93 0 140 -47 140 -109c0 -121 -165 -152 -182 -193h161l-21 -98h-312z" />
    <glyph glyph-name="three.dnom" horiz-adv-x="368" 
d="M-26 19l35 86c31 -11 63 -17 99 -17c44 0 61 15 61 40c0 20 -15 30 -53 30h-66l16 82h42c61 0 84 15 84 39c0 19 -17 26 -44 26s-58 -5 -89 -14l-20 86c35 11 83 23 138 23c98 0 139 -45 139 -94c0 -58 -38 -89 -86 -102v-2c34 -5 63 -29 63 -74
c0 -81 -63 -133 -187 -133c-55 0 -102 12 -132 24z" />
    <glyph glyph-name="four.dnom" 
d="M144 0l17 81h-156l-17 76l239 241h118l-52 -233h57l-18 -84h-57l-18 -81h-113zM179 163l6 25c6 23 13 50 20 73l-100 -100z" />
    <glyph glyph-name="five.dnom" horiz-adv-x="376" 
d="M-32 18l33 87c29 -11 61 -17 94 -17c44 0 72 15 72 45c0 13 -7 24 -26 30c-10 3 -23 4 -39 4h-75l47 225h275l-30 -98h-152l-11 -47h7c19 0 38 -2 53 -7c44 -15 75 -47 75 -98c0 -90 -73 -147 -197 -147c-38 0 -84 6 -126 23z" />
    <glyph glyph-name="six.dnom" horiz-adv-x="395" 
d="M154 -5c-88 0 -161 48 -161 152c0 146 103 253 242 253c42 0 79 -8 113 -24l-32 -88c-29 13 -51 19 -80 19c-40 0 -83 -20 -105 -60l2 -1c18 8 38 15 69 15c67 0 121 -45 121 -113c0 -101 -75 -153 -169 -153zM158 85c30 0 48 20 48 46c0 23 -17 40 -41 40
c-29 0 -49 -17 -49 -45c0 -23 17 -41 42 -41z" />
    <glyph glyph-name="seven.dnom" horiz-adv-x="335" 
d="M-8 0c43 139 120 239 172 294h-152l-13 98h315v-61c-84 -93 -147 -196 -186 -331h-136z" />
    <glyph glyph-name="eight.dnom" 
d="M150 -5c-101 0 -158 38 -158 105c0 52 35 88 80 105v2c-20 16 -42 37 -42 79c0 66 62 114 164 114c100 0 149 -47 149 -104c0 -48 -27 -74 -67 -92v-2c27 -13 51 -40 51 -84c0 -81 -77 -123 -177 -123zM155 88c24 0 50 9 50 35c0 20 -23 33 -48 41
c-23 -10 -44 -23 -44 -44c0 -22 17 -32 42 -32zM183 241c22 7 38 19 38 41c0 19 -16 28 -32 28c-20 0 -37 -12 -37 -32c0 -18 12 -31 31 -37z" />
    <glyph glyph-name="nine.dnom" horiz-adv-x="392" 
d="M-22 17l35 88c18 -10 48 -17 76 -17c46 0 87 18 107 58l-2 1c-18 -8 -41 -13 -66 -13c-66 0 -126 39 -126 117c0 88 65 149 163 149c88 0 166 -46 166 -165c0 -134 -79 -240 -238 -240c-43 0 -89 8 -115 22zM207 235c1 6 1 12 1 17c0 42 -23 58 -45 58
c-26 0 -44 -20 -44 -46c0 -25 14 -42 43 -42c16 0 32 5 45 13z" />
    <glyph glyph-name="plus.dnom" horiz-adv-x="389" 
d="M117 33v118h-106v88h106v114h97v-114h106v-88h-106v-118h-97z" />
    <glyph glyph-name="minus.dnom" horiz-adv-x="389" 
d="M11 151v88h309v-88h-309z" />
    <glyph glyph-name="equal.dnom" horiz-adv-x="389" 
d="M11 80v88h309v-88h-309zM11 222v88h309v-88h-309z" />
    <glyph glyph-name="parenleft.dnom" horiz-adv-x="222" 
d="M50 -45c-33 36 -60 105 -60 176c0 112 51 219 155 303l63 -64c-62 -62 -106 -141 -106 -236c0 -42 9 -95 28 -126z" />
    <glyph glyph-name="parenright.dnom" horiz-adv-x="222" 
d="M3 -45l-63 64c62 62 106 141 106 236c0 42 -9 95 -28 126l80 53c33 -36 60 -105 60 -176c0 -112 -51 -219 -155 -303z" />
    <glyph glyph-name="zero.numr" 
d="M204 262c-106 0 -147 74 -147 159c0 138 75 246 196 246c106 0 147 -74 147 -159c0 -138 -75 -246 -196 -246zM209 355c53 0 69 128 69 164c0 30 -6 55 -30 55c-53 0 -69 -128 -69 -164c0 -30 6 -55 30 -55z" />
    <glyph glyph-name="one.numr" horiz-adv-x="363" 
d="M147 267l60 271c-31 -14 -79 -27 -123 -33v102c53 8 125 36 164 58h105l-88 -398h-118z" />
    <glyph glyph-name="two.numr" horiz-adv-x="376" 
d="M23 267c35 203 230 219 230 276c0 14 -10 25 -39 25c-34 0 -81 -13 -112 -26l-19 94c44 17 99 31 154 31c93 0 140 -47 140 -109c0 -121 -165 -152 -182 -193h161l-21 -98h-312z" />
    <glyph glyph-name="three.numr" horiz-adv-x="368" 
d="M31 286l35 86c31 -11 63 -17 99 -17c44 0 61 15 61 40c0 20 -15 30 -53 30h-66l16 82h42c61 0 84 15 84 39c0 19 -17 26 -44 26s-58 -5 -89 -14l-20 86c35 11 83 23 138 23c98 0 139 -45 139 -94c0 -58 -38 -89 -86 -102v-2c34 -5 63 -29 63 -74
c0 -81 -63 -133 -187 -133c-55 0 -102 12 -132 24z" />
    <glyph glyph-name="four.numr" 
d="M201 267l17 81h-156l-17 76l239 241h118l-52 -233h57l-18 -84h-57l-18 -81h-113zM236 430l6 25c6 23 13 50 20 73l-100 -100z" />
    <glyph glyph-name="five.numr" horiz-adv-x="376" 
d="M25 285l33 87c29 -11 61 -17 94 -17c44 0 72 15 72 45c0 13 -7 24 -26 30c-10 3 -23 4 -39 4h-75l47 225h275l-30 -98h-152l-11 -47h7c19 0 38 -2 53 -7c44 -15 75 -47 75 -98c0 -90 -73 -147 -197 -147c-38 0 -84 6 -126 23z" />
    <glyph glyph-name="six.numr" horiz-adv-x="395" 
d="M211 262c-88 0 -161 48 -161 152c0 146 103 253 242 253c42 0 79 -8 113 -24l-32 -88c-29 13 -51 19 -80 19c-40 0 -83 -20 -105 -60l2 -1c18 8 38 15 69 15c67 0 121 -45 121 -113c0 -101 -75 -153 -169 -153zM215 352c30 0 48 20 48 46c0 23 -17 40 -41 40
c-29 0 -49 -17 -49 -45c0 -23 17 -41 42 -41z" />
    <glyph glyph-name="seven.numr" horiz-adv-x="335" 
d="M49 267c43 139 120 239 172 294h-152l-13 98h315v-61c-84 -93 -147 -196 -186 -331h-136z" />
    <glyph glyph-name="eight.numr" 
d="M207 262c-101 0 -158 38 -158 105c0 52 35 88 80 105v2c-20 16 -42 37 -42 79c0 66 62 114 164 114c100 0 149 -47 149 -104c0 -48 -27 -74 -67 -92v-2c27 -13 51 -40 51 -84c0 -81 -77 -123 -177 -123zM212 355c24 0 50 9 50 35c0 20 -23 33 -48 41
c-23 -10 -44 -23 -44 -44c0 -22 17 -32 42 -32zM240 508c22 7 38 19 38 41c0 19 -16 28 -32 28c-20 0 -37 -12 -37 -32c0 -18 12 -31 31 -37z" />
    <glyph glyph-name="nine.numr" horiz-adv-x="392" 
d="M35 284l35 88c18 -10 48 -17 76 -17c46 0 87 18 107 58l-2 1c-18 -8 -41 -13 -66 -13c-66 0 -126 39 -126 117c0 88 65 149 163 149c88 0 166 -46 166 -165c0 -134 -79 -240 -238 -240c-43 0 -89 8 -115 22zM264 502c1 6 1 12 1 17c0 42 -23 58 -45 58
c-26 0 -44 -20 -44 -46c0 -25 14 -42 43 -42c16 0 32 5 45 13z" />
    <glyph glyph-name="plus.numr" horiz-adv-x="389" 
d="M174 299v118h-106v88h106v114h97v-114h106v-88h-106v-118h-97z" />
    <glyph glyph-name="minus.numr" horiz-adv-x="389" 
d="M68 417v88h309v-88h-309z" />
    <glyph glyph-name="equal.numr" horiz-adv-x="389" 
d="M68 346v88h309v-88h-309zM68 488v88h309v-88h-309z" />
    <glyph glyph-name="parenleft.numr" horiz-adv-x="222" 
d="M107 221c-33 36 -60 105 -60 176c0 112 51 219 155 303l63 -64c-62 -62 -106 -141 -106 -236c0 -42 9 -95 28 -126z" />
    <glyph glyph-name="parenright.numr" horiz-adv-x="222" 
d="M60 221l-63 64c62 62 106 141 106 236c0 42 -9 95 -28 126l80 53c33 -36 60 -105 60 -176c0 -112 -51 -219 -155 -303z" />
    <glyph glyph-name="fraction" unicode="&#x2044;" horiz-adv-x="200" 
d="M-209 0l498 659h123l-498 -659h-123z" />
    <glyph glyph-name="fraction" unicode="&#x2215;" horiz-adv-x="200" 
d="M-209 0l498 659h123l-498 -659h-123z" />
    <glyph glyph-name="onequarter" unicode="&#xbc;" horiz-adv-x="1000" 
d="M169 266l60 271c-31 -14 -79 -27 -123 -33v102c53 8 125 36 164 58h105l-88 -398h-118zM171 0l498 659h123l-498 -659h-123zM695 0l17 81h-156l-17 76l239 241h118l-52 -233h57l-18 -84h-57l-18 -81h-113zM730 163l6 25c6 23 13 50 20 73l-100 -100z" />
    <glyph glyph-name="onehalf" unicode="&#xbd;" horiz-adv-x="1000" 
d="M156 266l60 271c-31 -14 -79 -27 -123 -33v102c53 8 125 36 164 58h105l-88 -398h-118zM158 0l498 659h123l-498 -659h-123zM573 0c35 203 230 219 230 276c0 14 -10 25 -39 25c-34 0 -81 -13 -112 -26l-19 94c44 17 99 31 154 31c93 0 140 -47 140 -109
c0 -121 -165 -152 -182 -193h161l-21 -98h-312z" />
    <glyph glyph-name="threequarters" unicode="&#xbe;" horiz-adv-x="1000" 
d="M31 285l35 86c31 -11 63 -17 99 -17c44 0 61 15 61 40c0 20 -15 30 -53 30h-66l16 82h42c61 0 84 15 84 39c0 19 -17 26 -44 26s-58 -5 -89 -14l-20 86c35 11 83 23 138 23c98 0 139 -45 139 -94c0 -58 -38 -89 -86 -102v-2c34 -5 63 -29 63 -74
c0 -81 -63 -133 -187 -133c-55 0 -102 12 -132 24zM171 0l498 659h123l-498 -659h-123zM694 0l17 81h-156l-17 76l239 241h118l-52 -233h57l-18 -84h-57l-18 -81h-113zM729 163l6 25c6 23 13 50 20 73l-100 -100z" />
    <glyph glyph-name="percent" unicode="%" horiz-adv-x="919" 
d="M210 308c-105 0 -147 67 -147 144c0 114 68 214 199 214c105 0 147 -67 147 -144c0 -114 -68 -214 -199 -214zM221 394c57 0 72 96 72 133c0 31 -11 53 -42 53c-57 0 -72 -96 -72 -133c0 -31 11 -53 42 -53zM654 -10c-105 0 -147 67 -147 144c0 114 68 214 199 214
c105 0 147 -67 147 -144c0 -114 -68 -214 -199 -214zM665 76c57 0 72 96 72 133c0 31 -11 53 -42 53c-57 0 -72 -96 -72 -133c0 -31 11 -53 42 -53zM148 0l498 659h123l-498 -659h-123z" />
    <glyph glyph-name="perthousand" unicode="&#x2030;" horiz-adv-x="1307" 
d="M210 308c-105 0 -147 67 -147 144c0 114 68 214 199 214c105 0 147 -67 147 -144c0 -114 -68 -214 -199 -214zM221 394c57 0 72 96 72 133c0 31 -11 53 -42 53c-57 0 -72 -96 -72 -133c0 -31 11 -53 42 -53zM654 -10c-105 0 -147 67 -147 144c0 114 68 214 199 214
c105 0 147 -67 147 -144c0 -114 -68 -214 -199 -214zM665 76c57 0 72 96 72 133c0 31 -11 53 -42 53c-57 0 -72 -96 -72 -133c0 -31 11 -53 42 -53zM1042 -10c-105 0 -147 67 -147 144c0 114 68 214 199 214c105 0 147 -67 147 -144c0 -114 -68 -214 -199 -214zM1053 76
c57 0 72 96 72 133c0 31 -11 53 -42 53c-57 0 -72 -96 -72 -133c0 -31 11 -53 42 -53zM148 0l498 659h123l-498 -659h-123z" />
    <glyph glyph-name="plus" unicode="+" horiz-adv-x="569" 
d="M198 0v186h-164v124h164v183h140v-183h165v-124h-165v-186h-140z" />
    <glyph glyph-name="minus" unicode="&#x2212;" horiz-adv-x="569" 
d="M35 186v124h469v-124h-469z" />
    <glyph glyph-name="plusminus" unicode="&#xb1;" horiz-adv-x="569" 
d="M30 0v124h469v-124h-469zM194 168v122h-164v124h164v122h140v-122h165v-124h-165v-122h-140z" />
    <glyph glyph-name="multiply" unicode="&#xd7;" horiz-adv-x="635" 
d="M119 -23l-88 88l180 180l-181 181l88 88l181 -181l179 179l87 -88l-178 -179l178 -178l-88 -88l-178 178z" />
    <glyph glyph-name="divide" unicode="&#xf7;" horiz-adv-x="569" 
d="M269 2c-39 0 -71 31 -71 72c0 42 32 73 71 73s71 -31 71 -73c0 -41 -32 -72 -71 -72zM30 186v124h469v-124h-469zM269 349c-39 0 -71 31 -71 72c0 42 32 73 71 73s71 -31 71 -73c0 -41 -32 -72 -71 -72z" />
    <glyph glyph-name="equal" unicode="=" horiz-adv-x="569" 
d="M35 73v124h469v-124h-469zM35 297v124h469v-124h-469z" />
    <glyph glyph-name="notequal" unicode="&#x2260;" horiz-adv-x="569" 
d="M88 -10l40 83h-78v124h138l48 100h-186v124h246l37 77h152l-37 -77h71v-124h-131l-48 -100h179v-124h-239l-40 -83h-152z" />
    <glyph glyph-name="approxequal" unicode="&#x2248;" horiz-adv-x="569" 
d="M90 46l-69 98c54 52 112 75 169 75c84 0 121 -54 194 -54c37 0 60 10 95 40l69 -98c-54 -52 -112 -75 -169 -75c-84 0 -121 54 -194 54c-37 0 -60 -10 -95 -40zM90 282l-69 98c54 52 112 75 169 75c84 0 121 -54 194 -54c37 0 60 10 95 40l69 -98
c-54 -52 -112 -75 -169 -75c-84 0 -121 54 -194 54c-37 0 -60 -10 -95 -40z" />
    <glyph glyph-name="less" unicode="&#x3c;" horiz-adv-x="569" 
d="M35 203v114l434 169v-124l-306 -101v-2l306 -101v-124z" />
    <glyph glyph-name="greater" unicode="&#x3e;" horiz-adv-x="569" 
d="M70 34v124l306 101v2l-306 101v124l434 -169v-114z" />
    <glyph glyph-name="lessequal" unicode="&#x2264;" horiz-adv-x="569" 
d="M50 0v124h469v-124h-469zM69 291v126l434 133v-123l-291 -72v-2l291 -73v-123z" />
    <glyph glyph-name="greaterequal" unicode="&#x2265;" horiz-adv-x="569" 
d="M50 0v124h469v-124h-469zM66 157v123l291 73v2l-291 72v123l434 -133v-126z" />
    <glyph glyph-name="logicalnot" unicode="&#xac;" horiz-adv-x="569" 
d="M30 252v124h469v-310h-140v186h-329z" />
    <glyph glyph-name="degree" unicode="&#xb0;" horiz-adv-x="343" 
d="M206 353c-92 0 -155 64 -155 153s65 153 157 153s157 -64 157 -153s-67 -153 -159 -153zM208 441c34 0 60 26 60 64s-26 64 -60 64s-60 -26 -60 -64s26 -64 60 -64z" />
    <glyph glyph-name="litre" unicode="&#x2113;" horiz-adv-x="525" 
d="M263 -10c-113 0 -178 56 -178 160v9c-21 -6 -43 -12 -65 -17l-20 128c32 6 66 14 99 24l29 140c35 170 126 232 233 232c93 0 155 -53 155 -140c0 -148 -119 -249 -287 -318v-13c0 -55 24 -72 68 -72c31 0 74 12 117 39l49 -119c-51 -28 -121 -53 -200 -53zM263 368
c67 43 106 96 106 152c0 15 -6 28 -22 28c-32 0 -54 -50 -74 -137z" />
    <glyph glyph-name="estimated" unicode="&#x212e;" horiz-adv-x="754" 
d="M376 -10c-185 0 -351 114 -351 311c0 199 166 310 355 310c237 0 352 -163 348 -326h-556v-160c43 -63 124 -97 209 -97c90 0 159 30 209 91h90c-68 -85 -170 -129 -304 -129zM172 324h414v152c-44 63 -115 97 -206 97c-92 0 -163 -34 -208 -97v-152z" />
    <glyph glyph-name="infinity" unicode="&#x221e;" horiz-adv-x="768" 
d="M212 91c-119 0 -182 85 -182 184s63 185 182 185c78 0 130 -43 172 -92c42 49 94 92 172 92c119 0 182 -86 182 -185s-63 -184 -182 -184c-78 0 -130 42 -172 91c-43 -49 -95 -91 -172 -91zM230 224c30 0 56 21 81 51c-25 29 -51 51 -81 51c-27 0 -49 -20 -49 -51
s22 -51 49 -51zM538 224c27 0 49 20 49 51s-22 51 -49 51c-31 0 -56 -22 -81 -51c25 -30 50 -51 81 -51z" />
    <glyph glyph-name="partialdiff" unicode="&#x2202;" horiz-adv-x="564" 
d="M228 -10c-129 0 -200 78 -196 196c5 166 122 259 248 259c32 0 63 -7 93 -22l2 1c0 5 -1 14 -2 21c-10 70 -50 103 -118 103c-42 0 -89 -16 -127 -38l-47 103c60 34 129 53 196 53c132 0 248 -88 248 -275c0 -240 -113 -401 -297 -401zM246 109c74 0 112 84 124 195
c-19 12 -43 22 -73 22c-75 0 -111 -65 -115 -122c-5 -53 15 -95 64 -95z" />
    <glyph glyph-name="integral" unicode="&#x222b;" horiz-adv-x="353" 
d="M-160 -203l50 116c22 -13 45 -21 67 -21c40 0 60 22 71 75l110 548c9 47 25 85 48 115c36 48 90 78 162 78c43 0 84 -8 129 -35l-50 -116c-22 13 -45 21 -67 21c-40 0 -60 -22 -71 -75l-110 -548c-9 -47 -25 -85 -48 -115c-36 -48 -90 -78 -162 -78c-43 0 -84 8 -129 35z
" />
    <glyph glyph-name="radical" unicode="&#x221a;" horiz-adv-x="719" 
d="M195 -122l-39 392l-108 -29l-29 122l265 75l14 -207c5 -73 6 -126 6 -174h2c13 39 37 94 66 155l290 615h164l-471 -949h-160z" />
    <glyph glyph-name="Delta" unicode="&#x2206;" horiz-adv-x="659" 
d="M-49 0l363 662h133l127 -662h-623zM180 124h218l-39 264c-5 33 -8 55 -9 72h-2c-7 -18 -17 -40 -33 -72z" />
    <glyph glyph-name="Omega" unicode="&#x3a9;" horiz-adv-x="747" 
d="M-9 0l25 123h51c18 0 45 -2 63 -8l1 2c-34 39 -83 110 -83 204c0 190 153 345 363 345c192 0 297 -101 297 -253c0 -111 -68 -217 -167 -295v-2c21 6 44 7 63 7h50l-26 -123h-269l21 101c105 84 162 187 162 301c0 86 -54 137 -139 137c-103 0 -197 -89 -197 -253
c0 -65 24 -130 67 -185l-21 -101h-261z" />
    <glyph glyph-name="Omega" unicode="&#x2126;" horiz-adv-x="747" 
d="M-9 0l25 123h51c18 0 45 -2 63 -8l1 2c-34 39 -83 110 -83 204c0 190 153 345 363 345c192 0 297 -101 297 -253c0 -111 -68 -217 -167 -295v-2c21 6 44 7 63 7h50l-26 -123h-269l21 101c105 84 162 187 162 301c0 86 -54 137 -139 137c-103 0 -197 -89 -197 -253
c0 -65 24 -130 67 -185l-21 -101h-261z" />
    <glyph glyph-name="mu" unicode="&#xb5;" horiz-adv-x="598" 
d="M-66 -237l158 710h151l-58 -256c-5 -24 -6 -35 -6 -43c0 -38 22 -57 58 -57c37 0 81 27 98 104l57 252h151l-69 -310c-1 -6 -2 -11 -2 -16c0 -16 9 -21 24 -21c5 0 21 1 32 5v-122c-36 -14 -65 -17 -89 -17c-46 0 -80 25 -87 65c-1 6 -2 13 -2 18h-2
c-38 -61 -86 -85 -136 -85c-35 0 -57 15 -72 36h-2c-6 -45 -13 -84 -24 -132l-30 -131h-150z" />
    <glyph glyph-name="mu" unicode="&#x3bc;" horiz-adv-x="598" 
d="M-66 -237l158 710h151l-58 -256c-5 -24 -6 -35 -6 -43c0 -38 22 -57 58 -57c37 0 81 27 98 104l57 252h151l-69 -310c-1 -6 -2 -11 -2 -16c0 -16 9 -21 24 -21c5 0 21 1 32 5v-122c-36 -14 -65 -17 -89 -17c-46 0 -80 25 -87 65c-1 6 -2 13 -2 18h-2
c-38 -61 -86 -85 -136 -85c-35 0 -57 15 -72 36h-2c-6 -45 -13 -84 -24 -132l-30 -131h-150z" />
    <glyph glyph-name="product" unicode="&#x220f;" horiz-adv-x="722" 
d="M-1 -180l159 716h-88l27 123h706l-50 -123h-94l-159 -716h-155l159 716h-191l-159 -716h-155z" />
    <glyph glyph-name="pi" unicode="&#x3c0;" horiz-adv-x="638" 
d="M30 0l79 357h-92l26 116h617l-46 -116h-92l-43 -194c-1 -6 -2 -11 -2 -16c0 -16 11 -21 27 -21c5 0 18 1 30 5v-124c-28 -10 -67 -15 -98 -15c-74 0 -117 30 -117 98c0 25 5 55 11 84l41 183h-111l-79 -357h-151z" />
    <glyph glyph-name="summation" unicode="&#x2211;" horiz-adv-x="633" 
d="M-63 -181l338 433l-167 407h603l-63 -123h-311l119 -305l-228 -289h306l-27 -123h-570z" />
    <glyph glyph-name="lozenge" unicode="&#x25ca;" horiz-adv-x="468" 
d="M108 0l-79 289l187 289h128l79 -289l-187 -289h-128zM186 115h2l118 184l-40 164h-2l-118 -184z" />
    <glyph glyph-name="ampersand" unicode="&#x26;" horiz-adv-x="812" 
d="M266 -10c-148 0 -250 70 -250 191c0 109 72 180 198 204v2c-49 25 -76 60 -76 111c0 95 96 168 233 168c77 0 149 -17 202 -52l-42 -113c-62 36 -114 46 -155 46c-54 0 -88 -25 -88 -58c0 -30 17 -57 87 -78l-22 -100c-141 0 -187 -52 -187 -112c0 -53 43 -90 120 -90
c89 0 201 44 240 184h-81l26 116h346l-46 -116h-105c-50 -209 -229 -303 -400 -303z" />
    <glyph glyph-name="ampersand.small" horiz-adv-x="622" 
d="M189 -10c-110 0 -186 48 -186 141c0 74 44 132 151 156v3c-38 12 -62 44 -62 82c0 67 65 122 185 122c54 0 110 -12 155 -35l-36 -97c-44 21 -84 27 -114 27c-34 0 -56 -13 -56 -38c0 -16 10 -34 58 -43l-19 -86c-93 4 -128 -32 -128 -69c0 -30 22 -58 76 -58
c59 0 135 29 164 119h-46l21 94h258l-32 -94h-81c-37 -151 -177 -224 -308 -224z" />
    <glyph glyph-name="ampersand.alt" unicode="&#xf030;" horiz-adv-x="771" 
d="M231 -10c-124 0 -220 60 -220 179c0 113 73 169 159 208c-25 46 -39 87 -39 125c0 89 61 164 210 164c138 0 193 -65 193 -136c0 -101 -82 -149 -169 -189c41 -52 75 -95 106 -129c40 40 75 90 102 147l111 -54c-29 -60 -69 -120 -121 -172c27 -15 53 -22 83 -22
c15 0 30 3 35 5v-113c-7 -2 -26 -8 -62 -8c-61 0 -113 19 -164 54c-64 -36 -139 -59 -224 -59zM253 109c36 0 72 8 106 24c-39 41 -80 91 -126 149c-45 -25 -72 -55 -72 -97c0 -45 27 -76 92 -76zM303 430c51 23 87 49 87 92c0 18 -12 39 -48 39c-33 0 -61 -20 -61 -61
c0 -16 6 -42 22 -70z" />
    <glyph glyph-name="ampersand.smallalt" unicode="&#xf031;" horiz-adv-x="597" 
d="M173 -10c-97 0 -169 41 -169 131c0 80 49 127 114 157c-18 31 -28 56 -28 89c0 70 59 127 170 127c102 0 153 -50 153 -108c0 -69 -51 -112 -123 -142c23 -29 43 -54 61 -73c24 26 46 58 64 95l104 -42c-20 -42 -49 -84 -85 -121c16 -6 32 -9 50 -9c14 0 25 2 29 3v-98
c-6 -1 -20 -6 -50 -6c-46 0 -85 11 -125 37c-47 -25 -103 -40 -165 -40zM192 91c21 0 42 4 63 12c-25 27 -52 59 -81 97c-29 -17 -42 -36 -42 -61c0 -29 21 -48 60 -48zM234 321c37 15 57 30 57 53c0 15 -13 25 -30 25c-25 0 -40 -17 -40 -39c0 -11 4 -23 13 -39z" />
    </font>
</defs>
</svg>
