<?xml version="1.0" standalone="no"?>
<!DOCTYPE svg PUBLIC "-//W3C//DTD SVG 1.1//EN" "http://www.w3.org/Graphics/SVG/1.1/DTD/svg11.dtd" >
<svg>
<metadata>
Created by FontForge 20120731 at Sun Jun 30 23:00:38 2019
 By www
Copyright (c) 2015 Monotype Imaging Inc. All rights reserved.
</metadata>
<defs>
<font id="ITCHandelGothicArabicW23-Lt" horiz-adv-x="1394" >
  <font-face 
    font-family="ITCHandelGothicArabicW23-Lt"
    font-weight="300"
    font-stretch="normal"
    units-per-em="2048"
    panose-1="2 11 3 4 4 4 2 2 2 3"
    ascent="1638"
    descent="-410"
    x-height="999"
    cap-height="1360"
    bbox="-332 -891 2787 2466"
    underline-thickness="102"
    underline-position="-154"
    unicode-range="U+000D-FEFC"
  />
<missing-glyph horiz-adv-x="1025" 
d="M25 0v1362h972v-1362h-972zM512 768l330 498h-662zM453 682l-330 496v-992zM901 184v994l-332 -496zM842 98l-330 496l-332 -496h662z" />
    <glyph glyph-name="uniFB01" unicode="fi" horiz-adv-x="1107" 
d="M348 0h-102v905h-180v94h180v99q0 135 63.5 198.5t198.5 63.5h414v-217h-103v123h-303q-92 0 -130 -38t-38 -130v-99h332v-94h-332v-905zM922 0h-103v999h103v-999z" />
    <glyph glyph-name="uniFB02" unicode="fl" horiz-adv-x="1107" 
d="M386 1228q-38 -38 -38 -130v-99h332v-94h-332v-905h-102v905h-180v94h180v99q0 135 63.5 198.5t198.5 63.5h414v-1360h-103v1266h-303q-92 0 -130 -38z" />
    <glyph glyph-name="uniFDF2" unicode="&#x627;&#xfedf;&#xfee0;&#xfeea;" horiz-adv-x="2932" arabic-form="isolated" 
d="M55 0v475q0 209 102 326t310 117h367v-832h639v1280h94v-1280h587v1280h95v-1366h-2194zM2693 0v1366h94v-1366h-94zM150 473v-387h589v745h-272q-317 0 -317 -358z" />
    <glyph glyph-name="uniFEF5" unicode="&#xfedf;&#xfe82;" horiz-adv-x="1236" arabic-form="isolated" 
d="M1036.5 182q-44.5 -87 -130 -134.5t-204.5 -47.5h-630v86h606q158 0 233.5 79t75.5 226v977h94v-983q0 -116 -44.5 -203zM473 258v942h94v-942h-94zM367.5 1531.5q41.5 -17.5 101.5 -52.5q61 -34 99 -51t75 -17q51 0 67.5 26.5t16.5 76.5h55q0 -83 -36.5 -125.5
t-108.5 -42.5q-44 0 -90.5 20t-117.5 59q-51 30 -84.5 45t-59.5 15q-44 0 -66 -32t-22 -83h-56q0 59 20.5 99.5t54 60t71.5 19.5q39 0 80.5 -17.5z" />
    <glyph glyph-name="uniFEF6" unicode="&#xfee0;&#xfe82;" horiz-adv-x="1205" arabic-form="final" 
d="M1214 86q82 0 82 -43t-82 -43l-1142 -2v86l915 2v1282h94v-1282h133zM473 258v942h94v-942h-94zM367.5 1531.5q41.5 -17.5 101.5 -52.5q61 -34 99 -51t75 -17q51 0 67.5 26.5t16.5 76.5h55q0 -83 -36.5 -125.5t-108.5 -42.5q-44 0 -90.5 20t-117.5 59q-51 30 -84.5 45
t-59.5 15q-44 0 -66 -32t-22 -83h-56q0 59 20.5 99.5t54 60t71.5 19.5q39 0 80.5 -17.5z" />
    <glyph glyph-name="uniFEF7" unicode="&#xfedf;&#xfe84;" horiz-adv-x="1236" arabic-form="isolated" 
d="M1036.5 182q-44.5 -87 -130 -134.5t-204.5 -47.5h-630v86h606q158 0 233.5 79t75.5 226v977h94v-983q0 -116 -44.5 -203zM473 258v942h94v-942h-94zM536 1631q-43 0 -63.5 -32.5t-20.5 -88.5v-109h221v-61h-379v61h93v111q0 96 43.5 138t144.5 42h70v-61h-109z" />
    <glyph glyph-name="uniFEF8" unicode="&#xfee0;&#xfe84;" horiz-adv-x="1205" arabic-form="final" 
d="M1214 86q82 0 82 -43t-82 -43l-1142 -2v86l915 2v1282h94v-1282h133zM473 258v942h94v-942h-94zM536 1631q-43 0 -63.5 -32.5t-20.5 -88.5v-109h221v-61h-379v61h93v111q0 96 43.5 138t144.5 42h70v-61h-109z" />
    <glyph glyph-name="uniFEF9" unicode="&#xfedf;&#xfe88;" horiz-adv-x="1236" arabic-form="isolated" 
d="M1036.5 182q-44.5 -87 -130 -134.5t-204.5 -47.5h-630v86h606q158 0 233.5 79t75.5 226v977h94v-983q0 -116 -44.5 -203zM473 258v942h94v-942h-94zM557 -283q-53 0 -72.5 -30.5t-19.5 -89.5v-109h221v-61h-379v61h93v111q0 95 41 137.5t131 42.5h86v-62h-101z" />
    <glyph glyph-name="uniFEFA" unicode="&#xfee0;&#xfe88;" horiz-adv-x="1215" arabic-form="final" 
d="M1214 86q82 0 82 -43t-82 -43l-1142 -2v86l915 2v1282h94v-1282h133zM473 258v942h94v-942h-94zM557 -283q-53 0 -72.5 -30.5t-19.5 -89.5v-109h221v-61h-379v61h93v111q0 95 41 137.5t131 42.5h86v-62h-101z" />
    <glyph glyph-name="uniFEFB" unicode="&#xfedf;&#xfe8e;" horiz-adv-x="1236" arabic-form="isolated" 
d="M1036.5 182q-44.5 -87 -130 -134.5t-204.5 -47.5h-630v86h606q158 0 233.5 79t75.5 226v977h94v-983q0 -116 -44.5 -203zM473 258v942h94v-942h-94z" />
    <glyph glyph-name="uniFEFC" unicode="&#xfee0;&#xfe8e;" horiz-adv-x="1215" arabic-form="final" 
d="M1214 86q82 0 82 -43t-82 -43l-1142 -2v86l915 2v1282h94v-1282h133zM473 258v942h94v-942h-94z" />
    <glyph glyph-name="uni066E.aalt" unicode="&#x66e;" horiz-adv-x="1514" 
d="M1513 86q82 0 82 -43t-82 -43h-1056q-201 0 -296 102.5t-95 300.5v314h94v-326q0 -147 75.5 -226t233.5 -79h817v832h94v-832h133z" />
    <glyph glyph-name="uni066F.aalt" unicode="&#x66f;" horiz-adv-x="1519" 
d="M1518 86q81 0 81 -43t-81 -43h-134q0 -296 -149.5 -444t-439.5 -148h-142q-300 0 -443.5 141t-143.5 445v174h94v-176q0 -138 38 -247t145.5 -180t303.5 -71h101q210 0 329 63.5t165.5 173.5t47.5 269h-663v475q0 209 102 326t309 117h346v-832h134zM721 473v-387h569
v745h-252q-317 0 -317 -358z" />
    <glyph glyph-name="uni06A1.init" unicode="&#x6a1;" horiz-adv-x="1253" 
d="M0 0q-82 0 -82 43t82 43h342v389q0 209 102 326t310 117h346v-918h-1100zM436 473v-387h570v745h-252q-318 0 -318 -358z" />
    <glyph glyph-name="uni06A1.medi" unicode="&#x6a1;" horiz-adv-x="1233" 
d="M1233 86q82 0 82 -43t-82 -43h-1233q-82 0 -82 43t82 43h342v389q0 209 102 326t310 117h346v-832h133zM436 473v-387h570v745h-252q-318 0 -318 -358z" />
    <glyph glyph-name="uni06A1.fina" unicode="&#x6a1;" horiz-adv-x="2033" 
d="M2032 86q82 0 82 -43t-82 -43h-1575q-391 0 -391 403v314h94v-326q0 -147 75.5 -226t233.5 -79h672v389q0 209 102 326t309 117h346v-832h134zM1235 473v-387h569v745h-252q-317 0 -317 -358z" />
    <glyph glyph-name="uni06C2.aalt" unicode="&#x6c2;" horiz-adv-x="978" 
d="M534 1409q-43 0 -63.5 -32.5t-20.5 -88.5v-109h221v-61h-379v61h93v111q0 96 43.5 138t144.5 42h70v-61h-109zM977 86q82 0 82 -43t-82 -43h-891v475q0 209 102 326t310 117h346v-832h133zM180 473v-387h570v745h-252q-318 0 -318 -358z" />
    <glyph glyph-name="uni06C3.aalt" unicode="&#x6c3;" horiz-adv-x="978" 
d="M448.5 1227.5q20.5 -19.5 20.5 -47.5q0 -31 -20.5 -51.5t-49.5 -20.5q-28 0 -48.5 21t-20.5 51q0 28 20.5 47.5t48.5 19.5q29 0 49.5 -19.5zM653.5 1227.5q20.5 -19.5 20.5 -47.5q0 -31 -20.5 -51.5t-49.5 -20.5q-28 0 -49 21t-21 51q0 27 21 47t49 20q29 0 49.5 -19.5z
M977 86q82 0 82 -43t-82 -43h-891v475q0 209 102 326t310 117h346v-832h133zM180 473v-387h570v745h-252q-318 0 -318 -358z" />
    <glyph glyph-name="afii57534.aalt" unicode="&#x6d5;" horiz-adv-x="978" 
d="M977 86q82 0 82 -43t-82 -43h-891v475q0 209 102 326t310 117h346v-832h133zM180 473v-387h570v745h-252q-318 0 -318 -358z" />
    <glyph glyph-name="uniFB50" unicode="&#x671;" horiz-adv-x="401" arabic-form="isolated" 
d="M332.5 1708q13.5 -4 26.5 -16q22 -22 22 -64v-126h-375v53h41v157h246q26 0 39.5 -4zM97 1555h235v47q0 29 -10 43t-37 14h-188v-104zM154 0v1366h94v-1366h-94z" />
    <glyph glyph-name="uniFB51" unicode="&#x671;" horiz-adv-x="410" arabic-form="final" 
d="M283.5 122.5q35.5 -36.5 107.5 -36.5h19q82 0 82 -43t-82 -43h-9q-105 0 -158.5 33t-71 93t-17.5 159v1081h94v-1124q0 -83 35.5 -119.5zM336.5 1708q13.5 -4 26.5 -16q22 -22 22 -64v-126h-375v53h41v157h246q26 0 39.5 -4zM101 1555h235v47q0 29 -10 43t-37 14h-188
v-104z" />
    <glyph glyph-name="uniFB56" unicode="&#x67e;" horiz-adv-x="1535" arabic-form="isolated" 
d="M457 0q-201 0 -296 102.5t-95 300.5v314h94v-326q0 -147 75.5 -226t233.5 -79h817v832h94v-918h-923zM722.5 -161.5q20.5 -20.5 20.5 -51.5q0 -28 -20.5 -48t-49.5 -20q-28 0 -48.5 20t-20.5 48q0 30 20.5 51t48.5 21q29 0 49.5 -20.5zM927.5 -161.5
q20.5 -20.5 20.5 -51.5q0 -28 -20.5 -48t-49.5 -20q-28 0 -49 20t-21 48q0 30 21 51t49 21q29 0 49.5 -20.5zM827 -339.5q20 -20.5 20 -51.5q0 -28 -20 -48t-49 -20q-28 0 -49 20t-21 48q0 30 21 51t49 21q29 0 49 -20.5z" />
    <glyph glyph-name="uniFB57" unicode="&#x67e;" horiz-adv-x="1514" arabic-form="final" 
d="M1513 86q82 0 82 -43t-82 -43h-1056q-201 0 -296 102.5t-95 300.5v314h94v-326q0 -147 75.5 -226t233.5 -79h817v832h94v-832h133zM722.5 -161.5q20.5 -20.5 20.5 -51.5q0 -28 -20.5 -48t-49.5 -20q-28 0 -48.5 20t-20.5 48q0 30 20.5 51t48.5 21q29 0 49.5 -20.5z
M927.5 -161.5q20.5 -20.5 20.5 -51.5q0 -28 -20.5 -48t-49.5 -20q-28 0 -49 20t-21 48q0 30 21 51t49 21q29 0 49.5 -20.5zM827 -339.5q20 -20.5 20 -51.5q0 -28 -20 -48t-49 -20q-28 0 -49 20t-21 48q0 30 21 51t49 21q29 0 49 -20.5z" />
    <glyph glyph-name="uniFB58" unicode="&#x67e;" horiz-adv-x="664" arabic-form="initial" 
d="M0 0q-82 0 -82 43t82 43h406v832h92v-918h-498zM305.5 -161.5q20.5 -20.5 20.5 -51.5q0 -28 -20.5 -48t-49.5 -20q-28 0 -48.5 20t-20.5 48q0 30 20.5 51t48.5 21q29 0 49.5 -20.5zM510.5 -161.5q20.5 -20.5 20.5 -51.5q0 -28 -20.5 -48t-49.5 -20q-28 0 -49 20t-21 48
q0 30 21 51t49 21q29 0 49.5 -20.5zM410 -339.5q20 -20.5 20 -51.5q0 -28 -20 -48t-49 -20q-28 0 -49 20t-21 48q0 30 21 51t49 21q29 0 49 -20.5z" />
    <glyph glyph-name="uniFB59" unicode="&#x67e;" horiz-adv-x="666" arabic-form="medial" 
d="M666 86q82 0 82 -43t-82 -43h-666q-82 0 -82 43t82 43h406v832h92v-832h168zM393.5 -161.5q20.5 -20.5 20.5 -51.5q0 -28 -20.5 -48t-49.5 -20q-28 0 -48.5 20t-20.5 48q0 30 20.5 51t48.5 21q29 0 49.5 -20.5zM598.5 -161.5q20.5 -20.5 20.5 -51.5q0 -28 -20.5 -48
t-49.5 -20q-28 0 -49 20t-21 48q0 30 21 51t49 21q29 0 49.5 -20.5zM498 -339.5q20 -20.5 20 -51.5q0 -28 -20 -48t-49 -20q-28 0 -49 20t-21 48q0 30 21 51t49 21q29 0 49 -20.5z" />
    <glyph glyph-name="uniFB66" unicode="&#x679;" horiz-adv-x="1535" arabic-form="isolated" 
d="M575 1106v53h41v252h49v-94h197q46 0 67 -21t21 -63v-127h-375zM665 1159h236v47q0 29 -10 43.5t-37 14.5h-189v-105zM457 0q-201 0 -296 102.5t-95 300.5v314h94v-326q0 -147 75.5 -226t233.5 -79h817v832h94v-918h-923z" />
    <glyph glyph-name="uniFB67" unicode="&#x679;" horiz-adv-x="1514" arabic-form="final" 
d="M1513 86q82 0 82 -43t-82 -43h-1056q-201 0 -296 102.5t-95 300.5v314h94v-326q0 -147 75.5 -226t233.5 -79h817v832h94v-832h133zM575 1106v53h41v252h49v-94h197q46 0 67 -21t21 -63v-127h-375zM665 1159h236v47q0 29 -10 43.5t-37 14.5h-189v-105z" />
    <glyph glyph-name="uniFB68" unicode="&#x679;" horiz-adv-x="590" arabic-form="initial" 
d="M0 0q-82 0 -82 43t82 43h344v832h92v-918h-436zM192 1106v53h41v252h49v-94h197q46 0 67 -21t21 -63v-127h-375zM282 1159h236v47q0 29 -10 43.5t-37 14.5h-189v-105z" />
    <glyph glyph-name="uniFB69" unicode="&#x679;" horiz-adv-x="563" arabic-form="medial" 
d="M563 86q82 0 82 -43t-82 -43h-563q-82 0 -82 43t82 43h344v832h92v-832h127zM198 1106v53h41v252h49v-94h197q46 0 67 -21t21 -63v-127h-375zM288 1159h236v47q0 29 -10 43.5t-37 14.5h-189v-105z" />
    <glyph glyph-name="uniFB6A" unicode="&#x6a4;" horiz-adv-x="2053" arabic-form="isolated" 
d="M1603.5 1463q20.5 -20 20.5 -48q0 -31 -20.5 -51.5t-49.5 -20.5q-28 0 -48.5 21t-20.5 51q0 27 21 47.5t48 20.5q29 0 49.5 -20zM1499.5 1285q20.5 -20 20.5 -48q0 -31 -20.5 -51.5t-49.5 -20.5q-28 0 -49 21t-21 51q0 28 21 48t49 20q29 0 49.5 -20zM1704 1285
q20 -20 20 -48q0 -31 -20 -51.5t-49 -20.5q-28 0 -49 21t-21 51q0 28 21 48t49 20q29 0 49 -20zM457 0q-198 0 -294.5 103t-96.5 300v314h94v-326q0 -147 75.5 -226t233.5 -79h672v389q0 209 102 326t309 117h346v-918h-1441zM1235 473v-387h569v745h-252q-317 0 -317 -358z
" />
    <glyph glyph-name="uniFB6B" unicode="&#x6a4;" horiz-adv-x="2033" arabic-form="final" 
d="M2032 86q82 0 82 -43t-82 -43h-1575q-391 0 -391 403v314h94v-326q0 -147 75.5 -226t233.5 -79h672v389q0 209 102 326t309 117h346v-832h134zM1235 473v-387h569v745h-252q-317 0 -317 -358zM1621.5 1463q20.5 -20 20.5 -48q0 -31 -20.5 -51.5t-49.5 -20.5
q-28 0 -48.5 21t-20.5 51q0 27 21 47.5t48 20.5q29 0 49.5 -20zM1517.5 1285q20.5 -20 20.5 -48q0 -31 -20.5 -51.5t-49.5 -20.5q-28 0 -49 21t-21 51q0 28 21 48t49 20q29 0 49.5 -20zM1722 1285q20 -20 20 -48q0 -31 -20 -51.5t-49 -20.5q-28 0 -49 21t-21 51q0 28 21 48
t49 20q29 0 49 -20z" />
    <glyph glyph-name="uniFB6C" unicode="&#x6a4;" horiz-adv-x="1253" arabic-form="initial" 
d="M0 0q-82 0 -82 43t82 43h342v389q0 209 102 326t310 117h346v-918h-1100zM436 473v-387h570v745h-252q-318 0 -318 -358zM796.5 1463q20.5 -20 20.5 -48q0 -31 -20.5 -51.5t-49.5 -20.5q-28 0 -48.5 21t-20.5 51q0 27 21 47.5t48 20.5q29 0 49.5 -20zM692.5 1285
q20.5 -20 20.5 -48q0 -31 -20.5 -51.5t-49.5 -20.5q-28 0 -49 21t-21 51q0 28 21 48t49 20q29 0 49.5 -20zM897 1285q20 -20 20 -48q0 -31 -20 -51.5t-49 -20.5q-28 0 -49 21t-21 51q0 28 21 48t49 20q29 0 49 -20z" />
    <glyph glyph-name="uniFB6D" unicode="&#x6a4;" horiz-adv-x="1233" arabic-form="medial" 
d="M1233 86q82 0 82 -43t-82 -43h-1233q-82 0 -82 43t82 43h342v389q0 209 102 326t310 117h346v-832h133zM436 473v-387h570v745h-252q-318 0 -318 -358zM810.5 1463q20.5 -20 20.5 -48q0 -31 -20.5 -51.5t-49.5 -20.5q-28 0 -48.5 21t-20.5 51q0 27 21 47.5t48 20.5
q29 0 49.5 -20zM706.5 1285q20.5 -20 20.5 -48q0 -31 -20.5 -51.5t-49.5 -20.5q-28 0 -49 21t-21 51q0 28 21 48t49 20q29 0 49.5 -20zM911 1285q20 -20 20 -48q0 -31 -20 -51.5t-49 -20.5q-28 0 -49 21t-21 51q0 28 21 48t49 20q29 0 49 -20z" />
    <glyph glyph-name="uniFB7A" unicode="&#x686;" horiz-adv-x="1222" arabic-form="isolated" 
d="M996 755q124 -181 124 -462v-293h-663q-82 0 -131.5 -42t-49.5 -142q0 -96 48.5 -135t130.5 -39h49v-86h-49q-139 0 -204 70t-65 188q0 119 66 195.5t203 76.5h571v209q0 281 -119 416t-332 135q-111 0 -215 -23l-16 88q47 11 108.5 18t125.5 7q294 0 418 -181z
M692.5 -161.5q20.5 -20.5 20.5 -51.5q0 -28 -20.5 -48t-49.5 -20q-28 0 -48.5 20t-20.5 48q0 30 20.5 51t48.5 21q29 0 49.5 -20.5zM897.5 -161.5q20.5 -20.5 20.5 -51.5q0 -28 -20.5 -48t-49.5 -20q-28 0 -49 20t-21 48q0 30 21 51t49 21q29 0 49.5 -20.5zM797 -339.5
q20 -20.5 20 -51.5q0 -28 -20 -48t-49 -20q-28 0 -49 20t-21 48q0 30 21 51t49 21q29 0 49 -20.5z" />
    <glyph glyph-name="uniFB7B" unicode="&#x686;" horiz-adv-x="1263" arabic-form="final" 
d="M996 755q124 -181 124 -462v-207h142q81 0 81 -43t-81 -43h-805q-82 0 -131.5 -42t-49.5 -142q0 -96 48.5 -135t130.5 -39h49v-86h-49q-139 0 -204 70t-65 188q0 119 66 195.5t203 76.5h571v209q0 281 -119 416t-332 135q-111 0 -215 -23l-16 88q47 11 108.5 18t125.5 7
q294 0 418 -181zM692.5 -161.5q20.5 -20.5 20.5 -51.5q0 -28 -20.5 -48t-49.5 -20q-28 0 -48.5 20t-20.5 48q0 30 20.5 51t48.5 21q29 0 49.5 -20.5zM897.5 -161.5q20.5 -20.5 20.5 -51.5q0 -28 -20.5 -48t-49.5 -20q-28 0 -49 20t-21 48q0 30 21 51t49 21q29 0 49.5 -20.5z
M797 -339.5q20 -20.5 20 -51.5q0 -28 -20 -48t-49 -20q-28 0 -49 20t-21 48q0 30 21 51t49 21q29 0 49 -20.5z" />
    <glyph glyph-name="uniFB7C" unicode="&#x686;" horiz-adv-x="1028" arabic-form="initial" 
d="M-64 9q-18 9 -18 34q0 26 18 34.5t64 8.5h842v207q0 281 -119 416t-332 135q-111 0 -215 -23l-16 88q47 11 108.5 18t124.5 7q294 0 418.5 -181t124.5 -462v-291h-936q-46 0 -64 9zM444.5 -161.5q20.5 -20.5 20.5 -51.5q0 -28 -20.5 -48t-49.5 -20q-28 0 -48.5 20
t-20.5 48q0 30 20.5 51t48.5 21q29 0 49.5 -20.5zM649.5 -161.5q20.5 -20.5 20.5 -51.5q0 -28 -20.5 -48t-49.5 -20q-28 0 -49 20t-21 48q0 30 21 51t49 21q29 0 49.5 -20.5zM549 -339.5q20 -20.5 20 -51.5q0 -28 -20 -48t-49 -20q-28 0 -49 20t-21 48q0 30 21 51t49 21
q29 0 49 -20.5z" />
    <glyph glyph-name="uniFB7D" unicode="&#x686;" horiz-adv-x="1073" arabic-form="medial" 
d="M268.5 929q61.5 7 124.5 7q294 0 418.5 -181t124.5 -462v-207h137q82 0 82 -43t-82 -43h-1073q-82 0 -82 43t82 43h842v209q0 281 -119 416t-332 135q-111 0 -215 -23l-16 88q47 11 108.5 18zM491.5 -161.5q20.5 -20.5 20.5 -51.5q0 -28 -20.5 -48t-49.5 -20
q-28 0 -48.5 20t-20.5 48q0 30 20.5 51t48.5 21q29 0 49.5 -20.5zM696.5 -161.5q20.5 -20.5 20.5 -51.5q0 -28 -20.5 -48t-49.5 -20q-28 0 -49 20t-21 48q0 30 21 51t49 21q29 0 49.5 -20.5zM596 -339.5q20 -20.5 20 -51.5q0 -28 -20 -48t-49 -20q-28 0 -49 20t-21 48
q0 30 21 51t49 21q29 0 49 -20.5z" />
    <glyph glyph-name="uniFB88" unicode="&#x688;" horiz-adv-x="962" arabic-form="isolated" 
d="M260 1106v53h41v252h49v-94h197q46 0 67 -21t21 -63v-127h-375zM350 1159h236v47q0 29 -10 43.5t-37 14.5h-189v-105zM848 514v-514h-776v86h682v440q0 305 -310 305h-223v87h236q391 0 391 -404z" />
    <glyph glyph-name="uniFB89" unicode="&#x688;" horiz-adv-x="984" arabic-form="final" 
d="M848 514v-428h135q82 0 82 -43t-82 -43h-911v86h682v440q0 305 -310 305h-223v87h236q391 0 391 -404zM260 1106v53h41v252h49v-94h197q46 0 67 -21t21 -63v-127h-375zM350 1159h236v47q0 29 -10 43.5t-37 14.5h-189v-105z" />
    <glyph glyph-name="uniFB8A" unicode="&#x698;" horiz-adv-x="547" arabic-form="isolated" 
d="M291 -327.5q-102 -116.5 -309 -116.5h-23v86h23q165 0 241 89t76 269v918h94v-920q0 -209 -102 -325.5zM387.5 1463q20.5 -20 20.5 -48q0 -31 -20.5 -51.5t-49.5 -20.5q-28 0 -48.5 21t-20.5 51q0 27 21 47.5t48 20.5q29 0 49.5 -20zM283.5 1285q20.5 -20 20.5 -48
q0 -31 -20.5 -51.5t-49.5 -20.5q-28 0 -49 21t-21 51q0 28 21 48t49 20q29 0 49.5 -20zM488 1285q20 -20 20 -48q0 -31 -20 -51.5t-49 -20.5q-28 0 -49 21t-21 51q0 28 21 48t49 20q29 0 49 -20z" />
    <glyph glyph-name="uniFB8B" unicode="&#x698;" horiz-adv-x="524" arabic-form="final" 
d="M524 86q82 0 82 -43t-82 -43h-131q-3 -219 -103.5 -331.5t-307.5 -112.5h-23v86h23q164 0 240.5 91t76.5 267v918h94v-832h131zM387.5 1463q20.5 -20 20.5 -48q0 -31 -20.5 -51.5t-49.5 -20.5q-28 0 -48.5 21t-20.5 51q0 27 21 47.5t48 20.5q29 0 49.5 -20zM283.5 1285
q20.5 -20 20.5 -48q0 -31 -20.5 -51.5t-49.5 -20.5q-28 0 -49 21t-21 51q0 28 21 48t49 20q29 0 49.5 -20zM488 1285q20 -20 20 -48q0 -31 -20 -51.5t-49 -20.5q-28 0 -49 21t-21 51q0 28 21 48t49 20q29 0 49 -20z" />
    <glyph glyph-name="uniFB8C" unicode="&#x691;" horiz-adv-x="547" arabic-form="isolated" 
d="M291 -327.5q-102 -116.5 -309 -116.5h-23v86h23q165 0 241 89t76 269v918h94v-920q0 -209 -102 -325.5zM153 1106v53h41v252h49v-94h197q46 0 67 -21t21 -63v-127h-375zM243 1159h236v47q0 29 -10 43.5t-37 14.5h-189v-105z" />
    <glyph glyph-name="uniFB8D" unicode="&#x691;" horiz-adv-x="524" arabic-form="final" 
d="M524 86q82 0 82 -43t-82 -43h-131q-3 -219 -103.5 -331.5t-307.5 -112.5h-23v86h23q164 0 240.5 91t76.5 267v918h94v-832h131zM149 1106v53h41v252h49v-94h197q46 0 67 -21t21 -63v-127h-375zM239 1159h236v47q0 29 -10 43.5t-37 14.5h-189v-105z" />
    <glyph glyph-name="uniFB8E" unicode="&#x6a9;" horiz-adv-x="1623" arabic-form="isolated" 
d="M555 918h563q200 0 295.5 -103t95.5 -301v-514h-1427v86h1333v440q0 305 -309 305h-682v25q0 36 24 67.5t66 63.5t133 94l512 342v-98z" />
    <glyph glyph-name="uniFB8F" unicode="&#x6a9;" horiz-adv-x="1641" arabic-form="final" 
d="M551 918h563q391 0 391 -404v-428h135q82 0 82 -43t-82 -43h-1558v86h1329v440q0 305 -309 305h-682v25q0 36 24 67.5t66 63.5t133 94l512 342v-98z" />
    <glyph glyph-name="uniFB90" unicode="&#x6a9;" horiz-adv-x="1499" arabic-form="initial" 
d="M432 918h563q200 0 295.5 -103t95.5 -301v-514h-1386q-82 0 -82 43t82 43h1292v440q0 305 -309 305h-682v25q0 36 24 67.5t66 63.5t133 94l512 342v-98z" />
    <glyph glyph-name="uniFB91" unicode="&#x6a9;" horiz-adv-x="1518" arabic-form="medial" 
d="M432 918h563q200 0 295.5 -103t95.5 -301v-428h132q81 0 81 -43t-81 -43h-1518q-82 0 -82 43t82 43h1292v440q0 305 -309 305h-682v25q0 36 24 67.5t66 63.5t133 94l512 342v-98z" />
    <glyph glyph-name="uniFB92" unicode="&#x6af;" horiz-adv-x="1623" arabic-form="isolated" 
d="M450 1081v95l701 458v-94zM555 918h563q200 0 295.5 -103t95.5 -301v-514h-1427v86h1333v440q0 305 -309 305h-682v25q0 36 24 67.5t66 63.5t133 94l512 342v-98z" />
    <glyph glyph-name="uniFB93" unicode="&#x6af;" horiz-adv-x="1641" arabic-form="final" 
d="M551 918h563q391 0 391 -404v-428h135q82 0 82 -43t-82 -43h-1558v86h1329v440q0 305 -309 305h-682v25q0 36 24 67.5t66 63.5t133 94l512 342v-98zM450 1081v95l701 458v-94z" />
    <glyph glyph-name="uniFB94" unicode="&#x6af;" horiz-adv-x="1499" arabic-form="initial" 
d="M432 918h563q200 0 295.5 -103t95.5 -301v-514h-1386q-82 0 -82 43t82 43h1292v440q0 305 -309 305h-682v25q0 36 24 67.5t66 63.5t133 94l512 342v-98zM325 1081v95l701 458v-94z" />
    <glyph glyph-name="uniFB95" unicode="&#x6af;" horiz-adv-x="1518" arabic-form="medial" 
d="M432 918h563q200 0 295.5 -103t95.5 -301v-428h132q81 0 81 -43t-81 -43h-1518q-82 0 -82 43t82 43h1292v440q0 305 -309 305h-682v25q0 36 24 67.5t66 63.5t133 94l512 342v-98zM325 1081v95l701 458v-94z" />
    <glyph glyph-name="uniFB9E" unicode="&#x6ba;" horiz-adv-x="1240" arabic-form="isolated" 
d="M1025.5 -199.5q-59.5 -115.5 -174 -180t-273.5 -64.5q-262 0 -387 137t-125 393v553h94v-584q0 -206 108 -309.5t310 -103.5q134 0 226.5 51.5t139.5 144t47 213.5v867h94v-852q0 -150 -59.5 -265.5z" />
    <glyph glyph-name="uniFB9F" unicode="&#x6ba;" horiz-adv-x="1297" arabic-form="final" 
d="M1296 86q82 0 82 -43t-82 -43h-215q-12 -132 -74.5 -232.5t-172 -156t-256.5 -55.5q-262 0 -387 137t-125 393v553h94v-584q0 -206 108 -309.5t310 -103.5q134 0 226.5 51.5t139.5 144t47 213.5v867h94v-832h211z" />
    <glyph glyph-name="uniFBA4" unicode="&#x6c0;" horiz-adv-x="957" arabic-form="isolated" 
d="M86 0v475q0 209 102 326t310 117h346v-918h-758zM180 473v-387h570v745h-252q-318 0 -318 -358zM536 1409q-43 0 -63.5 -32.5t-20.5 -88.5v-109h221v-61h-379v61h93v111q0 96 43.5 138t144.5 42h70v-61h-109z" />
    <glyph glyph-name="uniFBA5" unicode="&#x6c0;" horiz-adv-x="978" arabic-form="final" 
d="M977 86q82 0 82 -43t-82 -43h-891v475q0 209 102 326t310 117h346v-832h133zM180 473v-387h570v745h-252q-318 0 -318 -358zM534 1409q-43 0 -63.5 -32.5t-20.5 -88.5v-109h221v-61h-379v61h93v111q0 96 43.5 138t144.5 42h70v-61h-109z" />
    <glyph glyph-name="uniFBA6" unicode="&#x6c1;" horiz-adv-x="998" arabic-form="isolated" 
d="M86 0v475q0 209 102 326t310 117h346v-918h-758zM180 473v-387h570v745h-252q-318 0 -318 -358z" />
    <glyph glyph-name="uniFBA7" unicode="&#x6c1;" horiz-adv-x="1068" arabic-form="final" 
d="M1067 86q82 0 82 -43t-82 -43h-338v831h-252q-317 0 -317 -358v-473h-94v475q0 209 102 326t309 117h346v-832h244z" />
    <glyph glyph-name="uniFBA8" unicode="&#x6c1;" horiz-adv-x="692" arabic-form="initial" 
d="M0 0q-82 0 -82 43t82 43h444v832h95v-918h-539zM395.5 -152.5q-19.5 -30.5 -22.5 -64.5q0 -23 9.5 -39t27.5 -34q17 -19 25.5 -33t8.5 -35q0 -23 -17.5 -43.5t-45.5 -20.5q-38 0 -63 24.5t-25 78.5q0 61 36.5 127.5t92.5 113.5h33q-40 -44 -59.5 -74.5z" />
    <glyph glyph-name="uniFBA9" unicode="&#x6c1;" horiz-adv-x="877" arabic-form="medial" 
d="M958 43q0 -43 -81 -43h-68l-340 -518l-119 82q-117 80 -174 149.5t-57 157.5q0 27 8 62t23 67h-150q-82 0 -82 43t82 43h297l-49 -86q-41 -67 -41 -129q0 -96 104 -172l125 -92l316 479h125q81 0 81 -43z" />
    <glyph glyph-name="uniFBAA" unicode="&#x6be;" horiz-adv-x="1621" arabic-form="isolated" 
d="M1305.5 808q122.5 -100 172.5 -278t50 -444v-86h-1374q-40 0 -71.5 22t-31.5 50v14h264q0 266 49.5 443.5t172.5 278t337 109.5v101h95v-101q214 -9 336.5 -109zM1381 513q-53 160 -154.5 233t-257.5 82v-742h465q0 267 -53 427zM874 828q-156 -9 -257.5 -82t-154 -233
t-52.5 -427h464v742z" />
    <glyph glyph-name="uniFBAB" unicode="&#x6be;" horiz-adv-x="1543" arabic-form="final" 
d="M1624 43q0 -43 -82 -43h-1388q-40 0 -71.5 22t-31.5 50v14h182q0 265 50 443t173 278.5t337 110.5v100h94v-100q219 -9 341.5 -109t170 -277t47.5 -446h96q82 0 82 -43zM535.5 747.5q-101.5 -73.5 -154.5 -234t-53 -427.5h465v743q-156 -8 -257.5 -81.5zM1352 86
q0 267 -52.5 428t-154 234t-258.5 81v-743h465z" />
    <glyph glyph-name="uniFBAC" unicode="&#x6be;" horiz-adv-x="1620" arabic-form="initial" 
d="M1305.5 808q122.5 -100 172.5 -278t50 -444v-86h-1528q-82 0 -82 43t82 43h315q0 266 49.5 443.5t172.5 278t337 109.5v101h95v-101q214 -9 336.5 -109zM1381 513q-53 160 -154.5 233t-257.5 82v-742h465q0 267 -53 427zM874 828q-156 -9 -257.5 -82t-154 -233
t-52.5 -427h464v742z" />
    <glyph glyph-name="uniFBAD" unicode="&#x6be;" horiz-adv-x="1661" arabic-form="medial" 
d="M1743 43q0 -43 -82 -43h-1661q-82 0 -82 43t82 43h315q0 266 49.5 443.5t172.5 278t337 109.5v101h95v-101q214 -9 336.5 -109t172.5 -278t50 -444h133q82 0 82 -43zM1381 513q-53 160 -154.5 233t-257.5 82v-742h465q0 267 -53 427zM874 828q-156 -9 -257.5 -82
t-154 -233t-52.5 -427h464v742z" />
    <glyph glyph-name="uniFBAE" unicode="&#x6d2;" horiz-adv-x="2004" arabic-form="isolated" 
d="M754 551h-285q-158 0 -233.5 -79t-75.5 -226v-160h1779v-86h-1873v233q0 199 95 301.5t296 102.5h284q296 0 310 281v198h94v-198q-16 -367 -391 -367z" />
    <glyph glyph-name="uniFBAF" unicode="&#x6d2;" horiz-adv-x="1236" arabic-form="final" 
d="M1317 43q0 -43 -82 -43h-903q-81 0 -130.5 -42t-49.5 -142q0 -96 48 -135t130 -39h743v-86h-743q-139 0 -204 70t-65 188q0 119 66 195.5t203 76.5h905q82 0 82 -43z" />
    <glyph glyph-name="uniFBB0" unicode="&#x6d3;" horiz-adv-x="2022" arabic-form="isolated" 
d="M416 1196q-43 0 -63.5 -32.5t-20.5 -88.5v-109h221v-61h-379v61h93v111q0 96 43.5 138t144.5 42h70v-61h-109zM754 551h-285q-158 0 -233.5 -79t-75.5 -226v-160h1779v-86h-1873v233q0 199 95 301.5t296 102.5h284q296 0 310 281v198h94v-198q-16 -367 -391 -367z" />
    <glyph glyph-name="uniFBB1" unicode="&#x6d3;" horiz-adv-x="1236" arabic-form="final" 
d="M1317 43q0 -43 -82 -43h-903q-81 0 -130.5 -42t-49.5 -142q0 -96 48 -135t130 -39h743v-86h-743q-139 0 -204 70t-65 188q0 119 66 195.5t203 76.5h905q82 0 82 -43zM285 596q-43 0 -63.5 -32.5t-20.5 -88.5v-109h221v-61h-379v61h93v111q0 96 43.5 138t144.5 42h70v-61
h-109z" />
    <glyph glyph-name="uniFBE8" unicode="&#x649;" horiz-adv-x="590" arabic-form="initial" 
d="M0 0q-82 0 -82 43t82 43h344v832h92v-918h-436z" />
    <glyph glyph-name="uniFBE9" unicode="&#x649;" horiz-adv-x="563" arabic-form="medial" 
d="M563 86q82 0 82 -43t-82 -43h-563q-82 0 -82 43t82 43h344v832h92v-832h127z" />
    <glyph glyph-name="uniFBFD" unicode="&#x6cc;" horiz-adv-x="1793" arabic-form="final" 
d="M1792 86q82 0 82 -43t-82 -43h-225v831h-172q-159 0 -234.5 -78.5t-75.5 -226.5v-460q0 -150 -59.5 -265.5t-174 -180t-273.5 -64.5q-262 0 -387 137t-125 393v553h94v-584q0 -206 108 -309.5t310 -103.5q134 0 226.5 51.5t139.5 144t47 213.5v463q0 404 391 404h279
v-832h131z" />
    <glyph glyph-name="uniFBFE" unicode="&#x6cc;" horiz-adv-x="631" arabic-form="initial" 
d="M0 0q-82 0 -82 43t82 43h406v832h92v-918h-498zM354.5 -161.5q20.5 -20.5 20.5 -51.5q0 -28 -20.5 -48t-49.5 -20q-28 0 -48.5 20t-20.5 48q0 30 20.5 51t48.5 21q29 0 49.5 -20.5zM559.5 -161.5q20.5 -20.5 20.5 -51.5q0 -28 -20.5 -48t-49.5 -20q-28 0 -49 20t-21 48
q0 30 21 51t49 21q29 0 49.5 -20.5z" />
    <glyph glyph-name="uniFBFF" unicode="&#x6cc;" horiz-adv-x="666" arabic-form="medial" 
d="M666 86q82 0 82 -43t-82 -43h-666q-82 0 -82 43t82 43h406v832h92v-832h168zM385.5 -161.5q20.5 -20.5 20.5 -51.5q0 -28 -20.5 -48t-49.5 -20q-28 0 -48.5 20t-20.5 48q0 30 20.5 51t48.5 21q29 0 49.5 -20.5zM590.5 -161.5q20.5 -20.5 20.5 -51.5q0 -28 -20.5 -48
t-49.5 -20q-28 0 -49 20t-21 48q0 30 21 51t49 21q29 0 49.5 -20.5z" />
    <glyph glyph-name="uniFDFA" unicode="&#xfdfa;" horiz-adv-x="2498" arabic-form="isolated" 
d="M621 1300v46h34v-39q0 -33 27 -33t27 31v30h34v-28q0 -33 29 -33q23 0 23 31v41h34v-46q0 -31 -14.5 -46t-40.5 -15q-12 0 -25.5 5t-21.5 18q-9 -14 -22.5 -18.5t-24.5 -4.5q-59 0 -59 61zM1690 379q0 -14 16.5 -20.5t36.5 -6.5h231q-32 66 -32 127q0 68 45.5 112
t130.5 44q22 0 48.5 -2.5t41.5 -5.5v-52q-8 3 -31 5t-47 2q-53 0 -87 -27t-34 -86q0 -49 35 -117h207v-55h-502q-46 0 -70 33q-23 -33 -90 -33h-473v-393q0 -14 16.5 -20.5t34.5 -6.5h246v205h66v-205h104v205h66v-205h131v275h65v-328h-671q-23 0 -40 7.5t-30 25.5
q-23 -33 -88 -33h-375q-46 -66 -125 -66h-117q-3 10 -11 28q-3 7 -7 16t-8 22h-25q-23 0 -31 -11t-8 -46v-138h-63v191q0 57 57 57h53q-8 28 -8 64q0 67 44 111t120 44q55 0 91 -24t52.5 -61.5t16.5 -78.5q0 -21 -8 -55h337q30 0 40 14t10 48v358h-222q-46 0 -69 33
q-23 -33 -90 -33h-78q-69 0 -94 43h-72q-180 0 -180 137q0 156 190 156q25 0 59 -2.5t54 -5.5v-211q0 -30 12 -46t43 -16h51q30 0 41 14.5t11 47.5v213h65v-248q0 -14 16.5 -20.5t34.5 -6.5h228v166h65v-166h457q31 0 41 14t10 48v350h-33q-51 0 -69 33q-14 -15 -34 -24
t-56 -9h-31q35 -25 35 -53q0 -34 -31.5 -67t-92 -54t-143.5 -21q-120 0 -186.5 34t-81.5 108l66 10q14 -51 62.5 -74.5t141.5 -23.5q59 0 104 12.5t69 32.5t24 43q0 26 -38 43.5t-106 37.5l-32 9v57q111 -41 186 -41h37q31 0 41 14t10 48v444h66v-479q0 -14 17 -20.5
t36 -6.5h39v381h66v-381h79v275h66v-27q127 27 207 27q114 0 161.5 -47.5t47.5 -139.5v-141h-561v-385zM290 839.5q-44 34.5 -44 104.5q0 154 188 154q22 0 58.5 -2.5t56.5 -5.5v-211q0 -30 12 -46t43 -16h41q30 0 40.5 14t10.5 48v307h66v-342q0 -14 16.5 -20.5t34.5 -6.5
h84v506h64v-559h-142q-48 0 -69 33q-25 -33 -91 -33h-67q-34 0 -57.5 9.5t-36.5 31.5h-72q-92 0 -136 34.5zM1044 764v559h64v-559h-64zM1872 1233v35l221 26v-34zM1180 1065v35l221 26v-34zM313 950q0 -49 31 -71.5t94 -22.5h45v186q-34 7 -53 7q-117 0 -117 -99zM2183 817
v66q0 86 -35 121.5t-116 35.5q-74 0 -197 -24v-199h348zM430 582q-117 0 -117 -97q0 -49 31.5 -71.5t93.5 -22.5h45v187q-24 4 -53 4zM1522 487l-222 -28v37l222 26v-35zM713 172q-12 -12 -31 -12q-17 0 -29 12t-12 29q0 16 12 28.5t29 12.5q18 0 30.5 -12.5t12.5 -28.5
q0 -17 -12 -29zM813 172q-12 -12 -31 -12q-16 0 -28.5 12t-12.5 29q0 15 13 28t28 13q18 0 30.5 -12.5t12.5 -28.5q0 -17 -12 -29zM1210 172l222 27v-35l-222 -27v35zM2247 152h4v-306q0 -79 -34.5 -118t-123.5 -39h-94v51h94q46 0 67.5 19.5t22.5 64.5h-45
q-109 0 -149.5 49t-40.5 117q0 79 50.5 124.5t158.5 45.5q36 0 90 -8zM2171 107.5q-6 1.5 -14 1.5q-62 0 -104 -23t-42 -96q0 -113 131 -113h41v229q-6 0 -12 1.5zM579.5 -151q24.5 35 24.5 81q0 52 -24.5 82.5t-69.5 30.5q-39 0 -66.5 -26t-27.5 -78q0 -64 33 -125h59
q47 0 71.5 35zM1475 -236v-167h-445v38h211v95h47v-95h41v95h43v-95h58v129h45z" />
    <glyph glyph-name="uniFE80" unicode="&#x621;" horiz-adv-x="687" arabic-form="isolated" 
d="M432 438q-80 0 -109.5 -44t-29.5 -132v-176h332v-86h-564v86h138v168q0 142 60.5 205t193.5 63h127v-84h-148z" />
    <glyph glyph-name="uniFE81" unicode="&#x622;" horiz-adv-x="401" arabic-form="isolated" 
d="M95.5 1789.5q41.5 -17.5 101.5 -52.5q61 -34 99 -51t75 -17q51 0 67.5 26.5t16.5 76.5h55q0 -83 -36.5 -125.5t-108.5 -42.5q-44 0 -90.5 20t-117.5 59q-51 30 -84.5 45t-59.5 15q-44 0 -66 -32t-22 -83h-56q0 59 20.5 99.5t54 60t71.5 19.5q39 0 80.5 -17.5zM154 0v1366
h94v-1366h-94z" />
    <glyph glyph-name="uniFE82" unicode="&#x622;" horiz-adv-x="410" arabic-form="final" 
d="M283.5 122.5q35.5 -36.5 107.5 -36.5h19q82 0 82 -43t-82 -43h-9q-105 0 -158.5 33t-71 93t-17.5 159v1081h94v-1124q0 -83 35.5 -119.5zM105.5 1760.5q41.5 -17.5 101.5 -52.5q61 -34 99 -51t75 -17q51 0 67.5 26.5t16.5 76.5h55q0 -83 -36.5 -125.5t-108.5 -42.5
q-44 0 -90.5 20t-117.5 59q-51 30 -84.5 45t-59.5 15q-44 0 -66 -32t-22 -83h-56q0 59 20.5 99.5t54 60t71.5 19.5q39 0 80.5 -17.5z" />
    <glyph glyph-name="uniFE83" unicode="&#x623;" horiz-adv-x="401" arabic-form="isolated" 
d="M250 1819q-43 0 -63.5 -32.5t-20.5 -88.5v-109h221v-61h-379v61h93v111q0 96 43.5 138t144.5 42h70v-61h-109zM154 0v1366h94v-1366h-94z" />
    <glyph glyph-name="uniFE84" unicode="&#x623;" horiz-adv-x="391" arabic-form="final" 
d="M283.5 122.5q35.5 -36.5 107.5 -36.5h19q82 0 82 -43t-82 -43h-9q-105 0 -158.5 33t-71 93t-17.5 159v1081h94v-1124q0 -83 35.5 -119.5zM250 1819q-43 0 -63.5 -32.5t-20.5 -88.5v-109h221v-61h-379v61h93v111q0 96 43.5 138t144.5 42h70v-61h-109z" />
    <glyph glyph-name="uniFE85" unicode="&#x624;" horiz-adv-x="1121" arabic-form="isolated" 
d="M612 1438q-43 0 -63.5 -32.5t-20.5 -88.5v-109h221v-61h-379v61h93v111q0 96 43.5 138t144.5 42h70v-61h-109zM541 -358q118 0 187.5 41t99.5 119.5t30 197.5h-663v475q0 209 102 326t309 117h346l-2 -918q-2 -209 -90.5 -326.5t-267.5 -117.5h-268v86h217zM858 831h-252
q-317 0 -317 -358v-387h569v745z" />
    <glyph glyph-name="uniFE86" unicode="&#x624;" horiz-adv-x="1111" arabic-form="final" 
d="M1085 86q82 0 82 -43t-82 -43h-135q-2 -209 -90.5 -326.5t-267.5 -117.5h-268v86h217q118 0 187.5 41t99.5 119.5t30 197.5h-663v475q0 209 102 326t309 117h346v-832h133zM289 473v-387h569v745h-252q-317 0 -317 -358zM612 1438q-43 0 -63.5 -32.5t-20.5 -88.5v-109
h221v-61h-379v61h93v111q0 96 43.5 138t144.5 42h70v-61h-109z" />
    <glyph glyph-name="uniFE87" unicode="&#x625;" horiz-adv-x="401" arabic-form="isolated" 
d="M154 0v1366h94v-1366h-94zM254 -283q-53 0 -72.5 -30.5t-19.5 -89.5v-109h221v-61h-379v61h93v111q0 95 41 137.5t131 42.5h86v-62h-101z" />
    <glyph glyph-name="uniFE88" unicode="&#x625;" horiz-adv-x="411" arabic-form="final" 
d="M283.5 122.5q35.5 -36.5 107.5 -36.5h19q82 0 82 -43t-82 -43h-9q-105 0 -158.5 33t-71 93t-17.5 159v1081h94v-1124q0 -83 35.5 -119.5zM270 -283q-53 0 -72.5 -30.5t-19.5 -89.5v-109h221v-61h-379v61h93v111q0 95 41 137.5t131 42.5h86v-62h-101z" />
    <glyph glyph-name="uniFE89" unicode="&#x626;" horiz-adv-x="1815" arabic-form="isolated" 
d="M244 1082q-43 0 -63.5 -32.5t-20.5 -88.5v-109h221v-61h-379v61h93v111q0 96 43.5 138t144.5 42h70v-61h-109zM1567 0v831h-172q-159 0 -234.5 -78.5t-75.5 -226.5v-460q0 -150 -59.5 -265.5t-174 -180t-273.5 -64.5q-262 0 -387 137t-125 393v553h94v-584
q0 -206 108 -309.5t310 -103.5q134 0 226.5 51.5t139.5 144t47 213.5v463q0 404 391 404h279v-918h-94z" />
    <glyph glyph-name="uniFE8A" unicode="&#x626;" horiz-adv-x="1792" arabic-form="final" 
d="M1792 86q82 0 82 -43t-82 -43h-225v831h-172q-159 0 -234.5 -78.5t-75.5 -226.5v-460q0 -150 -59.5 -265.5t-174 -180t-273.5 -64.5q-262 0 -387 137t-125 393v553h94v-584q0 -206 108 -309.5t310 -103.5q134 0 226.5 51.5t139.5 144t47 213.5v463q0 404 391 404h279
v-832h131zM246 1082q-43 0 -63.5 -32.5t-20.5 -88.5v-109h221v-61h-379v61h93v111q0 96 43.5 138t144.5 42h70v-61h-109z" />
    <glyph glyph-name="uniFE8B" unicode="&#x626;" horiz-adv-x="610" arabic-form="initial" 
d="M0 0q-82 0 -82 43t82 43h344v832h92v-918h-436zM438 1352q-43 0 -63.5 -32.5t-20.5 -88.5v-109h221v-61h-379v61h93v111q0 96 43.5 138t144.5 42h70v-61h-109z" />
    <glyph glyph-name="uniFE8C" unicode="&#x626;" horiz-adv-x="563" arabic-form="medial" 
d="M563 86q82 0 82 -43t-82 -43h-563q-82 0 -82 43t82 43h344v832h92v-832h127zM420 1352q-43 0 -63.5 -32.5t-20.5 -88.5v-109h221v-61h-379v61h93v111q0 96 43.5 138t144.5 42h70v-61h-109z" />
    <glyph glyph-name="uniFE8D" unicode="&#x627;" horiz-adv-x="402" arabic-form="isolated" 
d="M154 0v1366h94v-1366h-94z" />
    <glyph glyph-name="uniFE8E" unicode="&#x627;" horiz-adv-x="411" arabic-form="final" 
d="M283.5 122.5q35.5 -36.5 107.5 -36.5h19q82 0 82 -43t-82 -43h-9q-105 0 -158.5 33t-71 93t-17.5 159v1081h94v-1124q0 -83 35.5 -119.5z" />
    <glyph glyph-name="uniFE8F" unicode="&#x628;" horiz-adv-x="1535" arabic-form="isolated" 
d="M457 0q-201 0 -296 102.5t-95 300.5v314h94v-326q0 -147 75.5 -226t233.5 -79h817v832h94v-918h-923zM837.5 -161.5q20.5 -20.5 20.5 -51.5q0 -28 -20.5 -48t-49.5 -20q-28 0 -49 20t-21 48q0 30 21 51t49 21q29 0 49.5 -20.5z" />
    <glyph glyph-name="uniFE90" unicode="&#x628;" horiz-adv-x="1514" arabic-form="final" 
d="M1513 86q82 0 82 -43t-82 -43h-1056q-201 0 -296 102.5t-95 300.5v314h94v-326q0 -147 75.5 -226t233.5 -79h817v832h94v-832h133zM842.5 -161.5q20.5 -20.5 20.5 -51.5q0 -28 -20.5 -48t-49.5 -20q-28 0 -49 20t-21 48q0 30 21 51t49 21q29 0 49.5 -20.5z" />
    <glyph glyph-name="uniFE91" unicode="&#x628;" horiz-adv-x="590" arabic-form="initial" 
d="M0 0q-82 0 -82 43t82 43h344v832h92v-918h-436zM358.5 -161.5q20.5 -20.5 20.5 -51.5q0 -28 -20.5 -48t-49.5 -20q-28 0 -49 20t-21 48q0 30 21 51t49 21q29 0 49.5 -20.5z" />
    <glyph glyph-name="uniFE92" unicode="&#x628;" horiz-adv-x="563" arabic-form="medial" 
d="M563 86q82 0 82 -43t-82 -43h-563q-82 0 -82 43t82 43h344v832h92v-832h127zM438.5 -161.5q20.5 -20.5 20.5 -51.5q0 -28 -20.5 -48t-49.5 -20q-28 0 -49 20t-21 48q0 30 21 51t49 21q29 0 49.5 -20.5z" />
    <glyph glyph-name="uniFE93" unicode="&#x629;" horiz-adv-x="998" arabic-form="isolated" 
d="M454.5 1227.5q20.5 -19.5 20.5 -47.5q0 -31 -20.5 -51.5t-49.5 -20.5q-28 0 -48.5 21t-20.5 51q0 28 20.5 47.5t48.5 19.5q29 0 49.5 -19.5zM659.5 1227.5q20.5 -19.5 20.5 -47.5q0 -31 -20.5 -51.5t-49.5 -20.5q-28 0 -49 21t-21 51q0 27 21 47t49 20q29 0 49.5 -19.5z
M86 0v475q0 209 102 326t310 117h346v-918h-758zM180 473v-387h570v745h-252q-318 0 -318 -358z" />
    <glyph glyph-name="uniFE94" unicode="&#x629;" horiz-adv-x="978" arabic-form="final" 
d="M977 86q82 0 82 -43t-82 -43h-891v475q0 209 102 326t310 117h346v-832h133zM180 473v-387h570v745h-252q-318 0 -318 -358zM448.5 1227.5q20.5 -19.5 20.5 -47.5q0 -31 -20.5 -51.5t-49.5 -20.5q-28 0 -48.5 21t-20.5 51q0 28 20.5 47.5t48.5 19.5q29 0 49.5 -19.5z
M653.5 1227.5q20.5 -19.5 20.5 -47.5q0 -31 -20.5 -51.5t-49.5 -20.5q-28 0 -49 21t-21 51q0 27 21 47t49 20q29 0 49.5 -19.5z" />
    <glyph glyph-name="uniFE95" unicode="&#x62a;" horiz-adv-x="1535" arabic-form="isolated" 
d="M667.5 1092.5q20.5 -19.5 20.5 -47.5q0 -31 -20.5 -51.5t-49.5 -20.5q-28 0 -48.5 21t-20.5 51q0 28 20.5 47.5t48.5 19.5q29 0 49.5 -19.5zM872.5 1092.5q20.5 -19.5 20.5 -47.5q0 -31 -20.5 -51.5t-49.5 -20.5q-28 0 -49 21t-21 51q0 27 21 47t49 20q29 0 49.5 -19.5z
M457 0q-201 0 -296 102.5t-95 300.5v314h94v-326q0 -147 75.5 -226t233.5 -79h817v832h94v-918h-923z" />
    <glyph glyph-name="uniFE96" unicode="&#x62a;" horiz-adv-x="1514" arabic-form="final" 
d="M1513 86q82 0 82 -43t-82 -43h-1056q-201 0 -296 102.5t-95 300.5v314h94v-326q0 -147 75.5 -226t233.5 -79h817v832h94v-832h133zM667.5 1092.5q20.5 -19.5 20.5 -47.5q0 -31 -20.5 -51.5t-49.5 -20.5q-28 0 -48.5 21t-20.5 51q0 28 20.5 47.5t48.5 19.5
q29 0 49.5 -19.5zM872.5 1092.5q20.5 -19.5 20.5 -47.5q0 -31 -20.5 -51.5t-49.5 -20.5q-28 0 -49 21t-21 51q0 27 21 47t49 20q29 0 49.5 -19.5z" />
    <glyph glyph-name="uniFE97" unicode="&#x62a;" horiz-adv-x="657" arabic-form="initial" 
d="M397.5 1227.5q20.5 -19.5 20.5 -47.5q0 -31 -20.5 -51.5t-49.5 -20.5q-28 0 -48.5 21t-20.5 51q0 28 20.5 47.5t48.5 19.5q29 0 49.5 -19.5zM602.5 1227.5q20.5 -19.5 20.5 -47.5q0 -31 -20.5 -51.5t-49.5 -20.5q-28 0 -49 21t-21 51q0 27 21 47t49 20q29 0 49.5 -19.5z
M0 0q-82 0 -82 43t82 43h406v832h92v-918h-498z" />
    <glyph glyph-name="uniFE98" unicode="&#x62a;" horiz-adv-x="666" arabic-form="medial" 
d="M399.5 1227.5q20.5 -19.5 20.5 -47.5q0 -31 -20.5 -51.5t-49.5 -20.5q-28 0 -48.5 21t-20.5 51q0 28 20.5 47.5t48.5 19.5q29 0 49.5 -19.5zM604.5 1227.5q20.5 -19.5 20.5 -47.5q0 -31 -20.5 -51.5t-49.5 -20.5q-28 0 -49 21t-21 51q0 27 21 47t49 20q29 0 49.5 -19.5z
M666 86q82 0 82 -43t-82 -43h-666q-82 0 -82 43t82 43h406v832h92v-832h168z" />
    <glyph glyph-name="uniFE99" unicode="&#x62b;" horiz-adv-x="1535" arabic-form="isolated" 
d="M778.5 1328q20.5 -20 20.5 -48q0 -31 -20.5 -51.5t-49.5 -20.5q-28 0 -48.5 21t-20.5 51q0 27 21 47.5t48 20.5q29 0 49.5 -20zM674.5 1150q20.5 -20 20.5 -48q0 -31 -20.5 -51.5t-49.5 -20.5q-28 0 -49 21t-21 51q0 28 21 48t49 20q29 0 49.5 -20zM879 1150
q20 -20 20 -48q0 -31 -20 -51.5t-49 -20.5q-28 0 -49 21t-21 51q0 28 21 48t49 20q29 0 49 -20zM457 0q-201 0 -296 102.5t-95 300.5v314h94v-326q0 -147 75.5 -226t233.5 -79h817v832h94v-918h-923z" />
    <glyph glyph-name="uniFE9A" unicode="&#x62b;" horiz-adv-x="1514" arabic-form="final" 
d="M1513 86q82 0 82 -43t-82 -43h-1056q-201 0 -296 102.5t-95 300.5v314h94v-326q0 -147 75.5 -226t233.5 -79h817v832h94v-832h133zM778.5 1328q20.5 -20 20.5 -48q0 -31 -20.5 -51.5t-49.5 -20.5q-28 0 -48.5 21t-20.5 51q0 27 21 47.5t48 20.5q29 0 49.5 -20z
M674.5 1150q20.5 -20 20.5 -48q0 -31 -20.5 -51.5t-49.5 -20.5q-28 0 -49 21t-21 51q0 28 21 48t49 20q29 0 49.5 -20zM879 1150q20 -20 20 -48q0 -31 -20 -51.5t-49 -20.5q-28 0 -49 21t-21 51q0 28 21 48t49 20q29 0 49 -20z" />
    <glyph glyph-name="uniFE9B" unicode="&#x62b;" horiz-adv-x="651" arabic-form="initial" 
d="M0 0q-82 0 -82 43t82 43h406v832h92v-918h-498zM499.5 1463q20.5 -20 20.5 -48q0 -31 -20.5 -51.5t-49.5 -20.5q-28 0 -48.5 21t-20.5 51q0 27 21 47.5t48 20.5q29 0 49.5 -20zM395.5 1285q20.5 -20 20.5 -48q0 -31 -20.5 -51.5t-49.5 -20.5q-28 0 -49 21t-21 51
q0 28 21 48t49 20q29 0 49.5 -20zM600 1285q20 -20 20 -48q0 -31 -20 -51.5t-49 -20.5q-28 0 -49 21t-21 51q0 28 21 48t49 20q29 0 49 -20z" />
    <glyph glyph-name="uniFE9C" unicode="&#x62b;" horiz-adv-x="666" arabic-form="medial" 
d="M499.5 1463q20.5 -20 20.5 -48q0 -31 -20.5 -51.5t-49.5 -20.5q-28 0 -48.5 21t-20.5 51q0 27 21 47.5t48 20.5q29 0 49.5 -20zM395.5 1285q20.5 -20 20.5 -48q0 -31 -20.5 -51.5t-49.5 -20.5q-28 0 -49 21t-21 51q0 28 21 48t49 20q29 0 49.5 -20zM600 1285
q20 -20 20 -48q0 -31 -20 -51.5t-49 -20.5q-28 0 -49 21t-21 51q0 28 21 48t49 20q29 0 49 -20zM666 86q82 0 82 -43t-82 -43h-666q-82 0 -82 43t82 43h406v832h92v-832h168z" />
    <glyph glyph-name="uniFE9D" unicode="&#x62c;" horiz-adv-x="1150" arabic-form="isolated" 
d="M932.5 755q124.5 -181 124.5 -462v-293h-725q-81 0 -130.5 -42t-49.5 -142q0 -96 48 -135t130 -39h233v-86h-233q-139 0 -204 70t-65 188q0 119 66 195.5t203 76.5h633v209q0 280 -119 415.5t-332 135.5q-111 0 -215 -23l-16 88q47 11 108.5 18t124.5 7q294 0 418.5 -181
zM774.5 -161.5q20.5 -20.5 20.5 -51.5q0 -28 -20.5 -48t-49.5 -20q-28 0 -49 20t-21 48q0 30 21 51t49 21q29 0 49.5 -20.5z" />
    <glyph glyph-name="uniFE9E" unicode="&#x62c;" horiz-adv-x="1195" arabic-form="final" 
d="M201.5 -42q-49.5 -42 -49.5 -142q0 -96 48 -135t130 -39h229v-86h-229q-139 0 -204 70t-65 188q0 119 66 195.5t203 76.5h628v209q0 281 -119 416t-331 135q-112 0 -215 -23l-17 88q112 25 234 25q294 0 418.5 -181t124.5 -462v-207h141q34 0 49.5 -2t24 -10.5t8.5 -28.5
q0 -22 -7.5 -31.5t-23 -11.5t-51.5 -2h-862q-81 0 -130.5 -42zM774.5 -161.5q20.5 -20.5 20.5 -51.5q0 -28 -20.5 -48t-49.5 -20q-28 0 -49 20t-21 48q0 30 21 51t49 21q29 0 49.5 -20.5z" />
    <glyph glyph-name="uniFE9F" unicode="&#x62c;" horiz-adv-x="1028" arabic-form="initial" 
d="M-64 9q-18 9 -18 34q0 26 18 34.5t64 8.5h842v207q0 281 -119 416t-332 135q-111 0 -215 -23l-16 88q47 11 108.5 18t124.5 7q294 0 418.5 -181t124.5 -462v-291h-936q-46 0 -64 9zM586.5 -161.5q20.5 -20.5 20.5 -51.5q0 -28 -20.5 -48t-49.5 -20q-28 0 -49 20t-21 48
q0 30 21 51t49 21q29 0 49.5 -20.5z" />
    <glyph glyph-name="uniFEA0" unicode="&#x62c;" horiz-adv-x="1073" arabic-form="medial" 
d="M268.5 929q61.5 7 124.5 7q294 0 418.5 -181t124.5 -462v-207h137q82 0 82 -43t-82 -43h-1073q-82 0 -82 43t82 43h842v209q0 281 -119 416t-332 135q-111 0 -215 -23l-16 88q47 11 108.5 18zM581.5 -161.5q20.5 -20.5 20.5 -51.5q0 -28 -20.5 -48t-49.5 -20
q-28 0 -49 20t-21 48q0 30 21 51t49 21q29 0 49.5 -20.5z" />
    <glyph glyph-name="uniFEA1" unicode="&#x62d;" horiz-adv-x="1150" arabic-form="isolated" 
d="M932.5 755q124.5 -181 124.5 -462v-293h-725q-81 0 -130.5 -42t-49.5 -142q0 -96 48 -135t130 -39h336v-86h-336q-139 0 -204 70t-65 188q0 119 66 195.5t203 76.5h633v209q0 280 -119 415.5t-332 135.5q-111 0 -215 -23l-16 88q47 11 108.5 18t124.5 7q294 0 418.5 -181
z" />
    <glyph glyph-name="uniFEA2" unicode="&#x62d;" horiz-adv-x="1195" arabic-form="final" 
d="M201.5 -42q-49.5 -42 -49.5 -142q0 -96 48 -135t130 -39h332v-86h-332q-139 0 -204 70t-65 188q0 119 66 195.5t203 76.5h628v209q0 281 -119 416t-331 135q-112 0 -215 -23l-17 88q112 25 234 25q294 0 418.5 -181t124.5 -462v-207h141q82 0 82 -43t-82 -43h-862
q-81 0 -130.5 -42z" />
    <glyph glyph-name="uniFEA3" unicode="&#x62d;" horiz-adv-x="1028" arabic-form="initial" 
d="M-64 9q-18 9 -18 34q0 26 18 34.5t64 8.5h842v207q0 281 -119 416t-332 135q-111 0 -215 -23l-16 88q47 11 108.5 18t124.5 7q294 0 418.5 -181t124.5 -462v-291h-936q-46 0 -64 9z" />
    <glyph glyph-name="uniFEA4" unicode="&#x62d;" horiz-adv-x="1073" arabic-form="medial" 
d="M268.5 929q61.5 7 124.5 7q294 0 418.5 -181t124.5 -462v-207h137q82 0 82 -43t-82 -43h-1073q-82 0 -82 43t82 43h842v209q0 281 -119 416t-332 135q-111 0 -215 -23l-16 88q47 11 108.5 18z" />
    <glyph glyph-name="uniFEA5" unicode="&#x62e;" horiz-adv-x="1150" arabic-form="isolated" 
d="M596.5 1223q20.5 -20 20.5 -47q0 -31 -20.5 -51.5t-49.5 -20.5q-28 0 -49 21t-21 51q0 27 21 47t49 20q29 0 49.5 -20zM932.5 755q124.5 -181 124.5 -462v-293h-725q-81 0 -130.5 -42t-49.5 -142q0 -96 48 -135t130 -39h336v-86h-336q-139 0 -204 70t-65 188
q0 119 66 195.5t203 76.5h633v209q0 280 -119 415.5t-332 135.5q-111 0 -215 -23l-16 88q47 11 108.5 18t124.5 7q294 0 418.5 -181z" />
    <glyph glyph-name="uniFEA6" unicode="&#x62e;" horiz-adv-x="1195" arabic-form="final" 
d="M201.5 -42q-49.5 -42 -49.5 -142q0 -96 48 -135t130 -39h332v-86h-332q-139 0 -204 70t-65 188q0 119 66 195.5t203 76.5h628v209q0 281 -119 416t-331 135q-112 0 -215 -23l-17 88q112 25 234 25q294 0 418.5 -181t124.5 -462v-207h141q82 0 82 -43t-82 -43h-862
q-81 0 -130.5 -42zM596.5 1223q20.5 -20 20.5 -47q0 -31 -20.5 -51.5t-49.5 -20.5q-28 0 -49 21t-21 51q0 27 21 47t49 20q29 0 49.5 -20z" />
    <glyph glyph-name="uniFEA7" unicode="&#x62e;" horiz-adv-x="1028" arabic-form="initial" 
d="M-64 9q-18 9 -18 34q0 26 18 34.5t64 8.5h842v207q0 281 -119 416t-332 135q-111 0 -215 -23l-16 88q47 11 108.5 18t124.5 7q294 0 418.5 -181t124.5 -462v-291h-936q-46 0 -64 9zM493.5 1223q20.5 -20 20.5 -47q0 -31 -20.5 -51.5t-49.5 -20.5q-28 0 -49 21t-21 51
q0 27 21 47t49 20q29 0 49.5 -20z" />
    <glyph glyph-name="uniFEA8" unicode="&#x62e;" horiz-adv-x="1073" arabic-form="medial" 
d="M268.5 929q61.5 7 124.5 7q294 0 418.5 -181t124.5 -462v-207h137q82 0 82 -43t-82 -43h-1073q-82 0 -82 43t82 43h842v209q0 281 -119 416t-332 135q-111 0 -215 -23l-16 88q47 11 108.5 18zM452.5 1223q20.5 -20 20.5 -47q0 -31 -20.5 -51.5t-49.5 -20.5q-28 0 -49 21
t-21 51q0 27 21 47t49 20q29 0 49.5 -20z" />
    <glyph glyph-name="uniFEA9" unicode="&#x62f;" horiz-adv-x="962" arabic-form="isolated" 
d="M848 514v-514h-776v86h682v440q0 305 -310 305h-223v87h236q391 0 391 -404z" />
    <glyph glyph-name="uniFEAA" unicode="&#x62f;" horiz-adv-x="984" arabic-form="final" 
d="M848 514v-428h135q82 0 82 -43t-82 -43h-911v86h682v440q0 305 -310 305h-223v87h236q391 0 391 -404z" />
    <glyph glyph-name="uniFEAB" unicode="&#x630;" horiz-adv-x="962" arabic-form="isolated" 
d="M471.5 1223q20.5 -20 20.5 -47q0 -31 -20.5 -51.5t-49.5 -20.5q-28 0 -49 21t-21 51q0 27 21 47t49 20q29 0 49.5 -20zM848 514v-514h-776v86h682v440q0 305 -310 305h-223v87h236q391 0 391 -404z" />
    <glyph glyph-name="uniFEAC" unicode="&#x630;" horiz-adv-x="984" arabic-form="final" 
d="M848 514v-428h135q82 0 82 -43t-82 -43h-911v86h682v440q0 305 -310 305h-223v87h236q391 0 391 -404zM471.5 1223q20.5 -20 20.5 -47q0 -31 -20.5 -51.5t-49.5 -20.5q-28 0 -49 21t-21 51q0 27 21 47t49 20q29 0 49.5 -20z" />
    <glyph glyph-name="uniFEAD" unicode="&#x631;" horiz-adv-x="547" arabic-form="isolated" 
d="M291 -327.5q-102 -116.5 -309 -116.5h-23v86h23q165 0 241 89t76 269v918h94v-920q0 -209 -102 -325.5z" />
    <glyph glyph-name="uniFEAE" unicode="&#x631;" horiz-adv-x="524" arabic-form="final" 
d="M524 86q82 0 82 -43t-82 -43h-131q-3 -219 -103.5 -331.5t-307.5 -112.5h-23v86h23q164 0 240.5 91t76.5 267v918h94v-832h131z" />
    <glyph glyph-name="uniFEAF" unicode="&#x632;" horiz-adv-x="547" arabic-form="isolated" 
d="M291 -327.5q-102 -116.5 -309 -116.5h-23v86h23q165 0 241 89t76 269v918h94v-920q0 -209 -102 -325.5zM389.5 1223q20.5 -20 20.5 -47q0 -31 -20.5 -51.5t-49.5 -20.5q-28 0 -49 21t-21 51q0 27 21 47t49 20q29 0 49.5 -20z" />
    <glyph glyph-name="uniFEB0" unicode="&#x632;" horiz-adv-x="524" arabic-form="final" 
d="M524 86q82 0 82 -43t-82 -43h-131q-3 -219 -103.5 -331.5t-307.5 -112.5h-23v86h23q164 0 240.5 91t76.5 267v918h94v-832h131zM387.5 1223q20.5 -20 20.5 -47q0 -31 -20.5 -51.5t-49.5 -20.5q-28 0 -49 21t-21 51q0 27 21 47t49 20q29 0 49.5 -20z" />
    <glyph glyph-name="uniFEB1" unicode="&#x633;" horiz-adv-x="2244" arabic-form="isolated" 
d="M1085 0q-13 -115 -73 -216t-170 -164.5t-264 -63.5q-262 0 -387 137t-125 393v553h94v-584q0 -206 108 -309.5t310 -103.5q134 0 226.5 51.5t139.5 144t47 213.5v867h94v-832h422v766h95v-766h393v832h94v-918h-1004z" />
    <glyph glyph-name="uniFEB2" unicode="&#x633;" horiz-adv-x="2223" arabic-form="final" 
d="M2222 86q82 0 82 -43t-82 -43h-1137q-13 -115 -73 -216t-170 -164.5t-264 -63.5q-262 0 -387 137t-125 393v553h94v-584q0 -206 108 -309.5t310 -103.5q134 0 226.5 51.5t139.5 144t47 213.5v867h94v-832h422v766h95v-766h393v832h94v-832h133z" />
    <glyph glyph-name="uniFEB3" unicode="&#x633;" horiz-adv-x="1649" arabic-form="initial" 
d="M0 0q-82 0 -82 43t82 43h426v766h94v-766h393v766h95v-766h393v832h94v-918h-1495z" />
    <glyph glyph-name="uniFEB4" unicode="&#x633;" horiz-adv-x="1624" arabic-form="medial" 
d="M1624 86q82 0 82 -43t-82 -43h-1626q-82 0 -82 43t82 43h426v766h94v-766h393v766h95v-766h393v832h94v-832h131z" />
    <glyph glyph-name="uniFEB5" unicode="&#x634;" horiz-adv-x="2244" arabic-form="isolated" 
d="M1603.5 1463q20.5 -20 20.5 -48q0 -31 -20.5 -51.5t-49.5 -20.5q-28 0 -48.5 21t-20.5 51q0 27 21 47.5t48 20.5q29 0 49.5 -20zM1499.5 1285q20.5 -20 20.5 -48q0 -31 -20.5 -51.5t-49.5 -20.5q-28 0 -49 21t-21 51q0 28 21 48t49 20q29 0 49.5 -20zM1704 1285
q20 -20 20 -48q0 -31 -20 -51.5t-49 -20.5q-28 0 -49 21t-21 51q0 28 21 48t49 20q29 0 49 -20zM1085 0q-13 -115 -73 -216t-170 -164.5t-264 -63.5q-262 0 -387 137t-125 393v553h94v-584q0 -206 108 -309.5t310 -103.5q134 0 226.5 51.5t139.5 144t47 213.5v867h94v-832
h422v766h95v-766h393v832h94v-918h-1004z" />
    <glyph glyph-name="uniFEB6" unicode="&#x634;" horiz-adv-x="2223" arabic-form="final" 
d="M2222 86q82 0 82 -43t-82 -43h-1137q-13 -115 -73 -216t-170 -164.5t-264 -63.5q-262 0 -387 137t-125 393v553h94v-584q0 -206 108 -309.5t310 -103.5q134 0 226.5 51.5t139.5 144t47 213.5v867h94v-832h422v766h95v-766h393v832h94v-832h133zM1603.5 1463
q20.5 -20 20.5 -48q0 -31 -20.5 -51.5t-49.5 -20.5q-28 0 -48.5 21t-20.5 51q0 27 21 47.5t48 20.5q29 0 49.5 -20zM1499.5 1285q20.5 -20 20.5 -48q0 -31 -20.5 -51.5t-49.5 -20.5q-28 0 -49 21t-21 51q0 28 21 48t49 20q29 0 49.5 -20zM1704 1285q20 -20 20 -48
q0 -31 -20 -51.5t-49 -20.5q-28 0 -49 21t-21 51q0 28 21 48t49 20q29 0 49 -20z" />
    <glyph glyph-name="uniFEB7" unicode="&#x634;" horiz-adv-x="1649" arabic-form="initial" 
d="M0 0q-82 0 -82 43t82 43h426v766h94v-766h393v766h95v-766h393v832h94v-918h-1495zM1007.5 1463q20.5 -20 20.5 -48q0 -31 -20.5 -51.5t-49.5 -20.5q-28 0 -48.5 21t-20.5 51q0 27 21 47.5t48 20.5q29 0 49.5 -20zM903.5 1285q20.5 -20 20.5 -48q0 -31 -20.5 -51.5
t-49.5 -20.5q-28 0 -49 21t-21 51q0 28 21 48t49 20q29 0 49.5 -20zM1108 1285q20 -20 20 -48q0 -31 -20 -51.5t-49 -20.5q-28 0 -49 21t-21 51q0 28 21 48t49 20q29 0 49 -20z" />
    <glyph glyph-name="uniFEB8" unicode="&#x634;" horiz-adv-x="1624" arabic-form="medial" 
d="M1624 86q82 0 82 -43t-82 -43h-1626q-82 0 -82 43t82 43h426v766h94v-766h393v766h95v-766h393v832h94v-832h131zM1009.5 1463q20.5 -20 20.5 -48q0 -31 -20.5 -51.5t-49.5 -20.5q-28 0 -48.5 21t-20.5 51q0 27 21 47.5t48 20.5q29 0 49.5 -20zM905.5 1285
q20.5 -20 20.5 -48q0 -31 -20.5 -51.5t-49.5 -20.5q-28 0 -49 21t-21 51q0 28 21 48t49 20q29 0 49.5 -20zM1110 1285q20 -20 20 -48q0 -31 -20 -51.5t-49 -20.5q-28 0 -49 21t-21 51q0 28 21 48t49 20q29 0 49 -20z" />
    <glyph glyph-name="uniFEB9" unicode="&#x635;" horiz-adv-x="2375" arabic-form="isolated" 
d="M2261 514v-514h-1178q-13 -115 -73 -216t-170 -164.5t-265 -63.5q-261 0 -385 137t-124 393v553h94v-584q0 -206 107 -309.5t308 -103.5q134 0 227 51.5t140 144t47 213.5v867h881q391 0 391 -404zM1083 86h1084v440q0 305 -309 305h-775v-745z" />
    <glyph glyph-name="uniFEBA" unicode="&#x635;" horiz-adv-x="2397" arabic-form="final" 
d="M2261 514v-428h135q82 0 82 -43t-82 -43h-1313q-13 -115 -73 -216t-170 -164.5t-265 -63.5q-261 0 -385 137t-124 393v553h94v-584q0 -206 107 -309.5t308 -103.5q134 0 227 51.5t140 144t47 213.5v867h881q391 0 391 -404zM1083 86h1084v440q0 305 -309 305h-775v-745z
" />
    <glyph glyph-name="uniFEBB" unicode="&#x635;" horiz-adv-x="1761" arabic-form="initial" 
d="M1649 514v-514h-1649q-82 0 -82 43t82 43h377v832h880q392 0 392 -404zM471 86h1083v440q0 305 -309 305h-774v-745z" />
    <glyph glyph-name="uniFEBC" unicode="&#x635;" horiz-adv-x="1794" arabic-form="medial" 
d="M1659 514v-428h135q82 0 82 -43t-82 -43h-1794q-82 0 -82 43t82 43h387v832h881q391 0 391 -404zM481 86h1084v440q0 305 -310 305h-774v-745z" />
    <glyph glyph-name="uniFEBD" unicode="&#x636;" horiz-adv-x="2375" arabic-form="isolated" 
d="M1661.5 1223q20.5 -20 20.5 -47q0 -31 -20.5 -51.5t-49.5 -20.5q-28 0 -49 21t-21 51q0 27 21 47t49 20q29 0 49.5 -20zM2261 514v-514h-1178q-13 -115 -73 -216t-170 -164.5t-265 -63.5q-261 0 -385 137t-124 393v553h94v-584q0 -206 107 -309.5t308 -103.5
q134 0 227 51.5t140 144t47 213.5v867h881q391 0 391 -404zM1083 86h1084v440q0 305 -309 305h-775v-745z" />
    <glyph glyph-name="uniFEBE" unicode="&#x636;" horiz-adv-x="2397" arabic-form="final" 
d="M2261 514v-428h135q82 0 82 -43t-82 -43h-1313q-13 -115 -73 -216t-170 -164.5t-265 -63.5q-261 0 -385 137t-124 393v553h94v-584q0 -206 107 -309.5t308 -103.5q134 0 227 51.5t140 144t47 213.5v867h881q391 0 391 -404zM1083 86h1084v440q0 305 -309 305h-775v-745z
M1661.5 1223q20.5 -20 20.5 -47q0 -31 -20.5 -51.5t-49.5 -20.5q-28 0 -49 21t-21 51q0 27 21 47t49 20q29 0 49.5 -20z" />
    <glyph glyph-name="uniFEBF" unicode="&#x636;" horiz-adv-x="1761" arabic-form="initial" 
d="M1649 514v-514h-1649q-82 0 -82 43t82 43h377v832h880q392 0 392 -404zM471 86h1083v440q0 305 -309 305h-774v-745zM1052.5 1223q20.5 -20 20.5 -47q0 -31 -20.5 -51.5t-49.5 -20.5q-28 0 -49 21t-21 51q0 27 21 47t49 20q29 0 49.5 -20z" />
    <glyph glyph-name="uniFEC0" unicode="&#x636;" horiz-adv-x="1794" arabic-form="medial" 
d="M1659 514v-428h135q82 0 82 -43t-82 -43h-1794q-82 0 -82 43t82 43h387v832h881q391 0 391 -404zM481 86h1084v440q0 305 -310 305h-774v-745zM1052.5 1223q20.5 -20 20.5 -47q0 -31 -20.5 -51.5t-49.5 -20.5q-28 0 -49 21t-21 51q0 27 21 47t49 20q29 0 49.5 -20z" />
    <glyph glyph-name="uniFEC1" unicode="&#x637;" horiz-adv-x="1801" arabic-form="isolated" 
d="M1296 918q392 0 392 -404v-514h-1649v86h375v1280h94v-448h788zM508 86h1085v440q0 305 -309 305h-776v-745z" />
    <glyph glyph-name="uniFEC2" unicode="&#x637;" horiz-adv-x="1834" arabic-form="final" 
d="M1307 918q391 0 391 -404v-428h135q82 0 82 -43t-82 -43h-1792v86h385v1280h94v-448h787zM520 86h1084v440q0 148 -75.5 226.5t-234.5 78.5h-774v-745z" />
    <glyph glyph-name="uniFEC3" unicode="&#x637;" horiz-adv-x="1761" arabic-form="initial" 
d="M1257 918q392 0 392 -404v-514h-1649q-82 0 -82 43t82 43h375v1280h94v-448h788zM469 86h1085v440q0 305 -309 305h-776v-745z" />
    <glyph glyph-name="uniFEC4" unicode="&#x637;" horiz-adv-x="1794" arabic-form="medial" 
d="M1268 918q391 0 391 -404v-428h135q82 0 82 -43t-82 -43h-1794q-82 0 -82 43t82 43h375v1280h94v-448h799zM469 86h1096v440q0 305 -310 305h-786v-745z" />
    <glyph glyph-name="uniFEC5" unicode="&#x638;" horiz-adv-x="1801" arabic-form="isolated" 
d="M1296 918q392 0 392 -404v-514h-1649v86h375v1280h94v-448h788zM1077.5 1223q20.5 -20 20.5 -47q0 -31 -20.5 -51.5t-49.5 -20.5q-28 0 -49 21t-21 51q0 27 21 47t49 20q29 0 49.5 -20zM508 86h1085v440q0 305 -309 305h-776v-745z" />
    <glyph glyph-name="uniFEC6" unicode="&#x638;" horiz-adv-x="1834" arabic-form="final" 
d="M1307 918q391 0 391 -404v-428h135q82 0 82 -43t-82 -43h-1792v86h385v1280h94v-448h787zM520 86h1084v440q0 148 -75.5 226.5t-234.5 78.5h-774v-745zM1089.5 1223q20.5 -20 20.5 -47q0 -31 -20.5 -51.5t-49.5 -20.5q-28 0 -49 21t-21 51q0 27 21 47t49 20
q29 0 49.5 -20z" />
    <glyph glyph-name="uniFEC7" unicode="&#x638;" horiz-adv-x="1761" arabic-form="initial" 
d="M1257 918q392 0 392 -404v-514h-1649q-82 0 -82 43t82 43h375v1280h94v-448h788zM469 86h1085v440q0 305 -309 305h-776v-745zM1036.5 1223q20.5 -20 20.5 -47q0 -31 -20.5 -51.5t-49.5 -20.5q-28 0 -49 21t-21 51q0 27 21 47t49 20q29 0 49.5 -20z" />
    <glyph glyph-name="uniFEC8" unicode="&#x638;" horiz-adv-x="1794" arabic-form="medial" 
d="M1268 918q391 0 391 -404v-428h135q82 0 82 -43t-82 -43h-1794q-82 0 -82 43t82 43h375v1280h94v-448h799zM469 86h1096v440q0 305 -310 305h-786v-745zM1038.5 1223q20.5 -20 20.5 -47q0 -31 -20.5 -51.5t-49.5 -20.5q-28 0 -49 21t-21 51q0 27 21 47t49 20
q29 0 49.5 -20z" />
    <glyph glyph-name="uniFEC9" unicode="&#x639;" horiz-adv-x="1129" arabic-form="isolated" 
d="M811 831q-160 0 -238.5 -98t-78.5 -260v-387h553v-86h-715q-81 0 -130.5 -42t-49.5 -142q0 -96 48 -135t130 -39h332v-86h-332q-139 0 -204 70t-65 188q0 119 66 195.5t203 76.5h69v389q0 209 102 326t310 117h170v-87h-170z" />
    <glyph glyph-name="uniFECA" unicode="&#x639;" horiz-adv-x="1093" arabic-form="final" 
d="M811 831q-160 0 -238.5 -98t-78.5 -260v-387h598q82 0 82 -43t-82 -43h-760q-81 0 -130.5 -42t-49.5 -142q0 -96 48 -135t130 -39h332v-86h-332q-139 0 -204 70t-65 188q0 119 66 195.5t203 76.5h69v389q0 209 102 326t310 117h170v-87h-170z" />
    <glyph glyph-name="uniFECB" unicode="&#x639;" horiz-adv-x="1073" arabic-form="initial" 
d="M756 831q-160 0 -239 -98t-79 -260v-387h553v-86h-991q-82 0 -82 43t82 43h344v389q0 209 102 326t310 117h170v-87h-170z" />
    <glyph glyph-name="uniFECC" unicode="&#x639;" horiz-adv-x="1044" arabic-form="medial" 
d="M756 831q-160 0 -239 -98t-79 -260v-387h606q82 0 82 -43t-82 -43h-1044q-82 0 -82 43t82 43h344v389q0 209 102 326t310 117h170v-87h-170z" />
    <glyph glyph-name="uniFECD" unicode="&#x63a;" horiz-adv-x="1129" arabic-form="isolated" 
d="M837.5 1223q20.5 -20 20.5 -47q0 -31 -20.5 -51.5t-49.5 -20.5q-28 0 -49 21t-21 51q0 27 21 47t49 20q29 0 49.5 -20zM811 831q-160 0 -238.5 -98t-78.5 -260v-387h553v-86h-715q-81 0 -130.5 -42t-49.5 -142q0 -96 48 -135t130 -39h332v-86h-332q-139 0 -204 70
t-65 188q0 119 66 195.5t203 76.5h69v389q0 209 102 326t310 117h170v-87h-170z" />
    <glyph glyph-name="uniFECE" unicode="&#x63a;" horiz-adv-x="1093" arabic-form="final" 
d="M811 831q-160 0 -238.5 -98t-78.5 -260v-387h598q82 0 82 -43t-82 -43h-760q-81 0 -130.5 -42t-49.5 -142q0 -96 48 -135t130 -39h332v-86h-332q-139 0 -204 70t-65 188q0 119 66 195.5t203 76.5h69v389q0 209 102 326t310 117h170v-87h-170zM837.5 1223
q20.5 -20 20.5 -47q0 -31 -20.5 -51.5t-49.5 -20.5q-28 0 -49 21t-21 51q0 27 21 47t49 20q29 0 49.5 -20z" />
    <glyph glyph-name="uniFECF" unicode="&#x63a;" horiz-adv-x="1073" arabic-form="initial" 
d="M756 831q-160 0 -239 -98t-79 -260v-387h553v-86h-991q-82 0 -82 43t82 43h344v389q0 209 102 326t310 117h170v-87h-170zM776.5 1223q20.5 -20 20.5 -47q0 -31 -20.5 -51.5t-49.5 -20.5q-28 0 -49 21t-21 51q0 27 21 47t49 20q29 0 49.5 -20z" />
    <glyph glyph-name="uniFED0" unicode="&#x63a;" horiz-adv-x="1044" arabic-form="medial" 
d="M756 831q-160 0 -239 -98t-79 -260v-387h606q82 0 82 -43t-82 -43h-1044q-82 0 -82 43t82 43h344v389q0 209 102 326t310 117h170v-87h-170zM776.5 1223q20.5 -20 20.5 -47q0 -31 -20.5 -51.5t-49.5 -20.5q-28 0 -49 21t-21 51q0 27 21 47t49 20q29 0 49.5 -20z" />
    <glyph glyph-name="uniFED1" unicode="&#x641;" horiz-adv-x="2053" arabic-form="isolated" 
d="M1626.5 1223q20.5 -20 20.5 -47q0 -31 -20.5 -51.5t-49.5 -20.5q-28 0 -49 21t-21 51q0 27 21 47t49 20q29 0 49.5 -20zM457 0q-198 0 -294.5 103t-96.5 300v314h94v-326q0 -147 75.5 -226t233.5 -79h672v389q0 209 102 326t309 117h346v-918h-1441zM1235 473v-387h569
v745h-252q-317 0 -317 -358z" />
    <glyph glyph-name="uniFED2" unicode="&#x641;" horiz-adv-x="2033" arabic-form="final" 
d="M2032 86q82 0 82 -43t-82 -43h-1575q-391 0 -391 403v314h94v-326q0 -147 75.5 -226t233.5 -79h672v389q0 209 102 326t309 117h346v-832h134zM1235 473v-387h569v745h-252q-317 0 -317 -358zM1626.5 1223q20.5 -20 20.5 -47q0 -31 -20.5 -51.5t-49.5 -20.5q-28 0 -49 21
t-21 51q0 27 21 47t49 20q29 0 49.5 -20z" />
    <glyph glyph-name="uniFED3" unicode="&#x641;" horiz-adv-x="1253" arabic-form="initial" 
d="M0 0q-82 0 -82 43t82 43h342v389q0 209 102 326t310 117h346v-918h-1100zM436 473v-387h570v745h-252q-318 0 -318 -358zM831.5 1223q20.5 -20 20.5 -47q0 -31 -20.5 -51.5t-49.5 -20.5q-28 0 -49 21t-21 51q0 27 21 47t49 20q29 0 49.5 -20z" />
    <glyph glyph-name="uniFED4" unicode="&#x641;" horiz-adv-x="1233" arabic-form="medial" 
d="M1233 86q82 0 82 -43t-82 -43h-1233q-82 0 -82 43t82 43h342v389q0 209 102 326t310 117h346v-832h133zM436 473v-387h570v745h-252q-318 0 -318 -358zM831.5 1223q20.5 -20 20.5 -47q0 -31 -20.5 -51.5t-49.5 -20.5q-28 0 -49 21t-21 51q0 27 21 47t49 20q29 0 49.5 -20
z" />
    <glyph glyph-name="uniFED5" unicode="&#x642;" horiz-adv-x="1527" arabic-form="isolated" 
d="M1028.5 1452.5q20.5 -19.5 20.5 -47.5q0 -31 -20.5 -51.5t-49.5 -20.5q-28 0 -48.5 21t-20.5 51q0 28 20.5 47.5t48.5 19.5q29 0 49.5 -19.5zM1233.5 1452.5q20.5 -19.5 20.5 -47.5q0 -31 -20.5 -51.5t-49.5 -20.5q-28 0 -49 21t-21 51q0 27 21 47t49 20q29 0 49.5 -19.5
zM1234.5 -208q-149.5 -148 -439.5 -148h-142q-300 0 -443.5 141t-143.5 444v174h94v-176q0 -138 38 -246.5t145.5 -179.5t303.5 -71h101q210 0 329 63.5t165.5 173.5t47.5 269h-663v475q0 209 102 325.5t309 116.5h346v-917q0 -296 -149.5 -444zM799.5 968.5
q-78.5 -98.5 -78.5 -259.5v-387h569v745h-252q-160 0 -238.5 -98.5z" />
    <glyph glyph-name="uniFED6" unicode="&#x642;" horiz-adv-x="1519" arabic-form="final" 
d="M1518 86q81 0 81 -43t-81 -43h-134q0 -296 -149.5 -444t-439.5 -148h-142q-300 0 -443.5 141t-143.5 445v174h94v-176q0 -138 38 -247t145.5 -180t303.5 -71h101q210 0 329 63.5t165.5 173.5t47.5 269h-663v475q0 209 102 326t309 117h346v-832h134zM721 473v-387h569
v745h-252q-317 0 -317 -358zM997.5 1227.5q20.5 -19.5 20.5 -47.5q0 -31 -20.5 -51.5t-49.5 -20.5q-28 0 -48.5 21t-20.5 51q0 28 20.5 47.5t48.5 19.5q29 0 49.5 -19.5zM1202.5 1227.5q20.5 -19.5 20.5 -47.5q0 -31 -20.5 -51.5t-49.5 -20.5q-28 0 -49 21t-21 51
q0 27 21 47t49 20q29 0 49.5 -19.5z" />
    <glyph glyph-name="uniFED7" unicode="&#x642;" horiz-adv-x="1253" arabic-form="initial" 
d="M0 0q-82 0 -82 43t82 43h342v389q0 209 102 326t310 117h346v-918h-1100zM436 473v-387h570v745h-252q-318 0 -318 -358zM704.5 1227.5q20.5 -19.5 20.5 -47.5q0 -31 -20.5 -51.5t-49.5 -20.5q-28 0 -48.5 21t-20.5 51q0 28 20.5 47.5t48.5 19.5q29 0 49.5 -19.5z
M909.5 1227.5q20.5 -19.5 20.5 -47.5q0 -31 -20.5 -51.5t-49.5 -20.5q-28 0 -49 21t-21 51q0 27 21 47t49 20q29 0 49.5 -19.5z" />
    <glyph glyph-name="uniFED8" unicode="&#x642;" horiz-adv-x="1233" arabic-form="medial" 
d="M1233 86q82 0 82 -43t-82 -43h-1233q-82 0 -82 43t82 43h342v389q0 209 102 326t310 117h346v-832h133zM436 473v-387h570v745h-252q-318 0 -318 -358zM704.5 1227.5q20.5 -19.5 20.5 -47.5q0 -31 -20.5 -51.5t-49.5 -20.5q-28 0 -48.5 21t-20.5 51q0 28 20.5 47.5
t48.5 19.5q29 0 49.5 -19.5zM909.5 1227.5q20.5 -19.5 20.5 -47.5q0 -31 -20.5 -51.5t-49.5 -20.5q-28 0 -49 21t-21 51q0 27 21 47t49 20q29 0 49.5 -19.5z" />
    <glyph glyph-name="uniFED9" unicode="&#x643;" horiz-adv-x="1535" arabic-form="isolated" 
d="M457 0q-201 0 -296 102.5t-95 300.5v314h94v-326q0 -147 75.5 -226t233.5 -79h817v1280h94v-1366h-923zM633 897h207q59 0 85.5 -29t26.5 -86v-190h-440v63h379v119q0 60 -57 60h-273v34q0 31 13.5 51t52.5 46l153 102v-74z" />
    <glyph glyph-name="uniFEDA" unicode="&#x643;" horiz-adv-x="1514" arabic-form="final" 
d="M1513 86q82 0 82 -43t-82 -43h-1056q-201 0 -296 102.5t-95 300.5v314h94v-326q0 -147 75.5 -226t233.5 -79h817v1280h94v-1280h133zM631 897h207q59 0 85.5 -29t26.5 -86v-190h-440v63h379v119q0 60 -58 60h-272v34q0 31 13.5 51t52.5 46l153 102v-74z" />
    <glyph glyph-name="uniFEDB" unicode="&#x643;" horiz-adv-x="1499" arabic-form="initial" 
d="M432 918h563q200 0 295.5 -103t95.5 -301v-514h-1386q-82 0 -82 43t82 43h1292v440q0 305 -309 305h-682v25q0 36 24 67.5t66 63.5t133 94l512 342v-98z" />
    <glyph glyph-name="uniFEDC" unicode="&#x643;" horiz-adv-x="1518" arabic-form="medial" 
d="M432 918h563q200 0 295.5 -103t95.5 -301v-428h132q81 0 81 -43t-81 -43h-1518q-82 0 -82 43t82 43h1292v440q0 305 -309 305h-682v25q0 36 24 67.5t66 63.5t133 94l512 342v-98z" />
    <glyph glyph-name="uniFEDD" unicode="&#x644;" horiz-adv-x="1240" arabic-form="isolated" 
d="M957.5 -295.5q-127.5 -148.5 -379.5 -148.5q-262 0 -387 137t-125 393v553h94v-584q0 -206 108 -309.5t310 -103.5q134 0 226.5 51.5t139.5 144t47 213.5v1315h94v-1241q0 -272 -127.5 -420.5z" />
    <glyph glyph-name="uniFEDE" unicode="&#x644;" horiz-adv-x="1297" arabic-form="final" 
d="M1296 86q82 0 82 -43t-82 -43h-215q-13 -116 -72 -217t-168 -164t-263 -63q-262 0 -387 137t-125 393v553h94v-584q0 -206 108 -309.5t310 -103.5q134 0 226.5 51.5t139.5 144t47 213.5v1315h94v-1280h211z" />
    <glyph glyph-name="uniFEDF" unicode="&#x644;" horiz-adv-x="590" arabic-form="initial" 
d="M0 0q-82 0 -82 43t82 43h342v1280h94v-1366h-436z" />
    <glyph glyph-name="uniFEE0" unicode="&#x644;" horiz-adv-x="563" arabic-form="medial" 
d="M563 86q82 0 82 -43t-82 -43h-563q-82 0 -82 43t82 43h342v1280h94v-1280h127z" />
    <glyph glyph-name="uniFEE1" unicode="&#x645;" horiz-adv-x="1279" arabic-form="isolated" 
d="M203 -47.5q-49 -47.5 -49 -136.5v-260h-88v280q0 47 26 105.5t84 101.5t148 43h63v389q0 209 102 326t310 117h346v-918h-817q-76 0 -125 -47.5zM481 473v-387h570v745h-252q-318 0 -318 -358z" />
    <glyph glyph-name="uniFEE2" unicode="&#x645;" horiz-adv-x="1279" arabic-form="final" 
d="M1327.5 84q15.5 -2 24 -10t8.5 -27q0 -23 -7.5 -33t-23 -12t-51.5 -2h-950q-76 0 -125 -47.5t-49 -136.5v-260h-88v280q0 47 26 105.5t84 101.5t148 43h63v389q0 209 102 326t310 117h346v-832h133q34 0 49.5 -2zM481 473v-387h570v745h-252q-318 0 -318 -358z" />
    <glyph glyph-name="uniFEE3" unicode="&#x645;" horiz-adv-x="1206" arabic-form="initial" 
d="M992 801q102 -117 102 -326v-475h-1094q-82 0 -82 43t82 43h336v832h346q208 0 310 -117zM430 86h569v387q0 358 -317 358h-252v-745z" />
    <glyph glyph-name="uniFEE4" unicode="&#x645;" horiz-adv-x="1227" arabic-form="medial" 
d="M992 801q102 -117 102 -326v-389h133q82 0 82 -43t-82 -43h-1227q-82 0 -82 43t82 43h336v832h346q208 0 310 -117zM430 86h569v387q0 358 -317 358h-252v-745z" />
    <glyph glyph-name="uniFEE5" unicode="&#x646;" horiz-adv-x="1240" arabic-form="isolated" 
d="M612.5 1164q20.5 -20 20.5 -47q0 -31 -20.5 -51.5t-49.5 -20.5q-28 0 -49 21t-21 51q0 27 21 47t49 20q29 0 49.5 -20zM1025.5 -199.5q-59.5 -115.5 -174 -180t-273.5 -64.5q-262 0 -387 137t-125 393v553h94v-584q0 -206 108 -309.5t310 -103.5q134 0 226.5 51.5
t139.5 144t47 213.5v867h94v-852q0 -150 -59.5 -265.5z" />
    <glyph glyph-name="uniFEE6" unicode="&#x646;" horiz-adv-x="1297" arabic-form="final" 
d="M1296 86q82 0 82 -43t-82 -43h-215q-12 -132 -74.5 -232.5t-172 -156t-256.5 -55.5q-262 0 -387 137t-125 393v553h94v-584q0 -206 108 -309.5t310 -103.5q134 0 226.5 51.5t139.5 144t47 213.5v867h94v-832h211zM614.5 1164q20.5 -20 20.5 -47q0 -31 -20.5 -51.5
t-49.5 -20.5q-28 0 -49 21t-21 51q0 27 21 47t49 20q29 0 49.5 -20z" />
    <glyph glyph-name="uniFEE7" unicode="&#x646;" horiz-adv-x="590" arabic-form="initial" 
d="M0 0q-82 0 -82 43t82 43h344v832h92v-918h-436zM436.5 1223q20.5 -20 20.5 -47q0 -31 -20.5 -51.5t-49.5 -20.5q-28 0 -49 21t-21 51q0 27 21 47t49 20q29 0 49.5 -20z" />
    <glyph glyph-name="uniFEE8" unicode="&#x646;" horiz-adv-x="563" arabic-form="medial" 
d="M563 86q82 0 82 -43t-82 -43h-563q-82 0 -82 43t82 43h344v832h92v-832h127zM436.5 1223q20.5 -20 20.5 -47q0 -31 -20.5 -51.5t-49.5 -20.5q-28 0 -49 21t-21 51q0 27 21 47t49 20q29 0 49.5 -20z" />
    <glyph glyph-name="uniFEE9" unicode="&#x647;" horiz-adv-x="998" arabic-form="isolated" 
d="M86 0v475q0 209 102 326t310 117h346v-918h-758zM180 473v-387h570v745h-252q-318 0 -318 -358z" />
    <glyph glyph-name="uniFEEA" unicode="&#x647;" horiz-adv-x="978" arabic-form="final" 
d="M977 86q82 0 82 -43t-82 -43h-891v475q0 209 102 326t310 117h346v-832h133zM180 473v-387h570v745h-252q-318 0 -318 -358z" />
    <glyph glyph-name="uniFEEB" unicode="&#x647;" horiz-adv-x="1620" arabic-form="initial" 
d="M1305.5 808q122.5 -100 172.5 -278t50 -444v-86h-1528q-82 0 -82 43t82 43h315q0 266 49.5 443.5t172.5 278t337 109.5v101h95v-101q214 -9 336.5 -109zM1381 513q-53 160 -154.5 233t-257.5 82v-742h465q0 267 -53 427zM874 828q-156 -9 -257.5 -82t-154 -233
t-52.5 -427h464v742z" />
    <glyph glyph-name="uniFEEC" unicode="&#x647;" horiz-adv-x="1661" arabic-form="medial" 
d="M1743 43q0 -43 -82 -43h-1661q-82 0 -82 43t82 43h315q0 266 49.5 443.5t172.5 278t337 109.5v101h95v-101q214 -9 336.5 -109t172.5 -278t50 -444h133q82 0 82 -43zM1381 513q-53 160 -154.5 233t-257.5 82v-742h465q0 267 -53 427zM874 828q-156 -9 -257.5 -82
t-154 -233t-52.5 -427h464v742z" />
    <glyph glyph-name="uniFEED" unicode="&#x648;" horiz-adv-x="1097" arabic-form="isolated" 
d="M541 -358q118 0 187.5 41t99.5 119.5t30 197.5h-663v475q0 209 102 326t309 117h346l-2 -918q-2 -209 -90.5 -326.5t-267.5 -117.5h-268v86h217zM858 831h-252q-317 0 -317 -358v-387h569v745z" />
    <glyph glyph-name="uniFEEE" unicode="&#x648;" horiz-adv-x="1086" arabic-form="final" 
d="M1085 86q82 0 82 -43t-82 -43h-135q-2 -209 -90.5 -326.5t-267.5 -117.5h-268v86h217q118 0 187.5 41t99.5 119.5t30 197.5h-663v475q0 209 102 326t309 117h346v-832h133zM289 473v-387h569v745h-252q-317 0 -317 -358z" />
    <glyph glyph-name="uniFEEF" unicode="&#x649;" horiz-adv-x="1816" arabic-form="isolated" 
d="M1567 0v831h-172q-159 0 -234.5 -78.5t-75.5 -226.5v-460q0 -150 -59.5 -265.5t-174 -180t-273.5 -64.5q-262 0 -387 137t-125 393v553h94v-584q0 -206 108 -309.5t310 -103.5q134 0 226.5 51.5t139.5 144t47 213.5v463q0 404 391 404h279v-918h-94z" />
    <glyph glyph-name="uniFEF0" unicode="&#x649;" horiz-adv-x="1793" arabic-form="final" 
d="M1792 86q82 0 82 -43t-82 -43h-225v831h-172q-159 0 -234.5 -78.5t-75.5 -226.5v-460q0 -150 -59.5 -265.5t-174 -180t-273.5 -64.5q-262 0 -387 137t-125 393v553h94v-584q0 -206 108 -309.5t310 -103.5q134 0 226.5 51.5t139.5 144t47 213.5v463q0 404 391 404h279
v-832h131z" />
    <glyph glyph-name="uniFEF1" unicode="&#x64a;" horiz-adv-x="1816" arabic-form="isolated" 
d="M1567 0v831h-172q-159 0 -234.5 -78.5t-75.5 -226.5v-460q0 -150 -59.5 -265.5t-174 -180t-273.5 -64.5q-262 0 -387 137t-125 393v553h94v-584q0 -206 108 -309.5t310 -103.5q134 0 226.5 51.5t139.5 144t47 213.5v463q0 404 391 404h279v-918h-94zM548.5 -554.5
q20.5 -20.5 20.5 -51.5q0 -28 -20.5 -48t-49.5 -20q-28 0 -48.5 20t-20.5 48q0 30 20.5 51t48.5 21q29 0 49.5 -20.5zM753.5 -554.5q20.5 -20.5 20.5 -51.5q0 -28 -20.5 -48t-49.5 -20q-28 0 -49 20t-21 48q0 30 21 51t49 21q29 0 49.5 -20.5z" />
    <glyph glyph-name="uniFEF2" unicode="&#x64a;" horiz-adv-x="1793" arabic-form="final" 
d="M1792 86q82 0 82 -43t-82 -43h-225v831h-172q-159 0 -234.5 -78.5t-75.5 -226.5v-460q0 -150 -59.5 -265.5t-174 -180t-273.5 -64.5q-262 0 -387 137t-125 393v553h94v-584q0 -206 108 -309.5t310 -103.5q134 0 226.5 51.5t139.5 144t47 213.5v463q0 404 391 404h279
v-832h131zM534.5 -554.5q20.5 -20.5 20.5 -51.5q0 -28 -20.5 -48t-49.5 -20q-28 0 -48.5 20t-20.5 48q0 30 20.5 51t48.5 21q29 0 49.5 -20.5zM739.5 -554.5q20.5 -20.5 20.5 -51.5q0 -28 -20.5 -48t-49.5 -20q-28 0 -49 20t-21 48q0 30 21 51t49 21q29 0 49.5 -20.5z" />
    <glyph glyph-name="uniFEF3" unicode="&#x64a;" horiz-adv-x="631" arabic-form="initial" 
d="M354.5 -161.5q20.5 -20.5 20.5 -51.5q0 -28 -20.5 -48t-49.5 -20q-28 0 -48.5 20t-20.5 48q0 30 20.5 51t48.5 21q29 0 49.5 -20.5zM559.5 -161.5q20.5 -20.5 20.5 -51.5q0 -28 -20.5 -48t-49.5 -20q-28 0 -49 20t-21 48q0 30 21 51t49 21q29 0 49.5 -20.5zM0 0
q-82 0 -82 43t82 43h406v832h92v-918h-498z" />
    <glyph glyph-name="uniFEF4" unicode="&#x64a;" horiz-adv-x="666" arabic-form="medial" 
d="M385.5 -161.5q20.5 -20.5 20.5 -51.5q0 -28 -20.5 -48t-49.5 -20q-28 0 -48.5 20t-20.5 48q0 30 20.5 51t48.5 21q29 0 49.5 -20.5zM590.5 -161.5q20.5 -20.5 20.5 -51.5q0 -28 -20.5 -48t-49.5 -20q-28 0 -49 20t-21 48q0 30 21 51t49 21q29 0 49.5 -20.5zM666 86
q82 0 82 -43t-82 -43h-666q-82 0 -82 43t82 43h406v832h92v-832h168z" />
    <glyph glyph-name=".notdef" horiz-adv-x="1025" 
d="M25 0v1362h972v-1362h-972zM512 768l330 498h-662zM453 682l-330 496v-992zM901 184v994l-332 -496zM842 98l-330 496l-332 -496h662z" />
    <glyph glyph-name="glyph1" horiz-adv-x="1161" 
 />
    <glyph glyph-name="glyph1" horiz-adv-x="1161" 
 />
    <glyph glyph-name="uni000D" unicode="&#xd;" horiz-adv-x="471" 
 />
    <glyph glyph-name="space" unicode=" " horiz-adv-x="471" 
 />
    <glyph glyph-name="exclam" unicode="!" horiz-adv-x="697" 
d="M406 1360l-17 -979h-82l-16 979h115zM401 238v-238h-106v238h106z" />
    <glyph glyph-name="quotedbl" unicode="&#x22;" horiz-adv-x="841" 
d="M348 1360l-16 -463h-82l-17 463h115zM606 1360l-16 -463h-82l-16 463h114z" />
    <glyph glyph-name="numbersign" unicode="#" horiz-adv-x="1680" 
d="M963 0l53 371h-443l-53 -371h-90l53 371h-368l12 90h371l61 438h-371l13 90h372l54 371h90l-53 -371h442l53 371h90l-53 -371h369l-13 -90h-370l-62 -438h371l-12 -90h-373l-53 -371h-90zM588 461h442l62 438h-443z" />
    <glyph glyph-name="dollar" unicode="$" 
d="M225 0v100h422v541h-65q-185 0 -281 88.5t-96 269.5q0 182 96.5 271.5t280.5 89.5h65v188h94v-188h394v-98h-394v-521h66q184 0 282.5 -93t98.5 -275q0 -183 -99 -278t-282 -95h-66v-209h-94v209h-422zM379.5 1199q-64.5 -63 -64.5 -198q0 -134 64.5 -197t198.5 -63h69
v521h-69q-134 0 -198.5 -63zM1009.5 166q67.5 66 67.5 207q0 139 -67 203.5t-207 64.5h-62v-541h62q139 0 206.5 66z" />
    <glyph glyph-name="percent" unicode="%" horiz-adv-x="1709" 
d="M202 759q-79 93 -79 265t79 265t224 93q144 0 223.5 -93.5t79.5 -264.5t-79.5 -264.5t-223.5 -93.5q-145 0 -224 93zM1282 1360l-756 -1360h-100l756 1360h100zM579 820.5q52 68.5 52 203.5t-52 203.5t-153 68.5t-153 -68.5t-52 -203.5t52 -203.5t153 -68.5t153 68.5z
M1058.5 70.5q-79.5 93.5 -79.5 265.5q0 171 79.5 264.5t223.5 93.5q145 0 224 -93t79 -265t-79 -265.5t-224 -93.5q-144 0 -223.5 93.5zM1435 132q52 69 52 204t-52 203.5t-153 68.5t-153 -68.5t-52 -203.5t52 -204t153 -69t153 69z" />
    <glyph glyph-name="ampersand" unicode="&#x26;" 
d="M255 94q-99 94 -99 271q0 164 72 249.5t190 102.5q-79 13 -144 79.5t-65 215.5q0 168 91.5 258t260.5 90h365v-98h-348q-130 0 -194.5 -61t-64.5 -189t64.5 -189t194.5 -61h733v-98h-209v-664h-553q-195 0 -294 94zM266 381q0 -144 73 -213.5t218 -69.5h442v566h-442
q-291 0 -291 -283z" />
    <glyph glyph-name="quotesingle" unicode="'" horiz-adv-x="583" 
d="M348 1360l-16 -463h-82l-17 463h115z" />
    <glyph glyph-name="parenleft" unicode="(" horiz-adv-x="697" 
d="M345 -86.5q-77 97.5 -160 301.5t-83 465t83 465t160 301.5t147 167.5h110q-159 -159 -274 -391.5t-115 -542.5t115 -542.5t274 -391.5h-110q-70 70 -147 167.5z" />
    <glyph glyph-name="parenright" unicode=")" horiz-adv-x="697" 
d="M368 137.5q115 232.5 115 542.5t-115 542.5t-274 391.5h111q82 -87 152.5 -176t153.5 -293t83 -465t-83 -465t-153.5 -293t-152.5 -176h-111q159 159 274 391.5z" />
    <glyph glyph-name="asterisk" unicode="*" horiz-adv-x="882" 
d="M279 762l-74 57l168 217l-258 82l28 90l254 -86l-4 260h94l-4 -260l254 86l29 -90l-258 -82l168 -217l-74 -57l-162 225z" />
    <glyph glyph-name="plus" unicode="+" 
d="M649 154v481h-481v90h481v481h94v-481h482v-90h-482v-481h-94z" />
    <glyph glyph-name="comma" unicode="," horiz-adv-x="513" 
d="M344 238l-139 -463h-82l106 463h115z" />
    <glyph glyph-name="hyphen" unicode="-" horiz-adv-x="697" 
d="M594 567v-98h-492v98h492z" />
    <glyph glyph-name="period" unicode="." horiz-adv-x="513" 
d="M309 238v-238h-106v238h106z" />
    <glyph glyph-name="slash" unicode="/" horiz-adv-x="923" 
d="M860 1384l-696 -1409h-103l697 1409h102z" />
    <glyph glyph-name="zero" unicode="0" 
d="M383 59.5q-128 82.5 -194 240t-66 380.5t66 380t194 239.5t313 82.5t313.5 -82.5t194.5 -239.5t66 -380t-66 -380.5t-194.5 -240t-313.5 -82.5t-313 82.5zM1043 230.5q116 156.5 116 449.5t-116 449.5t-347 156.5q-230 0 -346.5 -156.5t-116.5 -449.5t116.5 -449.5
t346.5 -156.5q231 0 347 156.5z" />
    <glyph glyph-name="one" unicode="1" horiz-adv-x="697" 
d="M123 1262v98h317v-1360h-104v1262h-213z" />
    <glyph glyph-name="two" unicode="2" 
d="M294 645.5q95 93.5 279 93.5h258q133 0 198 64t65 196t-66.5 196.5t-200.5 64.5h-589v100h589q184 0 280.5 -90.5t96.5 -270.5q0 -179 -97 -269.5t-280 -90.5h-249q-139 0 -207 -66t-68 -204v-269h881v-100h-985v369q0 183 95 276.5z" />
    <glyph glyph-name="three" unicode="3" 
d="M774 100q152 0 227.5 68.5t75.5 212.5q0 143 -75.5 213t-227.5 70h-471v98h451q136 0 203 61t67 189t-67 188t-203 60h-545v100h553q186 0 279.5 -86t93.5 -262q0 -154 -66.5 -216.5t-142.5 -78.5q116 -18 189 -99.5t73 -248.5q0 -182 -102 -275.5t-304 -93.5h-585v100
h577z" />
    <glyph glyph-name="four" unicode="4" 
d="M78 346v98l921 916h119v-916h254v-98h-254v-346h-104v346h-936zM1014 444v795l-801 -795h801z" />
    <glyph glyph-name="five" unicode="5" 
d="M799 100q154 0 224.5 70.5t70.5 224.5t-70.5 224.5t-224.5 70.5h-559v670h903v-100h-799v-469h467q196 0 294.5 -99.5t98.5 -296.5q0 -395 -393 -395h-586v100h574z" />
    <glyph glyph-name="six" unicode="6" 
d="M419 1133.5q-118 -128.5 -143 -326.5l-2 -16h504q222 0 357 -92.5t135 -297.5q0 -140 -65.5 -235.5t-180.5 -142t-262 -46.5q-297 0 -451.5 172.5t-154.5 514.5q0 227 73.5 382.5t213.5 234.5t339 79h439v-98h-451q-233 0 -351 -128.5zM388.5 221.5
q122.5 -143.5 369.5 -143.5q182 0 291.5 79t109.5 240q0 160 -103.5 227.5t-287.5 67.5h-502v-33q0 -294 122.5 -437.5z" />
    <glyph glyph-name="seven" unicode="7" 
d="M102 1260v100h1188v-98l-839 -1262h-127l843 1260h-1065z" />
    <glyph glyph-name="eight" unicode="8" 
d="M1109.5 671.5q61.5 -33.5 109 -106t47.5 -188.5q0 -135 -50.5 -221.5t-175 -132.5t-344.5 -46q-219 0 -343.5 46t-175 133t-50.5 221q0 116 47 188.5t108.5 106t118.5 45.5q-44 8 -93 38t-86.5 96.5t-37.5 172.5q0 178 123.5 268t388.5 90q266 0 389 -90t123 -268
q0 -106 -37.5 -172.5t-86.5 -96.5t-93 -38q57 -12 118.5 -45.5zM1054 1180q-44 57 -131 80.5t-227 23.5q-139 0 -226 -23.5t-131 -80.5t-44 -158q0 -100 44.5 -157t131.5 -80t225 -23t225 23t132 80t45 157q0 101 -44 158zM1099.5 554.5q-55.5 63.5 -154 86.5t-249.5 23
t-249.5 -23t-153.5 -86.5t-55 -181.5t54.5 -182t153 -87.5t250.5 -23.5q153 0 251.5 23.5t153 87.5t54.5 182t-55.5 181.5z" />
    <glyph glyph-name="nine" unicode="9" 
d="M623 100q233 0 350.5 127.5t142.5 325.5l2 16h-504q-222 0 -356.5 92.5t-134.5 296.5q0 141 65.5 236t180 141.5t262.5 46.5q297 0 451.5 -172t154.5 -514q0 -227 -73.5 -382.5t-213.5 -234.5t-340 -79h-438v100h451zM1004 1139.5q-122 144.5 -369 144.5q-182 0 -292 -80
t-110 -241q0 -160 103.5 -227.5t288.5 -67.5h501v32q0 295 -122 439.5z" />
    <glyph glyph-name="colon" unicode=":" horiz-adv-x="513" 
d="M309 999v-237h-106v237h106zM309 238v-238h-106v238h106z" />
    <glyph glyph-name="semicolon" unicode=";" horiz-adv-x="513" 
d="M309 999v-237h-106v237h106zM344 238l-139 -463h-82l106 463h115z" />
    <glyph glyph-name="less" unicode="&#x3c;" 
d="M1225 1208v-102l-946 -426l946 -426v-102l-1057 477v102z" />
    <glyph glyph-name="equal" unicode="=" 
d="M1225 938v-90h-1057v90h1057zM1225 512v-90h-1057v90h1057z" />
    <glyph glyph-name="greater" unicode="&#x3e;" 
d="M1114 680l-946 426v102l1057 -477v-102l-1057 -477v102z" />
    <glyph glyph-name="question" unicode="?" horiz-adv-x="1107" 
d="M299.5 616q29.5 66 95.5 95.5t180 29.5h27q135 0 197.5 62.5t62.5 197.5q0 136 -62.5 198.5t-197.5 62.5h-430v98h444q175 0 267 -92.5t92 -268.5q0 -175 -91.5 -265.5t-267.5 -90.5h-34q-84 0 -127.5 -17t-60.5 -60.5t-17 -127.5v-57h-107v55q0 114 29.5 180zM377 238
v-238h-107v238h107z" />
    <glyph glyph-name="at" unicode="@" horiz-adv-x="1578" 
d="M426.5 -109q-149.5 71 -220.5 220.5t-71 388.5t71 388.5t220.5 220.5t388.5 71h172q130 0 206.5 -34.5t111 -111t34.5 -207.5v-647h-508q-156 0 -237.5 81.5t-81.5 238.5t81.5 238t237.5 81h406v25q0 90 -23.5 142t-75.5 75.5t-143 23.5h-164q-218 0 -344.5 -57
t-183.5 -183.5t-57 -344.5t57 -345t183.5 -184t344.5 -57h508v-94h-524q-239 0 -388.5 71zM671 672q-53 -53 -53 -172q0 -120 53 -173t173 -53h393v451h-393q-120 0 -173 -53z" />
    <glyph glyph-name="A" unicode="A" horiz-adv-x="1212" 
d="M270 389l-147 -389h-111l529 1360h131l528 -1360h-119l-147 389h-664zM895 492l-293 778l-293 -778h586z" />
    <glyph glyph-name="B" unicode="B" horiz-adv-x="1332" 
d="M795 1360q179 0 269.5 -86t90.5 -262q0 -154 -66 -216.5t-143 -78.5q116 -18 189 -99.5t73 -248.5q0 -182 -98.5 -275.5t-294.5 -93.5h-598v1360h578zM976 823q64 61 64 189t-64 189t-194 61h-458v-500h458q130 0 194 61zM1021 169q73 69 73 212t-73 212t-218 69h-479
v-562h479q145 0 218 69z" />
    <glyph glyph-name="C" unicode="C" horiz-adv-x="1160" 
d="M273.5 166q-150.5 166 -150.5 514t150.5 514t459.5 166h344v-100h-319q-190 0 -304 -61t-165 -188t-51 -331t51 -331t165 -188t304 -61h323v-100h-348q-309 0 -459.5 166z" />
    <glyph glyph-name="D" unicode="D" horiz-adv-x="1439" 
d="M705 1360q309 0 459.5 -166t150.5 -514t-150.5 -514t-459.5 -166h-488v1360h488zM984 161q114 61 165 188t51 331t-51 331t-165 188t-304 61h-356v-1160h356q190 0 304 61z" />
    <glyph glyph-name="E" unicode="E" horiz-adv-x="1201" 
d="M273.5 166q-150.5 166 -150.5 514t150.5 514t459.5 166h324v-100h-307q-181 0 -291.5 -58.5t-162 -172t-58.5 -288.5h802v-100h-802q4 -185 55.5 -303.5t163 -178t293.5 -59.5h323v-100h-340q-309 0 -459.5 166z" />
    <glyph glyph-name="F" unicode="F" horiz-adv-x="1086" 
d="M205 0v868q0 249 121.5 370.5t369.5 121.5h308v-100h-297q-140 0 -227 -41t-128 -128t-41 -227v-123h664v-100h-664v-641h-106z" />
    <glyph glyph-name="G" unicode="G" horiz-adv-x="1416" 
d="M273.5 166q-150.5 166 -150.5 514t150.5 514t459.5 166h434v-100h-409q-190 0 -304 -61t-165 -188t-51 -331t51 -331t165 -188t304 -61h356v541h-442v100h549v-741h-488q-309 0 -459.5 166z" />
    <glyph glyph-name="H" unicode="H" horiz-adv-x="1484" 
d="M324 641v-641h-107v1360h107v-619h835v619h107v-1360h-107v641h-835z" />
    <glyph glyph-name="I" unicode="I" horiz-adv-x="542" 
d="M324 1360v-1360h-107v1360h107z" />
    <glyph glyph-name="J" unicode="J" horiz-adv-x="964" 
d="M256 100q140 0 227 41t127.5 127.5t40.5 227.5v864h107v-868q0 -249 -121.5 -370.5t-370.5 -121.5h-213v100h203z" />
    <glyph glyph-name="K" unicode="K" horiz-adv-x="1209" 
d="M324 0h-107v1360h107v-664l700 664h143l-704 -668l717 -692h-156l-700 680v-680z" />
    <glyph glyph-name="L" unicode="L" horiz-adv-x="1045" 
d="M326.5 121.5q-121.5 121.5 -121.5 370.5v868h106v-864q0 -140 41 -227t128 -128t227 -41h284v-100h-295q-248 0 -369.5 121.5z" />
    <glyph glyph-name="M" unicode="M" horiz-adv-x="1783" 
d="M954 0h-131l-504 1257v-1257h-102v1360h176l498 -1245l498 1245h176v-1360h-107v1257z" />
    <glyph glyph-name="N" unicode="N" horiz-adv-x="1484" 
d="M319 0h-102v1360h123l823 -1196v1196h103v-1360h-115l-832 1208v-1208z" />
    <glyph glyph-name="O" unicode="O" horiz-adv-x="1480" 
d="M402 58.5q-138 81.5 -208.5 239t-70.5 382.5t70.5 382t208.5 238.5t337 81.5q200 0 338 -81.5t208.5 -238.5t70.5 -382t-70.5 -382.5t-208.5 -239t-338 -81.5q-199 0 -337 81.5zM1115 230.5q126 152.5 126 449.5t-126 449.5t-376 152.5t-375.5 -152.5t-125.5 -449.5
t125.5 -449.5t375.5 -152.5t376 152.5z" />
    <glyph glyph-name="P" unicode="P" horiz-adv-x="1275" 
d="M737 1360q204 0 309 -103.5t105 -306.5q0 -202 -105 -305.5t-309 -103.5h-413v-541h-107v1360h520zM1036 950q0 310 -311 310h-401v-619h401q311 0 311 309z" />
    <glyph glyph-name="Q" unicode="Q" horiz-adv-x="1480" 
d="M407 79.5q-138 79.5 -211 234.5t-73 378t73 377.5t211 233.5t332 79t332.5 -79t211.5 -233.5t73 -377.5q0 -201 -55 -330.5t-107.5 -181.5t-99.5 -82h319v-98h-674q-194 0 -332 79.5zM1108.5 242.5q132.5 144.5 132.5 447.5t-132.5 447.5t-369.5 144.5t-369 -144.5
t-132 -447.5t132 -447.5t369 -144.5t369.5 144.5z" />
    <glyph glyph-name="R" unicode="R" horiz-adv-x="1357" 
d="M324 598v-598h-107v1360h594q116 0 201 -44t130.5 -128.5t45.5 -202.5q0 -349 -332 -387l401 -598h-131l-399 598h-403zM1001.5 768.5q71.5 70.5 71.5 210.5t-71.5 210.5t-210.5 70.5h-467v-562h467q139 0 210.5 70.5z" />
    <glyph glyph-name="S" unicode="S" horiz-adv-x="1181" 
d="M664 100q139 0 207.5 66.5t68.5 204.5q0 137 -68.5 203.5t-207.5 66.5h-160q-184 0 -280.5 89.5t-96.5 268.5q0 180 96.5 270.5t280.5 90.5h495v-100h-495q-133 0 -198.5 -63.5t-65.5 -195.5q0 -131 65.5 -195.5t198.5 -64.5h164q189 0 287 -92t98 -278t-98 -278.5
t-287 -92.5h-516v100h512z" />
    <glyph glyph-name="T" unicode="T" horiz-adv-x="1099" 
d="M20 1262v98h1057v-98h-475v-1262h-106v1262h-476z" />
    <glyph glyph-name="U" unicode="U" horiz-adv-x="1418" 
d="M326.5 121.5q-121.5 121.5 -121.5 370.5v868h106v-864q0 -141 40.5 -227.5t127 -127.5t226.5 -41h389v1260h106v-1360h-504q-248 0 -369.5 121.5z" />
    <glyph glyph-name="V" unicode="V" horiz-adv-x="1213" 
d="M147 1360l463 -1245l463 1245h111l-512 -1360h-131l-512 1360h118z" />
    <glyph glyph-name="W" unicode="W" horiz-adv-x="1865" 
d="M586 0h-148l-381 1360h115l344 -1249l344 1249h152l344 -1249l344 1249h106l-381 -1360h-147l-346 1253z" />
    <glyph glyph-name="X" unicode="X" horiz-adv-x="1209" 
d="M152 0h-123l510 717l-461 643h127l401 -565l402 565h122l-460 -643l510 -717h-127l-451 639z" />
    <glyph glyph-name="Y" unicode="Y" horiz-adv-x="1131" 
d="M20 1360h119l430 -742l426 742h115l-492 -840v-520h-106v520z" />
    <glyph glyph-name="Z" unicode="Z" horiz-adv-x="1224" 
d="M975 1260h-854v100h981v-100l-864 -1160h874v-100h-1001v100z" />
    <glyph glyph-name="bracketleft" unicode="[" horiz-adv-x="697" 
d="M267 -229.5q-55 24.5 -79 79.5t-24 150v1360q0 95 24 150t79 79.5t151 24.5h135v-90h-127q-68 0 -101 -13t-46 -46t-13 -101v-1368q0 -68 13 -101t46 -46t101 -13h127v-90h-135q-96 0 -151 24.5z" />
    <glyph glyph-name="backslash" unicode="\" horiz-adv-x="923" 
d="M164 1384l696 -1409h-102l-697 1409h103z" />
    <glyph glyph-name="bracketright" unicode="]" horiz-adv-x="697" 
d="M270 -164q68 0 101 13t46 46t13 101v1368q0 68 -13 101t-46 46t-101 13h-127v90h136q95 0 150 -24.5t79 -79.5t24 -150v-1360q0 -95 -24 -150t-79 -79.5t-150 -24.5h-136v90h127z" />
    <glyph glyph-name="asciicircum" unicode="^" 
d="M270 508h-102l477 852h103l477 -852h-103l-426 762z" />
    <glyph glyph-name="underscore" unicode="_" horiz-adv-x="1393" 
d="M1393 -88v-90h-1393v90h1393z" />
    <glyph glyph-name="grave" unicode="`" 
d="M700 1360l107 -279h-90l-131 279h114z" />
    <glyph glyph-name="a" unicode="a" horiz-adv-x="1093" 
d="M260 36.5q-68 36.5 -104.5 105t-36.5 161.5q0 94 36.5 162t104.5 104.5t162 36.5h393v56q0 91 -23.5 143.5t-76 76t-144.5 23.5h-399v94h393q131 0 207.5 -34.5t111 -111t34.5 -206.5v-647h-496q-94 0 -162 36.5zM225 303q0 -209 209 -209h381v418h-381q-209 0 -209 -209
z" />
    <glyph glyph-name="b" unicode="b" horiz-adv-x="1115" 
d="M287 1360v-361h225q255 0 377.5 -122t122.5 -377t-122.5 -377.5t-377.5 -122.5h-328v1360h103zM731 136.5q89 42.5 131.5 132t42.5 231.5t-42.5 231t-131.5 131.5t-231 42.5h-213v-811h213q142 0 231 42.5z" />
    <glyph glyph-name="c" unicode="c" horiz-adv-x="902" 
d="M224.5 122.5q-122.5 122.5 -122.5 377.5t122.5 377t377.5 122h201v-94h-189q-142 0 -231 -42.5t-131.5 -131.5t-42.5 -231t42.5 -231.5t131.5 -132t231 -42.5h197v-94h-209q-255 0 -377.5 122.5z" />
    <glyph glyph-name="d" unicode="d" horiz-adv-x="1115" 
d="M224.5 122.5q-122.5 122.5 -122.5 377.5t122.5 377t377.5 122h225v361h103v-1360h-328q-255 0 -377.5 122.5zM383 862.5q-89 -42.5 -131.5 -131.5t-42.5 -231t42.5 -231.5t131.5 -132t231 -42.5h213v811h-213q-142 0 -231 -42.5z" />
    <glyph glyph-name="e" unicode="e" horiz-adv-x="964" 
d="M224.5 122.5q-122.5 122.5 -122.5 377.5t122.5 377t377.5 122h209v-94h-213q-183 0 -280 -82t-109 -260h590v-90h-590q3 -189 95.5 -284t293.5 -95h221v-94h-217q-255 0 -377.5 122.5z" />
    <glyph glyph-name="f" unicode="f" horiz-adv-x="656" 
d="M66 905v94h180v99q0 135 63.5 198.5t198.5 63.5h176v-94h-168q-92 0 -130 -38t-38 -130v-99h332v-94h-332v-905h-102v905h-180z" />
    <glyph glyph-name="g" unicode="g" horiz-adv-x="1115" 
d="M586 -225q90 0 142 23.5t75.5 75.5t23.5 142v9h-225q-251 0 -375.5 120t-124.5 367t124.5 367t375.5 120h328v-966q0 -131 -34.5 -207t-110.5 -110.5t-207 -34.5h-422v94h430zM306 808.5q-97 -96.5 -97 -296.5q0 -199 97 -296t296 -97h225v786h-225q-199 0 -296 -96.5z
" />
    <glyph glyph-name="h" unicode="h" horiz-adv-x="1146" 
d="M837.5 778.5q-30.5 65.5 -96 96t-172.5 30.5h-282v-905h-103v1360h103v-361h278q142 0 231.5 -42.5t132 -131.5t42.5 -231v-594h-103v606q0 107 -30.5 172.5z" />
    <glyph glyph-name="i" unicode="i" horiz-adv-x="472" 
d="M287 1360v-217h-103v217h103zM287 999v-999h-103v999h103z" />
    <glyph glyph-name="j" unicode="j" horiz-adv-x="471" 
d="M287 1360v-217h-103v217h103zM16 -225q92 0 130 38t38 130v1056h103v-1056q0 -136 -63.5 -199t-198.5 -63h-82v94h73z" />
    <glyph glyph-name="k" unicode="k" horiz-adv-x="1021" 
d="M287 0h-103v1360h103v-787l512 426h151l-520 -434l533 -565h-144l-532 565v-565z" />
    <glyph glyph-name="l" unicode="l" horiz-adv-x="472" 
d="M287 1360v-1360h-103v1360h103z" />
    <glyph glyph-name="m" unicode="m" horiz-adv-x="1592" 
d="M1284.5 778.5q-30.5 65.5 -96 96t-172.5 30.5h-168v-905h-103v905h-458v-905h-103v999h828q142 0 231 -42.5t131.5 -131.5t42.5 -231v-594h-102v606q0 107 -30.5 172.5z" />
    <glyph glyph-name="n" unicode="n" horiz-adv-x="1146" 
d="M837.5 778.5q-30.5 65.5 -96 96t-172.5 30.5h-282v-905h-103v999h381q142 0 231.5 -42.5t132 -131.5t42.5 -231v-594h-103v606q0 107 -30.5 172.5z" />
    <glyph glyph-name="o" unicode="o" horiz-adv-x="1131" 
d="M221.5 119.5q-119.5 131.5 -119.5 380.5q0 248 119.5 380t343.5 132t343.5 -132t119.5 -380q0 -249 -119.5 -380.5t-343.5 -131.5t-343.5 131.5zM922 500q0 418 -357 418q-356 0 -356 -418t356 -418q357 0 357 418z" />
    <glyph glyph-name="p" unicode="p" horiz-adv-x="1115" 
d="M512 999q255 0 377.5 -122t122.5 -377t-122.5 -377.5t-377.5 -122.5h-225v-328h-103v1327h328zM731 136.5q89 42.5 131.5 132t42.5 231.5t-42.5 231t-131.5 131.5t-231 42.5h-213v-811h213q142 0 231 42.5z" />
    <glyph glyph-name="q" unicode="q" horiz-adv-x="1115" 
d="M602 0q-255 0 -377.5 122.5t-122.5 377.5t122.5 377t377.5 122h328v-1327h-103v328h-225zM383 862.5q-89 -42.5 -131.5 -131.5t-42.5 -231t42.5 -231.5t131.5 -132t231 -42.5h213v811h-213q-142 0 -231 -42.5z" />
    <glyph glyph-name="r" unicode="r" horiz-adv-x="859" 
d="M463 999q154 0 228.5 -74.5t74.5 -228.5v-82h-102v86q0 102 -52 153.5t-153 51.5h-172v-905h-103v999h279z" />
    <glyph glyph-name="s" unicode="s" horiz-adv-x="972" 
d="M557 94q99 0 143.5 42.5t44.5 139.5q0 98 -44.5 139.5t-143.5 41.5h-156q-136 0 -207 69t-71 203t71 202t207 68h418v-94h-397q-101 0 -147 -40t-46 -136t46.5 -137t146.5 -41h151q279 0 279 -275q0 -276 -279 -276h-454v94h438z" />
    <glyph glyph-name="t" unicode="t" horiz-adv-x="808" 
d="M309.5 63.5q-63.5 63.5 -63.5 198.5v643h-180v94h180v254h102v-254h385v-94h-385v-643q0 -92 38 -130t130 -38h209v-94h-217q-135 0 -198.5 63.5z" />
    <glyph glyph-name="u" unicode="u" horiz-adv-x="1134" 
d="M348.5 42.5q-89.5 42.5 -132 132t-42.5 231.5v593h102v-606q0 -107 30.5 -172.5t96 -96t172.5 -30.5h271v905h102v-999h-368q-142 0 -231.5 42.5z" />
    <glyph glyph-name="v" unicode="v" horiz-adv-x="1025" 
d="M158 999l356 -893l356 893h113l-410 -999h-122l-410 999h117z" />
    <glyph glyph-name="w" unicode="w" horiz-adv-x="1590" 
d="M516 0h-123l-332 999h115l281 -893l280 893h119l281 -893l280 893h111l-332 -999h-123l-278 864z" />
    <glyph glyph-name="x" unicode="x" horiz-adv-x="980" 
d="M176 0h-119l365 500l-361 499h123l305 -426l306 426h118l-360 -495l369 -504h-127l-310 430z" />
    <glyph glyph-name="y" unicode="y" horiz-adv-x="1025" 
d="M41 999h117l354 -893l358 893h113l-549 -1327h-117l138 328z" />
    <glyph glyph-name="z" unicode="z" horiz-adv-x="957" 
d="M729 905h-631v94h754v-94l-659 -811h694v-94h-817v94z" />
    <glyph glyph-name="braceleft" unicode="{" horiz-adv-x="697" 
d="M380 -230.5q-54 23.5 -77.5 78t-23.5 152.5v469q0 70 -12 104.5t-44.5 48t-99.5 13.5h-86v90h86q67 0 99.5 13.5t44.5 48t12 104.5v469q0 98 23.5 152.5t77.5 78t152 23.5h127v-90h-73q-103 0 -143.5 -12.5t-53 -53t-12.5 -143.5v-428q0 -90 -20.5 -138.5t-77.5 -66.5v-4
q57 -18 77.5 -66.5t20.5 -138.5v-428q0 -103 12.5 -143.5t53 -53t143.5 -12.5h73v-90h-127q-98 0 -152 23.5z" />
    <glyph glyph-name="bar" unicode="|" horiz-adv-x="697" 
d="M393 1614v-1868h-90v1868h90z" />
    <glyph glyph-name="braceright" unicode="}" horiz-adv-x="697" 
d="M111 -164q102 0 142.5 12.5t53 53t12.5 143.5v428q0 90 20.5 138.5t78.5 66.5v4q-58 18 -78.5 66.5t-20.5 138.5v428q0 103 -12.5 143.5t-53 53t-142.5 12.5h-74v90h127q98 0 152.5 -23.5t78 -78t23.5 -152.5v-469q0 -71 11.5 -105t44 -47.5t99.5 -13.5h86v-90h-86
q-67 0 -99.5 -13.5t-44 -47.5t-11.5 -105v-469q0 -98 -23.5 -152.5t-78 -78t-152.5 -23.5h-127v90h74z" />
    <glyph glyph-name="asciitilde" unicode="~" 
d="M328 622.5q-41 -12.5 -53.5 -53.5t-12.5 -143v-35h-94v80q0 98 23.5 152.5t78 78t152.5 23.5h500q103 0 143 12.5t52.5 53t12.5 143.5v35h95v-80q0 -98 -23.5 -152.5t-78 -78t-152.5 -23.5h-500q-102 0 -143 -12.5z" />
    <glyph glyph-name="exclamdown" unicode="&#xa1;" horiz-adv-x="697" 
d="M401 999v-237h-106v237h106zM389 618l17 -978h-115l16 978h82z" />
    <glyph glyph-name="cent" unicode="&#xa2;" 
d="M754 -57v190q-215 16 -320.5 136.5t-105.5 363.5t105.5 363.5t320.5 136.5v180h90v-180h262v-95h-262v-811h262v-94h-262v-190h-90zM513.5 930q-79.5 -96 -79.5 -297t79.5 -297t240.5 -109v811q-161 -12 -240.5 -108z" />
    <glyph glyph-name="sterling" unicode="&#xa3;" 
d="M393 100v539h-196v98h196v131q0 492 492 492h295v-98h-287q-140 0 -226.5 -40.5t-126.5 -126.5t-40 -227v-131h651v-98h-651v-539h753v-100h-1056v100h196z" />
    <glyph glyph-name="currency" unicode="&#xa4;" horiz-adv-x="1025" 
d="M673 379.5q-30 -16.5 -72 -29t-89 -12.5t-89.5 12t-72.5 29t-41 29l-166 -168l-67 67l168 166q-12 12 -28.5 41.5t-29 72t-12.5 89.5t12 89.5t29 72.5t29 41l-168 165l67 68l166 -168q12 12 42 28.5t72 29t89 12.5t89.5 -12t72.5 -29t41 -29l166 168l67 -68l-168 -165
q12 -12 28.5 -42t29 -72t12.5 -89t-12 -89.5t-28.5 -72.5t-29.5 -41l168 -166l-67 -67l-166 168q-12 -12 -42 -28.5zM724.5 798.5q-33.5 56.5 -90 90t-122.5 33.5t-122.5 -33.5t-90 -90t-33.5 -122.5t33.5 -122.5t90 -90t122.5 -33.5t122.5 33.5t90 90t33.5 122.5
t-33.5 122.5z" />
    <glyph glyph-name="yen" unicode="&#xa5;" 
d="M645 0v451h-473v90h463l-170 295h-293v90h242l-250 434h119l413 -750l414 750h119l-250 -434h242v-90h-293l-170 -295h463v-90h-473v-451h-103z" />
    <glyph glyph-name="brokenbar" unicode="&#xa6;" horiz-adv-x="697" 
d="M393 1614v-746h-90v746h90zM393 492v-746h-90v746h90z" />
    <glyph glyph-name="section" unicode="&#xa7;" 
d="M791 -221q113 0 177 64t64 177q0 114 -64 178t-177 64h-197q-181 0 -271 90t-90 271q0 67 20.5 128.5t57.5 104.5q-19 19 -38 65t-19 128q0 91 39.5 161.5t110 110t161.5 39.5h574v-98h-559q-111 0 -165.5 -54.5t-54.5 -165.5q0 -110 54.5 -164.5t165.5 -54.5h219
q181 0 270.5 -89.5t89.5 -270.5q0 -67 -20.5 -128.5t-57.5 -105.5q25 -24 41.5 -84t16.5 -125q0 -103 -41.5 -179.5t-118 -118t-180.5 -41.5h-545v98h537zM901.5 348.5q45.5 -11.5 73 -26t37.5 -23.5q21 28 33 72t12 96q0 93 -26.5 149.5t-83.5 82.5t-152 26h-201
q-57 0 -103 11.5t-73.5 26t-36.5 23.5q-21 -27 -33 -71.5t-12 -96.5q0 -93 26.5 -149.5t83.5 -82.5t152 -26h201q57 0 102.5 -11.5z" />
    <glyph glyph-name="dieresis" unicode="&#xa8;" 
d="M625 1360v-238h-95v238h95zM862 1360v-238h-94v238h94z" />
    <glyph glyph-name="copyright" unicode="&#xa9;" horiz-adv-x="1652" 
d="M1433.5 327.5q-94.5 -161.5 -256 -256t-352.5 -94.5t-352.5 94.5t-255.5 256t-94 352.5t94 352.5t255.5 255.5t352.5 94t352.5 -94t256 -255.5t94.5 -352.5t-94.5 -352.5zM1354.5 987q-81.5 140 -222 221.5t-307.5 81.5t-307 -81.5t-221.5 -221.5t-81.5 -307t81.5 -307
t221.5 -221.5t307 -81.5t307.5 81.5t222 221.5t81.5 307t-81.5 307zM567 374q-100 100 -100 306t100 305.5t305 99.5h185v-94h-176q-112 0 -180 -32t-100 -100t-32 -179t32 -179t100 -100t180 -32h180v-95h-189q-205 0 -305 100z" />
    <glyph glyph-name="ordfeminine" unicode="&#xaa;" horiz-adv-x="871" 
d="M177.5 738.5q-54.5 54.5 -54.5 152.5t54.5 152.5t152.5 54.5h264v49q0 68 -31.5 99.5t-99.5 31.5h-301v82h299q120 0 174.5 -55t54.5 -175v-446h-360q-98 0 -152.5 54.5zM223 891q0 -125 125 -125h246v250h-246q-125 0 -125 -125z" />
    <glyph glyph-name="guillemotleft" unicode="&#xab;" horiz-adv-x="841" 
d="M369 942h82l-205 -424l205 -424h-82l-238 424zM627 942h82l-205 -424l205 -424h-82l-238 424z" />
    <glyph glyph-name="logicalnot" unicode="&#xac;" 
d="M156 848v90h1056v-516h-94v426h-962z" />
    <glyph glyph-name="registered" unicode="&#xae;" horiz-adv-x="867" 
d="M737.5 854q-46.5 -80 -127 -126t-178.5 -46t-178 46t-126 126t-46 178t46 178t126 126t178 46t178.5 -46t127 -126t46.5 -178t-46.5 -178zM685 1179q-38 66 -104.5 104t-148.5 38q-80 0 -146 -38t-104.5 -104t-38.5 -147t38 -147.5t104 -105t147 -38.5q82 0 148.5 38.5
t104.5 105t38 147.5t-38 147zM358 993v-157h-65v391h182q56 0 86.5 -30.5t30.5 -86.5q0 -51 -24 -78t-60 -33l102 -163h-78l-98 157h-76zM520 1110q0 31 -14 45t-45 14h-103v-118h103q59 0 59 59z" />
    <glyph glyph-name="macron" unicode="&#xaf;" 
d="M934 1282v-92h-475v92h475z" />
    <glyph glyph-name="degree" unicode="&#xb0;" horiz-adv-x="804" 
d="M259.5 858q-63.5 37 -100 101t-36.5 143t36.5 143t100 100.5t141.5 36.5q79 0 142.5 -36.5t100 -100.5t36.5 -143t-36.5 -143t-100 -101t-142.5 -37q-78 0 -141.5 37zM499.5 934q43.5 25 68 69t24.5 99q0 54 -24.5 98t-68 69t-98.5 25q-54 0 -97.5 -25t-68 -69t-24.5 -98
q0 -55 24.5 -99t68 -69t97.5 -25q55 0 98.5 25z" />
    <glyph glyph-name="plusminus" unicode="&#xb1;" 
d="M649 184v467h-481v90h481v465h94v-465h482v-90h-482v-467h-94zM1225 90v-90h-1057v90h1057z" />
    <glyph glyph-name="uni00B2" unicode="&#xb2;" horiz-adv-x="855" 
d="M181.5 1023.5q44.5 45.5 135.5 45.5h205q59 0 83 23.5t24 81.5t-24 81t-83 23h-364v82h381q188 0 188 -189q0 -186 -188 -186h-197q-46 0 -69.5 -10t-32.5 -34t-9 -71v-104h496v-86h-590v205q0 93 44.5 138.5z" />
    <glyph glyph-name="uni00B3" unicode="&#xb3;" horiz-adv-x="855" 
d="M487 766q59 0 85 25t26 83q0 59 -26 85t-85 26h-278v84h254q59 0 82.5 23.5t23.5 81.5t-23.5 81t-82.5 23h-307v82h323q93 0 141 -46.5t48 -137.5q0 -56 -19.5 -93.5t-54.5 -50.5q47 -15 74.5 -56t27.5 -99q0 -98 -50 -147.5t-146 -49.5h-353v86h340z" />
    <glyph glyph-name="acute" unicode="&#xb4;" 
d="M807 1360l-131 -279h-90l106 279h115z" />
    <glyph glyph-name="uni00B5" unicode="&#xb5;" horiz-adv-x="1158" 
d="M443 10.5q-57 10.5 -94 31.5t-73 56v-426h-102v1327h102v-606q0 -107 30.5 -172.5t96 -96t172.5 -30.5h295v905h103v-999h-383q-90 0 -147 10.5z" />
    <glyph glyph-name="paragraph" unicode="&#xb6;" 
d="M770 1270v-1598h-98v787h-78q-227 0 -339 111.5t-112 338.5t112 339t339 112h696v-90h-213v-1598h-98v1598h-209z" />
    <glyph glyph-name="periodcentered" unicode="&#xb7;" horiz-adv-x="513" 
d="M311 625v-250h-110v250h110z" />
    <glyph glyph-name="cedilla" unicode="&#xb8;" 
d="M659 -225q56 0 81.5 25.5t25.5 80.5v119h94v-111q0 -104 -48 -152t-153 -48h-127v86h127z" />
    <glyph glyph-name="uni00B9" unicode="&#xb9;" horiz-adv-x="574" 
d="M162 1280v80h196v-680h-94v600h-102z" />
    <glyph glyph-name="ordmasculine" unicode="&#xba;" horiz-adv-x="906" 
d="M279.5 713.5q-73.5 41.5 -113 120.5t-39.5 188t39.5 188t113 120.5t173.5 41.5t173 -41.5t112.5 -120.5t39.5 -188t-39.5 -188t-112.5 -120.5t-173 -41.5t-173.5 41.5zM619.5 825.5q58.5 67.5 58.5 196.5t-58.5 196.5t-166.5 67.5q-109 0 -167.5 -67.5t-58.5 -196.5
t58.5 -196.5t167.5 -67.5q108 0 166.5 67.5z" />
    <glyph glyph-name="guillemotright" unicode="&#xbb;" horiz-adv-x="841" 
d="M131 942h82l238 -424l-238 -424h-82l205 424zM389 942h82l238 -424l-238 -424h-82l205 424z" />
    <glyph glyph-name="onequarter" unicode="&#xbc;" horiz-adv-x="1709" 
d="M168 1280v80h197v-680h-95v600h-102zM1178 1360l-756 -1360h-100l755 1360h101zM842 158v82l442 442h135v-442h119v-82h-119v-156h-94v156h-483zM1325 240v376l-373 -376h373z" />
    <glyph glyph-name="onehalf" unicode="&#xbd;" horiz-adv-x="1709" 
d="M170 1280v80h197v-680h-95v600h-102zM1098 1360l-756 -1360h-100l755 1360h101zM992.5 345.5q44.5 45.5 135.5 45.5h205q59 0 83 23.5t24 81.5t-24 81t-83 23h-364v82h381q188 0 188 -188q0 -187 -188 -187h-197q-46 0 -69.5 -10t-32.5 -33.5t-9 -70.5v-105h496v-86h-590
v205q0 93 44.5 138.5z" />
    <glyph glyph-name="threequarters" unicode="&#xbe;" horiz-adv-x="1709" 
d="M502 766q59 0 84.5 25t25.5 83q0 59 -26 85t-84 26h-279v84h254q59 0 83 23.5t24 81.5t-24 81t-83 23h-307v82h324q92 0 140 -46.5t48 -137.5q0 -56 -19.5 -93.5t-54.5 -50.5q48 -15 75.5 -56t27.5 -99q0 -98 -50.5 -147.5t-146.5 -49.5h-352v86h340zM1288 1360
l-756 -1360h-100l756 1360h100zM850 158v82l442 442h135v-442h119v-82h-119v-156h-94v156h-483zM1333 240v376l-372 -376h372z" />
    <glyph glyph-name="questiondown" unicode="&#xbf;" horiz-adv-x="1107" 
d="M836 999v-237h-107v237h107zM222.5 -267.5q-91.5 92.5 -91.5 267.5t91.5 265.5t266.5 90.5h35q84 0 127.5 17t60.5 60.5t17 127.5v57h107v-55q0 -114 -29.5 -180t-96 -95.5t-180.5 -29.5h-26q-135 0 -197.5 -62.5t-62.5 -197.5t62.5 -197.5t197.5 -62.5h430v-98h-445
q-175 0 -266.5 92.5z" />
    <glyph glyph-name="Agrave" unicode="&#xc0;" horiz-adv-x="1212" 
d="M541 1720l106 -278h-90l-131 278h115zM270 389l-147 -389h-111l529 1360h131l528 -1360h-119l-147 389h-664zM895 492l-293 778l-293 -778h586z" />
    <glyph glyph-name="Aacute" unicode="&#xc1;" horiz-adv-x="1212" 
d="M778 1720l-131 -278h-90l107 278h114zM270 389l-147 -389h-111l529 1360h131l528 -1360h-119l-147 389h-664zM895 492l-293 778l-293 -778h586z" />
    <glyph glyph-name="Acircumflex" unicode="&#xc2;" horiz-adv-x="1212" 
d="M475 1442h-90l154 278h125l155 -278h-90l-127 211zM270 389l-147 -389h-111l529 1360h131l528 -1360h-119l-147 389h-664zM895 492l-293 778l-293 -778h586z" />
    <glyph glyph-name="Atilde" unicode="&#xc3;" horiz-adv-x="1212" 
d="M467 1545q-15 -5 -20 -19.5t-5 -48.5v-25h-77v53q0 51 11.5 80.5t38.5 43t77 13.5h196q35 0 49.5 5t19.5 20t5 49v25h78v-53q0 -76 -27.5 -107t-99.5 -31h-197q-34 0 -49 -5zM270 389l-147 -389h-111l529 1360h131l528 -1360h-119l-147 389h-664zM895 492l-293 778
l-293 -778h586z" />
    <glyph glyph-name="Adieresis" unicode="&#xc4;" horiz-adv-x="1212" 
d="M530 1720v-237h-94v237h94zM768 1720v-237h-94v237h94zM270 389l-147 -389h-111l529 1360h131l528 -1360h-119l-147 389h-664zM895 492l-293 778l-293 -778h586z" />
    <glyph glyph-name="Aring" unicode="&#xc5;" horiz-adv-x="1212" 
d="M730.5 1480.5q-39.5 -36.5 -128.5 -36.5q-88 0 -128 36.5t-40 121.5q0 84 40 120.5t128 36.5q89 0 128.5 -36t39.5 -121t-39.5 -121.5zM680 1655.5q-6 17.5 -23.5 24t-54.5 6.5t-54.5 -6.5t-23.5 -24t-6 -53.5q0 -37 6 -54t23.5 -23.5t54.5 -6.5t54.5 6.5t23.5 23.5t6 54
q0 36 -6 53.5zM270 389l-147 -389h-111l529 1360h131l528 -1360h-119l-147 389h-664zM895 492l-293 778l-293 -778h586z" />
    <glyph glyph-name="AE" unicode="&#xc6;" horiz-adv-x="1864" 
d="M1152.5 61.5q-118.5 61.5 -177.5 163.5v-225h-103v438h-550l-289 -438h-119l901 1360h160v-234q59 112 179.5 173t320.5 61h245v-100h-233q-258 0 -383 -124t-125 -382v-13h725v-100h-725v-14q0 -180 53 -296.5t165 -173.5t290 -57h250v-100h-262q-204 0 -322.5 61.5z
M872 537v741l-487 -741h487z" />
    <glyph glyph-name="Ccedilla" unicode="&#xc7;" horiz-adv-x="1160" 
d="M781 -263q-48 -48 -152 -48h-127v86h127q55 0 80.5 25.5t25.5 80.5v119q-311 0 -461.5 165.5t-150.5 514.5q0 348 150.5 514t459.5 166h344v-100h-319q-190 0 -304 -61t-165 -188t-51 -331t51 -331t165 -188t304 -61h323v-100h-252v-111q0 -104 -48 -152z" />
    <glyph glyph-name="Egrave" unicode="&#xc8;" horiz-adv-x="1201" 
d="M682 1720l106 -278h-90l-131 278h115zM273.5 166q-150.5 166 -150.5 514t150.5 514t459.5 166h324v-100h-307q-181 0 -291.5 -58.5t-162 -172t-58.5 -288.5h802v-100h-802q4 -185 55.5 -303.5t163 -178t293.5 -59.5h323v-100h-340q-309 0 -459.5 166z" />
    <glyph glyph-name="Eacute" unicode="&#xc9;" horiz-adv-x="1201" 
d="M920 1720l-132 -278h-90l107 278h115zM273.5 166q-150.5 166 -150.5 514t150.5 514t459.5 166h324v-100h-307q-181 0 -291.5 -58.5t-162 -172t-58.5 -288.5h802v-100h-802q4 -185 55.5 -303.5t163 -178t293.5 -59.5h323v-100h-340q-309 0 -459.5 166z" />
    <glyph glyph-name="Ecircumflex" unicode="&#xca;" horiz-adv-x="1201" 
d="M614 1442h-90l154 278h125l155 -278h-90l-127 211zM273.5 166q-150.5 166 -150.5 514t150.5 514t459.5 166h324v-100h-307q-181 0 -291.5 -58.5t-162 -172t-58.5 -288.5h802v-100h-802q4 -185 55.5 -303.5t163 -178t293.5 -59.5h323v-100h-340q-309 0 -459.5 166z" />
    <glyph glyph-name="Edieresis" unicode="&#xcb;" horiz-adv-x="1201" 
d="M672 1720v-237h-94v237h94zM909 1720v-237h-94v237h94zM273.5 166q-150.5 166 -150.5 514t150.5 514t459.5 166h324v-100h-307q-181 0 -291.5 -58.5t-162 -172t-58.5 -288.5h802v-100h-802q4 -185 55.5 -303.5t163 -178t293.5 -59.5h323v-100h-340q-309 0 -459.5 166z
" />
    <glyph glyph-name="Igrave" unicode="&#xcc;" horiz-adv-x="542" 
d="M211 1720l106 -278h-90l-131 278h115zM324 1360v-1360h-107v1360h107z" />
    <glyph glyph-name="Iacute" unicode="&#xcd;" horiz-adv-x="542" 
d="M449 1720l-132 -278h-90l107 278h115zM324 1360v-1360h-107v1360h107z" />
    <glyph glyph-name="Icircumflex" unicode="&#xce;" horiz-adv-x="542" 
d="M145 1442h-90l154 278h125l155 -278h-90l-127 211zM324 1360v-1360h-107v1360h107z" />
    <glyph glyph-name="Idieresis" unicode="&#xcf;" horiz-adv-x="542" 
d="M201 1720v-237h-95v237h95zM438 1720v-237h-94v237h94zM324 1360v-1360h-107v1360h107z" />
    <glyph glyph-name="Eth" unicode="&#xd0;" horiz-adv-x="1439" 
d="M20 643v88h197v629h488q309 0 459.5 -166t150.5 -514t-150.5 -514t-459.5 -166h-488v643h-197zM984 161q114 61 165 188t51 331t-51 331t-165 188t-304 61h-356v-529h434v-88h-434v-543h356q190 0 304 61z" />
    <glyph glyph-name="Ntilde" unicode="&#xd1;" horiz-adv-x="1484" 
d="M647.5 1545q-14.5 -5 -19.5 -19.5t-5 -48.5v-25h-78v53q0 51 11.5 80.5t38.5 43t77 13.5h196q35 0 49.5 5t19.5 20t5 49v25h78v-53q0 -76 -27.5 -107t-99.5 -31h-197q-34 0 -48.5 -5zM319 0h-102v1360h123l823 -1196v1196h103v-1360h-115l-832 1208v-1208z" />
    <glyph glyph-name="Ograve" unicode="&#xd2;" horiz-adv-x="1480" 
d="M678 1720l106 -278h-90l-131 278h115zM402 58.5q-138 81.5 -208.5 239t-70.5 382.5t70.5 382t208.5 238.5t337 81.5q200 0 338 -81.5t208.5 -238.5t70.5 -382t-70.5 -382.5t-208.5 -239t-338 -81.5q-199 0 -337 81.5zM1115 230.5q126 152.5 126 449.5t-126 449.5
t-376 152.5t-375.5 -152.5t-125.5 -449.5t125.5 -449.5t375.5 -152.5t376 152.5z" />
    <glyph glyph-name="Oacute" unicode="&#xd3;" horiz-adv-x="1480" 
d="M915 1720l-131 -278h-90l107 278h114zM402 58.5q-138 81.5 -208.5 239t-70.5 382.5t70.5 382t208.5 238.5t337 81.5q200 0 338 -81.5t208.5 -238.5t70.5 -382t-70.5 -382.5t-208.5 -239t-338 -81.5q-199 0 -337 81.5zM1115 230.5q126 152.5 126 449.5t-126 449.5
t-376 152.5t-375.5 -152.5t-125.5 -449.5t125.5 -449.5t375.5 -152.5t376 152.5z" />
    <glyph glyph-name="Ocircumflex" unicode="&#xd4;" horiz-adv-x="1480" 
d="M612 1442h-90l154 278h125l155 -278h-90l-127 211zM402 58.5q-138 81.5 -208.5 239t-70.5 382.5t70.5 382t208.5 238.5t337 81.5q200 0 338 -81.5t208.5 -238.5t70.5 -382t-70.5 -382.5t-208.5 -239t-338 -81.5q-199 0 -337 81.5zM1115 230.5q126 152.5 126 449.5
t-126 449.5t-376 152.5t-375.5 -152.5t-125.5 -449.5t125.5 -449.5t375.5 -152.5t376 152.5z" />
    <glyph glyph-name="Otilde" unicode="&#xd5;" horiz-adv-x="1480" 
d="M604.5 1545q-14.5 -5 -19.5 -19.5t-5 -48.5v-25h-78v53q0 51 11.5 80.5t38.5 43t77 13.5h196q35 0 49.5 5t19.5 20t5 49v25h78v-53q0 -76 -27.5 -107t-99.5 -31h-197q-34 0 -48.5 -5zM402 58.5q-138 81.5 -208.5 239t-70.5 382.5t70.5 382t208.5 238.5t337 81.5
q200 0 338 -81.5t208.5 -238.5t70.5 -382t-70.5 -382.5t-208.5 -239t-338 -81.5q-199 0 -337 81.5zM1115 230.5q126 152.5 126 449.5t-126 449.5t-376 152.5t-375.5 -152.5t-125.5 -449.5t125.5 -449.5t375.5 -152.5t376 152.5z" />
    <glyph glyph-name="Odieresis" unicode="&#xd6;" horiz-adv-x="1480" 
d="M668 1720v-237h-95v237h95zM905 1720v-237h-94v237h94zM402 58.5q-138 81.5 -208.5 239t-70.5 382.5t70.5 382t208.5 238.5t337 81.5q200 0 338 -81.5t208.5 -238.5t70.5 -382t-70.5 -382.5t-208.5 -239t-338 -81.5q-199 0 -337 81.5zM1115 230.5q126 152.5 126 449.5
t-126 449.5t-376 152.5t-375.5 -152.5t-125.5 -449.5t125.5 -449.5t375.5 -152.5t376 152.5z" />
    <glyph glyph-name="multiply" unicode="&#xd7;" 
d="M354 274l-63 64l340 340l-340 340l67 67l340 -340l340 340l64 -63l-340 -340l340 -340l-68 -68l-340 340z" />
    <glyph glyph-name="Oslash" unicode="&#xd8;" horiz-adv-x="1480" 
d="M123 680q0 225 70.5 382t208.5 238.5t337 81.5q252 0 406 -131l106 131h129l-166 -202q142 -182 142 -500q0 -225 -70.5 -382.5t-208.5 -239t-338 -81.5q-255 0 -405 129l-103 -129h-129l162 201q-141 179 -141 502zM336 266l741 903q-125 113 -338 113
q-250 0 -375.5 -152.5t-125.5 -449.5q0 -264 98 -414zM1115 230.5q126 152.5 126 449.5q0 263 -98 412l-742 -904q124 -110 338 -110q250 0 376 152.5z" />
    <glyph glyph-name="Ugrave" unicode="&#xd9;" horiz-adv-x="1418" 
d="M662 1720l106 -278h-90l-131 278h115zM326.5 121.5q-121.5 121.5 -121.5 370.5v868h106v-864q0 -141 40.5 -227.5t127 -127.5t226.5 -41h389v1260h106v-1360h-504q-248 0 -369.5 121.5z" />
    <glyph glyph-name="Uacute" unicode="&#xda;" horiz-adv-x="1418" 
d="M879 1720l-131 -278h-91l107 278h115zM326.5 121.5q-121.5 121.5 -121.5 370.5v868h106v-864q0 -141 40.5 -227.5t127 -127.5t226.5 -41h389v1260h106v-1360h-504q-248 0 -369.5 121.5z" />
    <glyph glyph-name="Ucircumflex" unicode="&#xdb;" horiz-adv-x="1418" 
d="M575 1442h-90l154 278h125l156 -278h-91l-127 211zM326.5 121.5q-121.5 121.5 -121.5 370.5v868h106v-864q0 -141 40.5 -227.5t127 -127.5t226.5 -41h389v1260h106v-1360h-504q-248 0 -369.5 121.5z" />
    <glyph glyph-name="Udieresis" unicode="&#xdc;" horiz-adv-x="1418" 
d="M631 1720v-237h-94v237h94zM868 1720v-237h-94v237h94zM326.5 121.5q-121.5 121.5 -121.5 370.5v868h106v-864q0 -141 40.5 -227.5t127 -127.5t226.5 -41h389v1260h106v-1360h-504q-248 0 -369.5 121.5z" />
    <glyph glyph-name="Yacute" unicode="&#xdd;" horiz-adv-x="1131" 
d="M745 1720l-131 -278h-90l107 278h114zM20 1360h119l430 -742l426 742h115l-492 -840v-520h-106v520z" />
    <glyph glyph-name="Thorn" unicode="&#xde;" horiz-adv-x="1275" 
d="M217 0v1360h107v-258h413q204 0 309 -103.5t105 -306.5q0 -202 -105 -305.5t-309 -103.5h-413v-283h-107zM1036 692q0 309 -311 309h-401v-618h401q311 0 311 309z" />
    <glyph glyph-name="germandbls" unicode="&#xdf;" horiz-adv-x="1230" 
d="M662 94q175 0 266.5 92t91.5 267t-91.5 266.5t-266.5 91.5h-170v94h237q89 0 134.5 45.5t45.5 134.5t-45.5 135t-134.5 46h-209q-64 0 -101.5 -16.5t-54 -54t-16.5 -101.5v-1094h-102v905h-180v94h180v95q0 135 65.5 200.5t200.5 65.5h225q85 0 148 -34t97 -97t34 -148
q0 -77 -28 -125.5t-58 -69t-49 -26.5q50 -16 105.5 -60t97.5 -131t42 -216q0 -141 -54 -243t-156 -156t-242 -54h-182v94h170z" />
    <glyph glyph-name="agrave" unicode="&#xe0;" horiz-adv-x="1093" 
d="M438 1360l107 -279h-90l-131 279h114zM260 36.5q-68 36.5 -104.5 105t-36.5 161.5q0 94 36.5 162t104.5 104.5t162 36.5h393v56q0 91 -23.5 143.5t-76 76t-144.5 23.5h-399v94h393q131 0 207.5 -34.5t111 -111t34.5 -206.5v-647h-496q-94 0 -162 36.5zM225 303
q0 -209 209 -209h381v418h-381q-209 0 -209 -209z" />
    <glyph glyph-name="aacute" unicode="&#xe1;" horiz-adv-x="1093" 
d="M676 1360l-131 -279h-90l106 279h115zM260 36.5q-68 36.5 -104.5 105t-36.5 161.5q0 94 36.5 162t104.5 104.5t162 36.5h393v56q0 91 -23.5 143.5t-76 76t-144.5 23.5h-399v94h393q131 0 207.5 -34.5t111 -111t34.5 -206.5v-647h-496q-94 0 -162 36.5zM225 303
q0 -209 209 -209h381v418h-381q-209 0 -209 -209z" />
    <glyph glyph-name="acircumflex" unicode="&#xe2;" horiz-adv-x="1093" 
d="M373 1081h-90l153 279h125l156 -279h-90l-127 211zM260 36.5q-68 36.5 -104.5 105t-36.5 161.5q0 94 36.5 162t104.5 104.5t162 36.5h393v56q0 91 -23.5 143.5t-76 76t-144.5 23.5h-399v94h393q131 0 207.5 -34.5t111 -111t34.5 -206.5v-647h-496q-94 0 -162 36.5z
M225 303q0 -209 209 -209h381v418h-381q-209 0 -209 -209z" />
    <glyph glyph-name="atilde" unicode="&#xe3;" horiz-adv-x="1093" 
d="M364.5 1185q-14.5 -5 -19.5 -19.5t-5 -49.5v-24h-78v53q0 75 27.5 106t99.5 31h197q34 0 48.5 5t19.5 19.5t5 49.5v24h78v-53q0 -51 -11.5 -80.5t-39 -43t-76.5 -13.5h-196q-35 0 -49.5 -5zM260 36.5q-68 36.5 -104.5 105t-36.5 161.5q0 94 36.5 162t104.5 104.5
t162 36.5h393v56q0 91 -23.5 143.5t-76 76t-144.5 23.5h-399v94h393q131 0 207.5 -34.5t111 -111t34.5 -206.5v-647h-496q-94 0 -162 36.5zM225 303q0 -209 209 -209h381v418h-381q-209 0 -209 -209z" />
    <glyph glyph-name="adieresis" unicode="&#xe4;" horiz-adv-x="1093" 
d="M428 1360v-238h-94v238h94zM666 1360v-238h-95v238h95zM260 36.5q-68 36.5 -104.5 105t-36.5 161.5q0 94 36.5 162t104.5 104.5t162 36.5h393v56q0 91 -23.5 143.5t-76 76t-144.5 23.5h-399v94h393q131 0 207.5 -34.5t111 -111t34.5 -206.5v-647h-496q-94 0 -162 36.5z
M225 303q0 -209 209 -209h381v418h-381q-209 0 -209 -209z" />
    <glyph glyph-name="aring" unicode="&#xe5;" horiz-adv-x="1093" 
d="M628 1119.5q-40 -36.5 -128 -36.5t-128 36.5t-40 121.5t40 121.5t128 36.5t128 -36.5t40 -121.5t-40 -121.5zM577.5 1294.5q-6.5 17.5 -23.5 24t-54 6.5t-54.5 -6.5t-23.5 -23.5t-6 -54t6 -54t23.5 -23.5t54.5 -6.5t54 6.5t23.5 24t6.5 53.5t-6.5 53.5zM260 36.5
q-68 36.5 -104.5 105t-36.5 161.5q0 94 36.5 162t104.5 104.5t162 36.5h393v56q0 91 -23.5 143.5t-76 76t-144.5 23.5h-399v94h393q131 0 207.5 -34.5t111 -111t34.5 -206.5v-647h-496q-94 0 -162 36.5zM225 303q0 -209 209 -209h381v418h-381q-209 0 -209 -209z" />
    <glyph glyph-name="ae" unicode="&#xe6;" horiz-adv-x="1664" 
d="M913 147v-147h-512q-83 0 -147 35.5t-99.5 100t-35.5 147.5t35.5 146.5t99.5 98.5t147 35h410v99q0 91 -23.5 143.5t-76 76t-144.5 23.5h-395v94h401q159 0 227 -51.5t89 -128.5h4q28 59 113.5 119.5t287.5 60.5h217v-94h-213q-182 0 -278 -82t-109 -260h588v-90h-588
q3 -190 94.5 -284.5t292.5 -94.5h222v-94h-217q-287 0 -390 147zM276.5 422q-51.5 -51 -51.5 -137t51.5 -138.5t137.5 -52.5h397v379h-397q-86 0 -137.5 -51z" />
    <glyph glyph-name="ccedilla" unicode="&#xe7;" horiz-adv-x="902" 
d="M599 -263q-48 -48 -153 -48h-127v86h127q56 0 81.5 25.5t25.5 80.5v119q-224 12 -337.5 131.5t-113.5 368.5q0 255 122.5 377t377.5 122h201v-94h-189q-142 0 -231 -42.5t-131.5 -131.5t-42.5 -231t42.5 -231.5t131.5 -132t231 -42.5h197v-94h-164v-111q0 -104 -48 -152z
" />
    <glyph glyph-name="egrave" unicode="&#xe8;" horiz-adv-x="964" 
d="M508 1360l106 -279h-90l-131 279h115zM224.5 122.5q-122.5 122.5 -122.5 377.5t122.5 377t377.5 122h209v-94h-213q-183 0 -280 -82t-109 -260h590v-90h-590q3 -189 95.5 -284t293.5 -95h221v-94h-217q-255 0 -377.5 122.5z" />
    <glyph glyph-name="eacute" unicode="&#xe9;" horiz-adv-x="964" 
d="M725 1360l-131 -279h-90l106 279h115zM224.5 122.5q-122.5 122.5 -122.5 377.5t122.5 377t377.5 122h209v-94h-213q-183 0 -280 -82t-109 -260h590v-90h-590q3 -189 95.5 -284t293.5 -95h221v-94h-217q-255 0 -377.5 122.5z" />
    <glyph glyph-name="ecircumflex" unicode="&#xea;" horiz-adv-x="964" 
d="M422 1081h-90l153 279h125l156 -279h-90l-127 211zM224.5 122.5q-122.5 122.5 -122.5 377.5t122.5 377t377.5 122h209v-94h-213q-183 0 -280 -82t-109 -260h590v-90h-590q3 -189 95.5 -284t293.5 -95h221v-94h-217q-255 0 -377.5 122.5z" />
    <glyph glyph-name="edieresis" unicode="&#xeb;" horiz-adv-x="964" 
d="M477 1360v-238h-94v238h94zM715 1360v-238h-94v238h94zM224.5 122.5q-122.5 122.5 -122.5 377.5t122.5 377t377.5 122h209v-94h-213q-183 0 -280 -82t-109 -260h590v-90h-590q3 -189 95.5 -284t293.5 -95h221v-94h-217q-255 0 -377.5 122.5z" />
    <glyph glyph-name="igrave" unicode="&#xec;" horiz-adv-x="472" 
d="M174 1360l107 -279h-91l-131 279h115zM287 999v-999h-103v999h103z" />
    <glyph glyph-name="iacute" unicode="&#xed;" horiz-adv-x="472" 
d="M412 1360l-131 -279h-91l107 279h115zM287 999v-999h-103v999h103z" />
    <glyph glyph-name="icircumflex" unicode="&#xee;" horiz-adv-x="472" 
d="M109 1081h-91l154 279h125l156 -279h-91l-126 211zM287 999v-999h-103v999h103z" />
    <glyph glyph-name="idieresis" unicode="&#xef;" horiz-adv-x="472" 
d="M164 1360v-238h-94v238h94zM401 1360v-238h-94v238h94zM287 999v-999h-103v999h103z" />
    <glyph glyph-name="eth" unicode="&#xf0;" horiz-adv-x="1115" 
d="M295 1065l158 127l-158 125l57 65l170 -135l168 135l47 -61l-151 -123l82 -68q166 -137 255 -298.5t89 -376.5q0 -149 -57 -257t-160 -164.5t-238 -56.5t-238 56.5t-160 164.5t-57 257t57 256.5t160 164t238 56.5q86 0 149 -26t97 -50q-23 38 -76 96.5t-109 104.5
l-104 86l-172 -139zM739.5 114.5q78.5 42.5 122 128.5t43.5 212t-43.5 212t-122 128.5t-182.5 42.5t-182.5 -42.5t-122 -128.5t-43.5 -212t43.5 -212t122 -128.5t182.5 -42.5t182.5 42.5z" />
    <glyph glyph-name="ntilde" unicode="&#xf1;" horiz-adv-x="1146" 
d="M417.5 1185q-14.5 -5 -19.5 -19.5t-5 -49.5v-24h-78v53q0 75 27.5 106t99.5 31h197q35 0 49.5 5t19.5 19.5t5 49.5v24h78v-53q0 -75 -27.5 -106t-99.5 -31h-197q-35 0 -49.5 -5zM837.5 778.5q-30.5 65.5 -96 96t-172.5 30.5h-282v-905h-103v999h381q142 0 231.5 -42.5
t132 -131.5t42.5 -231v-594h-103v606q0 107 -30.5 172.5z" />
    <glyph glyph-name="ograve" unicode="&#xf2;" horiz-adv-x="1131" 
d="M504 1360l106 -279h-90l-131 279h115zM221.5 119.5q-119.5 131.5 -119.5 380.5q0 248 119.5 380t343.5 132t343.5 -132t119.5 -380q0 -249 -119.5 -380.5t-343.5 -131.5t-343.5 131.5zM922 500q0 418 -357 418q-356 0 -356 -418t356 -418q357 0 357 418z" />
    <glyph glyph-name="oacute" unicode="&#xf3;" horiz-adv-x="1131" 
d="M741 1360l-131 -279h-90l107 279h114zM221.5 119.5q-119.5 131.5 -119.5 380.5q0 248 119.5 380t343.5 132t343.5 -132t119.5 -380q0 -249 -119.5 -380.5t-343.5 -131.5t-343.5 131.5zM922 500q0 418 -357 418q-356 0 -356 -418t356 -418q357 0 357 418z" />
    <glyph glyph-name="ocircumflex" unicode="&#xf4;" horiz-adv-x="1131" 
d="M438 1081h-90l154 279h125l155 -279h-90l-127 211zM221.5 119.5q-119.5 131.5 -119.5 380.5q0 248 119.5 380t343.5 132t343.5 -132t119.5 -380q0 -249 -119.5 -380.5t-343.5 -131.5t-343.5 131.5zM922 500q0 418 -357 418q-356 0 -356 -418t356 -418q357 0 357 418z" />
    <glyph glyph-name="otilde" unicode="&#xf5;" horiz-adv-x="1131" 
d="M430.5 1185q-14.5 -5 -19.5 -19.5t-5 -49.5v-24h-78v53q0 51 11.5 80.5t39 43t76.5 13.5h196q35 0 49.5 5t19.5 19.5t5 49.5v24h78v-53q0 -75 -27.5 -106t-99.5 -31h-197q-34 0 -48.5 -5zM221.5 119.5q-119.5 131.5 -119.5 380.5q0 248 119.5 380t343.5 132t343.5 -132
t119.5 -380q0 -249 -119.5 -380.5t-343.5 -131.5t-343.5 131.5zM922 500q0 418 -357 418q-356 0 -356 -418t356 -418q357 0 357 418z" />
    <glyph glyph-name="odieresis" unicode="&#xf6;" horiz-adv-x="1131" 
d="M494 1360v-238h-95v238h95zM731 1360v-238h-94v238h94zM221.5 119.5q-119.5 131.5 -119.5 380.5q0 248 119.5 380t343.5 132t343.5 -132t119.5 -380q0 -249 -119.5 -380.5t-343.5 -131.5t-343.5 131.5zM922 500q0 418 -357 418q-356 0 -356 -418t356 -418q357 0 357 418z
" />
    <glyph glyph-name="divide" unicode="&#xf7;" 
d="M758 1102v-164h-123v164h123zM1225 725v-90h-1057v90h1057zM758 422v-164h-123v164h123z" />
    <glyph glyph-name="oslash" unicode="&#xf8;" horiz-adv-x="1131" 
d="M102 500q0 248 119.5 380t343.5 132q175 0 291 -84l70 84h116l-120 -148q106 -132 106 -364q0 -249 -119.5 -380.5t-343.5 -131.5q-182 0 -293 84l-69 -84h-117l121 147q-105 129 -105 365zM274 217l519 633q-88 68 -228 68q-356 0 -356 -418q0 -180 65 -283zM922 500
q0 181 -68 282l-518 -632q84 -68 229 -68q357 0 357 418z" />
    <glyph glyph-name="ugrave" unicode="&#xf9;" horiz-adv-x="1134" 
d="M500 1360l106 -279h-90l-131 279h115zM348.5 42.5q-89.5 42.5 -132 132t-42.5 231.5v593h102v-606q0 -107 30.5 -172.5t96 -96t172.5 -30.5h271v905h102v-999h-368q-142 0 -231.5 42.5z" />
    <glyph glyph-name="uacute" unicode="&#xfa;" horiz-adv-x="1134" 
d="M737 1360l-131 -279h-90l107 279h114zM348.5 42.5q-89.5 42.5 -132 132t-42.5 231.5v593h102v-606q0 -107 30.5 -172.5t96 -96t172.5 -30.5h271v905h102v-999h-368q-142 0 -231.5 42.5z" />
    <glyph glyph-name="ucircumflex" unicode="&#xfb;" horiz-adv-x="1134" 
d="M434 1081h-90l154 279h125l155 -279h-90l-127 211zM348.5 42.5q-89.5 42.5 -132 132t-42.5 231.5v593h102v-606q0 -107 30.5 -172.5t96 -96t172.5 -30.5h271v905h102v-999h-368q-142 0 -231.5 42.5z" />
    <glyph glyph-name="udieresis" unicode="&#xfc;" horiz-adv-x="1134" 
d="M489 1360v-238h-94v238h94zM727 1360v-238h-94v238h94zM348.5 42.5q-89.5 42.5 -132 132t-42.5 231.5v593h102v-606q0 -107 30.5 -172.5t96 -96t172.5 -30.5h271v905h102v-999h-368q-142 0 -231.5 42.5z" />
    <glyph glyph-name="yacute" unicode="&#xfd;" horiz-adv-x="1025" 
d="M688 1360l-131 -279h-90l106 279h115zM41 999h117l354 -893l358 893h113l-549 -1327h-117l138 328z" />
    <glyph glyph-name="thorn" unicode="&#xfe;" horiz-adv-x="1115" 
d="M287 1360v-361h225q255 0 377.5 -122t122.5 -377t-122.5 -377.5t-377.5 -122.5h-225v-328h-103v1688h103zM731 136.5q89 42.5 131.5 132t42.5 231.5t-42.5 231t-131.5 131.5t-231 42.5h-213v-811h213q142 0 231 42.5z" />
    <glyph glyph-name="ydieresis" unicode="&#xff;" horiz-adv-x="1025" 
d="M440 1360v-238h-94v238h94zM678 1360v-238h-94v238h94zM41 999h117l354 -893l358 893h113l-549 -1327h-117l138 328z" />
    <glyph glyph-name="dotlessi" unicode="&#x131;" horiz-adv-x="472" 
d="M287 999v-999h-103v999h103z" />
    <glyph glyph-name="Lslash" unicode="&#x141;" horiz-adv-x="1045" 
d="M205 1360h106v-635l437 160v-99l-437 -159v-131q0 -140 41 -227t128 -128t227 -41h284v-100h-295q-248 0 -369.5 121.5t-121.5 370.5v96l-185 -68v98l185 68v674z" />
    <glyph glyph-name="lslash" unicode="&#x142;" horiz-adv-x="472" 
d="M184 0v647l-164 -82v84l164 82v629h103v-578l164 84v-84l-164 -84v-698h-103z" />
    <glyph glyph-name="OE" unicode="&#x152;" horiz-adv-x="2160" 
d="M1376.5 104.5q-119.5 104.5 -159.5 227.5h-5q-25 -74 -80.5 -153.5t-164 -140.5t-269.5 -61q-176 0 -305.5 83t-199.5 241t-70 379q0 220 70 378t199.5 241t305.5 83q161 0 269.5 -61t164 -140t80.5 -153h5q21 74 75.5 147.5t169.5 129t295 55.5h258v-100h-241
q-176 0 -284.5 -60t-159 -174t-56.5 -285h725v-100h-725q3 -268 120.5 -404.5t379.5 -136.5h258v-100h-275q-261 0 -380.5 104.5zM947.5 150.5q103.5 72.5 157.5 208t54 321.5t-54 321.5t-157.5 208t-249.5 72.5t-249.5 -72.5t-157 -208t-53.5 -321.5t53.5 -321.5t157 -208
t249.5 -72.5t249.5 72.5z" />
    <glyph glyph-name="oe" unicode="&#x153;" horiz-adv-x="1779" 
d="M1165.5 41q-94.5 41 -131 85.5t-59.5 90.5h-4q-35 -79 -125 -154t-281 -75q-224 0 -343.5 131.5t-119.5 380.5q0 248 119.5 380t343.5 132q194 0 284 -77.5t122 -168.5h4q28 87 125 160t309 73h217v-94h-213q-182 0 -279.5 -82t-109.5 -260h590v-90h-590
q3 -189 95.5 -284t293.5 -95h221v-94h-217q-157 0 -251.5 41zM922 500q0 418 -357 418q-356 0 -356 -418t356 -418q357 0 357 418z" />
    <glyph glyph-name="Scaron" unicode="&#x160;" horiz-adv-x="1181" 
d="M580 1442l-154 278h90l127 -211l127 211h90l-155 -278h-125zM664 100q139 0 207.5 66.5t68.5 204.5q0 137 -68.5 203.5t-207.5 66.5h-160q-184 0 -280.5 89.5t-96.5 268.5q0 180 96.5 270.5t280.5 90.5h495v-100h-495q-133 0 -198.5 -63.5t-65.5 -195.5
q0 -131 65.5 -195.5t198.5 -64.5h164q189 0 287 -92t98 -278t-98 -278.5t-287 -92.5h-516v100h512z" />
    <glyph glyph-name="scaron" unicode="&#x161;" horiz-adv-x="972" 
d="M467 1081l-154 279h90l127 -211l127 211h91l-156 -279h-125zM557 94q99 0 143.5 42.5t44.5 139.5q0 98 -44.5 139.5t-143.5 41.5h-156q-136 0 -207 69t-71 203t71 202t207 68h418v-94h-397q-101 0 -147 -40t-46 -136t46.5 -137t146.5 -41h151q279 0 279 -275
q0 -276 -279 -276h-454v94h438z" />
    <glyph glyph-name="Ydieresis" unicode="&#x178;" horiz-adv-x="1131" 
d="M498 1720v-237h-95v237h95zM735 1720v-237h-94v237h94zM20 1360h119l430 -742l426 742h115l-492 -840v-520h-106v520z" />
    <glyph glyph-name="Zcaron" unicode="&#x17d;" horiz-adv-x="1224" 
d="M506 1442l-154 278h90l127 -211l127 211h90l-155 -278h-125zM975 1260h-854v100h981v-100l-864 -1160h874v-100h-1001v100z" />
    <glyph glyph-name="zcaron" unicode="&#x17e;" horiz-adv-x="957" 
d="M414 1081l-154 279h90l127 -211l127 211h90l-155 -279h-125zM729 905h-631v94h754v-94l-659 -811h694v-94h-817v94z" />
    <glyph glyph-name="florin" unicode="&#x192;" 
d="M307 -203q68 0 102.5 12.5t52.5 45t30 100.5l155 881h-209v90h226l32 184q17 96 48 149.5t87.5 77t151.5 23.5h184v-94h-184q-68 0 -102.5 -12t-52.5 -44t-29 -100l-33 -184h315v-90h-331l-156 -881q-17 -97 -48 -150.5t-87.5 -77.5t-151.5 -24h-155v94h155z" />
    <glyph glyph-name="circumflex" unicode="&#x2c6;" 
d="M569 1081h-90l154 279h125l155 -279h-90l-127 211z" />
    <glyph glyph-name="caron" unicode="&#x2c7;" 
d="M633 1081l-154 279h90l127 -211l127 211h90l-155 -279h-125z" />
    <glyph glyph-name="breve" unicode="&#x2d8;" 
d="M917 1176q-21 -58 -70 -76.5t-151 -18.5t-150.5 18.5t-69.5 76.5t-21 184h80q0 -91 11.5 -130.5t43.5 -52t106 -12.5q75 0 107 12.5t43.5 51.5t11.5 131h80q0 -126 -21 -184z" />
    <glyph glyph-name="dotaccent" unicode="&#x2d9;" 
d="M748 1360v-217h-103v217h103z" />
    <glyph glyph-name="ring" unicode="&#x2da;" 
d="M824.5 1119.5q-39.5 -36.5 -128.5 -36.5q-87 0 -127.5 36.5t-40.5 121.5t40.5 121.5t127.5 36.5q89 0 128.5 -36.5t39.5 -121.5t-39.5 -121.5zM774 1295q-6 17 -23.5 23.5t-54.5 6.5t-54 -6.5t-23.5 -24t-6.5 -53.5t6.5 -53.5t23.5 -24t54 -6.5t54.5 6.5t23.5 23.5t6 54
t-6 54z" />
    <glyph glyph-name="ogonek" unicode="&#x2db;" 
d="M580.5 -263q-48.5 48 -48.5 152v111h95v-119q0 -56 25.5 -81t80.5 -25h107v-86h-107q-104 0 -152.5 48z" />
    <glyph glyph-name="tilde" unicode="&#x2dc;" 
d="M561.5 1185q-14.5 -5 -19.5 -19.5t-5 -49.5v-24h-78v53q0 51 11.5 80.5t39 43t76.5 13.5h196q35 0 49.5 5t19.5 19.5t5 49.5v24h78v-53q0 -75 -27.5 -106t-99.5 -31h-197q-34 0 -48.5 -5z" />
    <glyph glyph-name="hungarumlaut" unicode="&#x2dd;" 
d="M680 1360l-131 -279h-90l106 279h115zM934 1360l-131 -279h-90l106 279h115z" />
    <glyph glyph-name="Delta" unicode="&#x394;" 
d="M1233 0h-1073l536 1384zM1098 90l-402 1061l-401 -1061h803z" />
    <glyph glyph-name="Omega" unicode="&#x3a9;" 
d="M1049.5 307.5q109.5 152.5 109.5 401.5q0 184 -53.5 313t-157 196.5t-252.5 67.5t-252.5 -67.5t-157 -196.5t-53.5 -313q0 -249 109.5 -401.5t263.5 -229.5v-78h-483v86h303q-68 53 -124.5 110.5t-117.5 190.5t-61 322q0 210 67.5 361t196 231.5t309.5 80.5t310 -80.5
t196.5 -231.5t67.5 -361q0 -189 -61 -322t-117.5 -190.5t-124.5 -110.5h303v-86h-484v78q154 77 263.5 229.5z" />
    <glyph glyph-name="mu" unicode="&#x3bc;" horiz-adv-x="1158" 
d="M443 10.5q-57 10.5 -94 31.5t-73 56v-426h-102v1327h102v-606q0 -107 30.5 -172.5t96 -96t172.5 -30.5h295v905h103v-999h-383q-90 0 -147 10.5z" />
    <glyph glyph-name="pi" unicode="&#x3c0;" horiz-adv-x="1301" 
d="M451 848v-848h-99v848h-168v90h942v-90h-168v-848h-98v848h-409z" />
    <glyph glyph-name="afii57388" unicode="&#x60c;" horiz-adv-x="468" 
d="M344 463l-106 -463h-115l139 463h82z" />
    <glyph glyph-name="afii57403" unicode="&#x61b;" horiz-adv-x="579" 
d="M344 999l-106 -462h-115l139 462h82zM236 238v-238h-107v238h107z" />
    <glyph glyph-name="afii57407" unicode="&#x61f;" horiz-adv-x="1396" 
d="M1036 387v57q0 72 -12.5 113.5t-42.5 62.5t-86 27q-18 2 -98 2q-176 0 -267.5 91t-91.5 266t92 267.5t267 92.5h426v-98h-430q-136 0 -198.5 -62.5t-62.5 -197.5q0 -136 62.5 -198t198.5 -62q49 0 114 -5q79 -11 126.5 -45t69 -96t21.5 -160v-55h-88zM1030 0v238h94v-238
h-94z" />
    <glyph glyph-name="afii57409" unicode="&#x621;" horiz-adv-x="687" 
d="M432 438q-80 0 -109.5 -44t-29.5 -132v-176h332v-86h-564v86h138v168q0 142 60.5 205t193.5 63h127v-84h-148z" />
    <glyph glyph-name="afii57410" unicode="&#x622;" horiz-adv-x="401" 
d="M154 0v1366h94v-1366h-94zM95.5 1789.5q41.5 -17.5 101.5 -52.5q61 -34 99 -51t75 -17q51 0 67.5 26.5t16.5 76.5h55q0 -83 -36.5 -125.5t-108.5 -42.5q-44 0 -90.5 20t-117.5 59q-51 30 -84.5 45t-59.5 15q-44 0 -66 -32t-22 -83h-56q0 59 20.5 99.5t54 60t71.5 19.5
q39 0 80.5 -17.5z" />
    <glyph glyph-name="afii57411" unicode="&#x623;" horiz-adv-x="401" 
d="M154 0v1366h94v-1366h-94zM250 1819q-43 0 -63.5 -32.5t-20.5 -88.5v-109h221v-61h-379v61h93v111q0 96 43.5 138t144.5 42h70v-61h-109z" />
    <glyph glyph-name="afii57412" unicode="&#x624;" horiz-adv-x="1121" 
d="M541 -358q118 0 187.5 41t99.5 119.5t30 197.5h-663v475q0 209 102 326t309 117h346l-2 -918q-2 -209 -90.5 -326.5t-267.5 -117.5h-268v86h217zM858 831h-252q-317 0 -317 -358v-387h569v745zM612 1438q-43 0 -63.5 -32.5t-20.5 -88.5v-109h221v-61h-379v61h93v111
q0 96 43.5 138t144.5 42h70v-61h-109z" />
    <glyph glyph-name="afii57413" unicode="&#x625;" horiz-adv-x="401" 
d="M154 0v1366h94v-1366h-94zM254 -283q-53 0 -72.5 -30.5t-19.5 -89.5v-109h221v-61h-379v61h93v111q0 95 41 137.5t131 42.5h86v-62h-101z" />
    <glyph glyph-name="afii57414" unicode="&#x626;" horiz-adv-x="1815" 
d="M1567 0v831h-172q-159 0 -234.5 -78.5t-75.5 -226.5v-460q0 -150 -59.5 -265.5t-174 -180t-273.5 -64.5q-262 0 -387 137t-125 393v553h94v-584q0 -206 108 -309.5t310 -103.5q134 0 226.5 51.5t139.5 144t47 213.5v463q0 404 391 404h279v-918h-94zM244 1082
q-43 0 -63.5 -32.5t-20.5 -88.5v-109h221v-61h-379v61h93v111q0 96 43.5 138t144.5 42h70v-61h-109z" />
    <glyph glyph-name="afii57415" unicode="&#x627;" horiz-adv-x="402" 
d="M154 0v1366h94v-1366h-94z" />
    <glyph glyph-name="afii57416" unicode="&#x628;" horiz-adv-x="1535" 
d="M457 0q-201 0 -296 102.5t-95 300.5v314h94v-326q0 -147 75.5 -226t233.5 -79h817v832h94v-918h-923zM837.5 -161.5q20.5 -20.5 20.5 -51.5q0 -28 -20.5 -48t-49.5 -20q-28 0 -49 20t-21 48q0 30 21 51t49 21q29 0 49.5 -20.5z" />
    <glyph glyph-name="afii57417" unicode="&#x629;" horiz-adv-x="998" 
d="M86 0v475q0 209 102 326t310 117h346v-918h-758zM180 473v-387h570v745h-252q-318 0 -318 -358zM454.5 1227.5q20.5 -19.5 20.5 -47.5q0 -31 -20.5 -51.5t-49.5 -20.5q-28 0 -48.5 21t-20.5 51q0 28 20.5 47.5t48.5 19.5q29 0 49.5 -19.5zM659.5 1227.5
q20.5 -19.5 20.5 -47.5q0 -31 -20.5 -51.5t-49.5 -20.5q-28 0 -49 21t-21 51q0 27 21 47t49 20q29 0 49.5 -19.5z" />
    <glyph glyph-name="afii57418" unicode="&#x62a;" horiz-adv-x="1535" 
d="M457 0q-201 0 -296 102.5t-95 300.5v314h94v-326q0 -147 75.5 -226t233.5 -79h817v832h94v-918h-923zM667.5 1092.5q20.5 -19.5 20.5 -47.5q0 -31 -20.5 -51.5t-49.5 -20.5q-28 0 -48.5 21t-20.5 51q0 28 20.5 47.5t48.5 19.5q29 0 49.5 -19.5zM872.5 1092.5
q20.5 -19.5 20.5 -47.5q0 -31 -20.5 -51.5t-49.5 -20.5q-28 0 -49 21t-21 51q0 27 21 47t49 20q29 0 49.5 -19.5z" />
    <glyph glyph-name="afii57419" unicode="&#x62b;" horiz-adv-x="1535" 
d="M457 0q-201 0 -296 102.5t-95 300.5v314h94v-326q0 -147 75.5 -226t233.5 -79h817v832h94v-918h-923zM778.5 1328q20.5 -20 20.5 -48q0 -31 -20.5 -51.5t-49.5 -20.5q-28 0 -48.5 21t-20.5 51q0 27 21 47.5t48 20.5q29 0 49.5 -20zM674.5 1150q20.5 -20 20.5 -48
q0 -31 -20.5 -51.5t-49.5 -20.5q-28 0 -49 21t-21 51q0 28 21 48t49 20q29 0 49.5 -20zM879 1150q20 -20 20 -48q0 -31 -20 -51.5t-49 -20.5q-28 0 -49 21t-21 51q0 28 21 48t49 20q29 0 49 -20z" />
    <glyph glyph-name="afii57420" unicode="&#x62c;" horiz-adv-x="1150" 
d="M932.5 755q124.5 -181 124.5 -462v-293h-725q-81 0 -130.5 -42t-49.5 -142q0 -96 48 -135t130 -39h233v-86h-233q-139 0 -204 70t-65 188q0 119 66 195.5t203 76.5h633v209q0 280 -119 415.5t-332 135.5q-111 0 -215 -23l-16 88q47 11 108.5 18t124.5 7q294 0 418.5 -181
zM774.5 -161.5q20.5 -20.5 20.5 -51.5q0 -28 -20.5 -48t-49.5 -20q-28 0 -49 20t-21 48q0 30 21 51t49 21q29 0 49.5 -20.5z" />
    <glyph glyph-name="afii57421" unicode="&#x62d;" horiz-adv-x="1150" 
d="M932.5 755q124.5 -181 124.5 -462v-293h-725q-81 0 -130.5 -42t-49.5 -142q0 -96 48 -135t130 -39h336v-86h-336q-139 0 -204 70t-65 188q0 119 66 195.5t203 76.5h633v209q0 280 -119 415.5t-332 135.5q-111 0 -215 -23l-16 88q47 11 108.5 18t124.5 7q294 0 418.5 -181
z" />
    <glyph glyph-name="afii57422" unicode="&#x62e;" horiz-adv-x="1150" 
d="M932.5 755q124.5 -181 124.5 -462v-293h-725q-81 0 -130.5 -42t-49.5 -142q0 -96 48 -135t130 -39h336v-86h-336q-139 0 -204 70t-65 188q0 119 66 195.5t203 76.5h633v209q0 280 -119 415.5t-332 135.5q-111 0 -215 -23l-16 88q47 11 108.5 18t124.5 7q294 0 418.5 -181
zM596.5 1223q20.5 -20 20.5 -47q0 -31 -20.5 -51.5t-49.5 -20.5q-28 0 -49 21t-21 51q0 27 21 47t49 20q29 0 49.5 -20z" />
    <glyph glyph-name="afii57423" unicode="&#x62f;" horiz-adv-x="962" 
d="M848 514v-514h-776v86h682v440q0 305 -310 305h-223v87h236q391 0 391 -404z" />
    <glyph glyph-name="afii57424" unicode="&#x630;" horiz-adv-x="962" 
d="M848 514v-514h-776v86h682v440q0 305 -310 305h-223v87h236q391 0 391 -404zM471.5 1223q20.5 -20 20.5 -47q0 -31 -20.5 -51.5t-49.5 -20.5q-28 0 -49 21t-21 51q0 27 21 47t49 20q29 0 49.5 -20z" />
    <glyph glyph-name="afii57425" unicode="&#x631;" horiz-adv-x="547" 
d="M291 -327.5q-102 -116.5 -309 -116.5h-23v86h23q165 0 241 89t76 269v918h94v-920q0 -209 -102 -325.5z" />
    <glyph glyph-name="afii57426" unicode="&#x632;" horiz-adv-x="547" 
d="M291 -327.5q-102 -116.5 -309 -116.5h-23v86h23q165 0 241 89t76 269v918h94v-920q0 -209 -102 -325.5zM389.5 1223q20.5 -20 20.5 -47q0 -31 -20.5 -51.5t-49.5 -20.5q-28 0 -49 21t-21 51q0 27 21 47t49 20q29 0 49.5 -20z" />
    <glyph glyph-name="afii57427" unicode="&#x633;" horiz-adv-x="2244" 
d="M1085 0q-13 -115 -73 -216t-170 -164.5t-264 -63.5q-262 0 -387 137t-125 393v553h94v-584q0 -206 108 -309.5t310 -103.5q134 0 226.5 51.5t139.5 144t47 213.5v867h94v-832h422v766h95v-766h393v832h94v-918h-1004z" />
    <glyph glyph-name="afii57428" unicode="&#x634;" horiz-adv-x="2244" 
d="M1085 0q-13 -115 -73 -216t-170 -164.5t-264 -63.5q-262 0 -387 137t-125 393v553h94v-584q0 -206 108 -309.5t310 -103.5q134 0 226.5 51.5t139.5 144t47 213.5v867h94v-832h422v766h95v-766h393v832h94v-918h-1004zM1603.5 1463q20.5 -20 20.5 -48q0 -31 -20.5 -51.5
t-49.5 -20.5q-28 0 -48.5 21t-20.5 51q0 27 21 47.5t48 20.5q29 0 49.5 -20zM1499.5 1285q20.5 -20 20.5 -48q0 -31 -20.5 -51.5t-49.5 -20.5q-28 0 -49 21t-21 51q0 28 21 48t49 20q29 0 49.5 -20zM1704 1285q20 -20 20 -48q0 -31 -20 -51.5t-49 -20.5q-28 0 -49 21t-21 51
q0 28 21 48t49 20q29 0 49 -20z" />
    <glyph glyph-name="afii57429" unicode="&#x635;" horiz-adv-x="2375" 
d="M2261 514v-514h-1178q-13 -115 -73 -216t-170 -164.5t-265 -63.5q-261 0 -385 137t-124 393v553h94v-584q0 -206 107 -309.5t308 -103.5q134 0 227 51.5t140 144t47 213.5v867h881q391 0 391 -404zM1083 86h1084v440q0 305 -309 305h-775v-745z" />
    <glyph glyph-name="afii57430" unicode="&#x636;" horiz-adv-x="2375" 
d="M2261 514v-514h-1178q-13 -115 -73 -216t-170 -164.5t-265 -63.5q-261 0 -385 137t-124 393v553h94v-584q0 -206 107 -309.5t308 -103.5q134 0 227 51.5t140 144t47 213.5v867h881q391 0 391 -404zM1083 86h1084v440q0 305 -309 305h-775v-745zM1661.5 1223
q20.5 -20 20.5 -47q0 -31 -20.5 -51.5t-49.5 -20.5q-28 0 -49 21t-21 51q0 27 21 47t49 20q29 0 49.5 -20z" />
    <glyph glyph-name="afii57431" unicode="&#x637;" horiz-adv-x="1801" 
d="M1296 918q392 0 392 -404v-514h-1649v86h375v1280h94v-448h788zM508 86h1085v440q0 305 -309 305h-776v-745z" />
    <glyph glyph-name="afii57432" unicode="&#x638;" horiz-adv-x="1801" 
d="M1296 918q392 0 392 -404v-514h-1649v86h375v1280h94v-448h788zM508 86h1085v440q0 305 -309 305h-776v-745zM1077.5 1223q20.5 -20 20.5 -47q0 -31 -20.5 -51.5t-49.5 -20.5q-28 0 -49 21t-21 51q0 27 21 47t49 20q29 0 49.5 -20z" />
    <glyph glyph-name="afii57433" unicode="&#x639;" horiz-adv-x="1129" 
d="M811 831q-160 0 -238.5 -98t-78.5 -260v-387h553v-86h-715q-81 0 -130.5 -42t-49.5 -142q0 -96 48 -135t130 -39h332v-86h-332q-139 0 -204 70t-65 188q0 119 66 195.5t203 76.5h69v389q0 209 102 326t310 117h170v-87h-170z" />
    <glyph glyph-name="afii57434" unicode="&#x63a;" horiz-adv-x="1129" 
d="M811 831q-160 0 -238.5 -98t-78.5 -260v-387h553v-86h-715q-81 0 -130.5 -42t-49.5 -142q0 -96 48 -135t130 -39h332v-86h-332q-139 0 -204 70t-65 188q0 119 66 195.5t203 76.5h69v389q0 209 102 326t310 117h170v-87h-170zM837.5 1223q20.5 -20 20.5 -47
q0 -31 -20.5 -51.5t-49.5 -20.5q-28 0 -49 21t-21 51q0 27 21 47t49 20q29 0 49.5 -20z" />
    <glyph glyph-name="afii57440" unicode="&#x640;" horiz-adv-x="451" 
d="M-64 9q-18 9 -18 34q0 43 82 43h451q81 0 81 -43q0 -21 -18.5 -32t-62.5 -11h-451q-46 0 -64 9z" />
    <glyph glyph-name="afii57441" unicode="&#x641;" horiz-adv-x="2053" 
d="M457 0q-198 0 -294.5 103t-96.5 300v314h94v-326q0 -147 75.5 -226t233.5 -79h672v389q0 209 102 326t309 117h346v-918h-1441zM1235 473v-387h569v745h-252q-317 0 -317 -358zM1626.5 1223q20.5 -20 20.5 -47q0 -31 -20.5 -51.5t-49.5 -20.5q-28 0 -49 21t-21 51
q0 27 21 47t49 20q29 0 49.5 -20z" />
    <glyph glyph-name="afii57442" unicode="&#x642;" horiz-adv-x="1527" 
d="M1234.5 -208q-149.5 -148 -439.5 -148h-142q-300 0 -443.5 141t-143.5 444v174h94v-176q0 -138 38 -246.5t145.5 -179.5t303.5 -71h101q210 0 329 63.5t165.5 173.5t47.5 269h-663v475q0 209 102 325.5t309 116.5h346v-917q0 -296 -149.5 -444zM799.5 968.5
q-78.5 -98.5 -78.5 -259.5v-387h569v745h-252q-160 0 -238.5 -98.5zM1028.5 1452.5q20.5 -19.5 20.5 -47.5q0 -31 -20.5 -51.5t-49.5 -20.5q-28 0 -48.5 21t-20.5 51q0 28 20.5 47.5t48.5 19.5q29 0 49.5 -19.5zM1233.5 1452.5q20.5 -19.5 20.5 -47.5q0 -31 -20.5 -51.5
t-49.5 -20.5q-28 0 -49 21t-21 51q0 27 21 47t49 20q29 0 49.5 -19.5z" />
    <glyph glyph-name="afii57443" unicode="&#x643;" horiz-adv-x="1535" 
d="M457 0q-201 0 -296 102.5t-95 300.5v314h94v-326q0 -147 75.5 -226t233.5 -79h817v1280h94v-1366h-923zM633 897h207q59 0 85.5 -29t26.5 -86v-190h-440v63h379v119q0 60 -57 60h-273v34q0 31 13.5 51t52.5 46l153 102v-74z" />
    <glyph glyph-name="afii57444" unicode="&#x644;" horiz-adv-x="1240" 
d="M957.5 -295.5q-127.5 -148.5 -379.5 -148.5q-262 0 -387 137t-125 393v553h94v-584q0 -206 108 -309.5t310 -103.5q134 0 226.5 51.5t139.5 144t47 213.5v1315h94v-1241q0 -272 -127.5 -420.5z" />
    <glyph glyph-name="afii57445" unicode="&#x645;" horiz-adv-x="1279" 
d="M203 -47.5q-49 -47.5 -49 -136.5v-260h-88v280q0 47 26 105.5t84 101.5t148 43h63v389q0 209 102 326t310 117h346v-918h-817q-76 0 -125 -47.5zM481 473v-387h570v745h-252q-318 0 -318 -358z" />
    <glyph glyph-name="afii57446" unicode="&#x646;" horiz-adv-x="1240" 
d="M1025.5 -199.5q-59.5 -115.5 -174 -180t-273.5 -64.5q-262 0 -387 137t-125 393v553h94v-584q0 -206 108 -309.5t310 -103.5q134 0 226.5 51.5t139.5 144t47 213.5v867h94v-852q0 -150 -59.5 -265.5zM612.5 1164q20.5 -20 20.5 -47q0 -31 -20.5 -51.5t-49.5 -20.5
q-28 0 -49 21t-21 51q0 27 21 47t49 20q29 0 49.5 -20z" />
    <glyph glyph-name="afii57470" unicode="&#x647;" horiz-adv-x="998" 
d="M86 0v475q0 209 102 326t310 117h346v-918h-758zM180 473v-387h570v745h-252q-318 0 -318 -358z" />
    <glyph glyph-name="afii57448" unicode="&#x648;" horiz-adv-x="1097" 
d="M541 -358q118 0 187.5 41t99.5 119.5t30 197.5h-663v475q0 209 102 326t309 117h346l-2 -918q-2 -209 -90.5 -326.5t-267.5 -117.5h-268v86h217zM858 831h-252q-317 0 -317 -358v-387h569v745z" />
    <glyph glyph-name="afii57449" unicode="&#x649;" horiz-adv-x="1816" 
d="M1567 0v831h-172q-159 0 -234.5 -78.5t-75.5 -226.5v-460q0 -150 -59.5 -265.5t-174 -180t-273.5 -64.5q-262 0 -387 137t-125 393v553h94v-584q0 -206 108 -309.5t310 -103.5q134 0 226.5 51.5t139.5 144t47 213.5v463q0 404 391 404h279v-918h-94z" />
    <glyph glyph-name="afii57450" unicode="&#x64a;" horiz-adv-x="1816" 
d="M1567 0v831h-172q-159 0 -234.5 -78.5t-75.5 -226.5v-460q0 -150 -59.5 -265.5t-174 -180t-273.5 -64.5q-262 0 -387 137t-125 393v553h94v-584q0 -206 108 -309.5t310 -103.5q134 0 226.5 51.5t139.5 144t47 213.5v463q0 404 391 404h279v-918h-94zM548.5 -554.5
q20.5 -20.5 20.5 -51.5q0 -28 -20.5 -48t-49.5 -20q-28 0 -48.5 20t-20.5 48q0 30 20.5 51t48.5 21q29 0 49.5 -20.5zM753.5 -554.5q20.5 -20.5 20.5 -51.5q0 -28 -20.5 -48t-49.5 -20q-28 0 -49 20t-21 48q0 30 21 51t49 21q29 0 49.5 -20.5z" />
    <glyph glyph-name="afii57451" unicode="&#x64b;" horiz-adv-x="0" 
d="M-213 1729v59h442v-59h-442zM-213 1579v59h442v-59h-442z" />
    <glyph glyph-name="afii57452" unicode="&#x64c;" horiz-adv-x="0" 
d="M227 1965.5q39 -49.5 39 -155.5q0 -124 -66.5 -177.5t-185.5 -53.5h-180v131q0 52 -18 86.5t-62 34.5v67q66 0 104 -46.5t38 -118.5v-95h118q86 0 129.5 30.5t57.5 88.5h-86q-61 0 -97 33.5t-36 87.5q0 60 39.5 98.5t103.5 38.5q63 0 102 -49.5zM65 1828.5
q22 -13.5 64 -13.5h80q1 55 -20 98t-68 43q-34 0 -56 -22t-22 -56q0 -36 22 -49.5z" />
    <glyph glyph-name="afii57453" unicode="&#x64d;" horiz-adv-x="0" 
d="M-213 -272v59h442v-59h-442zM-213 -422v60h442v-60h-442z" />
    <glyph glyph-name="afii57454" unicode="&#x64e;" horiz-adv-x="0" 
d="M-213 1579v59h442v-59h-442z" />
    <glyph glyph-name="afii57455" unicode="&#x64f;" horiz-adv-x="0" 
d="M104 1965.5q39 -49.5 39 -155.5q0 -124 -66.5 -177.5t-185.5 -53.5h-30v59h30q86 0 129.5 30.5t57.5 88.5h-86q-61 0 -97 33.5t-36 87.5q0 60 39.5 98.5t103.5 38.5q63 0 102 -49.5zM-58 1828.5q22 -13.5 64 -13.5h80q1 55 -20 98t-68 43q-34 0 -56 -22t-22 -56
q0 -36 22 -49.5z" />
    <glyph glyph-name="afii57456" unicode="&#x650;" horiz-adv-x="0" 
d="M-213 -272v59h442v-59h-442z" />
    <glyph glyph-name="afii57457" unicode="&#x651;" horiz-adv-x="0" 
d="M221 1616.5q-37 -39.5 -104 -39.5q-36 0 -62.5 11t-48.5 36q-23 -25 -49.5 -36t-60.5 -11q-69 0 -105.5 39.5t-36.5 114.5v174h62v-181q0 -41 22 -65.5t58 -24.5q34 0 56.5 22.5t22.5 59.5v189h62v-189q0 -38 22 -60t58 -22q34 0 57 25t23 65v181h61v-174
q0 -75 -37 -114.5z" />
    <glyph glyph-name="afii57458" unicode="&#x652;" horiz-adv-x="0" 
d="M80 1868q38 -22 60 -59.5t22 -82.5q0 -44 -22 -81t-60 -58.5t-82 -21.5t-81.5 21.5t-59 58.5t-21.5 81q0 45 21.5 82.5t59 59.5t81.5 22t82 -22zM-72.5 1801.5q-29.5 -29.5 -29.5 -72.5t29.5 -73t72.5 -30t72.5 30t29.5 73t-29.5 72.5t-72.5 29.5t-72.5 -29.5z" />
    <glyph glyph-name="uni0653" unicode="&#x653;" horiz-adv-x="0" 
d="M-105.5 1760.5q41.5 -17.5 101.5 -52.5q61 -34 99 -51t75 -17q51 0 67.5 26.5t16.5 76.5h55q0 -83 -36.5 -125.5t-108.5 -42.5q-44 0 -90.5 20t-117.5 59q-51 30 -84.5 45t-59.5 15q-44 0 -66 -32t-22 -83h-56q0 59 20.5 99.5t54 60t71.5 19.5q39 0 80.5 -17.5z" />
    <glyph glyph-name="uni0654" unicode="&#x654;" horiz-adv-x="1" 
d="M262 1819q-43 0 -63.5 -32.5t-20.5 -88.5v-109h221v-61h-379v61h93v111q0 96 43.5 138t144.5 42h70v-61h-109z" />
    <glyph glyph-name="uni0655" unicode="&#x655;" horiz-adv-x="1" 
d="M352 -283q-53 0 -72.5 -30.5t-19.5 -89.5v-109h221v-61h-379v61h93v111q0 95 41 137.5t131 42.5h86v-62h-101z" />
    <glyph glyph-name="uni0656" unicode="&#x656;" horiz-adv-x="0" 
d="M-23 -629v416h62v-416h-62z" />
    <glyph glyph-name="uni0658" unicode="&#x658;" horiz-adv-x="0" 
d="M133 1619.5q-45 -48.5 -125 -48.5t-126 44t-46 122v161h62v-151q0 -123 110 -123q55 0 82 29t27 94v151h61v-147q0 -83 -45 -131.5z" />
    <glyph glyph-name="afii57392" unicode="&#x660;" horiz-adv-x="984" 
d="M489 340l-110 113l110 108l113 -110z" />
    <glyph glyph-name="afii57393" unicode="&#x661;" horiz-adv-x="984" 
d="M444 2v1366h95v-1366h-95z" />
    <glyph glyph-name="afii57394" unicode="&#x662;" horiz-adv-x="984" 
d="M880.5 1122q-2.5 -30 -13 -61.5t-33.5 -63.5q-49 -64 -118.5 -90t-158.5 -26h-211v-881h-94v1366h94v-399h225q107 0 162 51.5t55 152.5v195h95v-164q0 -50 -2.5 -80z" />
    <glyph glyph-name="afii57395" unicode="&#x663;" horiz-adv-x="984" 
d="M860.5 949.5q-78.5 -68.5 -237.5 -68.5h-394v-881h-94v1366h94v-399h265v399h94v-399h49q107 0 162 50t55 150v199h94l-2 -201q-7 -147 -85.5 -215.5z" />
    <glyph glyph-name="afii57396" unicode="&#x664;" horiz-adv-x="984" 
d="M659 1278q-122 0 -208 -59t-86 -209q0 -68 30 -129.5t82.5 -99.5t116.5 -38h164v-86h-183q-91 0 -151 -41.5t-88.5 -109.5t-28.5 -148q0 -126 72 -199t213 -73h229v-86h-280q-82 0 -156.5 33.5t-124 115t-49.5 216.5q0 114 53.5 205.5t153.5 131.5q-67 48 -107.5 131.5
t-40.5 170.5q0 175 96 270t283 92l109 -2v-86h-99z" />
    <glyph glyph-name="afii57397" unicode="&#x665;" horiz-adv-x="984" 
d="M677.5 1321.5q70.5 -41.5 106.5 -124.5t47 -216l56 -635l2 -22q1 -9 1 -26q0 -95 -60 -161.5t-151.5 -99.5t-186.5 -33q-99 0 -188.5 29t-149.5 100.5t-60 190.5v22l58 635q11 133 47 216t106.5 124.5t186.5 42.5q115 -1 185.5 -42.5zM332 1233q-54 -45 -70 -100
t-22 -129l-58 -656v-16q0 -123 92.5 -175.5t217.5 -52.5q131 0 220 52t89 176v14l-58 658q-6 74 -22 129t-69.5 100t-159.5 45t-160 -45z" />
    <glyph glyph-name="afii57398" unicode="&#x666;" horiz-adv-x="984" 
d="M707 0v1280h-635v86h729v-1366h-94z" />
    <glyph glyph-name="afii57399" unicode="&#x667;" horiz-adv-x="984" 
d="M446 0l-403 1352h104l345 -1180l344 1180h104l-408 -1352h-86z" />
    <glyph glyph-name="afii57400" unicode="&#x668;" horiz-adv-x="984" 
d="M836 0l-344 1180l-345 -1180h-104l403 1352h86l408 -1352h-104z" />
    <glyph glyph-name="afii57401" unicode="&#x669;" horiz-adv-x="984" 
d="M717 0v639h-185q-389 0 -389 356q0 183 101 277t286 94h279v-1366h-92zM335 1236.5q-54 -43.5 -75.5 -108t-21.5 -135.5q0 -124 63.5 -196t190.5 -72h223v555h-236q-90 0 -144 -43.5z" />
    <glyph glyph-name="afii57381" unicode="&#x66a;" horiz-adv-x="1459" 
d="M492 0l446 1366h76l-445 -1366h-77zM465 1100l-111 112l111 109l113 -111zM989 25l-112 110l112 111l111 -113z" />
    <glyph glyph-name="uni066B" unicode="&#x66b;" horiz-adv-x="576" 
d="M129 -248l107 463h114l-139 -463h-82z" />
    <glyph glyph-name="uni066C" unicode="&#x66c;" horiz-adv-x="579" 
d="M129 -248l107 463h114l-139 -463h-82z" />
    <glyph glyph-name="afii63167" unicode="&#x66d;" horiz-adv-x="1916" 
d="M1819 848l14 -45l-596 -340l276 -610l-26 -21l-500 451l-508 -451l-22 21l258 608l-576 342l11 45l681 -84l144 659h26l138 -659z" />
    <glyph glyph-name="uni066E" unicode="&#x66e;" horiz-adv-x="1535" 
d="M457 0q-201 0 -296 102.5t-95 300.5v314h94v-326q0 -147 75.5 -226t233.5 -79h817v832h94v-918h-923z" />
    <glyph glyph-name="uni066F" unicode="&#x66f;" horiz-adv-x="1527" 
d="M1234.5 -208q-149.5 -148 -439.5 -148h-142q-300 0 -443.5 141t-143.5 444v174h94v-176q0 -138 38 -246.5t145.5 -179.5t303.5 -71h101q210 0 329 63.5t165.5 173.5t47.5 269h-663v475q0 209 102 325.5t309 116.5h346v-917q0 -296 -149.5 -444zM799.5 968.5
q-78.5 -98.5 -78.5 -259.5v-387h569v745h-252q-160 0 -238.5 -98.5z" />
    <glyph glyph-name="uni0670" unicode="&#x670;" horiz-adv-x="0" 
d="M-23 1579v428h62v-428h-62z" />
    <glyph glyph-name="uni0671" unicode="&#x671;" horiz-adv-x="401" 
d="M154 0v1366h94v-1366h-94zM332.5 1708q13.5 -4 26.5 -16q22 -22 22 -64v-126h-375v53h41v157h246q26 0 39.5 -4zM97 1555h235v47q0 29 -10 43t-37 14h-188v-104z" />
    <glyph glyph-name="afii57511" unicode="&#x679;" horiz-adv-x="1535" 
d="M457 0q-201 0 -296 102.5t-95 300.5v314h94v-326q0 -147 75.5 -226t233.5 -79h817v832h94v-918h-923zM575 1106v53h41v252h49v-94h197q46 0 67 -21t21 -63v-127h-375zM665 1159h236v47q0 29 -10 43.5t-37 14.5h-189v-105z" />
    <glyph glyph-name="afii57506" unicode="&#x67e;" horiz-adv-x="1535" 
d="M457 0q-201 0 -296 102.5t-95 300.5v314h94v-326q0 -147 75.5 -226t233.5 -79h817v832h94v-918h-923zM722.5 -161.5q20.5 -20.5 20.5 -51.5q0 -28 -20.5 -48t-49.5 -20q-28 0 -48.5 20t-20.5 48q0 30 20.5 51t48.5 21q29 0 49.5 -20.5zM927.5 -161.5
q20.5 -20.5 20.5 -51.5q0 -28 -20.5 -48t-49.5 -20q-28 0 -49 20t-21 48q0 30 21 51t49 21q29 0 49.5 -20.5zM827 -339.5q20 -20.5 20 -51.5q0 -28 -20 -48t-49 -20q-28 0 -49 20t-21 48q0 30 21 51t49 21q29 0 49 -20.5z" />
    <glyph glyph-name="afii57507" unicode="&#x686;" horiz-adv-x="1222" 
d="M996 755q124 -181 124 -462v-293h-663q-82 0 -131.5 -42t-49.5 -142q0 -96 48.5 -135t130.5 -39h49v-86h-49q-139 0 -204 70t-65 188q0 119 66 195.5t203 76.5h571v209q0 281 -119 416t-332 135q-111 0 -215 -23l-16 88q47 11 108.5 18t125.5 7q294 0 418 -181z
M692.5 -161.5q20.5 -20.5 20.5 -51.5q0 -28 -20.5 -48t-49.5 -20q-28 0 -48.5 20t-20.5 48q0 30 20.5 51t48.5 21q29 0 49.5 -20.5zM897.5 -161.5q20.5 -20.5 20.5 -51.5q0 -28 -20.5 -48t-49.5 -20q-28 0 -49 20t-21 48q0 30 21 51t49 21q29 0 49.5 -20.5zM797 -339.5
q20 -20.5 20 -51.5q0 -28 -20 -48t-49 -20q-28 0 -49 20t-21 48q0 30 21 51t49 21q29 0 49 -20.5z" />
    <glyph glyph-name="afii57512" unicode="&#x688;" horiz-adv-x="962" 
d="M848 514v-514h-776v86h682v440q0 305 -310 305h-223v87h236q391 0 391 -404zM260 1106v53h41v252h49v-94h197q46 0 67 -21t21 -63v-127h-375zM350 1159h236v47q0 29 -10 43.5t-37 14.5h-189v-105z" />
    <glyph glyph-name="afii57513" unicode="&#x691;" horiz-adv-x="547" 
d="M291 -327.5q-102 -116.5 -309 -116.5h-23v86h23q165 0 241 89t76 269v918h94v-920q0 -209 -102 -325.5zM153 1106v53h41v252h49v-94h197q46 0 67 -21t21 -63v-127h-375zM243 1159h236v47q0 29 -10 43.5t-37 14.5h-189v-105z" />
    <glyph glyph-name="afii57508" unicode="&#x698;" horiz-adv-x="547" 
d="M291 -327.5q-102 -116.5 -309 -116.5h-23v86h23q165 0 241 89t76 269v918h94v-920q0 -209 -102 -325.5zM387.5 1463q20.5 -20 20.5 -48q0 -31 -20.5 -51.5t-49.5 -20.5q-28 0 -48.5 21t-20.5 51q0 27 21 47.5t48 20.5q29 0 49.5 -20zM283.5 1285q20.5 -20 20.5 -48
q0 -31 -20.5 -51.5t-49.5 -20.5q-28 0 -49 21t-21 51q0 28 21 48t49 20q29 0 49.5 -20zM488 1285q20 -20 20 -48q0 -31 -20 -51.5t-49 -20.5q-28 0 -49 21t-21 51q0 28 21 48t49 20q29 0 49 -20z" />
    <glyph glyph-name="uni06A1" unicode="&#x6a1;" horiz-adv-x="2053" 
d="M457 0q-198 0 -294.5 103t-96.5 300v314h94v-326q0 -147 75.5 -226t233.5 -79h672v389q0 209 102 326t309 117h346v-918h-1441zM1235 473v-387h569v745h-252q-317 0 -317 -358z" />
    <glyph glyph-name="afii57505" unicode="&#x6a4;" horiz-adv-x="2053" 
d="M457 0q-198 0 -294.5 103t-96.5 300v314h94v-326q0 -147 75.5 -226t233.5 -79h672v389q0 209 102 326t309 117h346v-918h-1441zM1235 473v-387h569v745h-252q-317 0 -317 -358zM1603.5 1463q20.5 -20 20.5 -48q0 -31 -20.5 -51.5t-49.5 -20.5q-28 0 -48.5 21t-20.5 51
q0 27 21 47.5t48 20.5q29 0 49.5 -20zM1499.5 1285q20.5 -20 20.5 -48q0 -31 -20.5 -51.5t-49.5 -20.5q-28 0 -49 21t-21 51q0 28 21 48t49 20q29 0 49.5 -20zM1704 1285q20 -20 20 -48q0 -31 -20 -51.5t-49 -20.5q-28 0 -49 21t-21 51q0 28 21 48t49 20q29 0 49 -20z" />
    <glyph glyph-name="uni06A9" unicode="&#x6a9;" horiz-adv-x="1623" 
d="M555 918h563q200 0 295.5 -103t95.5 -301v-514h-1427v86h1333v440q0 305 -309 305h-682v25q0 36 24 67.5t66 63.5t133 94l512 342v-98z" />
    <glyph glyph-name="afii57509" unicode="&#x6af;" horiz-adv-x="1623" 
d="M555 918h563q200 0 295.5 -103t95.5 -301v-514h-1427v86h1333v440q0 305 -309 305h-682v25q0 36 24 67.5t66 63.5t133 94l512 342v-98zM450 1081v95l701 458v-94z" />
    <glyph glyph-name="afii57514" unicode="&#x6ba;" horiz-adv-x="1240" 
d="M1025.5 -199.5q-59.5 -115.5 -174 -180t-273.5 -64.5q-262 0 -387 137t-125 393v553h94v-584q0 -206 108 -309.5t310 -103.5q134 0 226.5 51.5t139.5 144t47 213.5v867h94v-852q0 -150 -59.5 -265.5z" />
    <glyph glyph-name="uni06BE" unicode="&#x6be;" horiz-adv-x="1621" 
d="M1305.5 808q122.5 -100 172.5 -278t50 -444v-86h-1374q-40 0 -71.5 22t-31.5 50v14h264q0 266 49.5 443.5t172.5 278t337 109.5v101h95v-101q214 -9 336.5 -109zM1381 513q-53 160 -154.5 233t-257.5 82v-742h465q0 267 -53 427zM874 828q-156 -9 -257.5 -82t-154 -233
t-52.5 -427h464v742z" />
    <glyph glyph-name="uni06C0" unicode="&#x6c0;" horiz-adv-x="957" 
d="M536 1409q-43 0 -63.5 -32.5t-20.5 -88.5v-109h221v-61h-379v61h93v111q0 96 43.5 138t144.5 42h70v-61h-109zM86 0v475q0 209 102 326t310 117h346v-918h-758zM180 473v-387h570v745h-252q-318 0 -318 -358z" />
    <glyph glyph-name="uni06C1" unicode="&#x6c1;" horiz-adv-x="998" 
d="M86 0v475q0 209 102 326t310 117h346v-918h-758zM180 473v-387h570v745h-252q-318 0 -318 -358z" />
    <glyph glyph-name="uni06C2" unicode="&#x6c2;" horiz-adv-x="957" 
d="M536 1409q-43 0 -63.5 -32.5t-20.5 -88.5v-109h221v-61h-379v61h93v111q0 96 43.5 138t144.5 42h70v-61h-109zM86 0v475q0 209 102 326t310 117h346v-918h-758zM180 473v-387h570v745h-252q-318 0 -318 -358z" />
    <glyph glyph-name="uni06C3" unicode="&#x6c3;" horiz-adv-x="998" 
d="M454.5 1227.5q20.5 -19.5 20.5 -47.5q0 -31 -20.5 -51.5t-49.5 -20.5q-28 0 -48.5 21t-20.5 51q0 28 20.5 47.5t48.5 19.5q29 0 49.5 -19.5zM659.5 1227.5q20.5 -19.5 20.5 -47.5q0 -31 -20.5 -51.5t-49.5 -20.5q-28 0 -49 21t-21 51q0 27 21 47t49 20q29 0 49.5 -19.5z
M86 0v475q0 209 102 326t310 117h346v-918h-758zM180 473v-387h570v745h-252q-318 0 -318 -358z" />
    <glyph glyph-name="uni06CC" unicode="&#x6cc;" horiz-adv-x="1816" 
d="M1567 0v831h-172q-159 0 -234.5 -78.5t-75.5 -226.5v-460q0 -150 -59.5 -265.5t-174 -180t-273.5 -64.5q-262 0 -387 137t-125 393v553h94v-584q0 -206 108 -309.5t310 -103.5q134 0 226.5 51.5t139.5 144t47 213.5v463q0 404 391 404h279v-918h-94z" />
    <glyph glyph-name="afii57519" unicode="&#x6d2;" horiz-adv-x="2004" 
d="M754 551h-285q-158 0 -233.5 -79t-75.5 -226v-160h1779v-86h-1873v233q0 199 95 301.5t296 102.5h284q296 0 310 281v198h94v-198q-16 -367 -391 -367z" />
    <glyph glyph-name="uni06D3" unicode="&#x6d3;" horiz-adv-x="2022" 
d="M754 551h-285q-158 0 -233.5 -79t-75.5 -226v-160h1779v-86h-1873v233q0 199 95 301.5t296 102.5h284q296 0 310 281v198h94v-198q-16 -367 -391 -367zM416 1196q-43 0 -63.5 -32.5t-20.5 -88.5v-109h221v-61h-379v61h93v111q0 96 43.5 138t144.5 42h70v-61h-109z" />
    <glyph glyph-name="uni06D4" unicode="&#x6d4;" horiz-adv-x="1103" 
d="M399 0q-98 0 -154 6t-86.5 24.5t-35.5 55.5h835v-86h-559z" />
    <glyph glyph-name="afii57534" unicode="&#x6d5;" horiz-adv-x="998" 
d="M86 0v475q0 209 102 326t310 117h346v-918h-758zM180 473v-387h570v745h-252q-318 0 -318 -358z" />
    <glyph glyph-name="uni06F0" unicode="&#x6f0;" horiz-adv-x="984" 
d="M489 340l-110 113l110 108l113 -110z" />
    <glyph glyph-name="uni06F1" unicode="&#x6f1;" horiz-adv-x="984" 
d="M444 2v1366h95v-1366h-95z" />
    <glyph glyph-name="uni06F2" unicode="&#x6f2;" horiz-adv-x="984" 
d="M880.5 1122q-2.5 -30 -13 -61.5t-33.5 -63.5q-49 -64 -118.5 -90t-158.5 -26h-211v-881h-94v1366h94v-399h225q107 0 162 51.5t55 152.5v195h95v-164q0 -50 -2.5 -80z" />
    <glyph glyph-name="uni06F3" unicode="&#x6f3;" horiz-adv-x="984" 
d="M860.5 949.5q-78.5 -68.5 -237.5 -68.5h-394v-881h-94v1366h94v-399h265v399h94v-399h49q107 0 162 50t55 150v199h94l-2 -201q-7 -147 -85.5 -215.5z" />
    <glyph glyph-name="uni06F4" unicode="&#x6f4;" horiz-adv-x="1005" 
d="M485 1102q0 131 68 196t197 68h14l-29 -88q-94 5 -124.5 -58.5t-30.5 -154.5v-186h104q170 0 217 127l74 -48q-37 -81 -115 -123t-190 -42h-424v-793h-94v1366h94v-487h239v223z" />
    <glyph glyph-name="uni06F5" unicode="&#x6f5;" horiz-adv-x="984" 
d="M664.5 1316q73.5 -48 116.5 -134.5t53 -200.5l65 -717q1 -8 1 -25q0 -63 -27.5 -117.5t-78.5 -87t-120 -32.5q-54 0 -94 16.5t-88 53.5q-49 -37 -90 -53.5t-99 -16.5q-60 0 -110.5 29.5t-80 83.5t-29.5 124q0 17 1 25l66 717q9 114 52 200.5t117 134.5t173 48t172.5 -48z
M348 1227q-55 -51 -79 -118t-31 -130l-68 -694q-2 -20 -2 -29q0 -77 45 -122t113 -45l14 1q77 3 152 68q39 -35 83 -52.5t86 -17.5q9 0 25 2q58 10 93.5 53t35.5 113q0 9 -2 29l-68 694q-7 63 -31 130t-78.5 118t-143.5 51t-144 -51z" />
    <glyph glyph-name="uni06F6" unicode="&#x6f6;" horiz-adv-x="984" 
d="M440 1243q-62 -39 -93.5 -102t-31.5 -133q0 -128 79 -197.5t218 -69.5h174v-77l-424 -664h-94l416 662h-88q-102 0 -185.5 40t-132.5 118t-49 188q0 100 44.5 181.5t129 129t199.5 47.5h203v-84h-215q-88 0 -150 -39z" />
    <glyph glyph-name="uni06F7" unicode="&#x6f7;" horiz-adv-x="984" 
d="M446 0l-403 1352h104l345 -1180l344 1180h104l-408 -1352h-86z" />
    <glyph glyph-name="uni06F8" unicode="&#x6f8;" horiz-adv-x="984" 
d="M836 0l-344 1180l-345 -1180h-104l403 1352h86l408 -1352h-104z" />
    <glyph glyph-name="uni06F9" unicode="&#x6f9;" horiz-adv-x="984" 
d="M717 0v639h-185q-389 0 -389 356q0 183 101 277t286 94h279v-1366h-92zM335 1236.5q-54 -43.5 -75.5 -108t-21.5 -135.5q0 -124 63.5 -196t190.5 -72h223v555h-236q-90 0 -144 -43.5z" />
    <glyph glyph-name="uni2002" unicode="&#x2002;" horiz-adv-x="1300" 
 />
    <glyph glyph-name="uni2003" unicode="&#x2003;" horiz-adv-x="2601" 
 />
    <glyph glyph-name="uni2009" unicode="&#x2009;" horiz-adv-x="260" 
 />
    <glyph glyph-name="uni200A" unicode="&#x200a;" horiz-adv-x="51" 
 />
    <glyph glyph-name="afii61664" unicode="&#x200c;" horiz-adv-x="0" 
d="M135 2400l41 -43l-133 -133l133 -135l-41 -43l-135 133l-137 -135l-41 45l135 135l-135 133l41 45l137 -139z" />
    <glyph glyph-name="afii301" unicode="&#x200d;" horiz-adv-x="0" 
d="M201 2075v120h-400v-120h-59v180h518v-180h-59z" />
    <glyph glyph-name="afii299" unicode="&#x200e;" horiz-adv-x="0" 
d="M68 2044l-43 45l106 106h-328v60h328l-106 102l43 45l180 -178z" />
    <glyph glyph-name="afii300" unicode="&#x200f;" horiz-adv-x="0" 
d="M-131 2255h330v-60h-328l104 -106l-43 -43l-180 178l180 178l43 -41z" />
    <glyph glyph-name="endash" unicode="&#x2013;" horiz-adv-x="1024" 
d="M1024 563v-90h-1024v90h1024z" />
    <glyph glyph-name="emdash" unicode="&#x2014;" horiz-adv-x="2049" 
d="M1638 563v-90h-1228v90h1228z" />
    <glyph glyph-name="quoteleft" unicode="&#x2018;" horiz-adv-x="583" 
d="M401 1360l-106 -463h-115l139 463h82z" />
    <glyph glyph-name="quoteright" unicode="&#x2019;" horiz-adv-x="583" 
d="M401 1360l-139 -463h-82l107 463h114z" />
    <glyph glyph-name="quotesinglbase" unicode="&#x201a;" horiz-adv-x="583" 
d="M401 238l-139 -463h-82l107 463h114z" />
    <glyph glyph-name="quotedblleft" unicode="&#x201c;" horiz-adv-x="841" 
d="M401 1360l-106 -463h-115l139 463h82zM659 1360l-106 -463h-115l140 463h81z" />
    <glyph glyph-name="quotedblright" unicode="&#x201d;" horiz-adv-x="841" 
d="M401 1360l-139 -463h-82l107 463h114zM659 1360l-139 -463h-82l107 463h114z" />
    <glyph glyph-name="quotedblbase" unicode="&#x201e;" horiz-adv-x="841" 
d="M401 238l-139 -463h-82l107 463h114zM659 238l-139 -463h-82l107 463h114z" />
    <glyph glyph-name="dagger" unicode="&#x2020;" 
d="M246 909v90h401v381h98v-381h402v-90h-402v-987h-98v987h-401z" />
    <glyph glyph-name="daggerdbl" unicode="&#x2021;" 
d="M647 -78v381h-401v90h401v516h-401v90h401v381h98v-381h402v-90h-402v-516h402v-90h-402v-381h-98z" />
    <glyph glyph-name="bullet" unicode="&#x2022;" horiz-adv-x="697" 
d="M143 637q32 55 86.5 87t118.5 32t119 -32t87 -87t32 -119t-32 -118.5t-87 -86.5t-119 -32t-118.5 32t-86.5 86.5t-32 118.5t32 119z" />
    <glyph glyph-name="ellipsis" unicode="&#x2026;" horiz-adv-x="1537" 
d="M309 238v-238h-106v238h106zM821 238v-238h-106v238h106zM1333 238v-238h-106v238h106z" />
    <glyph glyph-name="uni202A" unicode="&#x202a;" horiz-adv-x="0" 
d="M68 2044l-43 45l106 106h-129v60h129l-106 102l43 45l180 -178zM-221 2195v60h149v-60h-149z" />
    <glyph glyph-name="uni202B" unicode="&#x202b;" horiz-adv-x="0" 
d="M-131 2255h129v-60h-127l104 -106l-43 -43l-180 178l180 178l43 -41zM72 2195v60h149v-60h-149z" />
    <glyph glyph-name="afii61573" unicode="&#x202c;" horiz-adv-x="0" 
d="M135 2200l-106 106v-264h-62v262l-102 -104l-43 43l178 178l178 -178z" />
    <glyph glyph-name="afii61574" unicode="&#x202d;" horiz-adv-x="0" 
d="M-55 2044l-41 45l106 106h-278v60h276l-104 102l41 45l180 -178zM115 2044l-43 45l139 135l-139 133l43 45l178 -178z" />
    <glyph glyph-name="afii61575" unicode="&#x202e;" horiz-adv-x="0" 
d="M-209 2288l137 -138l-43 -43l-178 181l178 178l43 -43zM-8 2314h278v-57h-278l106 -107l-43 -43l-178 181l178 178l43 -43z" />
    <glyph glyph-name="perthousand" unicode="&#x2030;" horiz-adv-x="2377" 
d="M200.5 760q-77.5 94 -77.5 264t77.5 264t221.5 94q143 0 221 -94t78 -264t-78 -264t-221 -94q-144 0 -221.5 94zM1268 1360l-756 -1360h-100l755 1360h101zM572.5 821.5q50.5 69.5 50.5 202.5t-50.5 202.5t-150.5 69.5t-150.5 -69.5t-50.5 -202.5t50.5 -202.5
t150.5 -69.5t150.5 69.5zM1036 71.5q-78 94.5 -78 264.5t78 264t221 94q144 0 221.5 -94t77.5 -264t-77.5 -264.5t-221.5 -94.5q-143 0 -221 94.5zM1732.5 71.5q-77.5 94.5 -77.5 264.5t77.5 264t221.5 94q143 0 221 -94t78 -264t-78 -264.5t-221 -94.5q-144 0 -221.5 94.5z
M1408 132.5q50 69.5 50 203.5t-50 203t-151 69q-100 0 -150 -69.5t-50 -202.5q0 -134 50 -203.5t150 -69.5q101 0 151 69.5zM2104 132.5q50 69.5 50 203.5q0 133 -50 202.5t-150 69.5t-150.5 -69.5t-50.5 -202.5t50.5 -203t150.5 -70t150 69.5z" />
    <glyph glyph-name="guilsinglleft" unicode="&#x2039;" horiz-adv-x="583" 
d="M369 942h82l-205 -424l205 -424h-82l-238 424z" />
    <glyph glyph-name="guilsinglright" unicode="&#x203a;" horiz-adv-x="583" 
d="M131 942h82l238 -424l-238 -424h-82l205 424z" />
    <glyph glyph-name="fraction" unicode="&#x2044;" horiz-adv-x="696" 
d="M776 1360l-756 -1360h-100l756 1360h100z" />
    <glyph glyph-name="Euro" unicode="&#x20ac;" 
d="M554.5 110.5q-146.5 110.5 -192.5 340.5h-215l11 90h192q-6 56 -6 139q0 82 8 156h-205l11 90h209q49 221 194 327.5t397 106.5h291l-12 -98h-254q-228 0 -347.5 -81t-156.5 -255h717l-10 -90h-723q-8 -74 -8 -156q0 -65 8 -139h686l-10 -90h-664q25 -121 84.5 -198
t163 -115t260.5 -38h270v-100h-299q-253 0 -399.5 110.5z" />
    <glyph glyph-name="afii61289" unicode="&#x2113;" horiz-adv-x="1009" 
d="M709 17.5q-63 -42.5 -146 -42.5q-92 0 -149 60q-68 68 -68 221v285l-129 -146l-24 22q-26 22 -37 34l77 89q76 86 113 130v499q0 158 56.5 240t156.5 82q61 0 100.5 -30.5t57.5 -75.5t18 -91q0 -134 -58 -264t-167 -280q-24 -32 -30 -41q-10 -12 -20 -26t-20 -26v-417
q0 -92 37 -137.5t98 -45.5q55 0 101.5 32t95.5 85q12 -14 26 -26l25 -27q-51 -61 -114 -103.5zM620 1373q-21 36 -63 36q-57 0 -87 -58.5t-30 -195.5v-360q21 28 47 67q154 242 154 422q0 53 -21 89z" />
    <glyph glyph-name="trademark" unicode="&#x2122;" horiz-adv-x="1484" 
d="M66 1282v78h499v-78h-205v-598h-90v598h-204zM1040 684h-90l-200 602v-602h-86v676h151l182 -565l183 565h151v-676h-90v602z" />
    <glyph glyph-name="uni2126" unicode="&#x2126;" 
d="M1049.5 307.5q109.5 152.5 109.5 401.5q0 184 -53.5 313t-157 196.5t-252.5 67.5t-252.5 -67.5t-157 -196.5t-53.5 -313q0 -249 109.5 -401.5t263.5 -229.5v-78h-483v86h303q-68 53 -124.5 110.5t-117.5 190.5t-61 322q0 210 67.5 361t196 231.5t309.5 80.5t310 -80.5
t196.5 -231.5t67.5 -361q0 -189 -61 -322t-117.5 -190.5t-124.5 -110.5h303v-86h-484v78q154 77 263.5 229.5z" />
    <glyph glyph-name="estimated" unicode="&#x212e;" horiz-adv-x="1730" 
d="M1274.5 1284q174.5 -98 267 -263.5t92.5 -363.5h-1228q-11 0 -19 -7.5t-8 -16.5v-336q0 -31 6.5 -51.5t24.5 -36.5q89 -88 203 -135t251 -47q145 0 272 59.5t210 159.5h137q-50 -70 -134 -131t-207.5 -100.5t-277.5 -39.5q-229 0 -403.5 90t-270.5 249.5t-96 361.5
q0 199 93.5 360t268 253.5t408.5 92.5q236 0 410.5 -98zM613 1281q-114 -48 -203 -138q-18 -17 -24.5 -35t-6.5 -47v-336q0 -10 8 -17.5t19 -7.5h915q11 0 19 7.5t8 17.5v336q0 28 -6.5 46.5t-24.5 35.5q-98 97 -213.5 141.5t-239.5 44.5q-137 0 -251 -48z" />
    <glyph glyph-name="partialdiff" unicode="&#x2202;" horiz-adv-x="1082" 
d="M364.5 1351q76.5 -25 164.5 -72.5t159 -115.5q129 -121 210 -296t81 -388q0 -150 -53 -262.5t-152 -173.5t-233 -61q-135 0 -234 54t-152 156t-53 242q0 141 51 242.5t148 155t231 53.5q80 0 147.5 -24.5t114.5 -64.5t70 -87q-34 118 -103.5 221.5t-148.5 175.5
q-72 66 -186 122.5t-217 74.5l29 81q50 -8 126.5 -33zM719 115q76 43 117 125t41 196q0 113 -41 195t-117 125t-178 43t-178 -43t-117 -124.5t-41 -195.5q0 -113 41 -195t117 -125.5t178 -43.5t178 43z" />
    <glyph glyph-name="uni2206" unicode="&#x2206;" 
d="M1233 0h-1073l536 1384zM1098 90l-402 1061l-401 -1061h803z" />
    <glyph glyph-name="product" unicode="&#x220f;" horiz-adv-x="1353" 
d="M952 -229v1499h-553v-1499h154v-90h-430v90h174v1499h-174v90h1106v-90h-174v-1499h174v-90h-430v90h153z" />
    <glyph glyph-name="summation" unicode="&#x2211;" horiz-adv-x="1316" 
d="M672 541l-529 733v86h922v-438h-90v348h-713l529 -729l-541 -770h758v372h90v-462h-971v81z" />
    <glyph glyph-name="minus" unicode="&#x2212;" 
d="M1225 725v-90h-1057v90h1057z" />
    <glyph glyph-name="radical" unicode="&#x221a;" horiz-adv-x="1480" 
d="M266 274v91h197l151 -586l412 1581h236v-90h-164l-418 -1589h-131l-156 593h-127z" />
    <glyph glyph-name="infinity" unicode="&#x221e;" 
d="M418 410q-81 0 -142.5 33.5t-95 94.5t-33.5 142t33.5 142t95 94.5t142.5 33.5q163 0 278 -196q26 43 58 83t89.5 76.5t131.5 36.5q81 0 142 -33.5t94.5 -94.5t33.5 -142t-33.5 -142t-94.5 -94.5t-142 -33.5q-74 0 -131.5 36.5t-89.5 76.5t-58 83q-115 -196 -278 -196z
M422 864q-83 0 -133.5 -50.5t-50.5 -133.5t50.5 -133.5t133.5 -50.5q123 0 225 184q-102 184 -225 184zM971 496q83 0 133.5 50.5t50.5 133.5t-50.5 133.5t-133.5 50.5q-124 0 -226 -184q102 -184 226 -184z" />
    <glyph glyph-name="integral" unicode="&#x222b;" horiz-adv-x="759" 
d="M121 -225q103 0 143.5 12.5t53 53t12.5 143.5v1122q0 98 23.5 152.5t78 78t152.5 23.5h123v-94h-70q-103 0 -143.5 -12.5t-53 -53t-12.5 -143.5v-1123q0 -98 -23.5 -152t-78 -77.5t-152.5 -23.5h-123v94h70z" />
    <glyph glyph-name="approxequal" unicode="&#x2248;" 
d="M328 835.5q-41 -12.5 -53.5 -53.5t-12.5 -143v-35h-94v80q0 98 23.5 152.5t78 78t152.5 23.5h500q103 0 143 12.5t52.5 53t12.5 143.5v35h95v-80q0 -98 -23.5 -152.5t-78 -78t-152.5 -23.5h-500q-102 0 -143 -12.5zM327.5 409.5q-40.5 -12.5 -53 -53t-12.5 -143.5v-35
h-94v80q0 98 23.5 152.5t78 78t152.5 23.5h500q103 0 143 12.5t52.5 53t12.5 143.5v35h95v-80q0 -98 -23.5 -152.5t-78 -78t-152.5 -23.5h-500q-103 0 -143.5 -12.5z" />
    <glyph glyph-name="notequal" unicode="&#x2260;" 
d="M436 154l109 268h-377v90h414l137 336h-551v90h588l108 268h92l-108 -268h377v-90h-414l-137 -336h551v-90h-588l-109 -268h-92z" />
    <glyph glyph-name="lessequal" unicode="&#x2264;" 
d="M1225 1208v-102l-946 -410l946 -409v-103l-1057 461v103zM1225 90v-90h-1057v90h1057z" />
    <glyph glyph-name="greaterequal" unicode="&#x2265;" 
d="M1114 696l-946 410v102l1057 -460v-103l-1057 -461v103zM1225 90v-90h-1057v90h1057z" />
    <glyph glyph-name="lozenge" unicode="&#x25ca;" 
d="M1167 682l-471 -702l-471 702l471 702zM340 682l356 -539l357 539l-357 539z" />
    <glyph glyph-name="uni25CC" unicode="&#x25cc;" horiz-adv-x="1048" 
d="M586 842q0 -31 -16.5 -47.5t-47.5 -16.5q-61 0 -61 64q0 32 15 46.5t46 14.5q64 0 64 -61zM391 795q0 -66 -65 -66q-29 0 -44.5 17t-15.5 49q0 59 60 59q65 0 65 -59zM778 795q0 -66 -59 -66q-31 0 -48.5 17t-17.5 49q0 29 17.5 44t48.5 15q59 0 59 -59zM246 649
q0 -63 -64 -63q-31 0 -45 15.5t-14 47.5q0 62 59 62q64 0 64 -62zM924 649q0 -63 -62 -63q-32 0 -46.5 15t-14.5 48q0 31 14.5 46.5t46.5 15.5q62 0 62 -62zM197 453q0 -30 -17.5 -46t-48.5 -16q-57 0 -57 62q0 61 57 61q66 0 66 -61zM973 453q0 -62 -62 -62q-61 0 -61 62
q0 61 61 61q62 0 62 -61zM246 258q0 -61 -64 -61q-30 0 -44.5 15t-14.5 46t14.5 46t44.5 15q64 0 64 -61zM924 258q0 -61 -62 -61q-32 0 -46.5 15t-14.5 46t14.5 46t46.5 15q62 0 62 -61zM375.5 159q15.5 -15 15.5 -46q0 -62 -65 -62q-60 0 -60 62q0 61 60 61q34 0 49.5 -15
zM778 113q0 -62 -59 -62q-66 0 -66 62q0 29 17.5 45t48.5 16q59 0 59 -61zM569.5 110.5q16.5 -16.5 16.5 -47.5q0 -30 -16.5 -45.5t-47.5 -15.5q-61 0 -61 61q0 64 61 64q31 0 47.5 -16.5z" />
    <glyph glyph-name="uni274A" unicode="&#x274a;" horiz-adv-x="1433" 
d="M1145 991l61 -80l-399 -305l477 -98l-22 -90l-471 119l221 -451l-90 -45l-201 461l-213 -457l-92 45l227 445l-473 -109l-20 90l479 92l-396 310l66 79l379 -325l-8 502h104l-16 -502z" />
    <glyph glyph-name="uniFBC0" unicode="&#xfbc0;" horiz-adv-x="1" 
d="M57 1106v53h41v252h49v-94h197q46 0 67 -21t21 -63v-127h-375zM147 1159h236v47q0 29 -10 43.5t-37 14.5h-189v-105z" />
    <glyph glyph-name="uniFD3E" unicode="&#xfd3e;" horiz-adv-x="1037" 
d="M430 348q0 17 -14 31l-107 147q-10 18 -10 27q0 8 5.5 13t14.5 5t11 -2l125 -22q26 100 117 223t189 213t134 90q6 0 11 -4t5 -10q0 -10 -10 -23q-262 -284 -285 -491l86 12q7 0 12 1t7 1q20 0 20 -16q0 -8 -12 -23l-115 -133q-20 -20 -20 -35q0 -14 18 -14q14 0 27 8
l137 103q10 8 19.5 12t13.5 4q6 0 10 -6t4 -17v-104q37 -12 74 -38.5t37 -55.5q0 -23 -27.5 -45.5t-83.5 -46.5v-99q0 -35 -14 -35q-12 0 -27 13l-143 110q-15 11 -29 11q-18 0 -18 -19q0 -12 20 -33l115 -131q12 -18 12 -22q0 -19 -20 -19q-6 0 -11 1t-8 1l-84 13
q20 -207 283 -490q10 -13 10 -22q0 -8 -4.5 -12.5t-9.5 -4.5q-37 0 -135.5 90t-189.5 213.5t-117 223.5l-125 -23q-2 -2 -9 -2q-10 0 -16 5.5t-6 15.5q0 9 12 24l105 148q3 4 9.5 13t6.5 15q0 23 -20 23q-13 0 -37 -23l-123 -106q-19 -17 -33 -17q-11 0 -17.5 11.5
t-6.5 31.5v97q-109 39 -109 90q0 18 28 42.5t81 51.5v104q0 17 6.5 26t17.5 9q12 0 29 -16l135 -117q10 -8 15.5 -11t11.5 -3q22 0 22 18zM582.5 589q13.5 44 40.5 103v80q-46 -49 -84 -128.5t-54 -147.5l-118 26l88 -125v54h41l36 57v-57h39v-50l105 109l-6 4l-109 -20
q8 51 21.5 95zM291 225q-15 2 -32 9.5t-21 9.5q19 16 53 22v33h80l-131 107v-99q-111 -36 -111 -61q0 -16 28 -32t83 -30v-96l131 98h-80v39zM883 261q-8 8 -27 18q-37 20 -74 28v96l-129 -100h74v-37q38 -3 57 -22q-29 -17 -57 -19v-35h-76l-4 -4l135 -98v98q109 29 109 58
q0 9 -8 17zM576 311.5q-26 26.5 -64 26.5q-37 0 -62.5 -25.5t-25.5 -62.5q0 -40 27 -64q23 -26 61 -26t64 26t26 62q0 37 -26 63.5zM569 37h-39v-57l-36 57h-41v53l-88 -125l116 27q21 -74 57.5 -152t82.5 -125v80q-27 61 -40.5 105.5t-21.5 93.5l111 -21l4 7l-105 106v-49z
" />
    <glyph glyph-name="uniFD3F" unicode="&#xfd3f;" horiz-adv-x="1015" 
d="M635 344l135 117q16 16 29 16q11 0 17.5 -9t6.5 -26v-104q53 -27 81 -51.5t28 -42.5q0 -51 -109 -90v-97q0 -20 -6.5 -31.5t-17.5 -11.5q-14 0 -33 17l-123 106q-24 23 -37 23q-20 0 -20 -23q0 -6 6.5 -15t9.5 -13l105 -148q12 -15 12 -24q0 -21 -23 -21q-6 0 -8 2
l-125 23q-26 -100 -117 -223.5t-189.5 -213.5t-135.5 -90q-5 0 -10 4.5t-5 12.5q0 7 11 22q263 286 282 490l-84 -13q-3 0 -7 -1t-11 -1q-9 0 -15 5t-6 14q0 3 5 10.5t8 11.5l114 131q21 21 21 33q0 19 -18 19q-14 0 -29 -11l-144 -110q-14 -13 -26 -13q-14 0 -14 35v99
q-56 24 -83.5 46.5t-27.5 45.5q0 29 37 55.5t74 38.5v104q0 11 4 17t10 6q4 0 13.5 -4t19.5 -12l137 -103q13 -8 26 -8q19 0 19 14q0 15 -21 35l-114 133q-13 16 -13 23q0 16 21 16q2 0 6.5 -1t11.5 -1l86 -12q-22 206 -284 491q-11 15 -11 23q0 6 5.5 10t11.5 4
q36 0 134 -90t189 -213t117 -223l125 22q2 2 10 2q10 0 15.5 -5t5.5 -13q0 -9 -10 -27l-107 -147q-14 -14 -14 -31q0 -18 22 -18q10 0 27 14zM444 401v50h39v57l37 -57h41v-54l88 125l-119 -26q-15 67 -52.5 147t-84.5 129v-80q27 -58 39.5 -101t22.5 -97l-109 20l-6 -4z
M776 184q55 14 83 30t28 32q0 25 -111 61v99l-131 -107h80v-33q34 -6 53 -22q-14 -6 -28.5 -12t-24.5 -7v-39h-80l131 -98v96zM233 186v-98l136 98l-4 4h-76v35q-27 2 -58 19q20 19 58 22v37h73l-129 100v-96q-36 -8 -73 -28q-19 -10 -27 -18t-8 -17q0 -29 108 -58zM440 186
q26 -26 64 -26t61 26q27 24 27 64q0 37 -25.5 62.5t-62.5 25.5q-38 0 -64 -26.5t-26 -63.5q0 -36 26 -62zM457 -6q-9 -50 -22.5 -95t-39.5 -104v-80q46 47 82.5 125t57.5 152l116 -27l-88 125v-53h-41l-37 -57v57h-39v49l-104 -106l4 -7z" />
    <glyph glyph-name="glyph416" horiz-adv-x="1535" 
d="M457 0q-201 0 -296 102.5t-95 300.5v314h94v-326q0 -147 75.5 -226t233.5 -79h817v832h94v-918h-923z" />
    <glyph glyph-name="glyph417" horiz-adv-x="2053" 
d="M457 0q-198 0 -294.5 103t-96.5 300v314h94v-326q0 -147 75.5 -226t233.5 -79h672v389q0 209 102 326t309 117h346v-918h-1441zM1235 473v-387h569v745h-252q-317 0 -317 -358z" />
    <glyph glyph-name="glyph418" horiz-adv-x="1527" 
d="M1234.5 -208q-149.5 -148 -439.5 -148h-142q-300 0 -443.5 141t-143.5 444v174h94v-176q0 -138 38 -246.5t145.5 -179.5t303.5 -71h101q210 0 329 63.5t165.5 173.5t47.5 269h-663v475q0 209 102 325.5t309 116.5h346v-917q0 -296 -149.5 -444zM799.5 968.5
q-78.5 -98.5 -78.5 -259.5v-387h569v745h-252q-160 0 -238.5 -98.5z" />
    <glyph glyph-name="glyph419" horiz-adv-x="957" 
d="M536 1409q-43 0 -63.5 -32.5t-20.5 -88.5v-109h221v-61h-379v61h93v111q0 96 43.5 138t144.5 42h70v-61h-109zM86 0v475q0 209 102 326t310 117h346v-918h-758zM180 473v-387h570v745h-252q-318 0 -318 -358z" />
    <glyph glyph-name="glyph420" horiz-adv-x="998" 
d="M454.5 1227.5q20.5 -19.5 20.5 -47.5q0 -31 -20.5 -51.5t-49.5 -20.5q-28 0 -48.5 21t-20.5 51q0 28 20.5 47.5t48.5 19.5q29 0 49.5 -19.5zM659.5 1227.5q20.5 -19.5 20.5 -47.5q0 -31 -20.5 -51.5t-49.5 -20.5q-28 0 -49 21t-21 51q0 27 21 47t49 20q29 0 49.5 -19.5z
M86 0v475q0 209 102 326t310 117h346v-918h-758zM180 473v-387h570v745h-252q-318 0 -318 -358z" />
    <glyph glyph-name="glyph421" horiz-adv-x="998" 
d="M86 0v475q0 209 102 326t310 117h346v-918h-758zM180 473v-387h570v745h-252q-318 0 -318 -358z" />
    <glyph glyph-name="glyph422" horiz-adv-x="451" 
d="M-64 9q-18 9 -18 34q0 43 82 43h451q81 0 81 -43q0 -21 -18.5 -32t-62.5 -11h-451q-46 0 -64 9z" />
    <glyph glyph-name="glyph423" horiz-adv-x="666" 
d="M666 86q82 0 82 -43t-82 -43h-666q-82 0 -82 43t82 43h406v832h92v-832h168z" />
    <glyph glyph-name="glyph424" horiz-adv-x="651" 
d="M0 0q-82 0 -82 43t82 43h406v832h92v-918h-498z" />
    <glyph glyph-name="uniFEDF_uniFEE0_uniFEEA.dlig" horiz-adv-x="2393" 
d="M55 0v475q0 209 102 326t310 117h367v-832h639v1280h94v-1280h587v1280h95v-1366h-2194zM150 473v-387h589v745h-272q-317 0 -317 -358z" />
    <glyph glyph-name="glyph434" horiz-adv-x="1236" 
d="M1036.5 182q-44.5 -87 -130 -134.5t-204.5 -47.5h-630v86h606q158 0 233.5 79t75.5 226v977h94v-983q0 -116 -44.5 -203zM473 258v942h94v-942h-94zM639.5 1544q13.5 -4 26.5 -16q22 -22 22 -64v-126h-375v53h41v157h246q26 0 39.5 -4zM404 1391h235v47q0 29 -10 43
t-37 14h-188v-104z" />
    <glyph glyph-name="glyph435" horiz-adv-x="1215" 
d="M1214 86q82 0 82 -43t-82 -43l-1142 -2v86l915 2v1282h94v-1282h133zM473 258v942h94v-942h-94zM643.5 1544q13.5 -4 26.5 -16q22 -22 22 -64v-126h-375v53h41v157h246q26 0 39.5 -4zM408 1391h235v47q0 29 -10 43t-37 14h-188v-104z" />
    <glyph glyph-name="afii57392.pnum" horiz-adv-x="531" 
d="M264 340l-110 113l110 108l113 -110z" />
    <glyph glyph-name="afii57393.pnum" horiz-adv-x="505" 
d="M204 2v1366h95v-1366h-95z" />
    <glyph glyph-name="afii57394.pnum" horiz-adv-x="898" 
d="M833.5 1122q-2.5 -30 -13 -61.5t-33.5 -63.5q-49 -64 -118.5 -90t-158.5 -26h-211v-881h-94v1366h94v-399h225q107 0 162 51.5t55 152.5v195h95v-164q0 -50 -2.5 -80z" />
    <glyph glyph-name="afii57395.pnum" horiz-adv-x="1080" 
d="M930.5 949.5q-78.5 -68.5 -237.5 -68.5h-394v-881h-94v1366h94v-399h265v399h94v-399h49q107 0 162 50t55 150v199h94l-2 -201q-7 -147 -85.5 -215.5z" />
    <glyph glyph-name="afii57396.pnum" horiz-adv-x="847" 
d="M581 1278q-122 0 -208 -59t-86 -209q0 -68 30 -129.5t82.5 -99.5t116.5 -38h164v-86h-183q-91 0 -151 -41.5t-88.5 -109.5t-28.5 -148q0 -126 72 -199t213 -73h229v-86h-280q-82 0 -156.5 33.5t-124 115t-49.5 216.5q0 114 53.5 205.5t153.5 131.5q-67 48 -107.5 131.5
t-40.5 170.5q0 175 96 270t283 92l109 -2v-86h-99z" />
    <glyph glyph-name="afii57397.pnum" horiz-adv-x="1082" 
d="M726.5 1321.5q70.5 -41.5 106.5 -124.5t47 -216l56 -635l2 -22q1 -9 1 -26q0 -95 -60 -161.5t-151.5 -99.5t-186.5 -33q-99 0 -188.5 29t-149.5 100.5t-60 190.5v22l58 635q11 133 47 216t106.5 124.5t186.5 42.5q115 -1 185.5 -42.5zM381 1233q-54 -45 -70 -100
t-22 -129l-58 -656v-16q0 -123 92.5 -175.5t217.5 -52.5q131 0 220 52t89 176v14l-58 658q-6 74 -22 129t-69.5 100t-159.5 45t-160 -45z" />
    <glyph glyph-name="afii57398.pnum" horiz-adv-x="996" 
d="M697 0v1280h-635v86h729v-1366h-94z" />
    <glyph glyph-name="afii57399.pnum" horiz-adv-x="1041" 
d="M475 0l-403 1352h104l345 -1180l344 1180h104l-408 -1352h-86z" />
    <glyph glyph-name="afii57400.pnum" horiz-adv-x="1041" 
d="M865 0l-344 1180l-345 -1180h-104l403 1352h86l408 -1352h-104z" />
    <glyph glyph-name="afii57401.pnum" horiz-adv-x="974" 
d="M676 0v639h-185q-389 0 -389 356q0 183 101 277t286 94h279v-1366h-92zM294 1236.5q-54 -43.5 -75.5 -108t-21.5 -135.5q0 -124 63.5 -196t190.5 -72h223v555h-236q-90 0 -144 -43.5z" />
    <glyph glyph-name="uni06F0.pnum" horiz-adv-x="531" 
d="M264 340l-110 113l110 108l113 -110z" />
    <glyph glyph-name="uni06F1.pnum" horiz-adv-x="464" 
d="M184 2v1366h95v-1366h-95z" />
    <glyph glyph-name="uni06F2.pnum" horiz-adv-x="878" 
d="M812.5 1122q-2.5 -30 -13 -61.5t-33.5 -63.5q-49 -64 -118.5 -90t-158.5 -26h-211v-881h-94v1366h94v-399h225q107 0 162 51.5t55 152.5v195h95v-164q0 -50 -2.5 -80z" />
    <glyph glyph-name="uni06F3.pnum" horiz-adv-x="1060" 
d="M909.5 949.5q-78.5 -68.5 -237.5 -68.5h-394v-881h-94v1366h94v-399h265v399h94v-399h49q107 0 162 50t55 150v199h94l-2 -201q-7 -147 -85.5 -215.5z" />
    <glyph glyph-name="uni06F4.pnum" horiz-adv-x="1037" 
d="M518 1102q0 131 68 196t197 68h14l-29 -88q-94 5 -124.5 -58.5t-30.5 -154.5v-186h104q170 0 217 127l74 -48q-37 -81 -115 -123t-190 -42h-424v-793h-94v1366h94v-487h239v223z" />
    <glyph glyph-name="uni06F5.pnum" horiz-adv-x="1107" 
d="M725.5 1316q73.5 -48 116.5 -134.5t53 -200.5l65 -717q1 -8 1 -25q0 -63 -27.5 -117.5t-78.5 -87t-120 -32.5q-54 0 -94 16.5t-88 53.5q-49 -37 -90 -53.5t-99 -16.5q-60 0 -110.5 29.5t-80 83.5t-29.5 124q0 17 1 25l66 717q9 114 52 200.5t117 134.5t173 48t172.5 -48z
M409 1227q-55 -51 -79 -118t-31 -130l-68 -694q-2 -20 -2 -29q0 -77 45 -122t113 -45l14 1q77 3 152 68q39 -35 83 -52.5t86 -17.5q9 0 25 2q58 10 93.5 53t35.5 113q0 9 -2 29l-68 694q-7 63 -31 130t-78.5 118t-143.5 51t-144 -51z" />
    <glyph glyph-name="uni06F6.pnum" horiz-adv-x="863" 
d="M354 1243q-62 -39 -93.5 -102t-31.5 -133q0 -128 79 -197.5t218 -69.5h174v-77l-424 -664h-94l416 662h-88q-102 0 -185.5 40t-132.5 118t-49 188q0 100 44.5 181.5t129 129t199.5 47.5h203v-84h-215q-88 0 -150 -39z" />
    <glyph glyph-name="uni06F7.pnum" horiz-adv-x="1041" 
d="M475 0l-403 1352h104l345 -1180l344 1180h104l-408 -1352h-86z" />
    <glyph glyph-name="uni06F8.pnum" horiz-adv-x="1041" 
d="M865 0l-344 1180l-345 -1180h-104l403 1352h86l408 -1352h-104z" />
    <glyph glyph-name="uni06F9.pnum" horiz-adv-x="953" 
d="M676 0v639h-185q-389 0 -389 356q0 183 101 277t286 94h279v-1366h-92zM294 1236.5q-54 -43.5 -75.5 -108t-21.5 -135.5q0 -124 63.5 -196t190.5 -72h223v555h-236q-90 0 -144 -43.5z" />
    <glyph glyph-name="glyph563" horiz-adv-x="2784" 
d="M764 1425v45h35v-38q0 -17 6 -25t20 -8q27 0 27 31v30h35v-28q0 -33 28 -33q23 0 23 31v40h35v-45q0 -31 -15 -46t-40 -15q-13 0 -26 5t-22 17q-9 -13 -22.5 -17.5t-24.5 -4.5q-59 0 -59 61zM1124 889h-161q-49 0 -70 33q-23 -33 -90 -33h-211q-34 0 -57.5 9.5
t-36.5 31.5h-72q-92 0 -136 34.5t-44 104.5q0 154 188 154q23 0 59.5 -2.5t55.5 -6.5v-210q0 -30 12 -46t43 -16h184q30 0 41 14.5t11 47.5v307h65v-342q0 -14 16.5 -20.5t34.5 -6.5h105v506h63v-559zM1125.5 728q-66.5 34 -81.5 108l66 10q14 -51 62.5 -74.5t142.5 -23.5
q59 0 103.5 12.5t68.5 32.5t24 43q0 26 -38.5 43.5t-106.5 37.5l-31 9v57q108 -41 187 -41h77q31 0 41.5 14t10.5 48v444h65v-479q0 -14 17 -20.5t36 -6.5h287v275h66v-27q127 27 207 27q114 0 161 -47.5t47 -139.5v-141h-761q-52 0 -70 33q-12 -15 -33 -24t-57 -9h-72
q35 -25 35 -53q0 -34 -31.5 -67t-91.5 -54t-143 -21q-121 0 -187.5 34zM1208 1448h64v-559h-64v559zM2159 1393l221 26v-35l-221 -26v35zM1323 1225l221 26v-34l-221 -27v35zM430 1174q-117 0 -117 -99q0 -49 31 -71.5t94 -22.5h45v186q-42 7 -53 7zM2470 1008
q0 86 -35.5 121.5t-116.5 35.5q-74 0 -196 -24v-199h348v66zM745 299h-143q-34 0 -57.5 9.5t-36.5 31.5h-72q-92 0 -136 34.5t-44 104.5q0 78 48.5 116t139.5 38q22 0 58.5 -2.5t56.5 -5.5v-211q0 -30 12 -46t43 -16h68v455h63v-508zM840 807h63v-508h-63v508zM2167 299
q-46 0 -70 33q-23 -33 -90 -33h-57q-47 0 -70 33q-23 -33 -90 -33h-78q-69 0 -94 43h-72q-180 0 -180 137q0 80 49.5 118t140.5 38q25 0 59 -2.5t54 -5.5v-211q0 -30 12 -46t43 -16h52q30 0 40.5 14t10.5 48v213h65v-248q0 -14 16.5 -20.5t35.5 -6.5h47q31 0 41 14t10 48
v391h65v-426q0 -14 17 -20.5t37 -6.5h94q-33 68 -33 127q0 68 45.5 112t130.5 44q23 0 49.5 -2.5t40.5 -5.5v-51q-30 6 -78 6q-52 0 -86 -27t-34 -86q0 -51 34 -117h207v-55h-364zM1257 627h5v-305q0 -80 -34.5 -119t-123.5 -39h-94v51h94q46 0 67.5 20t22.5 64h-45
q-110 0 -150.5 49.5t-40.5 116.5q0 79 51 124.5t158 45.5q38 0 90 -8zM440 584q-116 0 -116 -99q0 -49 31 -71.5t94 -22.5h45v187q-38 6 -54 6zM1181.5 583q-6.5 1 -14.5 1q-62 0 -103.5 -23t-41.5 -96q0 -113 131 -113h41v230q-6 0 -12.5 1zM1550 584q-116 0 -116 -97
q0 -49 31.5 -71.5t93.5 -22.5h45v187q-25 4 -54 4zM1832.5 231.5q12.5 -12.5 12.5 -28.5q0 -17 -12 -29t-31 -12q-17 0 -29 12t-12 29q0 15 12.5 28t28.5 13q18 0 30.5 -12.5zM1933.5 174q-12.5 -12 -30.5 -12q-16 0 -28.5 12t-12.5 29q0 15 12.5 28t28.5 13
q18 0 30.5 -12.5t12.5 -28.5q0 -17 -12.5 -29zM2107 -291h-634q-23 0 -40 7.5t-30 25.5q-25 -33 -88 -33h-674q-45 -65 -125 -65h-117q-2 8 -11 27l-15 38h-25q-23 0 -31 -11t-8 -46v-137h-63v190q0 57 57 57h53q-8 28 -8 64q0 67 44 111.5t120 44.5q55 0 91 -24t52.5 -61.5
t16.5 -78.5q0 -22 -8 -56h636q30 0 40 14t10 48v385h65v-420q0 -13 17 -20t34 -7h209v205h66v-205h104v205h66v-205h131v275h65v-328zM881 47l221 27v-35l-221 -27v35zM2513 37h4v-305q0 -80 -34.5 -119t-123.5 -39h-94v51h94q46 0 67 20t23 64h-45q-109 0 -149.5 49.5
t-40.5 116.5q0 79 50.5 124.5t158.5 45.5q36 0 90 -8zM2437 -7q-6 1 -14 1q-63 0 -104.5 -23t-41.5 -96q0 -113 131 -113h41v230q-6 0 -12 1zM883 -61v45h35v-39q0 -17 6 -25t20 -8q27 0 27 31v30h35v-28q0 -33 28 -33q23 0 23 31v41h35v-45q0 -31 -15 -46.5t-41 -15.5
q-12 0 -25.5 5t-21.5 18q-9 -14 -22.5 -18.5t-24.5 -4.5q-59 0 -59 62zM579.5 -266q24.5 35 24.5 82q0 51 -24.5 81.5t-69.5 30.5q-40 0 -67 -25.5t-27 -78.5q0 -62 33 -125h59q47 0 71.5 35zM1343 -479v94h48v-94h41v94h43v-94h57v129h45v-168h-444v39h210z" />
    <glyph glyph-name="glyph577" horiz-adv-x="0" 
d="M131.5 1679q13.5 -4 26.5 -16q22 -22 22 -64v-126h-375v53h41v157h246q26 0 39.5 -4zM-104 1526h235v47q0 29 -10 43t-37 14h-188v-104z" />
    <glyph glyph-name="glyph582" horiz-adv-x="0" 
d="M-95 2210.5q-36 33.5 -36 87.5q0 60 39.5 98.5t103.5 38.5t103 -49.5t39 -155.5q0 -124 -66.5 -177.5t-185.5 -53.5h-31v59h31q85 0 128.5 30.5t57.5 88.5h-86q-61 0 -97 33.5zM-48 2354q-22 -22 -22 -56q0 -36 22 -50t64 -14h80q1 56 -19.5 99t-68.5 43q-34 0 -56 -22z
M180 1528h-379v61h93v111q0 96 43.5 138t144.5 42h70v-61h-109q-43 0 -63.5 -32.5t-20.5 -88.5v-109h221v-61z" />
    <glyph glyph-name="glyph583" horiz-adv-x="0" 
d="M211 2393.5q39 -49.5 39 -155.5q0 -124 -66.5 -177.5t-185.5 -53.5h-180v131q0 52 -18.5 86.5t-61.5 34.5v68q66 0 103.5 -46.5t37.5 -119.5v-95h119q85 0 128.5 30.5t57.5 88.5h-86q-61 0 -97 33.5t-36 87.5q0 60 40 98.5t104 38.5q63 0 102 -49.5zM48.5 2256.5
q21.5 -13.5 64.5 -13.5h79q2 55 -19.5 98t-68.5 43q-34 0 -55.5 -22t-21.5 -56q0 -36 21.5 -49.5zM180 1589v-61h-379v61h93v111q0 96 43.5 138t144.5 42h70v-61h-109q-43 0 -63.5 -32.5t-20.5 -88.5v-109h221z" />
    <glyph glyph-name="glyph584" horiz-adv-x="0" 
d="M-238 2019v60h443v-60h-443zM43 1819q-43 0 -63.5 -32.5t-20.5 -88.5v-109h221v-61h-379v61h93v111q0 96 43.5 138t144.5 42h70v-61h-109z" />
    <glyph glyph-name="glyph585" horiz-adv-x="0" 
d="M-221 2173v59h442v-59h-442zM-221 2023v60h442v-60h-442zM43 1819q-43 0 -63.5 -32.5t-20.5 -88.5v-109h221v-61h-379v61h93v111q0 96 43.5 138t144.5 42h70v-61h-109z" />
    <glyph glyph-name="glyph586" horiz-adv-x="0" 
d="M86 2302q38 -22 60 -59.5t22 -81.5t-22 -81.5t-60 -59t-82 -21.5t-81.5 21.5t-59 59t-21.5 81.5t21.5 81.5t59 59.5t81.5 22t82 -22zM-66.5 2235.5q-29.5 -29.5 -29.5 -72.5t29.5 -73t72.5 -30t73 30t30 73t-30 72.5t-73 29.5t-72.5 -29.5zM43 1819q-43 0 -63.5 -32.5
t-20.5 -88.5v-109h221v-61h-379v61h93v111q0 96 43.5 138t144.5 42h70v-61h-109z" />
    <glyph glyph-name="glyph587" horiz-adv-x="0" 
d="M59 -283q-53 0 -72.5 -30.5t-19.5 -89.5v-109h221v-61h-378v61h92v111q0 95 41 137.5t131 42.5h86v-62h-101zM-260 -741v59h442v-59h-442z" />
    <glyph glyph-name="glyph588" horiz-adv-x="0" 
d="M59 -283q-53 0 -72.5 -30.5t-19.5 -89.5v-109h221v-61h-378v61h92v111q0 95 41 137.5t131 42.5h86v-62h-101zM-240 -741v59h443v-59h-443zM-240 -891v60h443v-60h-443z" />
    <glyph glyph-name="uni0670_afii57457.ccmp" horiz-adv-x="0" 
d="M-23 1968v428h62v-428h-62zM223 1616.5q-37 -39.5 -104 -39.5q-36 0 -62.5 11t-48.5 36q-23 -25 -49.5 -36t-60.5 -11q-69 0 -105.5 39.5t-36.5 114.5v174h62v-181q0 -41 22 -65.5t58 -24.5q34 0 56.5 22.5t22.5 59.5v189h62v-189q0 -38 22 -60t58 -22q34 0 57 25t23 65
v181h61v-174q0 -75 -37 -114.5z" />
    <glyph glyph-name="afii57455_afii57457.ccmp" horiz-adv-x="0" 
d="M-97 2179.5q-36 33.5 -36 87.5q0 60 39.5 98.5t103.5 38.5t103 -49.5t39 -154.5q0 -124 -66.5 -178t-185.5 -54h-31v60h31q85 0 128.5 30t57.5 88h-86q-61 0 -97 33.5zM-50 2323q-22 -22 -22 -56q0 -36 22 -49.5t64 -13.5h80q1 55 -20 98t-68 43q-34 0 -56 -22zM260 1731
q0 -75 -37 -114.5t-104 -39.5q-36 0 -62.5 11t-48.5 36q-23 -25 -49.5 -36t-60.5 -11q-69 0 -105.5 39.5t-36.5 114.5v174h62v-181q0 -41 22 -65.5t58 -24.5q35 0 57 22.5t22 59.5v189h62v-189q0 -38 22 -60t58 -22q34 0 57 25t23 65v181h61v-174z" />
    <glyph glyph-name="afii57452_afii57457.ccmp" horiz-adv-x="0" 
d="M-192 2186q-18 34 -62 34v68q66 0 103.5 -46.5t37.5 -119.5v-94h119q85 0 128.5 30t58.5 88h-87q-60 0 -96.5 33.5t-36.5 87.5q0 60 40 98.5t104 38.5q63 0 102 -49t39 -155q0 -124 -66.5 -178t-185.5 -54h-180v131q0 53 -18 87zM57 2217.5q22 -13.5 64 -13.5h80
q1 55 -20 98t-68 43q-34 0 -56 -22t-22 -56q0 -36 22 -49.5zM260 1731q0 -75 -37 -114.5t-104 -39.5q-36 0 -62.5 11t-48.5 36q-23 -25 -49.5 -36t-60.5 -11q-69 0 -105.5 39.5t-36.5 114.5v174h62v-181q0 -41 22 -65.5t58 -24.5q35 0 57 22.5t22 59.5v189h62v-189
q0 -38 22 -60t58 -22q34 0 57 25t23 65v181h61v-174z" />
    <glyph glyph-name="afii57454_afii57457.ccmp" horiz-adv-x="0" 
d="M-211 1968v60h442v-60h-442zM223 1616.5q-37 -39.5 -104 -39.5q-36 0 -62.5 11t-48.5 36q-23 -25 -49.5 -36t-60.5 -11q-69 0 -105.5 39.5t-36.5 114.5v174h62v-181q0 -41 22 -65.5t58 -24.5q34 0 56.5 22.5t22.5 59.5v189h62v-189q0 -38 22 -60t58 -22q34 0 57 25t23 65
v181h61v-174q0 -75 -37 -114.5z" />
    <glyph glyph-name="afii57451_afii57457.ccmp" horiz-adv-x="0" 
d="M-211 2118v59h442v-59h-442zM-211 1968v60h442v-60h-442zM223 1616.5q-37 -39.5 -104 -39.5q-36 0 -62.5 11t-48.5 36q-23 -25 -49.5 -36t-60.5 -11q-69 0 -105.5 39.5t-36.5 114.5v174h62v-181q0 -41 22 -65.5t58 -24.5q34 0 56.5 22.5t22.5 59.5v189h62v-189
q0 -38 22 -60t58 -22q34 0 57 25t23 65v181h61v-174q0 -75 -37 -114.5z" />
    <glyph glyph-name="afii57456_afii57457.ccmp" horiz-adv-x="0" 
d="M223 1764q-37 -40 -104 -40q-35 0 -62 11.5t-49 36.5q-23 -25 -49.5 -36.5t-60.5 -11.5q-68 0 -105 39.5t-37 114.5v174h62v-180q0 -41 22 -65.5t58 -24.5q35 0 57 22t22 60v188h62v-188q0 -38 22 -60t58 -22q34 0 57 25t23 65v180h61v-174q0 -74 -37 -114zM-215 1579v59
h442v-59h-442z" />
    <glyph glyph-name="afii57453_afii57457.ccmp" horiz-adv-x="0" 
d="M223 1880.5q-37 -39.5 -104 -39.5q-36 0 -62.5 11t-48.5 36q-23 -25 -49.5 -36t-60.5 -11q-69 0 -105.5 39.5t-36.5 114.5v174h62v-180q0 -42 22 -66.5t58 -24.5q34 0 56.5 22.5t22.5 59.5v189h62v-189q0 -38 22 -60t58 -22q35 0 57.5 25t22.5 66v180h61v-174
q0 -75 -37 -114.5zM-211 1729v59h442v-59h-442zM-211 1579v59h442v-59h-442z" />
    <glyph glyph-name="afii57396.aalt.pnum" horiz-adv-x="1086" 
d="M485 1352q41 -28 71 -74.5t80 -141.5l12 -22q26 -50 47 -82.5t55.5 -58t79.5 -25.5q60 0 80 42.5t20 121.5v254h94v-240q0 -114 -41 -189t-159 -75q-63 0 -108 26.5t-72 62t-58 90.5l-10 18q-20 35 -43 81q-28 55 -47 85t-45 49.5t-60 19.5q-54 0 -78 -39.5t-24 -115.5
v-1139h-94v1147q0 55 18.5 107.5t63 89t118.5 36.5q59 0 100 -28z" />
    <glyph glyph-name="afii57399.aalt.pnum" horiz-adv-x="810" 
d="M731 86v-86h-690v66l616 1300h90l-600 -1280h584z" />
    <glyph glyph-name="glyph608" horiz-adv-x="201" 
d="M263.5 76.5q19.5 -9.5 19.5 -31.5q0 -19 -20 -32t-62 -13h-201q-43 0 -62.5 12.5t-19.5 32.5q0 22 19.5 31.5t62.5 9.5h201q43 0 62.5 -9.5z" />
    <glyph glyph-name="glyph609" horiz-adv-x="1092" 
d="M1174 43q0 -19 -19.5 -31t-62.5 -12h-1092q-43 0 -62.5 12t-19.5 31q0 43 82 43h1092q82 0 82 -43z" />
    <glyph glyph-name="afii57396.aalt" horiz-adv-x="984" 
d="M419 1352q41 -28 71 -74.5t80 -141.5l12 -22q26 -50 47 -82.5t55.5 -58t79.5 -25.5q60 0 80 42.5t20 121.5v254h94v-240q0 -114 -41 -189t-159 -75q-63 0 -108 26.5t-72 62t-58 90.5l-10 18q-20 35 -43 81q-28 55 -47 85t-45 49.5t-60 19.5q-54 0 -78 -39.5t-24 -115.5
v-1139h-94v1147q0 55 18.5 107.5t63 89t118.5 36.5q59 0 100 -28z" />
    <glyph glyph-name="afii57399.aalt" horiz-adv-x="984" 
d="M856 86v-86h-690v66l616 1300h90l-600 -1280h584z" />
    <glyph glyph-name="glyph613" horiz-adv-x="626" 
d="M233.5 1227.5q20.5 -19.5 20.5 -47.5q0 -31 -20.5 -51.5t-49.5 -20.5q-28 0 -48.5 21t-20.5 51q0 28 20.5 47.5t48.5 19.5q29 0 49.5 -19.5zM438.5 1227.5q20.5 -19.5 20.5 -47.5q0 -31 -20.5 -51.5t-49.5 -20.5q-28 0 -49 21t-21 51q0 27 21 47t49 20q29 0 49.5 -19.5z
" />
    <glyph glyph-name="glyph614" horiz-adv-x="615" 
d="M233.5 -161.5q20.5 -20.5 20.5 -51.5q0 -28 -20.5 -48t-49.5 -20q-28 0 -48.5 20t-20.5 48q0 30 20.5 51t48.5 21q29 0 49.5 -20.5zM438.5 -161.5q20.5 -20.5 20.5 -51.5q0 -28 -20.5 -48t-49.5 -20q-28 0 -49 20t-21 48q0 30 21 51t49 21q29 0 49.5 -20.5z" />
    <glyph glyph-name="glyph615" horiz-adv-x="261" 
d="M180.5 1223q20.5 -20 20.5 -47q0 -31 -20.5 -51.5t-49.5 -20.5q-28 0 -49 21t-21 51q0 27 21 47t49 20q29 0 49.5 -20z" />
    <glyph glyph-name="glyph616" horiz-adv-x="261" 
d="M180.5 -161.5q20.5 -20.5 20.5 -51.5q0 -28 -20.5 -48t-49.5 -20q-28 0 -49 20t-21 48q0 30 21 51t49 21q29 0 49.5 -20.5z" />
    <glyph glyph-name="glyph617" horiz-adv-x="626" 
d="M407.5 1463q20.5 -20 20.5 -48q0 -31 -20.5 -51.5t-49.5 -20.5q-28 0 -48.5 21t-20.5 51q0 27 21 47.5t48 20.5q29 0 49.5 -20zM303.5 1285q20.5 -20 20.5 -48q0 -31 -20.5 -51.5t-49.5 -20.5q-28 0 -49 21t-21 51q0 28 21 48t49 20q29 0 49.5 -20zM508 1285
q20 -20 20 -48q0 -31 -20 -51.5t-49 -20.5q-28 0 -49 21t-21 51q0 28 21 48t49 20q29 0 49 -20z" />
    <glyph glyph-name="glyph618" horiz-adv-x="626" 
d="M233.5 -161.5q20.5 -20.5 20.5 -51.5q0 -28 -20.5 -48t-49.5 -20q-28 0 -48.5 20t-20.5 48q0 30 20.5 51t48.5 21q29 0 49.5 -20.5zM438.5 -161.5q20.5 -20.5 20.5 -51.5q0 -28 -20.5 -48t-49.5 -20q-28 0 -49 20t-21 48q0 30 21 51t49 21q29 0 49.5 -20.5zM338 -339.5
q20 -20.5 20 -51.5q0 -28 -20 -48t-49 -20q-28 0 -49 20t-21 48q0 30 21 51t49 21q29 0 49 -20.5z" />
    <glyph glyph-name="glyph619" horiz-adv-x="888" 
d="M186 1081v95l701 458v-94z" />
    <glyph glyph-name="glyph620" horiz-adv-x="1161" 
 />
    </font>
</defs>
</svg>
