<svg width="158" height="81" viewBox="0 0 158 81" fill="none" xmlns="http://www.w3.org/2000/svg">
<rect width="157.135" height="81.0001" fill="white"/>
<path fill-rule="evenodd" clip-rule="evenodd" d="M26.3052 10.7416C27.6907 11.6062 28.2138 13.329 28.2138 13.329L33.391 27.4286H14.2134L10 15.9617C10 15.9617 21.6131 10.5797 21.6416 10.5667C22.3961 10.2105 23.0397 10 23.8323 10C24.7422 10 25.5824 10.2914 26.3052 10.7416ZM50.4384 62.891C50.4384 61.1769 51.3318 59.6452 52.6624 58.7523L52.6655 58.7556L55.7286 62.6434L58.6514 66.3519C57.7643 67.2318 56.5614 67.7825 55.2532 67.7825C54.7842 67.7825 54.3343 67.7108 53.9067 67.5837C51.903 66.9906 50.4384 65.1168 50.4384 62.891ZM57.4389 27.4286H57.547H57.5513H72.4545L72.4517 27.4301H76.6632H76.6664C79.0049 27.4301 80.9911 28.9258 81.7463 31.0146L90.518 55.0246L99.3371 31.0132C100.096 28.9244 102.093 27.4286 104.444 27.4286H104.448H104.558C104.559 27.4286 104.561 27.4286 104.562 27.4286H123.744C123.702 27.4286 123.66 27.4291 123.618 27.4301H123.674H123.677C126.016 27.4301 128.002 28.9258 128.757 31.0146L142.055 67.4142C143.324 70.687 146.227 70.9784 146.963 70.9987H127.942C125.603 70.9987 123.617 69.503 122.862 67.4142L114.086 43.3996L105.264 67.4132C104.505 69.502 102.508 70.9978 100.157 70.9978H99.9094L99.9247 70.9983H81.0793C80.9505 71.0023 80.8732 70.9985 80.862 70.9978C78.5534 70.9688 76.5987 69.482 75.8509 67.4138L67.0757 43.3999L60.3297 61.7635L57.3942 58.0908L55.9648 56.305C57.139 55.4577 58.1281 54.7179 58.9098 53.9651C60.1797 52.7398 60.8913 51.4819 60.8913 49.6961C60.8913 49.393 60.8657 49.09 60.8115 48.7934C60.4286 46.6687 58.6035 44.8568 54.5162 44.8568C51.1148 44.8568 48.1092 46.8381 48.1092 50.6281C48.1092 52.7072 49.3312 54.5224 51.0478 56.7025C48.3261 58.5829 46.7276 59.9939 46.1947 62.3892C46.1772 62.4696 46.1627 62.5516 46.1482 62.634L46.148 62.6348L46.1479 62.6356C46.1447 62.6538 46.1414 62.6719 46.1382 62.6901C46.1348 62.7092 46.1313 62.7284 46.1277 62.7476C46.1182 62.803 46.1086 62.8584 46.099 62.9171C46.0845 63.0122 46.0726 63.1128 46.0609 63.2113L46.0575 63.2397C46.048 63.3342 46.0384 63.432 46.032 63.5265C46.0298 63.5565 46.0273 63.5861 46.0248 63.6155L46.0247 63.6157L46.0247 63.616C46.0198 63.6729 46.015 63.7293 46.0129 63.7872C46.0001 63.9795 45.9937 64.1815 45.9937 64.3868C45.9937 67.4403 48.1666 69.7378 50.8724 70.6144C51.5903 70.8458 52.3465 70.9729 53.1091 70.9924L53.1505 70.9989H34.0032C34.6766 70.9815 37.3989 70.7261 38.7986 67.7988C38.8561 67.675 38.9071 67.5446 38.955 67.4143L43.4986 55.0503L52.3305 31.0133C53.0899 28.9244 55.0873 27.4286 57.4389 27.4286ZM33.8498 70.9989C33.8498 70.9989 33.9045 71.0015 34.0032 70.9989H33.8498ZM100.124 70.9983H99.9247C100.052 71.0023 100.124 70.9983 100.124 70.9983ZM146.963 70.9987C147.073 71.0018 147.135 70.9987 147.135 70.9987H146.963ZM52.1072 49.6244C52.1072 51.6188 54.5832 54.1346 54.5832 54.1346C54.5832 54.1346 57.0592 51.6221 57.0592 49.6244C57.0592 48.2362 55.952 47.1086 54.5832 47.1086C53.2144 47.1086 52.1072 48.2362 52.1072 49.6244ZM41.2224 48.6597L41.2245 48.6656L41.2242 48.6664L36.6209 36.1525C36.6209 36.1525 36.6114 36.1427 36.605 36.1427H17.3543C17.3543 36.1427 17.3351 36.1557 17.3383 36.1655L28.4002 66.386C29.4302 69.1744 33.2982 69.1744 34.3282 66.386L41.2242 48.6664L41.4169 49.1901C41.4199 49.1931 41.2461 48.7237 41.2245 48.6656L41.2256 48.663L41.2224 48.6597Z" fill="#E5E5E5"/>
<path fill-rule="evenodd" clip-rule="evenodd" d="M26.3052 10.7416C27.6907 11.6062 28.2138 13.329 28.2138 13.329L33.391 27.4286H14.2134L10 15.9617C10 15.9617 21.6131 10.5797 21.6416 10.5667C22.3961 10.2105 23.0397 10 23.8323 10C24.7422 10 25.5824 10.2914 26.3052 10.7416ZM50.4384 62.891C50.4384 61.1769 51.3318 59.6452 52.6624 58.7523L52.6655 58.7556L55.7286 62.6434L58.6514 66.3519C57.7643 67.2318 56.5614 67.7825 55.2532 67.7825C54.7842 67.7825 54.3343 67.7108 53.9067 67.5837C51.903 66.9906 50.4384 65.1168 50.4384 62.891ZM57.4389 27.4286H57.547H57.5513H72.4545L72.4517 27.4301H76.6632H76.6664C79.0049 27.4301 80.9911 28.9258 81.7463 31.0146L90.518 55.0246L99.3371 31.0132C100.096 28.9244 102.093 27.4286 104.444 27.4286H104.448H104.558C104.559 27.4286 104.561 27.4286 104.562 27.4286H123.744C123.702 27.4286 123.66 27.4291 123.618 27.4301H123.674H123.677C126.016 27.4301 128.002 28.9258 128.757 31.0146L142.055 67.4142C143.324 70.687 146.227 70.9784 146.963 70.9987H127.942C125.603 70.9987 123.617 69.503 122.862 67.4142L114.086 43.3996L105.264 67.4132C104.505 69.502 102.508 70.9978 100.157 70.9978H99.9094L99.9247 70.9983H81.0793C80.9505 71.0023 80.8732 70.9985 80.862 70.9978C78.5534 70.9688 76.5987 69.482 75.8509 67.4138L67.0757 43.3999L60.3297 61.7635L57.3942 58.0908L55.9648 56.305C57.139 55.4577 58.1281 54.7179 58.9098 53.9651C60.1797 52.7398 60.8913 51.4819 60.8913 49.6961C60.8913 49.393 60.8657 49.09 60.8115 48.7934C60.4286 46.6687 58.6035 44.8568 54.5162 44.8568C51.1148 44.8568 48.1092 46.8381 48.1092 50.6281C48.1092 52.7072 49.3312 54.5224 51.0478 56.7025C48.3261 58.5829 46.7276 59.9939 46.1947 62.3892C46.1772 62.4696 46.1627 62.5516 46.1482 62.634L46.148 62.6348L46.1479 62.6356C46.1447 62.6538 46.1414 62.6719 46.1382 62.6901C46.1348 62.7092 46.1313 62.7284 46.1277 62.7476C46.1182 62.803 46.1086 62.8584 46.099 62.9171C46.0845 63.0122 46.0726 63.1128 46.0609 63.2113L46.0575 63.2397C46.048 63.3342 46.0384 63.432 46.032 63.5265C46.0298 63.5565 46.0273 63.5861 46.0248 63.6155L46.0247 63.6157L46.0247 63.616C46.0198 63.6729 46.015 63.7293 46.0129 63.7872C46.0001 63.9795 45.9937 64.1815 45.9937 64.3868C45.9937 67.4403 48.1666 69.7378 50.8724 70.6144C51.5903 70.8458 52.3465 70.9729 53.1091 70.9924L53.1505 70.9989H34.0032C34.6766 70.9815 37.3989 70.7261 38.7986 67.7988C38.8561 67.675 38.9071 67.5446 38.955 67.4143L43.4986 55.0503L52.3305 31.0133C53.0899 28.9244 55.0873 27.4286 57.4389 27.4286ZM33.8498 70.9989C33.8498 70.9989 33.9045 71.0015 34.0032 70.9989H33.8498ZM100.124 70.9983H99.9247C100.052 71.0023 100.124 70.9983 100.124 70.9983ZM146.963 70.9987C147.073 71.0018 147.135 70.9987 147.135 70.9987H146.963ZM52.1072 49.6244C52.1072 51.6188 54.5832 54.1346 54.5832 54.1346C54.5832 54.1346 57.0592 51.6221 57.0592 49.6244C57.0592 48.2362 55.952 47.1086 54.5832 47.1086C53.2144 47.1086 52.1072 48.2362 52.1072 49.6244ZM41.2224 48.6597L41.2245 48.6656L41.2242 48.6664L36.6209 36.1525C36.6209 36.1525 36.6114 36.1427 36.605 36.1427H17.3543C17.3543 36.1427 17.3351 36.1557 17.3383 36.1655L28.4002 66.386C29.4302 69.1744 33.2982 69.1744 34.3282 66.386L41.2242 48.6664L41.4169 49.1901C41.4199 49.1931 41.2461 48.7237 41.2245 48.6656L41.2256 48.663L41.2224 48.6597Z" fill="url(#paint0_linear_2003_3696)"/>
<defs>
<linearGradient id="paint0_linear_2003_3696" x1="58.0431" y1="35.6842" x2="130.165" y2="68.2479" gradientUnits="userSpaceOnUse">
<stop stop-color="#109AA9"/>
<stop offset="1" stop-color="#0033A1"/>
</linearGradient>
</defs>
</svg>
