<svg xmlns="http://www.w3.org/2000/svg" width="189" height="25"><g fill="none" fill-rule="evenodd"><g fill-rule="nonzero"><path fill="red" d="m178.209 4.666-8.44 12.398c-1.11 1.63-2.913 3.202-5.09 3.369v.381h9.387c2.492 0 4.31-1.647 5.54-3.461l8.666-12.687H178.21z"/><path fill="#051039" d="M22.779 20.814V6.028h4.249v14.786h-4.25zm97.997 0-10.21-8.78v8.78h-3.588V6.028h3.048L120.1 14.67V6.028h3.588v14.786zm22.205-10.016c-1.92-.96-4.083-1.737-6.95-1.737-3.424 0-5.977 1.798-5.977 4.298 0 2.561 2.599 4.376 5.946 4.376 2.764 0 4.954-.717 7.116-1.983v3.659c-1.907.96-4.443 1.676-7.296 1.676-5.825 0-10.406-3.017-10.406-7.728 0-4.634 4.67-7.607 10.39-7.607 2.703 0 5.15.518 7.177 1.358zM50.675 20.814V6.028h14.203v3.17h-9.954v3.674h9.73v3.171h-9.73v4.772zm94.874 0V6.028h14.743v3.17h-10.495v2.562h10.33v3.17h-10.33v2.714h10.45v3.17zm-65.912-5.549 5.87 5.55h-4.534c-1.006 0-1.666-.32-2.192-.84l-3.994-3.933a.48.48 0 0 0-.344-.121h-2.718v4.893h-4.249V6.028h9.204c4.774 0 6.786 2.18 6.786 4.588 0 2.805-2.463 4.145-3.829 4.65zm-3.392-2.439c1.68 0 2.491-.868 2.491-1.844s-.72-1.784-2.491-1.784h-4.52v3.628zm-33.078 2.44 5.87 5.548h-4.533c-1.006 0-1.667-.32-2.192-.839l-3.994-3.933a.48.48 0 0 0-.345-.121h-2.717v4.893h-4.25V6.028h9.204c4.774 0 6.787 2.18 6.787 4.588 0 2.805-2.463 4.145-3.83 4.65m-3.392-2.44c1.682 0 2.493-.868 2.493-1.844s-.721-1.784-2.493-1.784h-4.519v3.628zm-23.648 7.988-1.861-3.247H6.129l-1.697 3.247H.378L8.486 6.043h3.694l9.189 14.771zM7.75 14.487h4.745l-2.463-4.512zm93.222 6.327-1.817-3.247H91.23l-1.637 3.247h-3.95L93.54 6.043h3.588l8.934 14.771zm-8.152-6.327h4.624l-2.402-4.512z"/></g><path d="M0 0h189v25H0z"/></g></svg>