<svg id="Layer_1" data-name="Layer 1" xmlns="http://www.w3.org/2000/svg" xmlns:xlink="http://www.w3.org/1999/xlink" viewBox="0 0 152.09 28.61"><defs><style>.cls-1{fill:none;}.cls-2{clip-path:url(#clip-path);}.cls-3{clip-path:url(#clip-path-2);}.cls-4{fill:#777776;}</style><clipPath id="clip-path" transform="translate(0 -0.39)"><rect className="cls-1" width="152.53" height="29.17"/></clipPath><clipPath id="clip-path-2" transform="translate(0 -0.39)"><rect className="cls-1" x="-15.47" y="-15.23" width="182.04" height="61.57"/></clipPath></defs><title>newLogo</title><g className="cls-2"><g className="cls-3"><path className="cls-4" d="M21.64,28.47,17.73,14.18,17.66,14H21.6a1.84,1.84,0,0,1,1.28.49s9.46,10.18,12,12.19c2,1.62,3.3,1.73,4.27,1.73h1.59L28.92.82H21.56L9.82,28.47Z" transform="translate(0 -0.39)"/><rect className="cls-4" y="0.43" width="7.68" height="27.64"/><path className="cls-4" d="M39,14.78V14.7C39,6.68,45.26.39,53.79.39a16,16,0,0,1,11.16,4L60.47,9.79a9.71,9.71,0,0,0-6.64-2.59c-4,0-7,3.34-7,7.55v.08a7.27,7.27,0,0,0,7.47,7.62,7.77,7.77,0,0,0,4.4-1.14V18H53.24V12.38H65.89V24.76A18.59,18.59,0,0,1,53.95,29c-8.57,0-15-5.89-15-14.23" transform="translate(0 -0.39)"/><rect className="cls-4" x="72.16" y="1.06" width="0.77" height="6.79"/><polygon className="cls-4" Rewards="79.78 1.06 80.53 1.06 80.53 7.85 79.92 7.85 75.53 2.28 75.53 7.85 74.78 7.85 74.78 1.06 75.5 1.06 79.78 6.5 79.78 1.06"/><polygon className="cls-4" Rewards="84.87 7.85 84.1 7.85 84.1 1.76 81.81 1.76 81.81 1.06 87.15 1.06 87.15 1.76 84.87 1.76 84.87 7.85"/><polygon className="cls-4" Rewards="93.36 1.76 89.22 1.76 89.22 4.08 92.92 4.08 92.92 4.77 89.22 4.77 89.22 7.15 93.41 7.15 93.41 7.85 88.45 7.85 88.45 1.06 93.36 1.06 93.36 1.76"/><path className="cls-4" d="M99.49,8.24l-2-2.64H95.58V8.24h-.76V1.45h2.92c1.49,0,2.46.8,2.46,2a2,2,0,0,1-1.84,2l2.09,2.78ZM97.67,2.16h-2.1V4.91h2.09c1,0,1.75-.52,1.75-1.41s-.64-1.35-1.74-1.35" transform="translate(0 -0.39)"/><polygon className="cls-4" Rewards="106.69 1.06 107.43 1.06 107.43 7.85 106.82 7.85 102.44 2.28 102.44 7.85 101.69 7.85 101.69 1.06 102.41 1.06 106.69 6.5 106.69 1.06"/><path className="cls-4" d="M115.44,8.24h-.83l-.8-1.8h-3.7l-.81,1.8h-.79l3.1-6.84h.72ZM112,2.29l-1.55,3.46h3.1Z" transform="translate(0 -0.39)"/><polygon className="cls-4" Rewards="118.09 7.85 117.31 7.85 117.31 1.76 115.03 1.76 115.03 1.06 120.37 1.06 120.37 1.76 118.09 1.76 118.09 7.85"/><rect className="cls-4" x="121.73" y="1.06" width="0.77" height="6.79"/><path className="cls-4" d="M127.5,8.36A3.41,3.41,0,0,1,124,4.86a3.46,3.46,0,1,1,6.93,0,3.44,3.44,0,0,1-3.47,3.52m0-6.32a2.67,2.67,0,0,0-2.66,2.8,2.7,2.7,0,0,0,2.68,2.81,2.67,2.67,0,0,0,2.66-2.79A2.7,2.7,0,0,0,127.5,2" transform="translate(0 -0.39)"/><polygon className="cls-4" Rewards="137.45 1.06 138.2 1.06 138.2 7.85 137.59 7.85 133.2 2.28 133.2 7.85 132.45 7.85 132.45 1.06 133.17 1.06 137.45 6.5 137.45 1.06"/><path className="cls-4" d="M146.3,8.24h-.83l-.79-1.8H141l-.81,1.8h-.79l3.1-6.84h.72Zm-3.46-5.95-1.55,3.46h3.1Z" transform="translate(0 -0.39)"/><polygon className="cls-4" Rewards="147.5 1.06 148.26 1.06 148.26 7.14 152.09 7.14 152.09 7.85 147.5 7.85 147.5 1.06"/><path className="cls-4" d="M77.4,17.94h-.82l-.8-1.8h-3.7l-.8,1.8h-.78l3.09-6.84h.72ZM73.93,12l-1.55,3.46h3.1Z" transform="translate(0 -0.39)"/><rect className="cls-4" x="78.9" y="10.76" width="0.77" height="6.79"/><path className="cls-4" d="M86.52,17.94l-2-2.64H82.61v2.64h-.76V11.15h2.92c1.49,0,2.46.8,2.46,2a2,2,0,0,1-1.84,2l2.09,2.77Zm-1.82-6.09h-2.1v2.76H84.7c1,0,1.75-.52,1.75-1.41s-.64-1.35-1.74-1.35" transform="translate(0 -0.39)"/><polygon className="cls-4" Rewards="88.95 10.76 89.72 10.76 89.72 16.84 93.55 16.84 93.55 17.55 88.95 17.55 88.95 10.76"/><rect className="cls-4" x="94.83" y="10.76" width="0.77" height="6.79"/><polygon className="cls-4" Rewards="102.78 10.76 103.53 10.76 103.53 17.55 102.91 17.55 98.53 11.98 98.53 17.55 97.78 17.55 97.78 10.76 98.5 10.76 102.78 16.2 102.78 10.76"/><polygon className="cls-4" Rewards="110.55 11.46 106.4 11.46 106.4 13.78 110.11 13.78 110.11 14.47 106.4 14.47 106.4 16.85 110.6 16.85 110.6 17.55 105.64 17.55 105.64 10.76 110.55 10.76 110.55 11.46"/><path className="cls-4" d="M114.76,14.18c1.51.33,2.21.88,2.21,1.93S116,18,114.66,18A4,4,0,0,1,111.88,17l.47-.56a3.24,3.24,0,0,0,2.33,1c.91,0,1.51-.48,1.51-1.16s-.34-1-1.77-1.3-2.28-.84-2.28-2a2,2,0,0,1,2.23-1.86,3.55,3.55,0,0,1,2.39.83l-.45.59a3,3,0,0,0-2-.74c-.88,0-1.45.49-1.45,1.11s.35,1,1.84,1.33" transform="translate(0 -0.39)"/><path className="cls-4" d="M74.22,27.76a3.33,3.33,0,0,1-3.45-3.5,3.41,3.41,0,0,1,3.41-3.52,3.57,3.57,0,0,1,2.53.9l-.49.58a2.89,2.89,0,0,0-2.07-.78,2.66,2.66,0,0,0-2.58,2.8,2.63,2.63,0,0,0,2.69,2.83,3.2,3.2,0,0,0,2-.68V24.7H74.15V24H77v2.71a4.12,4.12,0,0,1-2.73,1" transform="translate(0 -0.39)"/><path className="cls-4" d="M83.54,27.64l-2-2.64H79.63v2.64h-.77V20.85h2.92c1.49,0,2.46.8,2.46,2a2,2,0,0,1-1.84,2l2.09,2.77Zm-1.81-6.09h-2.1v2.76h2.09c1,0,1.75-.52,1.75-1.41s-.64-1.35-1.74-1.35" transform="translate(0 -0.39)"/><path className="cls-4" d="M89.23,27.76a3.51,3.51,0,1,1,3.47-3.52,3.41,3.41,0,0,1-3.47,3.52m0-6.32a2.67,2.67,0,0,0-2.66,2.8,2.7,2.7,0,0,0,2.68,2.81,2.67,2.67,0,0,0,2.66-2.8,2.7,2.7,0,0,0-2.68-2.81" transform="translate(0 -0.39)"/><path className="cls-4" d="M100,24.74a2.83,2.83,0,1,1-5.66.06V20.85h.77v3.9c0,1.47.78,2.29,2.08,2.29s2-.76,2-2.24V20.85H100Z" transform="translate(0 -0.39)"/><path className="cls-4" d="M104.39,25.25h-1.65v2.4H102V20.85h2.54c1.53,0,2.54.81,2.54,2.16s-1.22,2.23-2.67,2.23m.07-3.69h-1.72v3h1.68c1.13,0,1.86-.6,1.86-1.5s-.73-1.49-1.82-1.49" transform="translate(0 -0.39)"/></g></g></svg>