<svg width="292" height="56" viewBox="0 0 292 56" fill="none" xmlns="http://www.w3.org/2000/svg">
<g clip-path="url(#clip0_8325_37975)">
<path d="M119.133 47.7665C119.483 47.7665 119.616 47.9299 119.616 48.1649C119.616 48.9923 117.275 49.1864 117.192 49.1864C117.362 48.7965 117.63 48.4564 117.97 48.1989C118.31 47.9413 118.71 47.7748 119.133 47.7154M117.162 49.5542C117.223 49.5542 120.91 49.2477 120.89 47.7971C120.89 47.409 120.571 47.0616 119.965 47.0616C119.359 47.0616 115.857 48.267 115.857 49.9321C115.864 50.0674 115.889 50.2012 115.929 50.3305C115.522 50.6177 115.031 50.7615 114.532 50.7391C114.532 50.6676 114.348 50.5451 114.286 50.4633C114.297 49.8906 114.276 49.3177 114.224 48.7472C114.163 48.3998 114.224 47.9708 113.793 47.7256C113.396 47.6896 113 47.7946 112.674 48.0219C112.17 48.359 111.647 48.7165 111.195 49.1047C110.743 49.4929 110.003 50.1262 109.634 50.1262C109.1 50.1262 108.935 49.2579 108.925 49.1047C108.925 48.1751 111.472 46.5202 111.842 46.1729C112.56 45.5414 113.134 44.7648 113.526 43.8949C113.678 43.5156 113.775 43.1166 113.814 42.71C113.814 42.5056 113.885 42.2707 113.464 42.2707C113.188 42.3427 112.936 42.4873 112.735 42.6895C111.01 44.6713 109.49 46.7143 107.919 48.7574C106.578 49.6561 105.015 50.1719 103.4 50.2488C102.373 50.2488 99.7538 49.83 99.7025 47.5826C99.7025 45.9686 101.233 43.9664 102.722 42.475H106.245C106.409 42.475 108.001 42.618 108.186 42.618C108.37 42.618 108.822 42.618 109.007 42.3933C108.915 42.1685 108.833 41.8723 108.699 41.7906C107.754 41.3615 105.105 41.4024 103.872 41.2287C104.191 40.91 104.486 40.5686 104.755 40.2072C104.561 40.1363 104.356 40.1016 104.149 40.1051C103.734 40.4638 103.343 40.8494 102.979 41.2594H95.7896C95.3274 41.2594 94.8242 42.3524 94.8242 42.618C94.8242 42.8836 95.1221 42.9143 95.3377 42.904L101.787 42.5772C99.836 44.6202 97.8847 46.5815 97.9155 48.5735C97.9155 51.0354 100.791 51.6381 102.198 51.6381C104.104 51.5087 105.923 50.795 107.405 49.595C107.374 49.7845 107.374 49.9776 107.405 50.1671C107.405 50.5144 107.467 51.4849 108.206 51.4849C109.336 51.4849 111.667 48.7778 112.314 48.7778C112.383 48.775 112.451 48.7989 112.503 48.8447C112.554 48.8904 112.586 48.9543 112.591 49.023V50.78C112.604 51.0469 112.716 51.2996 112.906 51.4885C113.096 51.6775 113.35 51.7891 113.618 51.8015C114.517 51.5945 115.363 51.205 116.104 50.6574C116.386 50.9423 116.727 51.1642 117.102 51.3086C117.477 51.453 117.879 51.5166 118.281 51.4951C119.667 51.4951 121.054 50.6574 122.605 49.687V49.4929C121.547 50.0438 120.393 50.3904 119.205 50.5144C118.599 50.5144 117.388 50.4327 117.151 49.6257" fill="#000000"/>
<path d="M141.8 42.2503C137.918 42.2503 132.917 45.4783 129.681 48.6757C129.874 47.9862 130.146 47.3211 130.493 46.6939C130.623 46.3877 130.774 46.0908 130.945 45.8052C131.551 45.1412 132.742 44.8858 132.732 44.0992C132.669 43.5318 132.556 42.9712 132.393 42.4239C132.317 42.343 132.222 42.2831 132.115 42.2503C131.284 43.6089 129.373 45.2536 128.007 45.2536C127.772 45.2739 127.535 45.2739 127.299 45.2536C127.766 45.8744 128.445 46.3033 129.209 46.459C129.543 46.402 129.863 46.2842 130.154 46.1116V46.2138C129.671 47.3375 129.127 48.5837 128.634 49.5644C128.521 49.7278 124.197 54.3043 124.197 55.2747C124.197 55.714 124.844 56 125.224 56C126.744 56 128.644 50.3918 129.076 49.8709C132.054 46.224 136.942 43.5068 140.444 43.5272C141.574 43.5272 143.998 43.9971 144.008 46.1525C144.008 46.7573 143.833 47.3493 143.505 47.8584C141.451 51.0047 137.764 51.7505 135.289 51.7505C133.861 51.7505 131.52 51.5359 130.359 50.0241H130.103V50.2692C131.006 51.7505 133.553 52.251 135.453 52.251C135.936 52.251 137.579 52.0569 138.339 51.9548C140.65 51.6687 146.031 48.8902 145.96 45.4476C145.96 43.0777 143.413 42.2707 141.851 42.2707" fill="#000000"/>
<path d="M155.335 45.9686C155.592 45.9799 155.848 45.9302 156.082 45.8236C156.316 45.717 156.521 45.5567 156.681 45.3557C156.177 45.131 155.304 44.5283 155.13 44.5283C154.955 44.5283 154.226 44.9573 154.205 45.3353C154.185 45.7132 155.017 45.9686 155.335 45.9686Z" fill="#000000"/>
<path d="M168.173 47.7665C168.512 47.7665 168.656 47.9299 168.656 48.1649C168.656 48.9923 166.314 49.1864 166.232 49.1864C166.403 48.797 166.671 48.4575 167.011 48.2C167.35 47.9426 167.751 47.7758 168.173 47.7154M166.263 49.687V49.5746C166.838 49.5031 169.909 49.1558 169.888 47.8278C169.888 47.4396 169.58 47.0923 168.974 47.0923C168.368 47.0923 164.866 48.2977 164.866 49.9628V50.0547C164.503 50.2921 164.079 50.4231 163.644 50.4327C163.461 50.4466 163.276 50.4243 163.101 50.3671C162.927 50.3098 162.765 50.2188 162.625 50.0992C162.486 49.9796 162.372 49.8338 162.289 49.6701C162.207 49.5064 162.158 49.3282 162.145 49.1456C162.14 49.0878 162.14 49.0297 162.145 48.9719C162.145 46.6837 166.109 45.5191 166.058 42.761C166.058 42.761 165.965 42.1277 165.698 42.1277C165.01 42.1277 162.771 45.6315 162.617 45.9686C162.268 46.8252 161.849 47.652 161.364 48.4407C160.586 49.3944 159.495 50.0454 158.283 50.2795C158.088 50.2795 157.462 50.2795 157.462 49.687C157.462 48.5224 159.701 47.7869 160.389 47.7869C160.543 47.7869 160.769 47.8687 160.943 47.8687C161.005 47.8788 161.069 47.8683 161.125 47.8388C161.181 47.8092 161.225 47.7623 161.251 47.7052C161.251 47.6235 161.169 47.4396 161.169 47.3579C160.933 47.3579 160.512 47.2966 160.348 47.2966C159.629 47.2966 155.87 48.124 155.726 50.0445C155.294 50.2901 154.806 50.4235 154.309 50.4327C154.021 50.4327 153.282 50.3203 153.282 49.5644C153.282 48.9719 154.083 48.1853 154.73 47.6235V47.3885C154.648 47.3885 154.576 47.3068 154.401 47.3068C154.011 47.3068 151.957 49.2886 151.885 49.3499C151.828 49.5188 151.79 49.6935 151.772 49.8708C151.266 50.1839 150.692 50.3697 150.098 50.4123C150.098 50.4123 148.917 50.4123 148.907 49.7687C148.896 49.1251 149.934 49.2375 149.934 48.5939C149.934 48.1445 148.609 47.7869 148.424 47.5724C148.67 47.3272 148.845 47.1638 148.845 46.9697V46.7858C148.763 46.7245 148.742 46.6326 148.547 46.6326C148.075 46.6326 146.863 47.8278 146.75 48.0627C146.637 48.2977 146.904 48.3692 146.863 48.4203C146.637 48.645 146.319 48.9106 146.154 49.0945C146.227 49.124 146.296 49.1617 146.36 49.2069C146.637 49.0536 147.15 48.6246 147.387 48.6246C147.623 48.6246 148.599 49.0434 148.722 49.3703C148.557 49.6155 147.346 50.2795 147.346 50.5859C147.346 51.158 148.701 51.5461 148.999 51.5461C150.006 51.4132 150.965 51.038 151.793 50.4531C151.885 51.1784 152.378 51.5461 153.282 51.5461C154.21 51.445 155.098 51.1188 155.87 50.5961C155.974 50.8943 156.174 51.1495 156.44 51.3216C156.706 51.4936 157.022 51.5726 157.338 51.5461C158.55 51.5461 159.865 50.3101 161.2 49.1864C161.272 49.2681 161.2 49.2886 161.2 49.2886C160.769 50.9128 161.713 51.5461 162.699 51.5461C163.594 51.4289 164.442 51.0763 165.154 50.5246C165.419 50.8648 165.763 51.1356 166.156 51.3136C166.55 51.4916 166.982 51.5714 167.413 51.5461C168.81 51.5461 170.186 50.7085 171.737 49.738V49.4724C170.68 50.0353 169.521 50.3826 168.327 50.494C167.783 50.494 166.674 50.4123 166.345 49.738" fill="#000000"/>
<path d="M188.969 42.189C188.699 42.2934 188.454 42.4535 188.25 42.6589C187.511 43.9562 185.169 48.0627 185.046 48.0627C184.922 48.0627 184.214 47.838 184.019 47.838C183.663 47.9502 183.319 48.0973 182.992 48.2773H182.817C181.854 48.1617 180.927 47.8449 180.096 47.3477C179.82 47.7736 179.579 48.2212 179.377 48.6859C180.013 48.8187 180.599 48.9617 181.184 49.023C180.992 49.4591 180.675 49.8298 180.274 50.0894C179.873 50.3489 179.404 50.486 178.925 50.4838C178.637 50.4838 177.117 50.3918 177.097 49.3703C177.097 48.1853 178.986 47.8687 179.356 47.7563C179.42 47.6771 179.469 47.5872 179.5 47.4907H178.915C178.798 47.4929 178.688 47.5406 178.606 47.6235C177.446 47.8687 175.525 48.931 175.525 50.2999C175.525 51.3214 176.902 51.5666 177.497 51.5666C178.873 51.5666 181.092 50.78 181.605 48.9821C181.954 48.9538 182.299 48.8853 182.632 48.7778C183.047 48.8955 183.475 48.9641 183.906 48.9821C184.05 49.1354 184.163 49.2477 184.163 49.3907C184.163 49.5337 183.331 51.066 183.074 51.6483C182.713 52.6978 182.522 53.7978 182.509 54.907C182.509 55.0602 182.427 55.9285 182.971 55.9285C183.865 55.9285 184.768 52.1284 184.768 51.9548C184.768 51.3214 184.625 50.3203 184.686 50.0445C184.788 49.6562 185.034 49.3206 185.374 49.1047C186.401 48.8289 188.281 49.1047 189.041 48.2977C188.127 48.2977 187.346 48.359 187.161 48.359C186.977 48.359 186.237 48.359 186.073 48.1955C188.127 45.9686 189.308 44.5589 189.287 42.7406C189.287 42.618 189.287 42.189 188.928 42.189" fill="#000000"/>
<path d="M229.753 45.9686C230.01 45.9799 230.266 45.9302 230.5 45.8236C230.734 45.717 230.939 45.5567 231.099 45.3557C230.585 45.131 229.733 44.5283 229.548 44.5283C229.363 44.5283 228.644 44.9573 228.623 45.3353C228.603 45.7132 229.445 45.9686 229.753 45.9686Z" fill="#000000"/>
<path d="M241.276 48.5837C241.276 49.4622 238.657 50.3816 238.39 50.3816C238.225 50.3754 238.067 50.3163 237.94 50.2132C237.812 50.11 237.721 49.9684 237.681 49.8096C237.681 48.6961 239.797 48.073 240.485 48.073C240.916 48.073 241.255 48.1649 241.276 48.5633V48.5837ZM245.671 49.401C244.948 49.8023 244.17 50.0949 243.361 50.2693C242.95 49.7789 243.443 49.0639 242.467 48.5633C242.422 48.534 242.384 48.4957 242.354 48.4509C242.293 48.1649 242.724 47.1434 241.954 47.1434C241.378 47.1434 241.543 47.5316 241.235 47.8687C240.926 47.7846 240.609 47.7366 240.29 47.7257C239.52 47.7257 236.819 48.3692 235.976 49.7074C235.42 49.9747 234.847 50.2068 234.261 50.4021C234.035 50.4534 233.805 50.4841 233.573 50.494C233.173 50.494 232.022 50.3203 232.022 49.3703C232.022 48.4203 233.512 48.073 234.076 48.073H235.103C235.328 48.0877 235.553 48.0381 235.75 47.93V47.5214C235.577 47.4186 235.378 47.3656 235.175 47.3681C234.415 47.3681 230.667 48.1547 230.513 49.9117C230.011 50.2394 229.428 50.4231 228.828 50.4429C228.531 50.4429 227.801 50.3305 227.801 49.5746C227.801 48.9821 228.603 48.1956 229.25 47.6235V47.4294C229.167 47.4294 229.095 47.3477 228.911 47.3477C228.52 47.3477 226.466 49.3294 226.394 49.3907C226.323 49.452 226.323 49.6768 226.292 49.8198C225.764 50.1779 225.152 50.3927 224.515 50.4429C224.515 50.4429 223.385 50.4429 223.375 49.7994C223.365 49.1558 224.402 49.2682 224.402 48.6246C224.402 48.1751 223.129 47.8176 222.944 47.6031C223.17 47.3681 223.355 47.1945 223.355 47.0004V46.7756C223.283 46.7143 223.262 46.6224 223.057 46.6224C222.605 46.6224 221.455 47.8176 221.331 48.0525C221.34 48.1348 221.364 48.2146 221.403 48.2875H219.832C219.668 48.2875 218.918 48.2875 218.754 48.1138C220.808 45.9073 221.989 44.4874 221.948 42.6691C221.948 42.5465 222.009 42.1175 221.609 42.1175C221.337 42.219 221.091 42.3795 220.89 42.5874C220.15 43.9256 217.809 48.0117 217.727 48.0117C217.644 48.0117 216.895 47.7869 216.7 47.7869C216.234 47.9374 215.792 48.1505 215.385 48.4203C215.306 48.4959 215.259 48.5978 215.251 48.7063C214.594 49.1864 213.978 50.0752 213.382 50.0752C212.099 50.0752 211.585 41.147 208.843 41.147C207.056 41.147 199.6 46.2547 199.6 46.2547C199.248 46.0833 198.884 45.9366 198.511 45.8154C197.986 46.0288 197.498 46.3217 197.063 46.6837V46.9902C197.354 47.1001 197.636 47.2334 197.905 47.3886C196.735 48.2671 192.596 50.9639 192.596 51.4747C192.596 51.7096 192.955 51.9241 193.304 51.9241C195.05 51.9241 199.148 47.7052 199.21 47.7052C199.271 47.7052 200.309 47.8891 200.709 47.9095C201.551 47.9095 203.441 48.0015 203.595 48.0015C205.402 48.0015 207.847 47.7972 209.079 46.9799C209.181 46.9018 209.251 46.7891 209.274 46.6633V46.4998H209.038C208.853 46.4998 208.268 46.6633 208.011 46.6735C205.54 46.8351 203.059 46.7838 200.596 46.5203C202.26 45.4987 205.022 42.7815 207.364 42.7815C207.627 42.7588 207.891 42.8031 208.132 42.9104C208.373 43.0176 208.582 43.1842 208.74 43.3944C209.572 44.5079 209.582 45.6622 210.075 47.174C210.291 47.8176 210.445 48.6042 210.609 49.0536C210.774 49.5031 210.948 51.2806 212.119 51.2806C213.29 51.2806 214.8 49.8504 215.56 48.7983C215.898 48.8692 216.241 48.9103 216.587 48.9208C216.72 49.0741 216.823 49.1864 216.823 49.3295C216.823 49.4725 216.011 51.0048 215.796 51.587C215.425 52.634 215.234 53.7356 215.231 54.8457C215.231 54.9989 215.149 55.8672 215.703 55.8672C216.576 55.8672 217.49 52.0671 217.49 51.8935C217.49 51.2601 217.347 50.259 217.418 49.973C217.512 49.5921 217.747 49.2603 218.076 49.0434C218.99 48.8085 220.407 48.9821 221.29 48.5633C221.117 48.7068 220.956 48.8639 220.808 49.0332C220.876 49.0582 220.939 49.0964 220.992 49.1456C221.259 48.9923 221.763 48.5633 221.948 48.5633C222.132 48.5633 223.129 48.9821 223.231 49.309C223.088 49.5542 221.906 50.208 221.906 50.5246C221.906 51.0967 223.2 51.4849 223.488 51.4849C224.517 51.3375 225.493 50.9333 226.323 50.3101C226.323 51.0865 226.877 51.4849 227.812 51.4849C228.839 51.3643 229.818 50.9845 230.657 50.3816C230.924 51.2397 232.043 51.4849 232.567 51.4849C233.745 51.3415 234.883 50.9665 235.915 50.3816V50.5042C235.923 50.6465 235.959 50.7858 236.021 50.9142C236.083 51.0426 236.17 51.1576 236.277 51.2525C236.384 51.3474 236.508 51.4203 236.644 51.4672C236.779 51.5141 236.922 51.534 237.065 51.5257H237.127C238.564 51.5257 241.481 49.0945 241.83 49.0945C241.984 49.0945 241.984 49.0945 242.077 49.2273V49.5133C241.717 50.0752 241.132 50.3918 241.153 50.923C241.173 51.4542 241.656 51.5564 242.18 51.5564C243.124 51.5564 245.908 50.1058 246.072 49.5133L245.671 49.401Z" fill="#000000"/>
<path d="M35.186 37.3982C25.3062 45.4989 12.3762 45.9484 6.29629 38.4197C0.216416 30.8911 3.27689 18.2038 13.1464 10.0928C23.0159 1.98194 35.9459 1.54268 42.0464 9.07132C48.1468 16.6 45.0555 29.2873 35.186 37.388M42.5804 7.35516C35.0627 -1.97136 20.4176 -2.50256 9.84973 6.12933C-0.718159 14.7612 -3.16243 29.4099 4.35525 38.716C11.8729 48.0221 26.5283 48.5635 37.0859 39.9009C47.6435 31.2384 50.0981 16.6613 42.5804 7.35516Z" fill="#000000"/>
<path d="M37.999 17.1208C40.5357 13.5863 39.139 5.38343 37.5368 7.86574C36.1401 10.0212 29.1667 14.6385 23.015 18.3874C23.015 18.3874 24.5144 14.4341 25.7982 11.2368C27.0819 8.0394 21.2999 9.38781 17.9518 11.104C17.6335 11.2674 14.9633 12.9325 14.7373 13.9847C16.1443 13.7395 16.9557 13.6374 16.7913 13.9847C16.627 14.332 16.5859 14.4852 16.4627 14.761C15.4357 17.2127 14.0595 20.5327 12.6628 23.8322C9.44824 32.8318 11.0606 36.8975 11.0606 36.8975L19.6567 37.255C19.6567 37.255 17.5 36.3356 18.414 31.3812C19.328 26.4269 20.6323 25.7833 20.9199 25.6709C21.4231 27.714 24.5555 36.1824 31.7137 41.0857C40.3817 47.0208 46.3691 44.0584 48.6799 41.6884C50.9906 39.3185 51.0009 34.5378 51.0009 34.5378C51.0009 34.5378 44.4075 39.8701 37.6498 35.2733C33.0283 32.0963 26.6095 26.4064 24.155 24.2612C24.5658 24.0876 33.6034 23.1171 37.9374 17.1105" fill="#000000"/>
<path d="M73.237 14.6998H69.2933L62.3713 23.6177H62.3097L64.1686 14.6998H59.1465L55.4082 33.4754H60.4303L62.1659 24.5677H62.2173L66.9826 33.4754H72.6927L66.7772 23.0252L73.237 14.6998Z" fill="#000000"/>
<path d="M80.7128 22.1977C80.9852 22.1977 81.2464 22.3054 81.439 22.4969C81.6316 22.6885 81.7398 22.9483 81.7398 23.2193C81.7398 25.0682 80.1274 25.9161 77.7653 25.8446C77.9809 24.4962 79.0696 22.1569 80.7025 22.1569M77.4264 28.664C80.9798 28.7661 86.2586 26.2736 86.2586 22.1977C86.2586 20.0117 84.2046 19.0412 82.4381 19.0412C75.9475 19.0412 72.4043 24.9763 72.4043 29.0522C72.4043 32.3211 75.4853 33.7512 78.3301 33.7512C80.8585 33.6695 83.3521 33.1403 85.6938 32.1883L86.4229 28.7457C84.4405 29.8597 82.2484 30.5552 79.9836 30.7888C78.5869 30.7888 77.4469 30.1554 77.4264 28.664Z" fill="#000000"/>
<path d="M103.277 22.0241C103.305 21.667 103.262 21.308 103.15 20.9676C103.038 20.6273 102.859 20.3123 102.625 20.0408C102.39 19.7693 102.103 19.5466 101.782 19.3856C101.46 19.2246 101.11 19.1284 100.751 19.1025H100.473C97.5875 19.1025 94.9378 22.9741 93.9005 25.3543H93.5822L95.061 19.409H90.1109L87.2969 33.4754H92.3497L93.2227 29.093C93.7259 28.0715 96.7864 23.5257 97.6799 23.5257C97.9264 23.5257 97.9777 23.7913 97.9777 23.9446C97.955 24.1831 97.9103 24.419 97.8442 24.6494L96.0983 33.4754H101.09L102.99 24.0467C103.164 23.3784 103.268 22.6936 103.298 22.0037" fill="#000000"/>
<path d="M116.885 19.3988L111.319 27.6425L109.747 19.3988H104.643L107.323 33.4754L102.527 38.4911H107.724L120.705 19.3988H116.885Z" fill="#000000"/>
<path d="M128.459 23.873C127.35 25.5381 124.895 29.6242 123.519 29.6242C123.067 29.6242 122.944 29.1748 122.944 28.8172C122.944 27.4892 124.115 22.0139 127.134 22.0139C127.699 22.0347 128.25 22.1962 128.736 22.4838L128.459 23.873ZM127.35 19.1638C122.43 19.1638 117.963 25.5279 117.963 30.0737C117.963 31.9533 119.154 33.7921 121.177 33.7921C124.074 33.7921 126.703 29.9103 127.761 27.5301H128.069L126.6 33.4754H131.581L134.354 19.409H129.66C128.885 19.2893 128.103 19.2108 127.319 19.174" fill="#000000"/>
<path d="M146.155 25.8139L149.636 19.266L150.858 25.8139H146.155ZM148.578 14.6998L138.473 33.4754H142.036L144.542 28.7764H151.485L152.389 33.4754H157.185L153.559 14.7406L148.578 14.6998Z" fill="#000000"/>
<path d="M161.168 19.3988L158.344 33.4754H163.366L166.18 19.3988H161.168Z" fill="#000000"/>
<path d="M167.186 14.618H162.174L161.568 17.3864H166.601L167.186 14.618Z" fill="#000000"/>
<path d="M172.465 25.344H172.157L173.636 19.409H168.675L165.861 33.4754H170.883L171.767 29.093C172.794 27.4484 174.93 23.3929 177.456 23.3929C177.843 23.4255 178.217 23.5405 178.555 23.73L180.322 19.409C179.925 19.2171 179.489 19.1192 179.048 19.123C176.162 19.123 173.513 23.0047 172.465 25.3849" fill="#000000"/>
<path d="M199.662 19.3988L195.204 28.3575H195.163L194.783 19.3988H190.583L186.177 28.3371H186.115L185.817 19.3988H181.422L181.966 33.4754H186.752L190.932 24.9865H190.994L191.343 33.4754H196.129L203.164 19.3988H199.662Z" fill="#000000"/>
<path d="M211.491 23.873C210.382 25.4768 207.938 29.5834 206.551 29.5834C206.11 29.5834 205.986 29.1339 205.986 28.7764C205.986 27.4484 207.147 21.973 210.166 21.973C210.734 21.9972 211.288 22.1585 211.779 22.4429L211.491 23.873ZM212.693 19.409C211.914 19.2892 211.128 19.2108 210.341 19.174C205.442 19.174 200.975 25.5381 200.975 30.0839C200.975 31.9635 202.166 33.8023 204.189 33.8023C207.075 33.8023 209.725 29.9205 210.762 27.5403H211.08L209.591 33.4856H214.572L217.376 19.409H212.693Z" fill="#000000"/>
<path d="M231.364 19.3988L225.777 27.6425L224.216 19.3988H219.081L221.772 33.4754L216.996 38.4911H222.182L235.154 19.3988H231.364Z" fill="#000000"/>
<path d="M242.035 21.8913C243.112 21.9332 244.174 22.1542 245.178 22.5451L245.773 19.4805C244.472 19.2636 243.158 19.1238 241.84 19.0617C236.5 19.0617 235.349 21.7585 235.349 23.4236C235.349 26.4881 239.375 27.6935 239.375 29.614C239.364 29.8042 239.314 29.9902 239.229 30.1612C239.145 30.3323 239.027 30.4849 238.883 30.6103C238.739 30.7357 238.571 30.8314 238.389 30.8919C238.207 30.9523 238.016 30.9763 237.824 30.9624C236.262 30.8081 234.739 30.3792 233.326 29.6957L232.689 32.985C234.36 33.4653 236.086 33.7297 237.824 33.7716C243.165 33.7716 244.408 30.9624 244.408 29.093C244.408 26.0285 240.074 24.8333 240.074 23.1682C240.074 22.1467 241.214 21.8709 242.045 21.8709" fill="#000000"/>
<path d="M291.669 34.3028C291.57 32.1028 291.035 29.944 290.093 27.9507C289.152 25.9573 287.824 24.1688 286.185 22.6881C288.923 25.5973 290.529 29.3822 290.714 33.363C290.961 37.7382 289.451 42.0317 286.516 45.2996C283.581 48.5676 279.461 50.5425 275.063 50.7902C270.949 51.0069 266.907 49.6511 263.766 47.0004C265.369 48.5911 267.289 49.8309 269.403 50.6402C271.516 51.4494 273.776 51.8102 276.038 51.6994C280.432 51.4438 284.545 49.4659 287.475 46.1991C290.405 42.9323 291.913 38.6433 291.669 34.2722" fill="#000000"/>
<path d="M258.036 39.6045C257.885 39.6648 257.75 39.7602 257.642 39.8828C257.535 40.0054 257.459 40.1516 257.42 40.3094C257.328 40.761 257.328 41.2266 257.42 41.6782V41.9745C257.554 42.7304 257.482 42.996 257.143 43.139C256.804 43.282 256.342 43.0266 256.116 42.3933C255.89 41.7599 255.982 41.2696 256.516 40.9734L256.311 40.4217C255.52 40.7588 255.284 41.525 255.664 42.5669C256.044 43.6089 256.691 43.9562 257.389 43.6906C257.534 43.6447 257.664 43.5622 257.766 43.4511C257.869 43.3401 257.941 43.2043 257.975 43.0573C258.046 42.7205 258.046 42.3725 257.975 42.0358V41.4228C257.851 40.6465 257.975 40.3094 258.314 40.1766C258.653 40.0438 259.187 40.3094 259.443 40.9938C259.7 41.6782 259.587 42.4035 258.961 42.6589L259.176 43.2309C260.07 42.8836 260.327 42.0153 259.895 40.8712C259.464 39.7271 258.807 39.3185 258.057 39.6045" fill="#000000"/>
<path d="M256.238 36.1824H254.574V36.7953H258.805L258.816 36.1824H257.327L256.659 35.3958L258.805 33.6695V32.8931L256.269 34.9566L254.574 32.9646V33.7818L256.402 35.8657L256.556 36.0292L256.69 36.1824H256.464H256.238Z" fill="#000000"/>
<path d="M259.7 29.5425L259.915 28.9807L258.282 28.3473L256.588 25.8037L256.341 26.4677L257.43 28.0307C257.584 28.2554 257.615 28.286 257.748 28.4597L257.44 28.521L257.214 28.5925L255.386 29.0624L255.119 29.7672L258.077 28.9296L259.7 29.5425Z" fill="#000000"/>
<path d="M259.761 22.4225L262.39 24.6903L263.047 23.9037L260.408 21.6359L261.332 20.5327L260.736 20.0321L258.23 22.9843L258.836 23.5053L259.761 22.4225Z" fill="#000000"/>
<path d="M268.882 19.6337L268.491 18.9391L266.273 20.1853L265.76 19.2558L267.773 18.1423L267.413 17.4987L265.421 18.6224L264.979 17.8256L267.156 16.5896L266.766 15.9052L263.695 17.6111L265.76 21.3805L268.882 19.6337Z" fill="#000000"/>
<path d="M272.3 16.2729C272.394 15.938 272.463 15.5965 272.506 15.2514C272.629 15.5571 272.773 15.8541 272.937 16.1401L273.348 16.8654L272.105 17.0492L272.3 16.2729ZM271.961 17.8052L273.677 17.5498L274.211 18.4998H275.32L272.906 14.3013L271.879 14.4341L270.678 19.1025L271.705 18.8573L271.961 17.8052Z" fill="#000000"/>
<path d="M278.628 17.3659C278.813 16.6917 278.875 16.4466 279.008 15.8847L279.131 15.3739V16.9777L279.326 19.0208L280.097 19.2557L281.339 17.56C281.441 17.4397 281.531 17.3097 281.606 17.1718C281.853 16.8347 281.945 16.6815 282.212 16.2525L282.099 16.5589C282.038 16.7428 281.986 16.9165 281.925 17.0901C281.863 17.2638 281.812 17.4476 281.73 17.7235L281.555 18.3262L281.185 19.6031L282.079 19.9606L283.27 15.803L281.914 15.3229L280.764 16.9267C280.672 17.0799 280.559 17.2331 280.425 17.4272C280.292 17.6213 280.179 17.8256 280.015 18.1219C280.056 17.6562 280.056 17.188 280.015 16.7224L279.85 14.6793L278.433 14.3626L277.293 18.5713L278.217 18.7348L278.628 17.3659Z" fill="#000000"/>
<path d="M264.464 34.9566C263.704 34.8851 263.345 34.5684 263.355 33.9351C263.355 33.8533 263.447 31.9839 267.709 31.892C268.327 31.8745 268.946 31.9087 269.558 31.9942L269.065 32.3926L268.798 32.6377C267.771 33.5571 266.005 35.0894 264.464 34.9566ZM281.718 33.8023C282.558 33.1467 283.564 32.7333 284.624 32.6071C285.004 32.6071 285.446 32.7501 285.436 33.22C285.425 33.6899 284.963 34.0883 284.07 34.3845C283.002 34.6718 281.883 34.7206 280.794 34.5275C281.091 34.2722 281.399 34.027 281.718 33.8023ZM268.5 34.7318C269.514 33.9992 270.475 33.1971 271.376 32.3313C272.023 32.4947 272.752 32.7092 273.563 32.9646L274.282 33.1996C273.255 34.1291 272.31 35.1098 271.396 35.8862L271.325 35.9475C270.358 36.9647 269.14 37.7115 267.792 38.1131C267.188 38.2702 266.549 38.2124 265.984 37.9497C266.336 38.2989 266.762 38.5648 267.232 38.7275C267.701 38.8902 268.202 38.9456 268.695 38.8895C270.216 38.661 271.619 37.9434 272.69 36.8464L274.611 35.0179L275.967 33.7103L278.616 34.5684L276.922 36.162L275.474 37.5615C274.491 38.5397 273.437 39.4446 272.321 40.2685C271.254 41.107 269.974 41.634 268.624 41.7906C267.928 41.8506 267.23 41.7011 266.621 41.3615H266.559C266.945 41.7967 267.419 42.1462 267.95 42.3874C268.481 42.6285 269.057 42.7558 269.64 42.761C271.355 42.761 272.886 41.9438 275.299 39.8088C276.398 38.7873 277.487 37.7658 278.462 36.7443L280.249 34.977C281.335 35.26 282.454 35.4008 283.577 35.3958C285.23 35.3958 286.658 34.6195 286.658 33.7001C286.641 33.4329 286.554 33.1746 286.407 32.9507C286.259 32.7268 286.055 32.545 285.816 32.4232C285.205 32.0234 284.493 31.8038 283.762 31.7899C282.313 31.8369 280.928 32.3903 279.849 33.3528L278.955 34.1189L278.627 34.027L276.193 33.2711C276.932 32.6173 277.558 32.0452 278.123 31.5549C279.158 30.6278 280.458 30.0456 281.841 29.8898C282.585 29.8175 283.334 29.9482 284.008 30.2678C283.602 29.8689 283.121 29.5536 282.592 29.3398C282.064 29.1259 281.498 29.0178 280.927 29.0215C279.498 29.0614 278.125 29.5838 277.035 30.5027C276.148 31.2263 275.301 31.997 274.498 32.8114L273.276 32.3926L272.978 32.3006L271.684 31.8818L272.444 31.1769C273.337 30.3291 274.18 29.5323 274.837 29.0011C277.22 27.05 278.698 26.8252 279.725 26.8457C280.665 26.8033 281.592 27.0689 282.365 27.6016C281.881 27.0598 281.286 26.6279 280.62 26.3353C279.953 26.0427 279.232 25.8962 278.503 25.9059C276.673 26.0371 274.949 26.8078 273.635 28.0817C273.112 28.521 272.064 29.4812 271.058 30.421L269.918 31.4425C269.014 31.2666 268.096 31.1675 267.175 31.1463C265.448 31.003 263.726 31.4855 262.328 32.5049C262.02 32.7844 261.835 33.1736 261.814 33.5877C261.814 34.6093 262.954 35.1405 263.304 35.2835C264.108 35.6545 265 35.7993 265.882 35.702C266.763 35.6048 267.602 35.2693 268.305 34.7318" fill="#000000"/>
</g>
<defs>
<clipPath id="clip0_8325_37975">
<rect width="291.721" height="56" fill="white"/>
</clipPath>
</defs>
</svg>
