<svg xmlns="http://www.w3.org/2000/svg" width="270" height="40" fill="none" viewBox="0 0 270 40"><g clip-path="url(#clip0_652_98)"><path fill="#009FD9" fill-rule="evenodd" d="M29.552 5.731h1.91v-1.91h1.89V1.91h-1.89V0h-1.91v1.91h-1.91v1.91h1.91zm12.378-.487a3.336 3.336 0 0 0-3.334 3.352 3.336 3.336 0 0 0 3.334 3.353c1.832 0 3.333-1.5 3.333-3.353a3.336 3.336 0 0 0-3.333-3.352m-22.866 11.5H41.93v-3.84H19.064zm3.334-8.148c0-1.851-1.501-3.352-3.334-3.352a3.336 3.336 0 0 0-3.333 3.352 3.336 3.336 0 0 0 3.333 3.353 3.336 3.336 0 0 0 3.334-3.353m8.577 0c0 1.852 1.5 3.353 3.333 3.353 1.832 0 3.333-1.5 3.333-3.353a3.336 3.336 0 0 0-3.333-3.352c-1.832 0-3.333 1.5-3.333 3.352m-4.289 3.353c1.832 0 3.334-1.5 3.334-3.353 0-1.851-1.501-3.352-3.334-3.352a3.336 3.336 0 0 0-3.333 3.352 3.336 3.336 0 0 0 3.333 3.353m24.776 8.636-2.866 8.635-2.865-8.635h-9.532v15.321h5.711v-11.5l3.802 11.5h5.73l3.802-11.5v11.5h5.711v-15.34h-9.493zm-26.667 0h-5.711v15.321h15.244v-3.86h-9.533zm-7.641 0h-5.711l-5.731 5.75v-5.75H0v15.321h5.712v-5.75l5.73 5.75h7.622l-8.577-8.635zm64.893 6.998c.526 0 .974-.078 1.364-.254.39-.175.683-.428.897-.78.214-.35.331-.779.331-1.305 0-.507-.117-.936-.331-1.267a2.03 2.03 0 0 0-.897-.76 3.6 3.6 0 0 0-1.364-.254h-3.08v4.62zm-5.868 8.304V20.663h6.336c1.033 0 1.93.175 2.67.526s1.287.858 1.677 1.501.565 1.384.565 2.261a4.3 4.3 0 0 1-.332 1.696 3.34 3.34 0 0 1-.955 1.248c-.409.331-.916.585-1.5.76v.039q.525.146.935.526c.273.254.487.566.682.975.195.39.39.916.566 1.54l1.247 4.171h-2.865l-1.13-3.742a6.8 6.8 0 0 0-.547-1.345 1.75 1.75 0 0 0-.799-.702q-.497-.234-1.345-.234h-2.398v6.023H76.18zm19.727-2.398a2.8 2.8 0 0 1-1.559.449 2.83 2.83 0 0 1-1.579-.449c-.448-.292-.8-.74-1.053-1.306-.253-.565-.37-1.247-.37-2.066s.136-1.52.37-2.105.585-1.033 1.034-1.326a2.83 2.83 0 0 1 1.579-.448c.604 0 1.13.156 1.578.448s.8.721 1.053 1.306.37 1.287.37 2.105c0 .82-.117 1.501-.37 2.086-.253.566-.604 1.014-1.053 1.306m-4.503 1.91c.858.488 1.833.741 2.944.741 1.092 0 2.086-.253 2.963-.76.858-.487 1.52-1.189 2.008-2.105.487-.897.721-1.969.721-3.177q0-1.842-.702-3.217a5.1 5.1 0 0 0-1.988-2.125c-.838-.487-1.832-.74-2.963-.74q-1.695 0-2.983.76a5.15 5.15 0 0 0-2.007 2.125c-.488.916-.722 1.988-.722 3.197 0 1.208.234 2.26.722 3.177a5.04 5.04 0 0 0 2.007 2.125m9.826 4.6v-2.164h.975c.565 0 .994-.097 1.306-.292s.565-.526.74-.975l.273-.624-4.405-11.657h2.729l2.222 6.628q.172.522.354 1.109.155.499.328 1.035h.059l.126-.419.108-.362.001-.004.004-.011.404-1.348 2.203-6.628h2.729l-4.815 12.944c-.351.936-.877 1.637-1.559 2.086-.702.448-1.618.682-2.788.682zm16.433-6.374c-.449.273-.955.41-1.54.41-.39 0-.741-.06-1.014-.196-.292-.136-.526-.312-.682-.546a1.46 1.46 0 0 1-.234-.838q0-.76.585-1.17c.39-.272.955-.448 1.715-.526l2.515-.234v.449c0 .584-.117 1.091-.351 1.56a2.7 2.7 0 0 1-.994 1.09m-4.269 2.066c.546.253 1.189.39 1.93.39.877 0 1.637-.176 2.28-.468.624-.37 1.072-.819 1.365-1.384h.039v1.715h2.573v-7.738c0-.8-.195-1.52-.585-2.145-.39-.623-.955-1.11-1.676-1.462-.722-.35-1.579-.526-2.554-.526-.721 0-1.403.098-2.008.312a4.7 4.7 0 0 0-1.618.877c-.467.37-.838.838-1.15 1.384l1.794 1.443c.253-.37.506-.683.799-.936.292-.273.604-.468.975-.624.37-.156.76-.234 1.189-.234.448 0 .857.078 1.189.234.331.156.604.37.779.663.176.292.273.604.273.975v.604l-2.612.234c-1.091.117-1.969.312-2.67.585-.683.272-1.209.662-1.56 1.17q-.526.73-.526 1.87c0 .741.156 1.365.468 1.891.312.507.74.897 1.306 1.17m12.885.195h-2.671V20.663h2.671zm14.873-2.904q-1.082.642-2.573.643v.02h-2.242V22.962h2.222q1.492 0 2.574.643a4.15 4.15 0 0 1 1.657 1.852c.37.8.565 1.755.565 2.846s-.195 2.027-.565 2.827c-.371.799-.917 1.423-1.638 1.852m-7.544-12.32v15.224h4.99c1.599 0 2.983-.312 4.114-.936a6.15 6.15 0 0 0 2.573-2.65c.584-1.15.877-2.496.877-4.016q0-2.31-.877-4.035a6.25 6.25 0 0 0-2.573-2.652c-1.131-.623-2.496-.935-4.114-.935zm24.542 3.606v11.618h-2.67v-1.56h-.039a3.6 3.6 0 0 1-1.423 1.326q-.907.468-2.106.468c-.838 0-1.559-.176-2.183-.527-.624-.35-1.092-.857-1.423-1.559s-.507-1.56-.507-2.573V24.25h2.671v6.9c0 .838.195 1.501.604 1.969s.975.702 1.715.702c.546 0 1.034-.117 1.423-.37.41-.254.722-.586.936-1.034.215-.429.312-.916.312-1.481V24.25h2.69zm4.523 11.365c.526.292 1.208.428 2.066.428.526 0 1.072-.097 1.618-.233v-2.086a5.3 5.3 0 0 1-.916.078c-.507 0-.897-.117-1.151-.332-.253-.214-.37-.545-.37-.974v-6.043h2.476v-2.184h-2.476v-2.924h-2.651v2.924h-1.871v2.184h1.871v6.18c0 .681.097 1.286.312 1.792.214.507.585.897 1.092 1.19m10.565.506c-1.111 0-2.125-.253-3.022-.74-.896-.488-1.579-1.19-2.085-2.106-.507-.916-.761-1.988-.761-3.196q0-1.842.761-3.217a5.46 5.46 0 0 1 2.085-2.125c.878-.487 1.872-.74 2.983-.74.76 0 1.462.136 2.105.39.643.272 1.209.623 1.677 1.11a5.3 5.3 0 0 1 1.111 1.638l-2.008 1.17c-.195-.41-.41-.78-.682-1.073a3.2 3.2 0 0 0-.917-.701 2.6 2.6 0 0 0-1.169-.254q-.965 0-1.696.468a3.2 3.2 0 0 0-1.15 1.326q-.41.848-.41 1.988t.41 1.988a3.2 3.2 0 0 0 1.15 1.326 3.2 3.2 0 0 0 1.715.468c.429 0 .8-.078 1.15-.234.351-.156.663-.39.917-.682.272-.293.506-.644.701-1.034l1.989 1.17c-.234.585-.585 1.092-1.033 1.56a4.9 4.9 0 0 1-1.638 1.11 6 6 0 0 1-2.183.39m6.374-15.477v15.244h2.671V29.22c0-.565.117-1.052.331-1.481.215-.449.526-.78.936-1.033.39-.254.877-.37 1.423-.37.74 0 1.306.233 1.715.701s.604 1.13.604 1.969v6.9h2.671v-7.212c0-1.014-.175-1.871-.507-2.573-.331-.702-.799-1.209-1.423-1.56-.624-.35-1.345-.526-2.183-.526-.799 0-1.501.156-2.105.487-.605.312-1.072.78-1.423 1.384h-.039v-5.243zm21.306 9.532h4.562l-1.696-5.068a31 31 0 0 1-.566-1.872h-.058a31 31 0 0 1-.565 1.872zm-4.834 5.692 5.419-15.224h3.45l5.419 15.224h-2.982l-1.189-3.548h-5.946l-1.189 3.548zm18.265-11.618h-2.671v11.618h2.671zm-2.144-1.637c.234.136.507.214.799.214s.565-.078.799-.214c.234-.137.429-.332.565-.566.137-.234.215-.487.215-.799a1.576 1.576 0 0 0-1.579-1.579 1.58 1.58 0 0 0-1.365.78 1.6 1.6 0 0 0-.214.8 1.58 1.58 0 0 0 .78 1.364m4.561 1.637h2.671v2.086h.019c.332-.683.76-1.228 1.326-1.599.546-.37 1.208-.546 1.988-.546.312 0 .526.02.663.04v2.495a1.4 1.4 0 0 0-.312-.04c-.117-.019-.234-.019-.351-.019q-.995 0-1.754.41a2.76 2.76 0 0 0-1.17 1.189c-.273.506-.409 1.11-.409 1.793v5.828h-2.671V24.27m8.616 11.657h2.671V20.702h-2.671zm5.166 0V24.308h2.67v11.618zm1.325-13.041a1.567 1.567 0 0 1-1.579-1.579 1.575 1.575 0 0 1 1.579-1.579 1.58 1.58 0 0 1 1.365.78c.136.234.214.507.214.799 0 .312-.078.565-.214.8a1.6 1.6 0 0 1-.565.565 1.5 1.5 0 0 1-.8.214m3.84 1.423v11.638h2.671V29.26c0-.565.117-1.052.331-1.481a2.4 2.4 0 0 1 .936-1.033c.39-.254.877-.37 1.423-.37.741 0 1.306.233 1.715.701s.605 1.13.605 1.969v6.9h2.67v-7.212c0-1.014-.175-1.871-.506-2.573-.332-.702-.8-1.209-1.423-1.56-.624-.35-1.345-.526-2.184-.526q-1.199 0-2.105.468a3.6 3.6 0 0 0-1.423 1.325h-.039v-1.559zm20.293 3.06c.212.425.329.944.369 1.52h-5.554c.078-.662.253-1.188.507-1.617.272-.41.584-.74.994-.936.409-.214.857-.312 1.384-.312q.819 0 1.403.351c.39.234.682.566.897.994m-2.066 8.811c-1.17 0-2.184-.234-3.041-.72a5 5 0 0 1-1.989-2.087c-.467-.916-.682-1.988-.682-3.216s.215-2.3.663-3.216a5.06 5.06 0 0 1 1.91-2.125c.838-.507 1.813-.74 2.944-.74 1.091 0 2.027.233 2.826.72.78.468 1.384 1.15 1.813 2.008.409.858.624 1.871.624 3.002 0 .156 0 .312-.02.487q-.029.263-.058.585h-8.09c.098.683.273 1.248.566 1.696.272.448.662.8 1.13 1.033.468.234 1.014.332 1.657.332.448 0 .877-.059 1.248-.195a2.8 2.8 0 0 0 .974-.527 4.4 4.4 0 0 0 .78-.799l1.618 1.482a4.1 4.1 0 0 1-1.15 1.228c-.468.35-1.014.604-1.638.799a9 9 0 0 1-2.085.253m8.538-.662c.818.448 1.754.662 2.846.662.994 0 1.832-.156 2.553-.448.702-.312 1.228-.74 1.579-1.306.351-.565.526-1.228.526-1.969 0-.682-.136-1.247-.389-1.676-.254-.43-.683-.8-1.248-1.072-.565-.293-1.345-.546-2.359-.78l-.217-.056c-.504-.13-.913-.234-1.186-.354-.332-.136-.546-.272-.682-.448-.137-.175-.195-.39-.195-.663q0-.38.234-.643t.643-.41c.273-.097.604-.155.994-.155.507 0 .975.136 1.423.429.448.292.819.701 1.092 1.208l1.793-1.384a3.75 3.75 0 0 0-.975-1.286c-.409-.351-.916-.624-1.481-.819a6 6 0 0 0-1.91-.292c-.878 0-1.657.136-2.34.428-.682.293-1.208.702-1.579 1.248-.37.546-.565 1.17-.565 1.91 0 .663.117 1.19.37 1.618.254.43.644.78 1.19 1.072q.818.44 2.222.76c.643.176 1.13.313 1.481.449.332.117.585.292.722.468.136.195.214.429.214.721 0 .41-.156.721-.507.955s-.819.351-1.462.351a2.9 2.9 0 0 1-1.598-.468c-.488-.312-.916-.78-1.287-1.384l-1.793 1.423a4.6 4.6 0 0 0 1.891 1.91" clip-rule="evenodd"/></g><defs><clipPath id="clip0_652_98"><path fill="#fff" d="M0 0h270v40H0z"/></clipPath></defs></svg>