<svg width="49" height="48" viewBox="0 0 49 48" fill="none" xmlns="http://www.w3.org/2000/svg">
<rect x="0.5" width="48" height="48" rx="12" fill="#EEF7FB"/>
<path fill-rule="evenodd" clip-rule="evenodd" d="M18.5 15C17.9477 15 17.5 15.4477 17.5 16V32C17.5 32.5523 17.9477 33 18.5 33H30.5C31.0523 33 31.5 32.5523 31.5 32V16C31.5 15.4477 31.0523 15 30.5 15H18.5ZM15.5 16C15.5 14.3431 16.8431 13 18.5 13H30.5C32.1569 13 33.5 14.3431 33.5 16V32C33.5 33.6569 32.1569 35 30.5 35H18.5C16.8431 35 15.5 33.6569 15.5 32V16Z" fill="#133379"/>
<path fill-rule="evenodd" clip-rule="evenodd" d="M20.5 30C20.5 29.4477 20.9477 29 21.5 29H27.5C28.0523 29 28.5 29.4477 28.5 30V34C28.5 34.5523 28.0523 35 27.5 35C26.9477 35 26.5 34.5523 26.5 34V31H22.5V34C22.5 34.5523 22.0523 35 21.5 35C20.9477 35 20.5 34.5523 20.5 34V30Z" fill="#133379"/>
<path fill-rule="evenodd" clip-rule="evenodd" d="M19.5 18C19.5 17.4477 19.9477 17 20.5 17H20.51C21.0623 17 21.51 17.4477 21.51 18C21.51 18.5523 21.0623 19 20.51 19H20.5C19.9477 19 19.5 18.5523 19.5 18Z" fill="#133379"/>
<path fill-rule="evenodd" clip-rule="evenodd" d="M27.5 18C27.5 17.4477 27.9477 17 28.5 17H28.51C29.0623 17 29.51 17.4477 29.51 18C29.51 18.5523 29.0623 19 28.51 19H28.5C27.9477 19 27.5 18.5523 27.5 18Z" fill="#133379"/>
<path fill-rule="evenodd" clip-rule="evenodd" d="M23.5 18C23.5 17.4477 23.9477 17 24.5 17H24.51C25.0623 17 25.51 17.4477 25.51 18C25.51 18.5523 25.0623 19 24.51 19H24.5C23.9477 19 23.5 18.5523 23.5 18Z" fill="#133379"/>
<path fill-rule="evenodd" clip-rule="evenodd" d="M23.5 22C23.5 21.4477 23.9477 21 24.5 21H24.51C25.0623 21 25.51 21.4477 25.51 22C25.51 22.5523 25.0623 23 24.51 23H24.5C23.9477 23 23.5 22.5523 23.5 22Z" fill="#133379"/>
<path fill-rule="evenodd" clip-rule="evenodd" d="M23.5 26C23.5 25.4477 23.9477 25 24.5 25H24.51C25.0623 25 25.51 25.4477 25.51 26C25.51 26.5523 25.0623 27 24.51 27H24.5C23.9477 27 23.5 26.5523 23.5 26Z" fill="#133379"/>
<path fill-rule="evenodd" clip-rule="evenodd" d="M27.5 22C27.5 21.4477 27.9477 21 28.5 21H28.51C29.0623 21 29.51 21.4477 29.51 22C29.51 22.5523 29.0623 23 28.51 23H28.5C27.9477 23 27.5 22.5523 27.5 22Z" fill="#133379"/>
<path fill-rule="evenodd" clip-rule="evenodd" d="M27.5 26C27.5 25.4477 27.9477 25 28.5 25H28.51C29.0623 25 29.51 25.4477 29.51 26C29.51 26.5523 29.0623 27 28.51 27H28.5C27.9477 27 27.5 26.5523 27.5 26Z" fill="#133379"/>
<path fill-rule="evenodd" clip-rule="evenodd" d="M19.5 22C19.5 21.4477 19.9477 21 20.5 21H20.51C21.0623 21 21.51 21.4477 21.51 22C21.51 22.5523 21.0623 23 20.51 23H20.5C19.9477 23 19.5 22.5523 19.5 22Z" fill="#133379"/>
<path fill-rule="evenodd" clip-rule="evenodd" d="M19.5 26C19.5 25.4477 19.9477 25 20.5 25H20.51C21.0623 25 21.51 25.4477 21.51 26C21.51 26.5523 21.0623 27 20.51 27H20.5C19.9477 27 19.5 26.5523 19.5 26Z" fill="#133379"/>
</svg>
