<svg width="24" height="24" viewBox="0 0 24 24" fill="none" xmlns="http://www.w3.org/2000/svg">
<path fill-rule="evenodd" clip-rule="evenodd" d="M10.7574 2.75736C11.8826 1.63214 13.4087 1 15 1H18C18.5523 1 19 1.44772 19 2V6C19 6.55228 18.5523 7 18 7H15V10H18C18.3079 10 18.5987 10.1419 18.7882 10.3846C18.9777 10.6273 19.0448 10.9438 18.9701 11.2425L17.9701 14.2425C17.8589 14.6877 17.4589 15 17 15H15V22C15 22.5523 14.5523 23 14 23H10C9.44772 23 9 22.5523 9 22V15H7C6.44772 15 6 14.5523 6 14V11C6 10.4477 6.44772 10 7 10H9V7C9 5.4087 9.63214 3.88258 10.7574 2.75736Z" fill="white"/>
</svg>
