<svg width="24" height="24" viewBox="0 0 24 24" fill="none" xmlns="http://www.w3.org/2000/svg">
<path fill-rule="evenodd" clip-rule="evenodd" d="M2 14C2 13.4477 2.44772 13 3 13H10C10.5523 13 11 13.4477 11 14V21C11 21.5523 10.5523 22 10 22H3C2.44772 22 2 21.5523 2 21V14ZM4 15V20H9V15H4Z" fill="#0EA4DF"/>
<path fill-rule="evenodd" clip-rule="evenodd" d="M2 3C2 2.44772 2.44772 2 3 2H10C10.5523 2 11 2.44772 11 3V10C11 10.5523 10.5523 11 10 11H3C2.44772 11 2 10.5523 2 10V3ZM4 4V9H9V4H4Z" fill="#0EA4DF"/>
<path fill-rule="evenodd" clip-rule="evenodd" d="M13 4C13 3.44772 13.4477 3 14 3H21C21.5523 3 22 3.44772 22 4C22 4.55228 21.5523 5 21 5H14C13.4477 5 13 4.55228 13 4Z" fill="#0EA4DF"/>
<path fill-rule="evenodd" clip-rule="evenodd" d="M13 9C13 8.44772 13.4477 8 14 8H21C21.5523 8 22 8.44772 22 9C22 9.55228 21.5523 10 21 10H14C13.4477 10 13 9.55228 13 9Z" fill="#0EA4DF"/>
<path fill-rule="evenodd" clip-rule="evenodd" d="M13 15C13 14.4477 13.4477 14 14 14H21C21.5523 14 22 14.4477 22 15C22 15.5523 21.5523 16 21 16H14C13.4477 16 13 15.5523 13 15Z" fill="#0EA4DF"/>
<path fill-rule="evenodd" clip-rule="evenodd" d="M13 20C13 19.4477 13.4477 19 14 19H21C21.5523 19 22 19.4477 22 20C22 20.5523 21.5523 21 21 21H14C13.4477 21 13 20.5523 13 20Z" fill="#0EA4DF"/>
</svg>
