<svg width="49" height="48" viewBox="0 0 49 48" fill="none" xmlns="http://www.w3.org/2000/svg">
<rect x="0.5" width="48" height="48" rx="12" fill="#EEF7FB"/>
<path fill-rule="evenodd" clip-rule="evenodd" d="M16.5 23C17.0523 23 17.5 23.4477 17.5 24V33H31.5V24C31.5 23.4477 31.9477 23 32.5 23C33.0523 23 33.5 23.4477 33.5 24V34C33.5 34.5523 33.0523 35 32.5 35H16.5C15.9477 35 15.5 34.5523 15.5 34V24C15.5 23.4477 15.9477 23 16.5 23Z" fill="#133379"/>
<path fill-rule="evenodd" clip-rule="evenodd" d="M13.5 19C13.5 18.4477 13.9477 18 14.5 18H34.5C35.0523 18 35.5 18.4477 35.5 19V24C35.5 24.5523 35.0523 25 34.5 25H14.5C13.9477 25 13.5 24.5523 13.5 24V19ZM15.5 20V23H33.5V20H15.5Z" fill="#133379"/>
<path fill-rule="evenodd" clip-rule="evenodd" d="M24.5 18C25.0523 18 25.5 18.4477 25.5 19V34C25.5 34.5523 25.0523 35 24.5 35C23.9477 35 23.5 34.5523 23.5 34V19C23.5 18.4477 23.9477 18 24.5 18Z" fill="#133379"/>
<path fill-rule="evenodd" clip-rule="evenodd" d="M20 15C19.6022 15 19.2206 15.158 18.9393 15.4393C18.658 15.7206 18.5 16.1022 18.5 16.5C18.5 16.8978 18.658 17.2794 18.9393 17.5607C19.2206 17.842 19.6022 18 20 18H23.154C23.0319 17.6806 22.8774 17.3294 22.6863 16.9819C22.0573 15.8383 21.1939 15 20 15ZM24.5 19C25.4806 18.8039 25.4805 18.8035 25.4804 18.8032L25.4803 18.8024L25.4799 18.8004L25.4788 18.795L25.4754 18.7789C25.4727 18.7658 25.4688 18.748 25.4639 18.7259C25.454 18.6816 25.4396 18.6197 25.4203 18.5426C25.3819 18.3888 25.3237 18.1734 25.2424 17.9169C25.081 17.4073 24.8233 16.7173 24.4387 16.0181C23.6927 14.6617 22.3061 13 20 13C19.0717 13 18.1815 13.3687 17.5251 14.0251C16.8687 14.6815 16.5 15.5717 16.5 16.5C16.5 17.4283 16.8687 18.3185 17.5251 18.9749C18.1815 19.6313 19.0717 20 20 20H24.5C24.7996 20 25.0834 19.8657 25.2733 19.634C25.4633 19.4023 25.5393 19.0977 25.4806 18.8039L24.5 19Z" fill="#133379"/>
<path fill-rule="evenodd" clip-rule="evenodd" d="M24.5613 16.0181C25.3073 14.6617 26.6939 13 29 13C29.9283 13 30.8185 13.3687 31.4749 14.0251C32.1313 14.6815 32.5 15.5717 32.5 16.5C32.5 17.4283 32.1313 18.3185 31.4749 18.9749C30.8185 19.6313 29.9283 20 29 20H24.5C24.2004 20 23.9166 19.8657 23.7267 19.634C23.5367 19.4023 23.4607 19.0977 23.5194 18.8039L24.5 19C23.5194 18.8039 23.5195 18.8035 23.5196 18.8032L23.5197 18.8024L23.5201 18.8004L23.5212 18.795L23.5246 18.7789C23.5274 18.7658 23.5312 18.748 23.5361 18.7259C23.546 18.6816 23.5604 18.6197 23.5797 18.5426C23.6181 18.3888 23.6764 18.1734 23.7576 17.9169C23.919 17.4073 24.1767 16.7173 24.5613 16.0181ZM25.846 18H29C29.3978 18 29.7794 17.842 30.0607 17.5607C30.342 17.2794 30.5 16.8978 30.5 16.5C30.5 16.1022 30.342 15.7206 30.0607 15.4393C29.7794 15.158 29.3978 15 29 15C27.8061 15 26.9427 15.8383 26.3137 16.9819C26.1226 17.3294 25.9681 17.6806 25.846 18ZM25.4803 19.1978C25.4802 19.1981 25.4802 19.198 25.4803 19.1977L25.4803 19.1978Z" fill="#133379"/>
</svg>
