<svg width="24" height="24" viewBox="0 0 24 24" fill="none" xmlns="http://www.w3.org/2000/svg">
<path fill-rule="evenodd" clip-rule="evenodd" d="M5 6C4.73478 6 4.48043 6.10536 4.29289 6.29289C4.10536 6.48043 4 6.73478 4 7V9C4 9.55228 3.55228 10 3 10C2.44772 10 2 9.55228 2 9V7C2 6.20435 2.31607 5.44129 2.87868 4.87868C3.44129 4.31607 4.20435 4 5 4H19C19.7957 4 20.5587 4.31607 21.1213 4.87868C21.6839 5.44129 22 6.20435 22 7V9C22 9.55228 21.5523 10 21 10C20.4477 10 20 9.55228 20 9V7C20 6.73478 19.8946 6.48043 19.7071 6.29289C19.5196 6.10536 19.2652 6 19 6H5ZM3 14C3.55228 14 4 14.4477 4 15V17C4 17.2652 4.10536 17.5196 4.29289 17.7071C4.48043 17.8946 4.73478 18 5 18H19C19.2652 18 19.5196 17.8946 19.7071 17.7071C19.8946 17.5196 20 17.2652 20 17V15C20 14.4477 20.4477 14 21 14C21.5523 14 22 14.4477 22 15V17C22 17.7957 21.6839 18.5587 21.1213 19.1213C20.5587 19.6839 19.7957 20 19 20H5C4.20435 20 3.44129 19.6839 2.87868 19.1213C2.31607 18.5587 2 17.7956 2 17V15C2 14.4477 2.44772 14 3 14Z" fill="#133379"/>
<path fill-rule="evenodd" clip-rule="evenodd" d="M21 10C20.4696 10 19.9609 10.2107 19.5858 10.5858C19.2107 10.9609 19 11.4696 19 12C19 12.5304 19.2107 13.0391 19.5858 13.4142C19.9609 13.7893 20.4696 14 21 14C21.5523 14 22 14.4477 22 15C22 15.5523 21.5523 16 21 16C19.9391 16 18.9217 15.5786 18.1716 14.8284C17.4214 14.0783 17 13.0609 17 12C17 10.9391 17.4214 9.92172 18.1716 9.17157C18.9217 8.42143 19.9391 8 21 8C21.5523 8 22 8.44772 22 9C22 9.55228 21.5523 10 21 10Z" fill="#133379"/>
<path fill-rule="evenodd" clip-rule="evenodd" d="M2 9C2 8.44772 2.44772 8 3 8C4.06087 8 5.07828 8.42143 5.82843 9.17157C6.57857 9.92172 7 10.9391 7 12C7 13.0609 6.57857 14.0783 5.82843 14.8284C5.07828 15.5786 4.06087 16 3 16C2.44772 16 2 15.5523 2 15C2 14.4477 2.44772 14 3 14C3.53043 14 4.03914 13.7893 4.41421 13.4142C4.78929 13.0391 5 12.5304 5 12C5 11.4696 4.78929 10.9609 4.41421 10.5858C4.03914 10.2107 3.53043 10 3 10C2.44772 10 2 9.55228 2 9Z" fill="#133379"/>
<path fill-rule="evenodd" clip-rule="evenodd" d="M13 4C13.5523 4 14 4.44772 14 5V7C14 7.55228 13.5523 8 13 8C12.4477 8 12 7.55228 12 7V5C12 4.44772 12.4477 4 13 4Z" fill="#133379"/>
<path fill-rule="evenodd" clip-rule="evenodd" d="M13 16C13.5523 16 14 16.4477 14 17V19C14 19.5523 13.5523 20 13 20C12.4477 20 12 19.5523 12 19V17C12 16.4477 12.4477 16 13 16Z" fill="#133379"/>
<path fill-rule="evenodd" clip-rule="evenodd" d="M13 10C13.5523 10 14 10.4477 14 11V13C14 13.5523 13.5523 14 13 14C12.4477 14 12 13.5523 12 13V11C12 10.4477 12.4477 10 13 10Z" fill="#133379"/>
</svg>
