<svg width="48" height="48" viewBox="0 0 48 48" fill="none" xmlns="http://www.w3.org/2000/svg">
<rect width="48" height="48" rx="12" fill="#EEF7FB"/>
<path fill-rule="evenodd" clip-rule="evenodd" d="M17.2 14.4C17.3889 14.1482 17.6852 14 18 14H30C30.3148 14 30.6111 14.1482 30.8 14.4L33.7939 18.3919C33.9232 18.5604 34 18.7712 34 19V31C34 31.7957 33.6839 32.5587 33.1213 33.1213C32.5587 33.6839 31.7957 34 31 34H17C16.2043 34 15.4413 33.6839 14.8787 33.1213C14.3161 32.5587 14 31.7957 14 31V19C14 18.7712 14.0768 18.5604 14.2061 18.3919L17.2 14.4ZM29.5 16L31 18H17L18.5 16H29.5ZM16 31V20H32V31C32 31.2652 31.8946 31.5196 31.7071 31.7071C31.5196 31.8946 31.2652 32 31 32H17C16.7348 32 16.4804 31.8946 16.2929 31.7071C16.1054 31.5196 16 31.2652 16 31ZM21 23C21 22.4477 20.5523 22 20 22C19.4477 22 19 22.4477 19 23C19 24.3261 19.5268 25.5979 20.4645 26.5355C21.4021 27.4732 22.6739 28 24 28C25.3261 28 26.5979 27.4732 27.5355 26.5355C28.4732 25.5979 29 24.3261 29 23C29 22.4477 28.5523 22 28 22C27.4477 22 27 22.4477 27 23C27 23.7956 26.6839 24.5587 26.1213 25.1213C25.5587 25.6839 24.7956 26 24 26C23.2044 26 22.4413 25.6839 21.8787 25.1213C21.3161 24.5587 21 23.7956 21 23Z" fill="#0EA4DF"/>
</svg>
