<svg width="24" height="24" viewBox="0 0 24 24" fill="none" xmlns="http://www.w3.org/2000/svg">
<path fill-rule="evenodd" clip-rule="evenodd" d="M18.6434 2.04422C19.5768 1.75703 20.6222 1.69304 21.4472 2.10557C21.6407 2.20234 21.7977 2.35926 21.8944 2.55279C22.307 3.37785 22.243 4.4232 21.9558 5.35659C21.6573 6.32661 21.0712 7.34298 20.2071 8.20711L17.0941 11.3201L18.7767 18.9856L17.8 19.2L18.7806 19.0039C18.9702 19.9521 18.546 20.7155 17.9 21.2C17.8298 21.2527 17.7529 21.2959 17.6714 21.3285L17.1714 21.5285C16.3399 21.8611 15.3245 21.7326 14.7 20.9C14.688 20.884 14.6765 20.8677 14.6655 20.8511L11.719 16.3892L10 17.5352V20C10 20.2652 9.89465 20.5196 9.70711 20.7071L8.70711 21.7071C8.49527 21.919 8.1996 22.0247 7.90147 21.9951C7.60333 21.9656 7.33414 21.804 7.16795 21.5547L5.2789 18.7211L2.44531 16.8321C2.19603 16.6659 2.03439 16.3967 2.00487 16.0985C1.97535 15.8004 2.08105 15.5047 2.2929 15.2929L3.2929 14.2929C3.48044 14.1054 3.73479 14 4.00001 14H6.46482L7.61083 12.281L3.14894 9.33447C3.13229 9.32347 3.11597 9.31198 3.10001 9.3C2.26739 8.67554 2.13894 7.66007 2.47153 6.82861C2.49134 6.77909 2.51507 6.73124 2.54251 6.6855L2.82583 6.21331C3.2484 5.41021 4.09888 5.03997 4.99612 5.21942L5.01441 5.22326L12.6799 6.90592L15.7929 3.79289C16.657 2.92877 17.6734 2.34269 18.6434 2.04422ZM16.8207 19.4026L15.0233 11.2144C14.9502 10.8814 15.0518 10.534 15.2929 10.2929L18.7929 6.79289C19.4288 6.15702 19.8427 5.4234 20.0442 4.76841C20.1672 4.36886 20.1977 4.04839 20.1847 3.81526C19.9516 3.80228 19.6311 3.83284 19.2316 3.95578C18.5766 4.15731 17.843 4.57123 17.2071 5.20711L13.7071 8.70711C13.466 8.94822 13.1187 9.04985 12.7856 8.97675L4.59746 7.17935C4.59072 7.17811 4.58464 7.17718 4.57919 7.17648C4.57224 7.18931 4.56501 7.20198 4.5575 7.2145L4.30973 7.62744C4.30056 7.66238 4.29966 7.68575 4.30018 7.69797L9.55107 11.1655C9.77301 11.3121 9.92742 11.5411 9.98016 11.8017C10.0329 12.0624 9.97959 12.3334 9.83206 12.5547L7.83206 15.5547C7.64659 15.8329 7.33436 16 7.00001 16H4.80278L6.55471 17.168C6.66456 17.2412 6.75882 17.3354 6.83206 17.4453L8.00001 19.1972V17C8.00001 16.6656 8.16711 16.3534 8.4453 16.168L11.4453 14.168C11.6666 14.0204 11.9376 13.9671 12.1983 14.0199C12.459 14.0726 12.6879 14.227 12.8345 14.4489L16.302 19.6998C16.3199 19.7006 16.3617 19.6983 16.4286 19.6715L16.7788 19.5315C16.8093 19.4994 16.8192 19.4792 16.8213 19.4742C16.8232 19.4699 16.8244 19.4662 16.825 19.4595C16.8257 19.4527 16.8265 19.4347 16.8207 19.4026Z" fill="#133379"/>
</svg>
