<svg width="49" height="48" viewBox="0 0 49 48" fill="none" xmlns="http://www.w3.org/2000/svg">
<rect x="0.5" width="48" height="48" rx="12" fill="#EEF7FB"/>
<path fill-rule="evenodd" clip-rule="evenodd" d="M31.1434 14.0442C32.0768 13.757 33.1222 13.693 33.9472 14.1056C34.1407 14.2023 34.2977 14.3593 34.3944 14.5528C34.807 15.3778 34.743 16.4232 34.4558 17.3566C34.1573 18.3266 33.5712 19.343 32.7071 20.2071L29.5941 23.3201L31.2767 30.9856L30.3 31.2L31.2806 31.0039C31.4702 31.9521 31.046 32.7155 30.4 33.2C30.3298 33.2527 30.2529 33.2959 30.1714 33.3285L29.6714 33.5285C28.8399 33.8611 27.8245 33.7326 27.2 32.9C27.188 32.884 27.1765 32.8677 27.1655 32.8511L24.219 28.3892L22.5 29.5352V32C22.5 32.2652 22.3946 32.5196 22.2071 32.7071L21.2071 33.7071C20.9953 33.919 20.6996 34.0247 20.4015 33.9951C20.1033 33.9656 19.8341 33.804 19.668 33.5547L17.7789 30.7211L14.9453 28.8321C14.696 28.6659 14.5344 28.3967 14.5049 28.0985C14.4754 27.8004 14.5811 27.5047 14.7929 27.2929L15.7929 26.2929C15.9804 26.1054 16.2348 26 16.5 26H18.9648L20.1108 24.281L15.6489 21.3345C15.6323 21.3235 15.616 21.312 15.6 21.3C14.7674 20.6755 14.6389 19.6601 14.9715 18.8286C14.9913 18.7791 15.0151 18.7312 15.0425 18.6855L15.3258 18.2133C15.7484 17.4102 16.5989 17.04 17.4961 17.2194L17.5144 17.2233L25.1799 18.9059L28.2929 15.7929C29.157 14.9288 30.1734 14.3427 31.1434 14.0442ZM29.3207 31.4026L27.5233 23.2144C27.4502 22.8814 27.5518 22.534 27.7929 22.2929L31.2929 18.7929C31.9288 18.157 32.3427 17.4234 32.5442 16.7684C32.6672 16.3689 32.6977 16.0484 32.6847 15.8153C32.4516 15.8023 32.1311 15.8328 31.7316 15.9558C31.0766 16.1573 30.343 16.5712 29.7071 17.2071L26.2071 20.7071C25.966 20.9482 25.6187 21.0499 25.2856 20.9767L17.0975 19.1793C17.0907 19.1781 17.0846 19.1772 17.0792 19.1765C17.0722 19.1893 17.065 19.202 17.0575 19.2145L16.8097 19.6274C16.8006 19.6624 16.7997 19.6858 16.8002 19.698L22.0511 23.1655C22.273 23.3121 22.4274 23.5411 22.4802 23.8017C22.5329 24.0624 22.4796 24.3334 22.3321 24.5547L20.3321 27.5547C20.1466 27.8329 19.8344 28 19.5 28H17.3028L19.0547 29.168C19.1646 29.2412 19.2588 29.3354 19.3321 29.4453L20.5 31.1972V29C20.5 28.6656 20.6671 28.3534 20.9453 28.168L23.9453 26.168C24.1666 26.0204 24.4376 25.9671 24.6983 26.0199C24.959 26.0726 25.1879 26.227 25.3345 26.4489L28.802 31.6998C28.8199 31.7006 28.8617 31.6983 28.9286 31.6715L29.2788 31.5315C29.3093 31.4994 29.3192 31.4792 29.3213 31.4742C29.3232 31.4699 29.3244 31.4662 29.325 31.4595C29.3257 31.4527 29.3265 31.4347 29.3207 31.4026Z" fill="#133379"/>
</svg>
