<svg width="48" height="48" viewBox="0 0 48 48" fill="none" xmlns="http://www.w3.org/2000/svg">
<g opacity="0.8">
<rect width="48" height="48" rx="12" fill="#EEF7FB"/>
<path fill-rule="evenodd" clip-rule="evenodd" d="M14.1818 19.2143C14.1818 18.6226 14.6702 18.1429 15.2727 18.1429H32.7273C33.3298 18.1429 33.8182 18.6226 33.8182 19.2143V27.7857C33.8182 28.3774 33.3298 28.8571 32.7273 28.8571H15.2727C14.6702 28.8571 14.1818 28.3774 14.1818 27.7857V19.2143ZM15.2727 16C13.4652 16 12 17.4391 12 19.2143V27.7857C12 29.5609 13.4652 31 15.2727 31H32.7273C34.5348 31 36 29.5609 36 27.7857V19.2143C36 17.4391 34.5348 16 32.7273 16H15.2727ZM24 22.4286C23.3975 22.4286 22.9091 22.9083 22.9091 23.5C22.9091 24.0917 23.3975 24.5714 24 24.5714C24.6025 24.5714 25.0909 24.0917 25.0909 23.5C25.0909 22.9083 24.6025 22.4286 24 22.4286ZM20.7273 23.5C20.7273 21.7248 22.1925 20.2857 24 20.2857C25.8075 20.2857 27.2727 21.7248 27.2727 23.5C27.2727 25.2752 25.8075 26.7143 24 26.7143C22.1925 26.7143 20.7273 25.2752 20.7273 23.5ZM16.3636 23.5C16.3636 22.9082 16.8521 22.4286 17.4546 22.4286H17.4655C18.068 22.4286 18.5564 22.9082 18.5564 23.5C18.5564 24.0917 18.068 24.5714 17.4655 24.5714H17.4546C16.8521 24.5714 16.3636 24.0917 16.3636 23.5ZM29.4546 23.5C29.4546 22.9082 29.943 22.4286 30.5455 22.4286H30.5564C31.1589 22.4286 31.6473 22.9082 31.6473 23.5C31.6473 24.0917 31.1589 24.5714 30.5564 24.5714H30.5455C29.943 24.5714 29.4546 24.0917 29.4546 23.5Z" fill="#133379"/>
</g>
</svg>
