<svg width="16" height="16" viewBox="0 0 16 16" fill="none" xmlns="http://www.w3.org/2000/svg">
<path fill-rule="evenodd" clip-rule="evenodd" d="M7.3335 2.66668C4.75617 2.66668 2.66683 4.75601 2.66683 7.33334C2.66683 9.91067 4.75617 12 7.3335 12C9.91083 12 12.0002 9.91067 12.0002 7.33334C12.0002 4.75601 9.91083 2.66668 7.3335 2.66668ZM1.3335 7.33334C1.3335 4.01963 4.01979 1.33334 7.3335 1.33334C10.6472 1.33334 13.3335 4.01963 13.3335 7.33334C13.3335 10.6471 10.6472 13.3333 7.3335 13.3333C4.01979 13.3333 1.3335 10.6471 1.3335 7.33334Z" fill="#69778C"/>
<path fill-rule="evenodd" clip-rule="evenodd" d="M10.6284 10.6286C10.8887 10.3682 11.3108 10.3682 11.5712 10.6286L14.4712 13.5286C14.7315 13.7889 14.7315 14.211 14.4712 14.4714C14.2108 14.7317 13.7887 14.7317 13.5284 14.4714L10.6284 11.5714C10.368 11.311 10.368 10.8889 10.6284 10.6286Z" fill="#69778C"/>
</svg>
