<svg width="49" height="48" viewBox="0 0 49 48" fill="none" xmlns="http://www.w3.org/2000/svg">
<rect x="0.5" width="48" height="48" rx="12" fill="#EEF7FB"/>
<path fill-rule="evenodd" clip-rule="evenodd" d="M15.5 14C14.9477 14 14.5 14.4477 14.5 15C14.5 15.5523 14.9477 16 15.5 16H17.6803L18.512 20.1551C18.5164 20.1835 18.522 20.2116 18.5288 20.2392L20.1993 26.5857C20.3366 27.2759 20.7122 27.8959 21.2605 28.3373C21.8062 28.7766 22.4884 29.011 23.1886 29H29.8914C30.5916 29.011 31.2738 28.7766 31.8195 28.3373C32.368 27.8958 32.7437 27.2754 32.8809 26.5848L34.4823 20.1873C34.5381 19.8946 34.4605 19.5922 34.2705 19.3626C34.0805 19.1329 33.798 19 33.5 19H20.3204L19.4806 14.8037C19.387 14.3364 18.9766 14 18.5 14H15.5ZM22.1608 26.1952L20.7207 21H32.2913L30.9185 26.1984C30.8723 26.4273 30.7474 26.6328 30.5654 26.7793C30.3826 26.9265 30.1538 27.0047 29.9192 27.0002L29.9 27H23.18L23.1608 27.0002C22.9262 27.0047 22.6974 26.9265 22.5146 26.7793C22.3318 26.6322 22.2066 26.4254 22.1608 26.1952ZM20.5 33C20.5 31.8954 21.3954 31 22.5 31C23.6046 31 24.5 31.8954 24.5 33C24.5 34.1046 23.6046 35 22.5 35C21.3954 35 20.5 34.1046 20.5 33ZM28.5 33C28.5 31.8954 29.3954 31 30.5 31C31.6046 31 32.5 31.8954 32.5 33C32.5 34.1046 31.6046 35 30.5 35C29.3954 35 28.5 34.1046 28.5 33Z" fill="#133379"/>
</svg>
