<svg width="48" height="48" viewBox="0 0 48 48" fill="none" xmlns="http://www.w3.org/2000/svg">
<rect y="3.05176e-05" width="48" height="48" rx="12" fill="#EEF7FB"/>
<path fill-rule="evenodd" clip-rule="evenodd" d="M17 18C16.7348 18 16.4804 18.1054 16.2929 18.2929C16.1054 18.4804 16 18.7348 16 19V21C16 21.5523 15.5523 22 15 22C14.4477 22 14 21.5523 14 21V19C14 18.2044 14.3161 17.4413 14.8787 16.8787C15.4413 16.3161 16.2044 16 17 16H31C31.7957 16 32.5587 16.3161 33.1213 16.8787C33.6839 17.4413 34 18.2043 34 19V21C34 21.5523 33.5523 22 33 22C32.4477 22 32 21.5523 32 21V19C32 18.7348 31.8946 18.4804 31.7071 18.2929C31.5196 18.1054 31.2652 18 31 18H17ZM15 26C15.5523 26 16 26.4477 16 27V29C16 29.2652 16.1054 29.5196 16.2929 29.7071C16.4804 29.8946 16.7348 30 17 30H31C31.2652 30 31.5196 29.8946 31.7071 29.7071C31.8946 29.5196 32 29.2652 32 29V27C32 26.4477 32.4477 26 33 26C33.5523 26 34 26.4477 34 27V29C34 29.7957 33.6839 30.5587 33.1213 31.1213C32.5587 31.6839 31.7957 32 31 32H17C16.2043 32 15.4413 31.6839 14.8787 31.1213C14.3161 30.5587 14 29.7956 14 29V27C14 26.4477 14.4477 26 15 26Z" fill="#0EA4DF"/>
<path fill-rule="evenodd" clip-rule="evenodd" d="M33 22C32.4696 22 31.9609 22.2107 31.5858 22.5858C31.2107 22.9609 31 23.4696 31 24C31 24.5304 31.2107 25.0391 31.5858 25.4142C31.9609 25.7893 32.4696 26 33 26C33.5523 26 34 26.4477 34 27C34 27.5523 33.5523 28 33 28C31.9391 28 30.9217 27.5786 30.1716 26.8284C29.4214 26.0783 29 25.0609 29 24C29 22.9391 29.4214 21.9217 30.1716 21.1716C30.9217 20.4214 31.9391 20 33 20C33.5523 20 34 20.4477 34 21C34 21.5523 33.5523 22 33 22Z" fill="#0EA4DF"/>
<path fill-rule="evenodd" clip-rule="evenodd" d="M14 21C14 20.4477 14.4477 20 15 20C16.0609 20 17.0783 20.4214 17.8284 21.1716C18.5786 21.9217 19 22.9391 19 24C19 25.0609 18.5786 26.0783 17.8284 26.8284C17.0783 27.5786 16.0609 28 15 28C14.4477 28 14 27.5523 14 27C14 26.4477 14.4477 26 15 26C15.5304 26 16.0391 25.7893 16.4142 25.4142C16.7893 25.0391 17 24.5304 17 24C17 23.4696 16.7893 22.9609 16.4142 22.5858C16.0391 22.2107 15.5304 22 15 22C14.4477 22 14 21.5523 14 21Z" fill="#0EA4DF"/>
<path fill-rule="evenodd" clip-rule="evenodd" d="M25 16C25.5523 16 26 16.4477 26 17V19C26 19.5523 25.5523 20 25 20C24.4477 20 24 19.5523 24 19V17C24 16.4477 24.4477 16 25 16Z" fill="#0EA4DF"/>
<path fill-rule="evenodd" clip-rule="evenodd" d="M25 28C25.5523 28 26 28.4477 26 29V31C26 31.5523 25.5523 32 25 32C24.4477 32 24 31.5523 24 31V29C24 28.4477 24.4477 28 25 28Z" fill="#0EA4DF"/>
<path fill-rule="evenodd" clip-rule="evenodd" d="M25 22C25.5523 22 26 22.4477 26 23V25C26 25.5523 25.5523 26 25 26C24.4477 26 24 25.5523 24 25V23C24 22.4477 24.4477 22 25 22Z" fill="#0EA4DF"/>
</svg>
