<svg width="24" height="24" viewBox="0 0 24 24" fill="none" xmlns="http://www.w3.org/2000/svg">
<g clip-path="url(#clip0_18_598)">
<path d="M8.26015 21.96C5.66015 21.96 3.00015 21.27 0.510149 19.89C0.100149 19.67 -0.0898507 19.19 0.0301493 18.75C0.150149 18.3 0.550149 18.01 1.03015 18.02C2.72015 18.08 4.39015 17.76 5.91015 17.05C2.20015 14.75 1.24015 11.51 1.13015 9.05999C0.990149 6.10999 2.04015 3.70999 2.09015 3.60999C2.23015 3.27999 2.55015 3.04999 2.90015 3.01999C3.25015 2.97999 3.61015 3.14999 3.82015 3.43999C4.73015 4.73999 5.96015 5.79999 7.38015 6.51999C8.51015 7.08999 9.74015 7.42999 11.0001 7.51999C10.9901 6.40999 11.3201 5.32999 11.9501 4.40999C12.5801 3.47999 13.4701 2.76999 14.5301 2.36999C15.5801 1.96999 16.7201 1.89999 17.8101 2.16999C18.6801 2.38999 19.4701 2.80999 20.1301 3.39999C20.9401 3.09999 21.7101 2.69999 22.4201 2.19999C22.7601 1.95999 23.2101 1.95999 23.5601 2.18999C23.9101 2.41999 24.0701 2.84999 23.9701 3.24999C23.6301 4.65999 22.9401 5.94999 21.9701 7.01999C21.9901 7.18999 22.0001 7.34999 22.0001 7.50999C22.0001 12.99 19.5702 17.56 15.3401 20.05C13.1802 21.33 10.7501 21.96 8.26015 21.96Z" fill="white"/>
</g>
<defs>
<clipPath id="clip0_18_598">
<rect width="24" height="24" fill="white"/>
</clipPath>
</defs>
</svg>
